<svg xmlns="http://www.w3.org/2000/svg" viewBox="0 0 153.62 38.36"><title>behr_logo</title><g id="Layer_2" data-name="Layer 2"><g id="Layer_2-2" data-name="Layer 2"><polygon points="49.73 0 49.73 37.03 57.08 37.03 57.08 22.19 67.78 22.19 67.78 37.03 75.13 37.03 75.13 0 67.78 0 67.78 14.84 57.08 14.84 57.08 0 49.73 0 49.73 0" fill="#fff" fill-rule="evenodd"/><polygon points="26.2 0 26.2 37.03 48.26 37.03 48.26 29.68 33.55 29.68 33.55 22.19 48.26 22.19 48.26 14.84 33.55 14.84 33.55 7.35 48.26 7.35 48.26 0 37.83 0 33.55 7.02 33.55 0 26.2 0 26.2 0" fill="#fff" fill-rule="evenodd"/><path d="M142.71,15.78a47.62,47.62,0,0,1-5.48-1.07c-1.67-.41-4.35.2-6.62.46a51.24,51.24,0,0,1-10.16-.33c-2.14-.4-7.82-1.47-11,1.67s-3.61,5-3.34,6.55a29.92,29.92,0,0,0,2,6.68A21.38,21.38,0,0,0,106.28,37h6.82c-.2-.73-1.61-1.4-2.68-1.54a7.46,7.46,0,0,1,3-2.54c1.6,1.34,4.14,3.68,5.41,4.48h5.55a2,2,0,0,0-1.94-1.74,1.84,1.84,0,0,1-1.74-1.33,14.85,14.85,0,0,0-1-2.68,10.91,10.91,0,0,1,5.68-.93c-.47,1.2-.94,5.28.6,6.68h5.82c-.2-1.07-.6-1.47-1.94-1.4s-1.27-.94-1-1.34,1.2-1.27,1.6-1.74c1.4.81,4.81,3.75,5.48,4.08h6.69c0-.67-.81-1.14-1.81-1.2a2.18,2.18,0,0,1-2.21-1.61c-.46-1.27-1.47-3.61-1.87-4.48a6.31,6.31,0,0,1,2.68-1.8c.67-.33,2.8-2.27,4.34-2.67s8.42-2.48,9.36-2.94a1,1,0,0,0-.13-1.88,10.19,10.19,0,0,1-2.54-1.4,1.29,1.29,0,0,1-.51-.74c-.1-.2-.36-.33-.9-.46s-2-.5-2.3-1a6.71,6.71,0,0,0-1.14-1.1c-.37.26-.57.5-1,.43-.57-.57-1.07-.6-1.51-1.2-.3.1-.43.26-.33.77Z" fill="#fff" fill-rule="evenodd"/><path d="M146,34.35h.88c.37,0,.79.14.79.63s-.52.6-1,.6H146v.23h.83l.94,1.46h.3l-.94-1.45a.83.83,0,0,0,.81-.83c0-.57-.31-.87-1-.87h-1.19v3.15H146V34.35Z" fill="#fff" fill-rule="evenodd"/><path d="M146.7,33A2.67,2.67,0,1,1,144,35.69,2.67,2.67,0,0,1,146.7,33v.24a2.36,2.36,0,0,0-2.4,2.43,2.4,2.4,0,1,0,4.79,0,2.36,2.36,0,0,0-2.39-2.42V33Z" fill="#fff" fill-rule="evenodd"/><path d="M7.35,14.83h7.09a3.74,3.74,0,0,0,0-7.47H7.35V7.09L11.9,0h1.54c6.35.07,11.16,4.48,12,9.56s-1.07,7.75-2.61,9.16c2.14,2.4,2.48,4.41,2.48,7.55.13,7-6,10.76-10.56,10.76H0V0H7.35V14.83Zm0,14.84h7.09a3.74,3.74,0,0,0,0-7.47H7.35v7.48Z" fill="#fff" fill-rule="evenodd"/><path d="M84.49,22.19h3.14c3.48,0,5.55,2.21,5.88,5.68s-.26,7,2.94,9.16h8a9.76,9.76,0,0,1-4.15-7.62c-.06-2.81-.46-7-3.14-8.49,2.81-.67,6.08-4.94,5.62-10.16S98.39,0,90.17,0H89L84.49,7V0H77.14V37h7.35V22.19Zm0-14.84h7.08a3.74,3.74,0,1,1,0,7.47H84.49V7.35Z" fill="#fff" fill-rule="evenodd"/></g></g></svg>