<?xml version="1.0" encoding="utf-8"?>
<!-- Generator: Adobe Illustrator 23.1.1, SVG Export Plug-In . SVG Version: 6.00 Build 0)  -->
<svg version="1.1" id="Layer_1" xmlns="http://www.w3.org/2000/svg" xmlns:xlink="http://www.w3.org/1999/xlink" x="0px" y="0px"
	 viewBox="0 0 300 250" style="enable-background:new 0 0 300 250;" xml:space="preserve">
<style type="text/css">
	.st0{fill:none;}
	.st1{fill:#FFFFFF;}
</style>
<title>txt1</title>
<g>
	<g id="Rect">
		<rect class="st0" width="300" height="250"/>
	</g>
</g>
<g>
	<path class="st1" d="M17.2,111h-3.1V93.8h-3.9V91h10.9v2.9h-3.9V111z"/>
	<path class="st1" d="M34.2,104.6c0,2.2-0.3,3.6-1.1,4.7c-0.9,1.3-2.4,1.9-4.3,1.9s-3.4-0.7-4.3-1.9c-0.8-1.1-1.1-2.5-1.1-4.7v-7.3
		c0-2.2,0.3-3.6,1.1-4.7c0.9-1.3,2.4-1.9,4.3-1.9s3.4,0.7,4.3,1.9c0.8,1.1,1.1,2.5,1.1,4.7V104.6z M26.3,104.6
		c0,1.6,0.1,2.1,0.4,2.7c0.4,0.7,1.1,1.1,2,1.1s1.6-0.4,2-1.1c0.3-0.6,0.4-1.1,0.4-2.7v-7.2c0-1.6-0.1-2.1-0.4-2.7
		c-0.4-0.7-1.1-1.1-2-1.1s-1.6,0.4-2,1.1c-0.3,0.6-0.4,1.1-0.4,2.7V104.6z"/>
	<path class="st1" d="M37.3,91h4.9c3.9,0,5.8,2,5.8,6.3v7.5c0,4.3-1.9,6.3-5.8,6.3h-4.9V91z M41.9,108.1c2.2,0,3-1.1,3-4.3v-5.8
		c0-3.1-0.8-4.3-3-4.3h-1.5v14.3H41.9z"/>
	<path class="st1" d="M54,106.6l-0.8,4.3h-3L54,91h4.2l4,20h-3.2l-0.8-4.3H54z M56.1,94.8l-1.6,9h3.3L56.1,94.8z"/>
	<path class="st1" d="M70,111h-3.1v-7.8L62.4,91h3.4l2.7,8.5l2.8-8.5h3.4L70,103.2V111z"/>
	<path class="st1" d="M14.7,135.1h6.1v2.8h-9.2v-20h3.1V135.1z"/>
	<path class="st1" d="M32.1,120.8h-6v5.3h4.4v2.9h-4.4v6.2h6v2.8H23v-20h9.1V120.8z"/>
	<path class="st1" d="M41.1,138H38v-17.2h-3.9V118H45v2.9h-3.9V138z"/>
	<path class="st1" d="M50.1,121.2l-1.8,4.1h-1.1l1.3-4.1h-1.3V118h2.9V121.2z"/>
	<path class="st1" d="M60.7,123.6c-0.5-2-1.4-3-2.6-3c-1.1,0-2,0.9-2,2c0,0.7,0.3,1.4,0.8,2c0.5,0.6,0.5,0.6,2.6,2.2
		c1.7,1.3,2.3,1.9,3,2.7c0.8,1,1.3,2.3,1.3,3.7c0,3-2.2,5.1-5.5,5.1c-3.4,0-5.4-1.8-6.1-5.6l3-0.9c0.4,2.4,1.4,3.6,3.1,3.6
		c1.4,0,2.3-0.9,2.3-2.3c0-1.3-0.6-2.1-3-3.9c-2.8-2.2-2.9-2.3-3.7-3.3c-0.7-0.9-1.1-2.1-1.1-3.3c0-2.9,2.2-4.9,5.2-4.9
		c2.8,0,4.8,1.7,5.6,5L60.7,123.6z"/>
	<path class="st1" d="M78.7,123.6c-0.5-2-1.4-3-2.6-3c-1.1,0-2,0.9-2,2c0,0.7,0.3,1.4,0.8,2c0.5,0.6,0.5,0.6,2.6,2.2
		c1.7,1.3,2.3,1.9,3,2.7c0.8,1,1.3,2.3,1.3,3.7c0,3-2.2,5.1-5.5,5.1c-3.4,0-5.4-1.8-6.1-5.6l3-0.9c0.4,2.4,1.4,3.6,3.1,3.6
		c1.4,0,2.3-0.9,2.3-2.3c0-1.3-0.6-2.1-3-3.9c-2.8-2.2-2.9-2.3-3.7-3.3c-0.7-0.9-1.1-2.1-1.1-3.3c0-2.9,2.2-4.9,5.2-4.9
		c2.8,0,4.8,1.7,5.6,5L78.7,123.6z"/>
	<path class="st1" d="M90.4,138h-3.1v-17.2h-3.9V118h10.9v2.9h-3.9V138z"/>
	<path class="st1" d="M98.6,133.6l-0.8,4.3h-3l3.8-20h4.2l4.1,20h-3.2l-0.8-4.3H98.6z M100.7,121.8l-1.6,9h3.3L100.7,121.8z"/>
	<path class="st1" d="M112.4,138h-3.1v-20h3.1V138z"/>
	<path class="st1" d="M126.9,138h-2.8l-5.4-13.3V138h-2.9v-20h3.1l5,12.4V118h2.9V138z"/>
	<path class="st1" d="M134.5,125h-1.2v-5.6H132v-1h3.8v1h-1.3V125z M141.2,125h-1.1v-4.4l-1,4.4h-0.7l-1-4.4v4.4h-1.1v-6.6h1.6
		l0.9,3.8l0.9-3.8h1.6V125z"/>
</g>
</svg>
