<svg xmlns="http://www.w3.org/2000/svg" viewBox="0 0 300 250"><title>txt1</title><g id="Layer_2" data-name="Layer 2"><g id="Rect"><rect width="300" height="250" fill="none"/></g><g id="TODAY_LET_S_STAIN" data-name="TODAYLET’SSTAIN"><path d="M173.08,91.63h-3.29V73.33h-4.13v-3h11.58v3h-4.16Z" fill="#fff"/><path d="M191.8,84.85c0,2.4-.35,3.84-1.21,5.05a6.21,6.21,0,0,1-9.22,0c-.86-1.21-1.21-2.65-1.21-5.05V77.07c0-2.4.35-3.84,1.21-5a6.21,6.21,0,0,1,9.22,0c.86,1.21,1.21,2.65,1.21,5Zm-8.35-.06a5.88,5.88,0,0,0,.42,2.91,2.51,2.51,0,0,0,4.22,0,5.54,5.54,0,0,0,.42-2.91V77.14c0-1.73-.07-2.24-.42-2.91a2.5,2.5,0,0,0-4.22,0,5.85,5.85,0,0,0-.42,2.91Z" fill="#fff"/><path d="M195.8,70.29H201c4.19,0,6.17,2.14,6.17,6.69v8c0,4.54-2,6.68-6.17,6.68H195.8Zm4.93,18.3c2.34,0,3.17-1.21,3.17-4.54V77.87c0-3.36-.83-4.54-3.17-4.54H199.1V88.59Z" fill="#fff"/><path d="M214.27,87l-.87,4.64h-3.23l4.1-21.34h4.51l4.32,21.34h-3.39l-.9-4.64Zm2.24-12.6L214.78,84h3.49Z" fill="#fff"/><path d="M232,91.63h-3.3V83.31l-4.8-13h3.65l2.84,9,3-9h3.58l-4.92,13Z" fill="#fff"/><path d="M170.36,117.36h6.56v3h-9.85V99.06h3.29Z" fill="#fff"/><path d="M189.59,102.1h-6.36v5.63h4.7v3h-4.7v6.59h6.36v3h-9.66V99.06h9.66Z" fill="#fff"/><path d="M199.8,120.4h-3.29V102.1h-4.13v-3H204v3H199.8Z" fill="#fff"/><path d="M210.14,102.49l-1.89,4.41H207l1.4-4.41H207V99.06h3.1Z" fill="#fff"/><path d="M222,105c-.51-2.11-1.47-3.16-2.81-3.16a2.11,2.11,0,0,0-2.15,2.17,3.2,3.2,0,0,0,.9,2.15,15.64,15.64,0,0,0,2.81,2.33,18,18,0,0,1,3.17,2.88,6.2,6.2,0,0,1,1.38,3.9c0,3.24-2.37,5.44-5.86,5.44-3.65,0-5.79-2-6.46-6l3.17-.93c.41,2.56,1.53,3.84,3.29,3.84a2.31,2.31,0,0,0,2.43-2.43c0-1.35-.67-2.21-3.16-4.16-3-2.34-3.11-2.47-3.91-3.49a5.76,5.76,0,0,1-1.18-3.55c0-3.07,2.3-5.25,5.57-5.25,3,0,5.08,1.83,6,5.35Z" fill="#fff"/><path d="M175.1,133.79c-.51-2.12-1.47-3.17-2.82-3.17a2.11,2.11,0,0,0-2.14,2.17,3.2,3.2,0,0,0,.9,2.15,15.64,15.64,0,0,0,2.81,2.33,18.42,18.42,0,0,1,3.17,2.88,6.28,6.28,0,0,1,1.37,3.91c0,3.23-2.36,5.44-5.85,5.44-3.65,0-5.79-2-6.46-6l3.16-.93c.42,2.56,1.54,3.84,3.3,3.84A2.31,2.31,0,0,0,175,144c0-1.34-.67-2.21-3.17-4.16-3-2.34-3.1-2.46-3.9-3.49a5.76,5.76,0,0,1-1.18-3.55c0-3.07,2.3-5.25,5.56-5.25,3,0,5.09,1.83,6,5.35Z" fill="#fff"/><path d="M188.25,149.18H185V130.87h-4.13v-3h11.58v3h-4.16Z" fill="#fff"/><path d="M197.66,144.54l-.87,4.64h-3.23l4.1-21.35h4.51l4.32,21.35H203.1l-.9-4.64Zm2.24-12.61-1.73,9.57h3.49Z" fill="#fff"/><path d="M213,149.18h-3.3V127.83H213Z" fill="#fff"/><path d="M229.08,149.18h-2.94L220.38,135v14.21h-3.14V127.83h3.33L226,141.11V127.83h3.13Z" fill="#fff"/></g></g></svg>