<svg xmlns="http://www.w3.org/2000/svg" viewBox="0 0 300 250"><title>txt1</title><g id="Layer_2" data-name="Layer 2"><g id="Rect"><rect width="300" height="250" fill="none"/></g><g id="Today_let_s_stain" data-name="Todaylet’s stain"><path d="M17.21,111H14.12V93.83H10.25V91H21.11v2.85h-3.9Z" fill="#fff"/><path d="M34.16,104.63A7.63,7.63,0,0,1,33,109.37a5,5,0,0,1-4.32,1.92,5,5,0,0,1-4.32-1.92,7.63,7.63,0,0,1-1.14-4.74V97.34a7.63,7.63,0,0,1,1.14-4.74,5,5,0,0,1,4.32-1.92A5,5,0,0,1,33,92.6a7.63,7.63,0,0,1,1.14,4.74Zm-7.83-.06a5.52,5.52,0,0,0,.39,2.73,2.36,2.36,0,0,0,4,0,5.18,5.18,0,0,0,.39-2.73V97.4a5.18,5.18,0,0,0-.39-2.73,2.35,2.35,0,0,0-4,0,5.52,5.52,0,0,0-.39,2.73Z" fill="#fff"/><path d="M37.31,91H42.2C46.13,91,48,93,48,97.25v7.47C48,109,46.13,111,42.2,111H37.31Zm4.62,17.16c2.19,0,3-1.14,3-4.26V98.09c0-3.15-.78-4.26-3-4.26H40.4v14.31Z" fill="#fff"/><path d="M54,106.64,53.21,111h-3L54,91h4.23l4,20H59.12l-.84-4.35Zm2.1-11.82-1.62,9h3.27Z" fill="#fff"/><path d="M70,111H67v-7.8L62.45,91h3.42l2.67,8.46L71.3,91h3.36L70,103.19Z" fill="#fff"/><path d="M14.66,135.14h6.15V138H11.57V118h3.09Z" fill="#fff"/><path d="M32.09,120.83h-6v5.28h4.41V129H26.12v6.18h6V138H23V118h9.06Z" fill="#fff"/><path d="M41.06,138H38V120.83H34.1V118H45v2.85h-3.9Z" fill="#fff"/><path d="M50.15,121.19l-1.77,4.14H47.24l1.32-4.14H47.24V118h2.91Z" fill="#fff"/><path d="M60.71,123.56c-.48-2-1.38-3-2.64-3a2,2,0,0,0-2,2,3,3,0,0,0,.84,2,14.35,14.35,0,0,0,2.64,2.19,16.72,16.72,0,0,1,3,2.7,5.85,5.85,0,0,1,1.29,3.66c0,3-2.22,5.1-5.49,5.1-3.42,0-5.43-1.83-6.06-5.64l3-.87c.39,2.4,1.44,3.6,3.09,3.6a2.17,2.17,0,0,0,2.28-2.28c0-1.26-.63-2.07-3-3.9-2.79-2.19-2.91-2.31-3.66-3.27a5.42,5.42,0,0,1-1.11-3.33,4.87,4.87,0,0,1,5.22-4.92c2.85,0,4.77,1.71,5.61,5Z" fill="#fff"/><path d="M78.68,123.56c-.48-2-1.38-3-2.64-3a2,2,0,0,0-2,2,3,3,0,0,0,.84,2,14.35,14.35,0,0,0,2.64,2.19,16.72,16.72,0,0,1,3,2.7,5.85,5.85,0,0,1,1.29,3.66c0,3-2.22,5.1-5.49,5.1-3.42,0-5.43-1.83-6.06-5.64l3-.87c.39,2.4,1.44,3.6,3.09,3.6a2.17,2.17,0,0,0,2.28-2.28c0-1.26-.63-2.07-3-3.9-2.79-2.19-2.91-2.31-3.66-3.27a5.42,5.42,0,0,1-1.11-3.33A4.87,4.87,0,0,1,76,117.68c2.85,0,4.77,1.71,5.61,5Z" fill="#fff"/><path d="M90.41,138H87.32V120.83H83.45V118H94.31v2.85h-3.9Z" fill="#fff"/><path d="M98.63,133.64,97.82,138h-3l3.84-20h4.23l4,20h-3.18l-.84-4.35Zm2.1-11.82-1.62,9h3.27Z" fill="#fff"/><path d="M112.43,138h-3.09V118h3.09Z" fill="#fff"/><path d="M126.88,138h-2.76l-5.4-13.32V138h-2.94V118h3.12l5,12.45V118h2.94Z" fill="#fff"/></g></g></svg>