<svg xmlns="http://www.w3.org/2000/svg" viewBox="0 0 300 250"><title>txt2</title><g id="Layer_2" data-name="Layer 2"><g id="Rect"><rect width="300" height="250" fill="none"/></g><g id="your_interior_projects_with" data-name="yourinteriorprojectswith"><path d="M18.14,81H15.05v-7.8L10.55,61H14l2.67,8.46L19.4,61h3.36L18.14,73.19Z" fill="#fff"/><path d="M35.45,74.63a7.63,7.63,0,0,1-1.14,4.74A5,5,0,0,1,30,81.29a5,5,0,0,1-4.32-1.92,7.63,7.63,0,0,1-1.14-4.74V67.34a7.63,7.63,0,0,1,1.14-4.74A5,5,0,0,1,30,60.68a5,5,0,0,1,4.32,1.92,7.63,7.63,0,0,1,1.14,4.74Zm-7.83-.06A5.52,5.52,0,0,0,28,77.3a2.36,2.36,0,0,0,4,0,5.18,5.18,0,0,0,.39-2.73V67.4A5.18,5.18,0,0,0,32,64.67a2.36,2.36,0,0,0-4,0,5.52,5.52,0,0,0-.39,2.73Z" fill="#fff"/><path d="M49.19,61V74.54c0,2.52-.3,3.81-1.14,4.95a5,5,0,0,1-4.14,1.8,5,5,0,0,1-4.17-1.8c-.84-1.14-1.14-2.43-1.14-4.95V61h3.09V75.05c0,2.37.63,3.33,2.22,3.33s2.19-1,2.19-3.33V61Z" fill="#fff"/><path d="M55.61,81H52.52V61h4.83a5.54,5.54,0,0,1,4,1.2,5.64,5.64,0,0,1,1.8,4.53c0,2.52-.9,4.26-2.7,5.19L63.35,81H60.11l-2.64-8.22H55.61Zm1.14-11.07c1.32,0,1.92-.15,2.4-.63a4.26,4.26,0,0,0,0-4.83c-.48-.48-1.08-.63-2.4-.63H55.61v6.09Z" fill="#fff"/><path d="M14.66,108H11.57V88h3.09Z" fill="#fff"/><path d="M29.12,108H26.36L21,94.67V108H18V88h3.12l5,12.45V88h2.94Z" fill="#fff"/><path d="M38.54,108H35.45V90.83H31.58V88H42.44v2.85h-3.9Z" fill="#fff"/><path d="M54,90.83H48v5.28H52.4V99H48v6.18h6V108H44.9V88H54Z" fill="#fff"/><path d="M59.48,108H56.39V88h4.83a5.54,5.54,0,0,1,4,1.2A5.64,5.64,0,0,1,67,93.71c0,2.52-.9,4.26-2.7,5.19L67.22,108H64l-2.64-8.22H59.48Zm1.14-11.07c1.32,0,1.92-.15,2.4-.63a4.26,4.26,0,0,0,0-4.83c-.48-.48-1.08-.63-2.4-.63H59.48v6.09Z" fill="#fff"/><path d="M73.07,108H70V88h3.09Z" fill="#fff"/><path d="M87.14,101.63A7.63,7.63,0,0,1,86,106.37a5.82,5.82,0,0,1-8.64,0,7.63,7.63,0,0,1-1.14-4.74V94.34a7.63,7.63,0,0,1,1.14-4.74,5.82,5.82,0,0,1,8.64,0,7.63,7.63,0,0,1,1.14,4.74Zm-7.83-.06a5.52,5.52,0,0,0,.39,2.73,2.35,2.35,0,0,0,4,0,5.18,5.18,0,0,0,.39-2.73V94.4a5.18,5.18,0,0,0-.39-2.73,2.36,2.36,0,0,0-4,0,5.52,5.52,0,0,0-.39,2.73Z" fill="#fff"/><path d="M93.38,108H90.29V88h4.83a5.54,5.54,0,0,1,4,1.2,5.64,5.64,0,0,1,1.8,4.53c0,2.52-.9,4.26-2.7,5.19l2.94,9.09H97.88l-2.64-8.22H93.38Zm1.14-11.07c1.32,0,1.92-.15,2.4-.63a4.26,4.26,0,0,0,0-4.83c-.48-.48-1.08-.63-2.4-.63H93.38v6.09Z" fill="#fff"/><path d="M14.66,135H11.57V115H16.7c2,0,3.27.39,4.2,1.29a6,6,0,0,1,1.59,4.65c0,2.16-.51,3.66-1.59,4.68-.93.9-2.19,1.29-4.2,1.29h-2ZM16,124c2.49,0,3.27-.75,3.27-3.12s-.78-3.09-3.27-3.09H14.66V124Z" fill="#fff"/><path d="M28.25,135H25.16V115H30a5.54,5.54,0,0,1,4,1.2,5.64,5.64,0,0,1,1.8,4.53c0,2.52-.9,4.26-2.7,5.19L36,135H32.75l-2.64-8.22H28.25Zm1.14-11.07c1.32,0,1.92-.15,2.4-.63a4.26,4.26,0,0,0,0-4.83c-.48-.48-1.08-.63-2.4-.63H28.25v6.09Z" fill="#fff"/><path d="M49.46,128.63a7.63,7.63,0,0,1-1.14,4.74A5.06,5.06,0,0,1,44,135.29a5.06,5.06,0,0,1-4.32-1.92,7.63,7.63,0,0,1-1.14-4.74v-7.29a7.63,7.63,0,0,1,1.14-4.74A5,5,0,0,1,44,114.68a5,5,0,0,1,4.32,1.92,7.63,7.63,0,0,1,1.14,4.74Zm-7.83-.06A5.52,5.52,0,0,0,42,131.3a2.36,2.36,0,0,0,4,0,5.18,5.18,0,0,0,.39-2.73V121.4a5.18,5.18,0,0,0-.39-2.73,2.36,2.36,0,0,0-4,0,5.52,5.52,0,0,0-.39,2.73Z" fill="#fff"/><path d="M57.56,115V130.1c0,2.1-.21,3-.87,3.78A3.67,3.67,0,0,1,53.57,135H51.71v-2.91h.72c1.5,0,2-.57,2-2.22V115Z" fill="#fff"/><path d="M70,117.83H64v5.28h4.41V126H64v6.18h6V135H60.92V115H70Z" fill="#fff"/><path d="M80.09,121.49v-.42c0-2.31-.81-3.48-2.34-3.48a2,2,0,0,0-1.83,1,5.08,5.08,0,0,0-.48,2.88v6.66a8.57,8.57,0,0,0,.33,3,2.08,2.08,0,0,0,2,1.29,2.21,2.21,0,0,0,2.22-2,11.3,11.3,0,0,0,.18-2.43h3.12v.69c0,4.35-1.89,6.63-5.49,6.63a4.94,4.94,0,0,1-4.47-2.22c-.75-1.23-1-2.4-1-5.37v-5.61c0-3.18.24-4.29,1.17-5.55a5,5,0,0,1,4.23-1.86c3.42,0,5.43,2.28,5.43,6.21v.6Z" fill="#fff"/><path d="M92.21,135H89.12V117.83H85.25V115H96.1v2.85H92.21Z" fill="#fff"/><path d="M106.12,120.56c-.48-2-1.38-3-2.64-3a2,2,0,0,0-2,2,3,3,0,0,0,.84,2,14.35,14.35,0,0,0,2.64,2.19,16.72,16.72,0,0,1,3,2.7,5.85,5.85,0,0,1,1.29,3.66c0,3-2.22,5.1-5.49,5.1-3.42,0-5.43-1.83-6.06-5.64l3-.87c.39,2.4,1.44,3.6,3.09,3.6A2.17,2.17,0,0,0,106,130.1c0-1.26-.63-2.07-3-3.9-2.79-2.19-2.91-2.31-3.66-3.27a5.42,5.42,0,0,1-1.11-3.33,4.87,4.87,0,0,1,5.22-4.92c2.85,0,4.77,1.71,5.61,5Z" fill="#fff"/><path d="M22.28,162,19.7,148.43,17.27,162H14.39l-3.75-20h3l2.28,12.9,2.4-12.9H21l2.64,12.9,2-12.9h2.91l-3.39,20Z" fill="#fff"/><path d="M34.31,162H31.22V142h3.09Z" fill="#fff"/><path d="M43.73,162H40.64V144.83H36.77V142H47.63v2.85h-3.9Z" fill="#fff"/><path d="M53.18,153.17V162H50.09V142h3.09v8.34h4.41V142h3.09v20H57.59v-8.82Z" fill="#fff"/></g></g></svg>