<svg xmlns="http://www.w3.org/2000/svg" viewBox="0 0 300 250"><title>txt2</title><g id="Layer_2" data-name="Layer 2"><g id="Rect"><rect width="300" height="250" fill="none"/></g><g id="WITH_THE_COLOR_RICHNESS_OF_OIL_" data-name="WITH THE COLOR RICHNESS OF OIL,"><path d="M178.49,91.63l-2.75-14.46-2.59,14.46h-3.07l-4-21.34h3.2l2.43,13.76,2.56-13.76h2.84l2.82,13.76,2.14-13.76h3.11l-3.62,21.34Z" fill="#fff"/><path d="M192,91.63h-3.29V70.29H192Z" fill="#fff"/><path d="M202.65,91.63h-3.3V73.33h-4.12v-3h11.58v3h-4.16Z" fill="#fff"/><path d="M213.37,82.23v9.4h-3.3V70.29h3.3v8.9h4.7v-8.9h3.3V91.63h-3.3v-9.4Z" fill="#fff"/><path d="M237.43,91.63h-3.29V73.33H230v-3h11.58v3h-4.16Z" fill="#fff"/><path d="M248.15,82.23v9.4h-3.29V70.29h3.29v8.9h4.71v-8.9h3.29V91.63h-3.29v-9.4Z" fill="#fff"/><path d="M270,73.33h-6.37V79h4.7v3h-4.7v6.59H270v3h-9.66V70.29H270Z" fill="#fff"/><path d="M175.1,105.55v-.45c0-2.46-.86-3.71-2.5-3.71a2.08,2.08,0,0,0-1.95,1.06c-.41.7-.51,1.34-.51,3.07v7.1a9.35,9.35,0,0,0,.35,3.17,2.21,2.21,0,0,0,2.11,1.37,2.36,2.36,0,0,0,2.37-2.11,11.76,11.76,0,0,0,.19-2.59h3.33v.74c0,4.64-2,7.07-5.86,7.07a5.25,5.25,0,0,1-4.76-2.37c-.8-1.31-1-2.56-1-5.73v-6c0-3.39.26-4.58,1.25-5.92a5.35,5.35,0,0,1,4.51-2c3.65,0,5.79,2.43,5.79,6.62v.64Z" fill="#fff"/><path d="M193.75,113.16c0,2.4-.35,3.84-1.21,5.06a6.21,6.21,0,0,1-9.22,0c-.86-1.22-1.21-2.66-1.21-5.06v-7.77c0-2.4.35-3.84,1.21-5.06a6.23,6.23,0,0,1,9.22,0c.86,1.22,1.21,2.66,1.21,5.06Zm-8.35-.06a5.85,5.85,0,0,0,.42,2.91,2.51,2.51,0,0,0,4.22,0c.35-.67.42-1.18.42-2.91v-7.65a5.54,5.54,0,0,0-.42-2.91,2.51,2.51,0,0,0-4.22,0,5.88,5.88,0,0,0-.42,2.91Z" fill="#fff"/><path d="M201.05,116.91h6.56v3h-9.86V98.61h3.3Z" fill="#fff"/><path d="M222.3,113.16c0,2.4-.35,3.84-1.22,5.06a6.2,6.2,0,0,1-9.21,0c-.87-1.22-1.22-2.66-1.22-5.06v-7.77c0-2.4.35-3.84,1.22-5.06a6.22,6.22,0,0,1,9.21,0c.87,1.22,1.22,2.66,1.22,5.06ZM214,113.1a5.89,5.89,0,0,0,.41,2.91,2.52,2.52,0,0,0,4.23,0c.35-.67.41-1.18.41-2.91v-7.65c0-1.72-.06-2.24-.41-2.91a2.52,2.52,0,0,0-4.23,0,5.91,5.91,0,0,0-.41,2.91Z" fill="#fff"/><path d="M229.59,120H226.3V98.61h5.15a5.88,5.88,0,0,1,4.22,1.28,6,6,0,0,1,1.92,4.83c0,2.69-1,4.54-2.88,5.53l3.14,9.7h-3.46l-2.81-8.77h-2Zm1.22-11.81c1.41,0,2.05-.16,2.56-.67a4.54,4.54,0,0,0,0-5.15c-.51-.51-1.15-.67-2.56-.67h-1.22v6.49Z" fill="#fff"/><path d="M170.36,148.72h-3.29V127.38h5.15a5.88,5.88,0,0,1,4.22,1.28,6,6,0,0,1,1.92,4.83c0,2.69-1,4.54-2.88,5.53l3.14,9.7h-3.46L172.35,140h-2Zm1.22-11.81c1.41,0,2-.16,2.56-.67a4.54,4.54,0,0,0,0-5.15c-.51-.51-1.15-.67-2.56-.67h-1.22v6.49Z" fill="#fff"/><path d="M185.5,148.72h-3.3V127.38h3.3Z" fill="#fff"/><path d="M197.75,134.32v-.45c0-2.46-.86-3.71-2.49-3.71a2.07,2.07,0,0,0-1.95,1.06c-.42.7-.52,1.34-.52,3.07v7.1a9,9,0,0,0,.36,3.17,2.22,2.22,0,0,0,2.11,1.38,2.38,2.38,0,0,0,2.37-2.12,12.47,12.47,0,0,0,.19-2.59h3.33V142c0,4.64-2,7.07-5.86,7.07a5.28,5.28,0,0,1-4.77-2.37c-.8-1.31-1-2.56-1-5.73v-6c0-3.39.25-4.58,1.25-5.92a5.33,5.33,0,0,1,4.51-2c3.65,0,5.79,2.43,5.79,6.62v.64Z" fill="#fff"/><path d="M208.19,139.31v9.41h-3.3V127.38h3.3v8.89h4.7v-8.89h3.3v21.34h-3.3v-9.41Z" fill="#fff"/><path d="M232.22,148.72h-2.95l-5.76-14.21v14.21h-3.13V127.38h3.33l5.37,13.28V127.38h3.14Z" fill="#fff"/><path d="M246.07,130.42h-6.36v5.63h4.7v3h-4.7v6.59h6.36v3h-9.66V127.38h9.66Z" fill="#fff"/><path d="M257.75,133.33c-.51-2.11-1.47-3.17-2.81-3.17a2.12,2.12,0,0,0-2.15,2.18,3.2,3.2,0,0,0,.9,2.14,15,15,0,0,0,2.81,2.34,16.93,16.93,0,0,1,3.17,2.88,6.18,6.18,0,0,1,1.38,3.9c0,3.23-2.37,5.44-5.86,5.44-3.65,0-5.79-1.95-6.46-6l3.17-.92c.41,2.56,1.53,3.84,3.29,3.84a2.32,2.32,0,0,0,2.43-2.44c0-1.34-.67-2.2-3.16-4.16-3-2.33-3.11-2.46-3.91-3.48a5.86,5.86,0,0,1-1.18-3.56c0-3.07,2.3-5.24,5.57-5.24,3,0,5.08,1.82,6,5.34Z" fill="#fff"/><path d="M273.05,133.33c-.51-2.11-1.47-3.17-2.82-3.17a2.11,2.11,0,0,0-2.14,2.18,3.23,3.23,0,0,0,.89,2.14,15.7,15.7,0,0,0,2.82,2.34A17.63,17.63,0,0,1,275,139.7a6.23,6.23,0,0,1,1.37,3.9c0,3.23-2.36,5.44-5.85,5.44-3.65,0-5.79-1.95-6.47-6l3.17-.92c.42,2.56,1.54,3.84,3.3,3.84a2.32,2.32,0,0,0,2.43-2.44c0-1.34-.67-2.2-3.17-4.16-3-2.33-3.1-2.46-3.9-3.48a5.79,5.79,0,0,1-1.18-3.56c0-3.07,2.3-5.24,5.56-5.24,3,0,5.09,1.82,6,5.34Z" fill="#fff"/><path d="M178.49,170.71c0,2.4-.35,3.84-1.22,5a6.2,6.2,0,0,1-9.21,0c-.86-1.21-1.22-2.65-1.22-5v-7.78c0-2.4.36-3.84,1.22-5.05a6.2,6.2,0,0,1,9.21,0c.87,1.21,1.22,2.65,1.22,5.05Zm-8.35-.07a6.06,6.06,0,0,0,.41,2.92,2.52,2.52,0,0,0,4.23,0,5.58,5.58,0,0,0,.42-2.92V163a5.58,5.58,0,0,0-.42-2.92,2.52,2.52,0,0,0-4.23,0,6.06,6.06,0,0,0-.41,2.92Z" fill="#fff"/><path d="M185.79,177.49h-3.3V156.15h9.76v3h-6.46V165h4.8v3h-4.8Z" fill="#fff"/><path d="M212.47,170.71c0,2.4-.35,3.84-1.21,5a6.21,6.21,0,0,1-9.22,0c-.86-1.21-1.21-2.65-1.21-5v-7.78c0-2.4.35-3.84,1.21-5.05a6.21,6.21,0,0,1,9.22,0c.86,1.21,1.21,2.65,1.21,5.05Zm-8.35-.07a5.9,5.9,0,0,0,.42,2.92,2.51,2.51,0,0,0,4.22,0,5.58,5.58,0,0,0,.42-2.92V163a5.58,5.58,0,0,0-.42-2.92,2.51,2.51,0,0,0-4.22,0,5.9,5.9,0,0,0-.42,2.92Z" fill="#fff"/><path d="M219.77,177.49h-3.3V156.15h3.3Z" fill="#fff"/><path d="M227.29,174.45h6.56v3H224V156.15h3.3Z" fill="#fff"/><path d="M240.12,177.49l-1.89,4.42H237l1.41-4.42H237v-3.42h3.1Z" fill="#fff"/></g></g></svg>