<svg xmlns="http://www.w3.org/2000/svg" viewBox="0 0 300 250"><title>txt2</title><g id="Layer_2" data-name="Layer 2"><g id="Rect"><rect width="300" height="250" fill="none"/></g><g id="YOUR_INTERIOR_PROJECTS" data-name="YOURINTERIORPROJECTS"><path d="M174.08,91.63h-3.3V83.31l-4.8-13h3.65l2.84,9,2.95-9H179l-4.92,13Z" fill="#fff"/><path d="M193.18,84.85c0,2.4-.35,3.84-1.22,5.05a6.2,6.2,0,0,1-9.21,0c-.87-1.21-1.22-2.65-1.22-5.05V77.07c0-2.4.35-3.84,1.22-5A6.2,6.2,0,0,1,192,72c.87,1.21,1.22,2.65,1.22,5Zm-8.35-.06a5.91,5.91,0,0,0,.41,2.91,2.52,2.52,0,0,0,4.23,0c.35-.67.41-1.19.41-2.91V77.14c0-1.73-.06-2.24-.41-2.91a2.51,2.51,0,0,0-4.23,0,5.89,5.89,0,0,0-.41,2.91Z" fill="#fff"/><path d="M208.47,70.29V84.75c0,2.69-.31,4.07-1.21,5.28a6.07,6.07,0,0,1-8.86,0c-.9-1.21-1.22-2.59-1.22-5.28V70.29h3.3v15c0,2.53.67,3.55,2.36,3.55s2.34-1,2.34-3.55v-15Z" fill="#fff"/><path d="M216,91.63h-3.29V70.29h5.15A5.88,5.88,0,0,1,222,71.57,6,6,0,0,1,224,76.4c0,2.69-1,4.55-2.88,5.54l3.14,9.69h-3.46L218,82.87h-2Zm1.22-11.8c1.41,0,2-.16,2.56-.68a4.54,4.54,0,0,0,0-5.15c-.51-.51-1.15-.67-2.56-.67H216v6.5Z" fill="#fff"/><path d="M170.36,120.4h-3.29V99.06h3.29Z" fill="#fff"/><path d="M186.43,120.4h-3l-5.76-14.2v14.2h-3.13V99.06h3.33l5.37,13.28V99.06h3.14Z" fill="#fff"/><path d="M197.11,120.4h-3.29V102.1h-4.13v-3h11.58v3h-4.16Z" fill="#fff"/><path d="M214.2,102.1h-6.37v5.63h4.71v3h-4.71v6.59h6.37v3h-9.66V99.06h9.66Z" fill="#fff"/><path d="M220.73,120.4h-3.3V99.06h5.16a5.93,5.93,0,0,1,4.22,1.28,6,6,0,0,1,1.92,4.83c0,2.69-1,4.55-2.88,5.54L229,120.4h-3.46l-2.82-8.76h-2ZM222,108.6c1.4,0,2-.16,2.56-.67a3.58,3.58,0,0,0,.8-2.6,3.54,3.54,0,0,0-.8-2.56c-.52-.51-1.16-.67-2.56-.67h-1.22v6.5Z" fill="#fff"/><path d="M235.87,120.4h-3.3V99.06h3.3Z" fill="#fff"/><path d="M251.51,113.62c0,2.4-.35,3.84-1.21,5.06a6.23,6.23,0,0,1-9.22,0c-.86-1.22-1.21-2.66-1.21-5.06v-7.77c0-2.4.35-3.84,1.21-5.06a6.21,6.21,0,0,1,9.22,0c.86,1.22,1.21,2.66,1.21,5.06Zm-8.35-.06a5.88,5.88,0,0,0,.42,2.91,2.51,2.51,0,0,0,4.22,0,5.54,5.54,0,0,0,.42-2.91v-7.65c0-1.73-.07-2.24-.42-2.91a2.51,2.51,0,0,0-4.22,0,5.85,5.85,0,0,0-.42,2.91Z" fill="#fff"/><path d="M258.81,120.4h-3.3V99.06h5.16a5.93,5.93,0,0,1,4.22,1.28,6,6,0,0,1,1.92,4.83c0,2.69-1,4.55-2.88,5.54l3.13,9.69h-3.45l-2.82-8.76h-2ZM260,108.6c1.4,0,2-.16,2.55-.67a3.54,3.54,0,0,0,.8-2.6,3.5,3.5,0,0,0-.8-2.56c-.51-.51-1.15-.67-2.55-.67h-1.22v6.5Z" fill="#fff"/><path d="M170.36,149.18h-3.29V127.83h5.47c2.14,0,3.49.42,4.48,1.38,1.15,1.09,1.69,2.69,1.69,5s-.54,3.9-1.69,5c-1,1-2.34,1.38-4.48,1.38h-2.18Zm1.44-11.68c2.66,0,3.49-.8,3.49-3.33s-.83-3.3-3.49-3.3h-1.44v6.63Z" fill="#fff"/><path d="M185.5,149.18h-3.3V127.83h5.15a6,6,0,0,1,4.23,1.28A6,6,0,0,1,193.5,134c0,2.68-1,4.54-2.88,5.53l3.13,9.7H190.3l-2.82-8.77h-2Zm1.21-11.81c1.41,0,2-.16,2.56-.67a3.54,3.54,0,0,0,.8-2.6,3.5,3.5,0,0,0-.8-2.56c-.51-.51-1.15-.67-2.56-.67H185.5v6.5Z" fill="#fff"/><path d="M208.76,142.39c0,2.4-.35,3.84-1.21,5.06a6.21,6.21,0,0,1-9.22,0c-.86-1.22-1.21-2.66-1.21-5.06v-7.77c0-2.4.35-3.84,1.21-5.06a6.21,6.21,0,0,1,9.22,0c.86,1.22,1.21,2.66,1.21,5.06Zm-8.35-.06a5.88,5.88,0,0,0,.42,2.91,2.51,2.51,0,0,0,4.22,0c.35-.67.42-1.18.42-2.91v-7.65c0-1.73-.07-2.24-.42-2.91a2.51,2.51,0,0,0-4.22,0,5.88,5.88,0,0,0-.42,2.91Z" fill="#fff"/><path d="M218,127.83V144c0,2.24-.22,3.17-.93,4s-1.69,1.19-3.32,1.19h-2v-3.11h.77c1.6,0,2.18-.61,2.18-2.37V127.83Z" fill="#fff"/><path d="M231.93,130.87h-6.37v5.63h4.71v3h-4.71v6.6h6.37v3h-9.66V127.83h9.66Z" fill="#fff"/><path d="M243.35,134.78v-.45c0-2.46-.86-3.71-2.49-3.71a2.08,2.08,0,0,0-2,1c-.42.71-.52,1.35-.52,3.08v7.1a9,9,0,0,0,.36,3.17,2.21,2.21,0,0,0,2.11,1.37,2.35,2.35,0,0,0,2.36-2.11,12.19,12.19,0,0,0,.2-2.59h3.32v.73c0,4.64-2,7.08-5.85,7.08a5.3,5.3,0,0,1-4.77-2.37c-.8-1.31-1-2.56-1-5.73v-6c0-3.39.25-4.58,1.25-5.92a5.33,5.33,0,0,1,4.51-2c3.64,0,5.79,2.44,5.79,6.63v.64Z" fill="#fff"/><path d="M256.92,149.18h-3.3V130.87H249.5v-3h11.58v3h-4.16Z" fill="#fff"/><path d="M272.41,133.79c-.51-2.12-1.47-3.17-2.82-3.17a2.11,2.11,0,0,0-2.14,2.17,3.24,3.24,0,0,0,.89,2.15,16.44,16.44,0,0,0,2.82,2.33,18.42,18.42,0,0,1,3.17,2.88,6.28,6.28,0,0,1,1.37,3.91c0,3.23-2.37,5.44-5.85,5.44-3.65,0-5.79-2-6.47-6l3.17-.93c.42,2.56,1.54,3.84,3.3,3.84a2.31,2.31,0,0,0,2.43-2.43c0-1.34-.67-2.21-3.17-4.16-3-2.34-3.1-2.46-3.9-3.49a5.77,5.77,0,0,1-1.19-3.55c0-3.07,2.31-5.25,5.57-5.25,3,0,5.09,1.83,6,5.35Z" fill="#fff"/></g></g></svg>