<svg xmlns="http://www.w3.org/2000/svg" viewBox="0 0 300 250"><title>txt3</title><g id="Layer_2" data-name="Layer 2"><g id="Rect"><rect width="300" height="250" fill="none"/></g><g id="LESS_MESS_AND..." data-name="LESSMESSAND..."><path d="M170.36,88.59h6.56v3h-9.85V70.29h3.29Z" fill="#fff"/><path d="M189.59,73.33h-6.36V79h4.7v3h-4.7v6.59h6.36v3h-9.66V70.29h9.66Z" fill="#fff"/><path d="M201.27,76.24c-.51-2.11-1.47-3.17-2.81-3.17a2.12,2.12,0,0,0-2.15,2.18,3.16,3.16,0,0,0,.9,2.14A14.85,14.85,0,0,0,200,79.73a17.87,17.87,0,0,1,3.16,2.88,6.2,6.2,0,0,1,1.38,3.9c0,3.24-2.37,5.44-5.86,5.44-3.64,0-5.79-2-6.46-6l3.17-.93c.41,2.56,1.53,3.84,3.29,3.84a2.32,2.32,0,0,0,2.44-2.43c0-1.35-.68-2.21-3.17-4.16-3-2.34-3.11-2.47-3.91-3.49a5.83,5.83,0,0,1-1.18-3.55c0-3.07,2.3-5.25,5.57-5.25,3,0,5.09,1.82,6,5.34Z" fill="#fff"/><path d="M216.57,76.24c-.51-2.11-1.47-3.17-2.82-3.17a2.11,2.11,0,0,0-2.14,2.18,3.16,3.16,0,0,0,.9,2.14,15,15,0,0,0,2.81,2.34,18,18,0,0,1,3.17,2.88,6.26,6.26,0,0,1,1.38,3.9c0,3.24-2.37,5.44-5.86,5.44-3.65,0-5.79-2-6.46-6l3.16-.93c.42,2.56,1.54,3.84,3.3,3.84a2.31,2.31,0,0,0,2.43-2.43c0-1.35-.67-2.21-3.17-4.16-3-2.34-3.1-2.47-3.9-3.49a5.76,5.76,0,0,1-1.18-3.55c0-3.07,2.3-5.25,5.56-5.25,3,0,5.09,1.82,6,5.34Z" fill="#fff"/><path d="M182.59,120.4h-3.14V104.69l-3.71,15.71h-1.86l-3.68-15.71V120.4h-3.13V99.06h4.83l2.94,13.41,3-13.41h4.77Z" fill="#fff"/><path d="M196.47,102.1h-6.36v5.63h4.7v3h-4.7v6.59h6.36v3h-9.66V99.06h9.66Z" fill="#fff"/><path d="M208.15,105c-.51-2.11-1.47-3.16-2.81-3.16a2.11,2.11,0,0,0-2.15,2.17,3.2,3.2,0,0,0,.9,2.15,15.51,15.51,0,0,0,2.82,2.33,17.87,17.87,0,0,1,3.16,2.88,6.2,6.2,0,0,1,1.38,3.9c0,3.24-2.37,5.44-5.86,5.44-3.64,0-5.79-2-6.46-6l3.17-.93c.41,2.56,1.53,3.84,3.29,3.84a2.32,2.32,0,0,0,2.44-2.43c0-1.35-.68-2.21-3.17-4.16-3-2.34-3.11-2.47-3.91-3.49a5.83,5.83,0,0,1-1.18-3.55c0-3.07,2.3-5.25,5.57-5.25,3,0,5.09,1.83,6,5.35Z" fill="#fff"/><path d="M223.45,105c-.51-2.11-1.47-3.16-2.82-3.16a2.11,2.11,0,0,0-2.14,2.17,3.2,3.2,0,0,0,.9,2.15,15.64,15.64,0,0,0,2.81,2.33,18,18,0,0,1,3.17,2.88,6.26,6.26,0,0,1,1.38,3.9c0,3.24-2.37,5.44-5.86,5.44-3.65,0-5.79-2-6.46-6l3.16-.93c.42,2.56,1.54,3.84,3.3,3.84a2.31,2.31,0,0,0,2.43-2.43c0-1.35-.67-2.21-3.17-4.16-3-2.34-3.1-2.47-3.9-3.49a5.76,5.76,0,0,1-1.18-3.55c0-3.07,2.3-5.25,5.56-5.25,3,0,5.09,1.83,6,5.35Z" fill="#fff"/><path d="M170.4,144.54l-.87,4.64H166.3l4.1-21.35h4.51l4.32,21.35h-3.4l-.89-4.64Zm2.23-12.61-1.72,9.57h3.48Z" fill="#fff"/><path d="M194.3,149.18h-3L185.59,135v14.21h-3.13V127.83h3.33l5.37,13.28V127.83h3.14Z" fill="#fff"/><path d="M198.49,127.83h5.22c4.19,0,6.17,2.15,6.17,6.69v8c0,4.54-2,6.69-6.17,6.69h-5.22Zm4.93,18.31c2.33,0,3.17-1.22,3.17-4.55v-6.17c0-3.36-.84-4.55-3.17-4.55h-1.63v15.27Z" fill="#fff"/><path d="M216.47,149.18h-3.1v-3.43h3.1Z" fill="#fff"/><path d="M223.29,149.18h-3.1v-3.43h3.1Z" fill="#fff"/><path d="M230.11,149.18H227v-3.43h3.11Z" fill="#fff"/></g></g></svg>