<svg xmlns="http://www.w3.org/2000/svg" viewBox="0 0 300 250"><title>txt3</title><g id="Layer_2" data-name="Layer 2"><g id="Rect"><rect width="300" height="250" fill="none"/></g><g id="The_color_richness_of_oil" data-name="The colorrichness ofoil"><path d="M17.21,81H14.12V63.83H10.25V61H21.11v2.85h-3.9Z" fill="#fff"/><path d="M26.66,72.17V81H23.57V61h3.09v8.34h4.41V61h3.09V81H31.07V72.17Z" fill="#fff"/><path d="M46.55,63.83h-6v5.28H45V72H40.58v6.18h6V81H37.49V61h9.06Z" fill="#fff"/><path d="M61.4,67.49v-.42c0-2.31-.81-3.48-2.34-3.48a2,2,0,0,0-1.83,1,5.08,5.08,0,0,0-.48,2.88v6.66a8.57,8.57,0,0,0,.33,3,2.08,2.08,0,0,0,2,1.29,2.21,2.21,0,0,0,2.22-2A11.3,11.3,0,0,0,61.46,74h3.12v.69c0,4.35-1.89,6.63-5.49,6.63a4.94,4.94,0,0,1-4.47-2.22c-.75-1.23-1-2.4-1-5.37V68.09c0-3.18.24-4.29,1.17-5.55a5,5,0,0,1,4.23-1.86c3.42,0,5.43,2.28,5.43,6.21v.6Z" fill="#fff"/><path d="M78.29,74.63a7.63,7.63,0,0,1-1.14,4.74,5.82,5.82,0,0,1-8.64,0,7.63,7.63,0,0,1-1.14-4.74V67.34a7.63,7.63,0,0,1,1.14-4.74,5.82,5.82,0,0,1,8.64,0,7.63,7.63,0,0,1,1.14,4.74Zm-7.83-.06a5.52,5.52,0,0,0,.39,2.73,2.35,2.35,0,0,0,4,0,5.18,5.18,0,0,0,.39-2.73V67.4a5.18,5.18,0,0,0-.39-2.73,2.36,2.36,0,0,0-4,0,5.52,5.52,0,0,0-.39,2.73Z" fill="#fff"/><path d="M84.53,78.14h6.15V81H81.44V61h3.09Z" fill="#fff"/><path d="M103.85,74.63a7.63,7.63,0,0,1-1.14,4.74,5.82,5.82,0,0,1-8.64,0,7.63,7.63,0,0,1-1.14-4.74V67.34a7.63,7.63,0,0,1,1.14-4.74,5.82,5.82,0,0,1,8.64,0,7.63,7.63,0,0,1,1.14,4.74ZM96,74.57a5.52,5.52,0,0,0,.39,2.73,2.35,2.35,0,0,0,4,0,5.18,5.18,0,0,0,.39-2.73V67.4a5.18,5.18,0,0,0-.39-2.73,2.36,2.36,0,0,0-4,0A5.52,5.52,0,0,0,96,67.4Z" fill="#fff"/><path d="M110.09,81H107V61h4.83a5.54,5.54,0,0,1,4,1.2,5.64,5.64,0,0,1,1.8,4.53c0,2.52-.9,4.26-2.7,5.19L117.83,81h-3.24L112,72.77h-1.86Zm1.14-11.07c1.32,0,1.92-.15,2.4-.63a4.26,4.26,0,0,0,0-4.83c-.48-.48-1.08-.63-2.4-.63h-1.14v6.09Z" fill="#fff"/><path d="M14.66,108H11.57V88H16.4a5.54,5.54,0,0,1,4,1.2,5.64,5.64,0,0,1,1.8,4.53c0,2.52-.9,4.26-2.7,5.19L22.4,108H19.16l-2.64-8.22H14.66ZM15.8,96.92c1.32,0,1.92-.15,2.4-.63a4.26,4.26,0,0,0,0-4.83c-.48-.48-1.08-.63-2.4-.63H14.66v6.09Z" fill="#fff"/><path d="M28.25,108H25.16V88h3.09Z" fill="#fff"/><path d="M39.14,94.49v-.42c0-2.31-.81-3.48-2.34-3.48a2,2,0,0,0-1.83,1,5.08,5.08,0,0,0-.48,2.88v6.66a8.57,8.57,0,0,0,.33,3,2.08,2.08,0,0,0,2,1.29,2.21,2.21,0,0,0,2.22-2A11.3,11.3,0,0,0,39.2,101h3.12v.69c0,4.35-1.89,6.63-5.49,6.63a4.94,4.94,0,0,1-4.47-2.22c-.75-1.23-1-2.4-1-5.37V95.09c0-3.18.24-4.29,1.17-5.55a5,5,0,0,1,4.23-1.86c3.42,0,5.43,2.28,5.43,6.21v.6Z" fill="#fff"/><path d="M48.32,99.17V108H45.23V88h3.09v8.34h4.41V88h3.09v20H52.73V99.17Z" fill="#fff"/><path d="M70.25,108H67.49l-5.4-13.32V108H59.15V88h3.12l5,12.45V88h2.94Z" fill="#fff"/><path d="M82.64,90.83h-6v5.28h4.41V99H76.67v6.18h6V108H73.58V88h9.06Z" fill="#fff"/><path d="M93,93.56c-.48-2-1.38-3-2.63-3a2,2,0,0,0-2,2,3,3,0,0,0,.85,2,14.48,14.48,0,0,0,2.63,2.19,16.36,16.36,0,0,1,3,2.7,5.85,5.85,0,0,1,1.29,3.66c0,3-2.22,5.1-5.49,5.1s-5.42-1.83-6-5.64l3-.87c.39,2.4,1.44,3.6,3.08,3.6a2.17,2.17,0,0,0,2.28-2.28c0-1.26-.63-2.07-3-3.9C87.1,97,87,96.89,86.24,95.93a5.43,5.43,0,0,1-1.12-3.33,4.88,4.88,0,0,1,5.23-4.92c2.84,0,4.76,1.71,5.6,5Z" fill="#fff"/><path d="M106.72,93.56c-.48-2-1.38-3-2.64-3a2,2,0,0,0-2,2,3,3,0,0,0,.84,2,14.35,14.35,0,0,0,2.64,2.19,16.72,16.72,0,0,1,3,2.7,5.85,5.85,0,0,1,1.29,3.66c0,3-2.22,5.1-5.49,5.1s-5.43-1.83-6.06-5.64l3-.87c.39,2.4,1.44,3.6,3.09,3.6a2.17,2.17,0,0,0,2.28-2.28c0-1.26-.63-2.07-3-3.9-2.79-2.19-2.91-2.31-3.66-3.27a5.42,5.42,0,0,1-1.11-3.33,4.87,4.87,0,0,1,5.22-4.92c2.85,0,4.77,1.71,5.61,5Z" fill="#fff"/><path d="M127.87,101.63a7.63,7.63,0,0,1-1.14,4.74,5.82,5.82,0,0,1-8.64,0,7.63,7.63,0,0,1-1.14-4.74V94.34a7.63,7.63,0,0,1,1.14-4.74,5.82,5.82,0,0,1,8.64,0,7.63,7.63,0,0,1,1.14,4.74Zm-7.83-.06a5.52,5.52,0,0,0,.39,2.73,2.35,2.35,0,0,0,4,0,5.18,5.18,0,0,0,.39-2.73V94.4a5.18,5.18,0,0,0-.39-2.73,2.35,2.35,0,0,0-4,0A5.52,5.52,0,0,0,120,94.4Z" fill="#fff"/><path d="M134.11,108H131V88h9.15v2.85h-6.06v5.4h4.5v2.85h-4.5Z" fill="#fff"/><path d="M22.28,128.63a7.63,7.63,0,0,1-1.14,4.74,5.06,5.06,0,0,1-4.32,1.92,5.06,5.06,0,0,1-4.32-1.92,7.63,7.63,0,0,1-1.14-4.74v-7.29a7.63,7.63,0,0,1,1.14-4.74,5,5,0,0,1,4.32-1.92,5,5,0,0,1,4.32,1.92,7.63,7.63,0,0,1,1.14,4.74Zm-7.83-.06a5.52,5.52,0,0,0,.39,2.73,2.36,2.36,0,0,0,4,0,5.18,5.18,0,0,0,.39-2.73V121.4a5.18,5.18,0,0,0-.39-2.73,2.36,2.36,0,0,0-4,0,5.52,5.52,0,0,0-.39,2.73Z" fill="#fff"/><path d="M28.52,135H25.43V115h3.09Z" fill="#fff"/><path d="M35,132.14h6.15V135H31.88V115H35Z" fill="#fff"/></g></g></svg>