<svg xmlns="http://www.w3.org/2000/svg" viewBox="0 0 300 250"><title>txt4</title><g id="Layer_2" data-name="Layer 2"><g id="Rect"><rect width="300" height="250" fill="none"/></g><g id="without_the_cleanup." data-name="withoutthe cleanup."><path d="M59,135l-2.58-13.56L54,135H51.11l-3.75-20h3l2.28,12.9L55,115h2.67l2.64,12.9,2-12.9h2.91l-3.39,20Z" fill="#fff"/><path d="M71,135H67.94V115H71Z" fill="#fff"/><path d="M80.45,135H77.36V117.83H73.49V115H84.35v2.85h-3.9Z" fill="#fff"/><path d="M89.9,126.17V135H86.81V115H89.9v8.34h4.41V115H97.4v20H94.31v-8.82Z" fill="#fff"/><path d="M111.44,128.63a7.63,7.63,0,0,1-1.14,4.74,5.82,5.82,0,0,1-8.64,0,7.63,7.63,0,0,1-1.14-4.74v-7.29a7.63,7.63,0,0,1,1.14-4.74,5.82,5.82,0,0,1,8.64,0,7.63,7.63,0,0,1,1.14,4.74Zm-7.83-.06a5.52,5.52,0,0,0,.39,2.73,2.36,2.36,0,0,0,4,0,5.18,5.18,0,0,0,.39-2.73V121.4a5.18,5.18,0,0,0-.39-2.73,2.36,2.36,0,0,0-4,0,5.52,5.52,0,0,0-.39,2.73Z" fill="#fff"/><path d="M125.18,115v13.56c0,2.52-.3,3.81-1.14,5a5.7,5.7,0,0,1-8.31,0c-.84-1.14-1.14-2.43-1.14-5V115h3.09v14.07c0,2.37.63,3.33,2.22,3.33s2.19-1,2.19-3.33V115Z" fill="#fff"/><path d="M134.6,135h-3.09V117.83h-3.87V115H138.5v2.85h-3.9Z" fill="#fff"/><path d="M17.21,162H14.12V144.83H10.25V142H21.11v2.85h-3.9Z" fill="#fff"/><path d="M26.66,153.17V162H23.57V142h3.09v8.34h4.41V142h3.09v20H31.07v-8.82Z" fill="#fff"/><path d="M46.55,144.83h-6v5.28H45V153H40.58v6.18h6V162H37.49V142h9.06Z" fill="#fff"/><path d="M61.4,148.49v-.42c0-2.31-.81-3.48-2.34-3.48a2,2,0,0,0-1.83,1,5.08,5.08,0,0,0-.48,2.88v6.66a8.57,8.57,0,0,0,.33,3,2.08,2.08,0,0,0,2,1.29,2.21,2.21,0,0,0,2.22-2,11.3,11.3,0,0,0,.18-2.43h3.12v.69c0,4.35-1.89,6.63-5.49,6.63a4.94,4.94,0,0,1-4.47-2.22c-.75-1.23-1-2.4-1-5.37v-5.61c0-3.18.24-4.29,1.17-5.55a5,5,0,0,1,4.23-1.86c3.42,0,5.43,2.28,5.43,6.21v.6Z" fill="#fff"/><path d="M70.58,159.14h6.15V162H67.49V142h3.09Z" fill="#fff"/><path d="M88,144.83H82v5.28h4.41V153H82v6.18h6V162H79V142H88Z" fill="#fff"/><path d="M94.16,157.64,93.35,162h-3l3.84-20h4.22l4.06,20H99.25l-.83-4.35Zm2.09-11.82-1.61,9h3.27Z" fill="#fff"/><path d="M116,162h-2.75l-5.4-13.32V162h-2.94V142H108l5,12.45V142H116Z" fill="#fff"/><path d="M129.88,142v13.56c0,2.52-.3,3.81-1.14,5a5.68,5.68,0,0,1-8.3,0c-.84-1.14-1.15-2.43-1.15-5V142h3.09v14.07c0,2.37.64,3.33,2.22,3.33s2.19-1,2.19-3.33V142Z" fill="#fff"/><path d="M136.3,162h-3.09V142h5.13c2,0,3.27.39,4.2,1.29a6,6,0,0,1,1.59,4.65c0,2.16-.51,3.66-1.59,4.68-.93.9-2.19,1.29-4.2,1.29h-2Zm1.35-11c2.49,0,3.27-.75,3.27-3.12s-.78-3.09-3.27-3.09H136.3V151Z" fill="#fff"/><path d="M146.48,162h-2.91v-3.21h2.91Z" fill="#fff"/></g></g></svg>