<svg xmlns="http://www.w3.org/2000/svg" viewBox="0 0 300 250"><title>txt4</title><g id="Layer_2" data-name="Layer 2"><g id="Rect"><rect width="300" height="250" fill="none"/></g><g id="BUT_WITH_LESS_MESS_AND..." data-name="BUT WITHLESS MESSAND..."><path d="M167.07,70.29H172c4,0,6.23,1.95,6.23,5.41a4.47,4.47,0,0,1-3.52,4.77c2.88.83,4,2.3,4,5.12,0,3.77-2.37,6-6.34,6h-5.34Zm4.48,8.7c2,0,3.33-1.18,3.33-3a2.7,2.7,0,0,0-.8-2,3.42,3.42,0,0,0-2.47-.67h-1.25V79Zm.48,9.6c2.11,0,3.29-1.09,3.29-3A3.44,3.44,0,0,0,171.55,82h-1.19v6.56Z" fill="#fff"/><path d="M193.91,70.29V84.75c0,2.69-.32,4.07-1.21,5.28a6.08,6.08,0,0,1-8.87,0c-.89-1.21-1.21-2.59-1.21-5.28V70.29h3.3v15c0,2.53.67,3.55,2.36,3.55s2.34-1,2.34-3.55v-15Z" fill="#fff"/><path d="M204.6,91.63h-3.29V73.33h-4.13v-3h11.58v3H204.6Z" fill="#fff"/><path d="M228.83,91.63l-2.75-14.46-2.6,14.46h-3.07l-4-21.34h3.2L222,84.05l2.56-13.76h2.85l2.82,13.76,2.14-13.76h3.1L231.9,91.63Z" fill="#fff"/><path d="M242.3,91.63H239V70.29h3.3Z" fill="#fff"/><path d="M253,91.63h-3.3V73.33h-4.13v-3h11.59v3H253Z" fill="#fff"/><path d="M263.71,82.23v9.4h-3.3V70.29h3.3v8.9h4.7v-8.9h3.3V91.63h-3.3v-9.4Z" fill="#fff"/><path d="M170.36,117.36h6.56v3h-9.85V99.06h3.29Z" fill="#fff"/><path d="M189.59,102.1h-6.36v5.63h4.7v3h-4.7v6.59h6.36v3h-9.66V99.06h9.66Z" fill="#fff"/><path d="M201.27,105c-.51-2.11-1.47-3.16-2.81-3.16a2.11,2.11,0,0,0-2.15,2.17,3.2,3.2,0,0,0,.9,2.15A15.51,15.51,0,0,0,200,108.5a17.87,17.87,0,0,1,3.16,2.88,6.2,6.2,0,0,1,1.38,3.9c0,3.24-2.37,5.44-5.86,5.44-3.64,0-5.79-2-6.46-6l3.17-.93c.41,2.56,1.53,3.84,3.29,3.84a2.32,2.32,0,0,0,2.44-2.43c0-1.35-.68-2.21-3.17-4.16-3-2.34-3.11-2.47-3.91-3.49a5.83,5.83,0,0,1-1.18-3.55c0-3.07,2.3-5.25,5.57-5.25,3,0,5.09,1.83,6,5.35Z" fill="#fff"/><path d="M216.57,105c-.51-2.11-1.47-3.16-2.82-3.16a2.11,2.11,0,0,0-2.14,2.17,3.2,3.2,0,0,0,.9,2.15,15.64,15.64,0,0,0,2.81,2.33,18,18,0,0,1,3.17,2.88,6.26,6.26,0,0,1,1.38,3.9c0,3.24-2.37,5.44-5.86,5.44-3.65,0-5.79-2-6.46-6l3.16-.93c.42,2.56,1.54,3.84,3.3,3.84a2.31,2.31,0,0,0,2.43-2.43c0-1.35-.67-2.21-3.17-4.16-3-2.34-3.1-2.47-3.9-3.49a5.76,5.76,0,0,1-1.18-3.55c0-3.07,2.3-5.25,5.56-5.25,3,0,5.09,1.83,6,5.35Z" fill="#fff"/><path d="M244.5,120.4h-3.13V104.69l-3.71,15.71H235.8l-3.68-15.71V120.4H229V99.06h4.83l2.94,13.41,3-13.41h4.76Z" fill="#fff"/><path d="M258.39,102.1H252v5.63h4.7v3H252v6.59h6.36v3h-9.66V99.06h9.66Z" fill="#fff"/><path d="M270.07,105c-.51-2.11-1.47-3.16-2.81-3.16a2.11,2.11,0,0,0-2.15,2.17,3.2,3.2,0,0,0,.9,2.15,15.64,15.64,0,0,0,2.81,2.33,17.66,17.66,0,0,1,3.17,2.88,6.2,6.2,0,0,1,1.38,3.9c0,3.24-2.37,5.44-5.86,5.44-3.65,0-5.79-2-6.46-6l3.17-.93c.41,2.56,1.53,3.84,3.29,3.84a2.31,2.31,0,0,0,2.43-2.43c0-1.35-.67-2.21-3.16-4.16-3-2.34-3.11-2.47-3.91-3.49a5.76,5.76,0,0,1-1.18-3.55c0-3.07,2.3-5.25,5.57-5.25,3,0,5.08,1.83,6,5.35Z" fill="#fff"/><path d="M285.37,105c-.51-2.11-1.47-3.16-2.82-3.16a2.11,2.11,0,0,0-2.14,2.17,3.24,3.24,0,0,0,.89,2.15,16.44,16.44,0,0,0,2.82,2.33,18.42,18.42,0,0,1,3.17,2.88,6.25,6.25,0,0,1,1.37,3.9c0,3.24-2.37,5.44-5.85,5.44-3.65,0-5.79-2-6.47-6l3.17-.93c.42,2.56,1.54,3.84,3.3,3.84a2.31,2.31,0,0,0,2.43-2.43c0-1.35-.67-2.21-3.17-4.16-3-2.34-3.1-2.47-3.9-3.49A5.77,5.77,0,0,1,277,104c0-3.07,2.31-5.25,5.57-5.25,3,0,5.09,1.83,6,5.35Z" fill="#fff"/><path d="M170.4,144.54l-.87,4.64H166.3l4.1-21.35h4.51l4.32,21.35h-3.4l-.89-4.64Zm2.23-12.61-1.72,9.57h3.48Z" fill="#fff"/><path d="M194.3,149.18h-3L185.59,135v14.21h-3.13V127.83h3.33l5.37,13.28V127.83h3.14Z" fill="#fff"/><path d="M198.49,127.83h5.22c4.19,0,6.17,2.15,6.17,6.69v8c0,4.54-2,6.69-6.17,6.69h-5.22Zm4.93,18.31c2.33,0,3.17-1.22,3.17-4.55v-6.17c0-3.36-.84-4.55-3.17-4.55h-1.63v15.27Z" fill="#fff"/><path d="M216.47,149.18h-3.1v-3.43h3.1Z" fill="#fff"/><path d="M223.29,149.18h-3.1v-3.43h3.1Z" fill="#fff"/><path d="M230.11,149.18H227v-3.43h3.11Z" fill="#fff"/></g></g></svg>