<svg xmlns="http://www.w3.org/2000/svg" viewBox="0 0 300 250"><title>txt5</title><g id="Layer_2" data-name="Layer 2"><g id="Rect"><rect width="300" height="250" fill="none"/></g><g id="THE_BENEFITS_OF_WATER." data-name="THEBENEFITSOF WATER."><path d="M173.08,91.63h-3.29V73.33h-4.13v-3h11.58v3h-4.16Z" fill="#fff"/><path d="M183.8,82.23v9.4h-3.29V70.29h3.29v8.9h4.71v-8.9h3.29V91.63h-3.29v-9.4Z" fill="#fff"/><path d="M205.66,73.33h-6.37V79H204v3h-4.7v6.59h6.37v3H196V70.29h9.66Z" fill="#fff"/><path d="M167.07,99.06H172c4,0,6.23,2,6.23,5.41a4.47,4.47,0,0,1-3.52,4.77c2.88.83,4,2.3,4,5.12,0,3.77-2.37,6-6.34,6h-5.34Zm4.48,8.71c2,0,3.33-1.19,3.33-3a2.7,2.7,0,0,0-.8-2,3.42,3.42,0,0,0-2.47-.67h-1.25v5.67Zm.48,9.59c2.11,0,3.29-1.08,3.29-3a3.43,3.43,0,0,0-3.77-3.55h-1.19v6.55Z" fill="#fff"/><path d="M192.28,102.1h-6.36v5.63h4.7v3h-4.7v6.59h6.36v3h-9.66V99.06h9.66Z" fill="#fff"/><path d="M207.35,120.4h-2.94l-5.76-14.2v14.2h-3.14V99.06h3.33l5.38,13.28V99.06h3.13Z" fill="#fff"/><path d="M221.21,102.1h-6.37v5.63h4.71v3h-4.71v6.59h6.37v3h-9.66V99.06h9.66Z" fill="#fff"/><path d="M228,120.4H224.7V99.06h9.76v3H228v5.76h4.8v3H228Z" fill="#fff"/><path d="M240.7,120.4h-3.3V99.06h3.3Z" fill="#fff"/><path d="M251.38,120.4h-3.29V102.1H244v-3h11.58v3h-4.16Z" fill="#fff"/><path d="M266.87,105c-.51-2.11-1.47-3.16-2.81-3.16a2.11,2.11,0,0,0-2.15,2.17,3.2,3.2,0,0,0,.9,2.15,15.64,15.64,0,0,0,2.81,2.33,17.66,17.66,0,0,1,3.17,2.88,6.2,6.2,0,0,1,1.38,3.9c0,3.24-2.37,5.44-5.86,5.44s-5.79-2-6.46-6l3.17-.93c.41,2.56,1.53,3.84,3.29,3.84a2.31,2.31,0,0,0,2.43-2.43c0-1.35-.67-2.21-3.16-4.16-3-2.34-3.11-2.47-3.91-3.49a5.83,5.83,0,0,1-1.18-3.55c0-3.07,2.3-5.25,5.57-5.25,3,0,5.08,1.83,6,5.35Z" fill="#fff"/><path d="M178.49,142.39c0,2.4-.35,3.84-1.22,5.06a6.2,6.2,0,0,1-9.21,0c-.86-1.22-1.22-2.66-1.22-5.06v-7.77c0-2.4.36-3.84,1.22-5.06a6.2,6.2,0,0,1,9.21,0c.87,1.22,1.22,2.66,1.22,5.06Zm-8.35-.06a6,6,0,0,0,.41,2.91,2.52,2.52,0,0,0,4.23,0c.35-.67.42-1.18.42-2.91v-7.65c0-1.73-.07-2.24-.42-2.91a2.52,2.52,0,0,0-4.23,0,6,6,0,0,0-.41,2.91Z" fill="#fff"/><path d="M185.79,149.18h-3.3V127.83h9.76v3h-6.46v5.76h4.8v3h-4.8Z" fill="#fff"/><path d="M212.47,149.18l-2.75-14.47-2.59,14.47h-3.07l-4-21.35h3.2l2.43,13.76,2.56-13.76h2.85l2.81,13.76,2.15-13.76h3.1l-3.61,21.35Z" fill="#fff"/><path d="M224.76,144.54l-.86,4.64h-3.23l4.09-21.35h4.51l4.32,21.35H230.2l-.89-4.64ZM227,131.93l-1.73,9.57h3.49Z" fill="#fff"/><path d="M242,149.18h-3.3V130.87h-4.13v-3h11.59v3H242Z" fill="#fff"/><path d="M259.07,130.87H252.7v5.63h4.7v3h-4.7v6.6h6.37v3H249.4V127.83h9.67Z" fill="#fff"/><path d="M265.59,149.18H262.3V127.83h5.15a5.93,5.93,0,0,1,4.22,1.28,6,6,0,0,1,1.92,4.84c0,2.68-1,4.54-2.88,5.53l3.14,9.7h-3.46l-2.81-8.77h-2Zm1.22-11.81c1.41,0,2.05-.16,2.56-.67a3.58,3.58,0,0,0,.8-2.6,3.54,3.54,0,0,0-.8-2.56c-.51-.51-1.15-.67-2.56-.67h-1.22v6.5Z" fill="#fff"/><path d="M280.31,149.18h-3.1v-3.43h3.1Z" fill="#fff"/></g></g></svg>