<svg xmlns="http://www.w3.org/2000/svg" viewBox="0 0 160 600"><title>txt1</title><g id="Layer_2" data-name="Layer 2"><g id="Rect"><rect width="160" height="600" fill="none"/></g><g id="TODAY_LET_S_STAIN." data-name="TODAYLET&apos;SSTAIN."><path d="M49.23,340.9H45.42V319.73H40.64v-3.51H54v3.51H49.23Z" fill="#fff"/><path d="M70.13,333.05c0,2.78-.41,4.45-1.4,5.85a6.19,6.19,0,0,1-5.33,2.37,6.19,6.19,0,0,1-5.33-2.37c-1-1.4-1.41-3.07-1.41-5.85v-9c0-2.77.41-4.44,1.41-5.84a6.19,6.19,0,0,1,5.33-2.37,6.19,6.19,0,0,1,5.33,2.37c1,1.4,1.4,3.07,1.4,5.84ZM60.47,333c0,2,.11,2.63.49,3.37a2.9,2.9,0,0,0,4.88,0c.41-.78.48-1.37.48-3.37v-8.84c0-2-.07-2.59-.48-3.37a2.9,2.9,0,0,0-4.88,0c-.38.74-.49,1.41-.49,3.37Z" fill="#fff"/><path d="M74,316.22h6c4.84,0,7.14,2.48,7.14,7.73v9.22c0,5.25-2.3,7.73-7.14,7.73H74Zm5.69,21.16c2.71,0,3.67-1.4,3.67-5.25V325c0-3.89-1-5.26-3.67-5.26H77.83v17.65Z" fill="#fff"/><path d="M94.62,335.53l-1,5.37H89.89l4.73-24.68h5.22l5,24.68h-3.92l-1-5.37ZM97.21,321l-2,11.06h4Z" fill="#fff"/><path d="M114.38,340.9h-3.81v-9.62L105,316.22h4.22l3.29,10.43,3.41-10.43h4.14l-5.7,15.06Z" fill="#fff"/><path d="M52.33,371.53h7.59V375H48.52V350.36h3.81Z" fill="#fff"/><path d="M73.83,353.88H66.47v6.51h5.44v3.51H66.47v7.63h7.36V375H62.66V350.36H73.83Z" fill="#fff"/><path d="M84.89,375H81.08V353.88H76.31v-3.52h13.4v3.52H84.89Z" fill="#fff"/><path d="M93.18,360.24l-.63-9.88H96.7l-.63,9.88Z" fill="#fff"/><path d="M109.83,357.24c-.59-2.44-1.7-3.66-3.25-3.66a2.44,2.44,0,0,0-2.48,2.52,3.74,3.74,0,0,0,1,2.48c.63.7.63.7,3.26,2.7a20.16,20.16,0,0,1,3.66,3.33,7.2,7.2,0,0,1,1.59,4.51c0,3.74-2.73,6.29-6.77,6.29-4.22,0-6.7-2.26-7.47-7l3.66-1.07c.48,3,1.78,4.44,3.81,4.44a2.68,2.68,0,0,0,2.81-2.81c0-1.55-.77-2.55-3.66-4.81-3.44-2.7-3.59-2.85-4.51-4a6.69,6.69,0,0,1-1.37-4.11c0-3.55,2.66-6.07,6.44-6.07,3.51,0,5.88,2.11,6.92,6.18Z" fill="#fff"/><path d="M52,391.38c-.59-2.44-1.7-3.66-3.25-3.66a2.44,2.44,0,0,0-2.48,2.52,3.74,3.74,0,0,0,1,2.48c.63.7.63.7,3.26,2.7a20.54,20.54,0,0,1,3.66,3.33,7.2,7.2,0,0,1,1.59,4.51c0,3.74-2.73,6.29-6.77,6.29-4.22,0-6.7-2.25-7.47-6.95l3.66-1.08c.48,3,1.78,4.44,3.81,4.44a2.67,2.67,0,0,0,2.81-2.81c0-1.55-.77-2.55-3.66-4.81-3.44-2.7-3.59-2.85-4.51-4a6.69,6.69,0,0,1-1.37-4.11c0-3.55,2.66-6.07,6.44-6.07,3.51,0,5.88,2.11,6.92,6.18Z" fill="#fff"/><path d="M66.47,409.18H62.66V388H57.88V384.5h13.4V388H66.47Z" fill="#fff"/><path d="M76.61,403.82l-1,5.36H71.87l4.74-24.68h5.21l5,24.68H82.9l-1-5.36Zm2.59-14.58-2,11.06h4Z" fill="#fff"/><path d="M93.63,409.18H89.81V384.5h3.82Z" fill="#fff"/><path d="M111.46,409.18h-3.4l-6.66-16.43v16.43H97.77V384.5h3.85l6.21,15.36V384.5h3.63Z" fill="#fff"/><path d="M118.82,409.18h-3.59v-4h3.59Z" fill="#fff"/></g></g></svg>