<svg xmlns="http://www.w3.org/2000/svg" viewBox="0 0 160 600"><title>txt3</title><g id="Layer_2" data-name="Layer 2"><g id="Rect"><rect width="160" height="600" fill="none"/></g><g id="your_chair." data-name="your chair."><path d="M24.87,402H21.78v-7.8L17.28,382H20.7l2.67,8.46L26.13,382h3.36l-4.62,12.21Z" fill="#fff"/><path d="M42.18,395.63A7.63,7.63,0,0,1,41,400.37a5.06,5.06,0,0,1-4.32,1.92,5.06,5.06,0,0,1-4.32-1.92,7.63,7.63,0,0,1-1.14-4.74v-7.29a7.63,7.63,0,0,1,1.14-4.74,5,5,0,0,1,4.32-1.92A5,5,0,0,1,41,383.6a7.63,7.63,0,0,1,1.14,4.74Zm-7.83-.06a5.52,5.52,0,0,0,.39,2.73,2.35,2.35,0,0,0,4,0,5.18,5.18,0,0,0,.39-2.73V388.4a5.18,5.18,0,0,0-.39-2.73,2.35,2.35,0,0,0-4,0,5.52,5.52,0,0,0-.39,2.73Z" fill="#fff"/><path d="M55.92,382v13.56c0,2.52-.3,3.81-1.14,4.95a5,5,0,0,1-4.14,1.8,5,5,0,0,1-4.17-1.8c-.84-1.14-1.14-2.43-1.14-4.95V382h3.09v14.07c0,2.37.63,3.33,2.22,3.33s2.19-1,2.19-3.33V382Z" fill="#fff"/><path d="M62.34,402H59.25V382h4.83a5.54,5.54,0,0,1,4,1.2,5.64,5.64,0,0,1,1.8,4.53c0,2.52-.9,4.26-2.7,5.19L70.08,402H66.84l-2.64-8.22H62.34Zm1.14-11.07c1.32,0,1.92-.15,2.4-.63a4.26,4.26,0,0,0,0-4.83c-.48-.48-1.08-.63-2.4-.63H62.34v6.09Z" fill="#fff"/><path d="M85.14,388.49v-.42c0-2.31-.81-3.48-2.34-3.48a2,2,0,0,0-1.83,1,5.08,5.08,0,0,0-.48,2.88v6.66a8.57,8.57,0,0,0,.33,3,2.08,2.08,0,0,0,2,1.29,2.21,2.21,0,0,0,2.22-2A11.3,11.3,0,0,0,85.2,395h3.12v.69c0,4.35-1.89,6.63-5.49,6.63a4.94,4.94,0,0,1-4.47-2.22c-.75-1.23-1-2.4-1-5.37v-5.61c0-3.18.24-4.29,1.17-5.55a5,5,0,0,1,4.23-1.86c3.42,0,5.43,2.28,5.43,6.21v.6Z" fill="#fff"/><path d="M94.32,393.17V402H91.23V382h3.09v8.34h4.41V382h3.09v20H98.73v-8.82Z" fill="#fff"/><path d="M108.42,397.64l-.81,4.35h-3l3.84-20h4.23l4,20h-3.18l-.84-4.35Zm2.1-11.82-1.62,9h3.27Z" fill="#fff"/><path d="M122.22,402h-3.09V382h3.09Z" fill="#fff"/><path d="M128.67,402h-3.09V382h4.83a5.54,5.54,0,0,1,4,1.2,5.64,5.64,0,0,1,1.8,4.53c0,2.52-.9,4.26-2.7,5.19l2.94,9.09h-3.24l-2.64-8.22h-1.86Zm1.14-11.07c1.32,0,1.92-.15,2.4-.63a4.26,4.26,0,0,0,0-4.83c-.48-.48-1.08-.63-2.4-.63h-1.14v6.09Z" fill="#fff"/><path d="M141.87,402H139v-3.21h2.91Z" fill="#fff"/></g></g></svg>