<svg xmlns="http://www.w3.org/2000/svg" viewBox="0 0 160 600"><title>txt3</title><g id="Layer_2" data-name="Layer 2"><g id="Rect"><rect width="160" height="600" fill="none"/></g><g id="TODAY_LET_S_STAIN_YOUR_TABLE." data-name="TODAYLET’SSTAINYOURTABLE."><path d="M49.23,340.9H45.42V319.73H40.64v-3.51H54v3.51H49.23Z" fill="#fff"/><path d="M70.13,333.05c0,2.78-.41,4.45-1.4,5.85a6.19,6.19,0,0,1-5.33,2.37,6.19,6.19,0,0,1-5.33-2.37c-1-1.4-1.41-3.07-1.41-5.85v-9c0-2.77.41-4.44,1.41-5.84a6.19,6.19,0,0,1,5.33-2.37,6.19,6.19,0,0,1,5.33,2.37c1,1.4,1.4,3.07,1.4,5.84ZM60.47,333c0,2,.11,2.63.49,3.37a2.9,2.9,0,0,0,4.88,0c.41-.78.48-1.37.48-3.37v-8.84c0-2-.07-2.59-.48-3.37a2.9,2.9,0,0,0-4.88,0c-.38.74-.49,1.41-.49,3.37Z" fill="#fff"/><path d="M74,316.22h6c4.84,0,7.14,2.48,7.14,7.73v9.22c0,5.25-2.3,7.73-7.14,7.73H74Zm5.69,21.16c2.71,0,3.67-1.4,3.67-5.25V325c0-3.89-1-5.26-3.67-5.26H77.83v17.65Z" fill="#fff"/><path d="M94.62,335.53l-1,5.37H89.89l4.73-24.68h5.22l5,24.68h-3.92l-1-5.37ZM97.21,321l-2,11.06h4Z" fill="#fff"/><path d="M114.38,340.9h-3.81v-9.62L105,316.22h4.22l3.29,10.43,3.41-10.43h4.14l-5.7,15.06Z" fill="#fff"/><path d="M52.69,370.46h7.58V374H48.88V349.29h3.81Z" fill="#fff"/><path d="M74.18,352.81H66.82v6.51h5.44v3.51H66.82v7.63h7.36V374H63V349.29H74.18Z" fill="#fff"/><path d="M85.25,374H81.43V352.81H76.66v-3.52h13.4v3.52H85.25Z" fill="#fff"/><path d="M96.46,353.25l-2.19,5.11h-1.4l1.63-5.11H92.87v-4h3.59Z" fill="#fff"/><path d="M109.48,356.17c-.59-2.44-1.7-3.66-3.26-3.66a2.44,2.44,0,0,0-2.47,2.52,3.74,3.74,0,0,0,1,2.48c.63.7.63.7,3.26,2.7a20.54,20.54,0,0,1,3.66,3.33,7.2,7.2,0,0,1,1.59,4.51c0,3.74-2.74,6.29-6.77,6.29-4.22,0-6.7-2.25-7.47-6.95l3.66-1.08c.48,3,1.78,4.44,3.81,4.44a2.67,2.67,0,0,0,2.81-2.81c0-1.55-.77-2.55-3.66-4.81-3.44-2.7-3.59-2.85-4.51-4A6.69,6.69,0,0,1,99.79,355c0-3.55,2.66-6.07,6.43-6.07,3.52,0,5.89,2.11,6.92,6.18Z" fill="#fff"/><path d="M55.46,390.32c-.59-2.45-1.7-3.67-3.25-3.67a2.45,2.45,0,0,0-2.48,2.52,3.73,3.73,0,0,0,1,2.48c.63.7.63.7,3.26,2.7a20.54,20.54,0,0,1,3.66,3.33,7.2,7.2,0,0,1,1.59,4.51c0,3.74-2.73,6.29-6.77,6.29-4.22,0-6.7-2.25-7.47-7l3.66-1.07c.48,3,1.78,4.44,3.81,4.44a2.68,2.68,0,0,0,2.81-2.82c0-1.55-.77-2.55-3.66-4.81-3.44-2.7-3.59-2.85-4.51-4a6.69,6.69,0,0,1-1.37-4.11c0-3.55,2.66-6.07,6.44-6.07,3.51,0,5.88,2.11,6.91,6.18Z" fill="#fff"/><path d="M69.93,408.11H66.12V387H61.34v-3.52h13.4V387H69.93Z" fill="#fff"/><path d="M80.07,402.75l-1,5.36H75.33l4.74-24.68h5.21l5,24.68H86.36l-1-5.36Zm2.59-14.58-2,11.06h4Z" fill="#fff"/><path d="M97.09,408.11H93.27V383.43h3.82Z" fill="#fff"/><path d="M114.92,408.11h-3.4l-6.66-16.42v16.42h-3.63V383.43h3.85l6.21,15.36V383.43h3.63Z" fill="#fff"/><path d="M57.15,442.25H53.33v-9.62l-5.55-15.06H52L55.29,428l3.41-10.44h4.14l-5.69,15.06Z" fill="#fff"/><path d="M78.49,434.41c0,2.78-.4,4.44-1.4,5.85a6.21,6.21,0,0,1-5.33,2.36,6.21,6.21,0,0,1-5.33-2.36c-1-1.41-1.4-3.07-1.4-5.85v-9c0-2.78.4-4.44,1.4-5.85a6.22,6.22,0,0,1,5.33-2.37,6.22,6.22,0,0,1,5.33,2.37c1,1.41,1.4,3.07,1.4,5.85Zm-9.65-.07c0,2,.11,2.62.48,3.36a2.89,2.89,0,0,0,4.88,0c.41-.77.48-1.37.48-3.36v-8.85c0-2-.07-2.59-.48-3.37a2.9,2.9,0,0,0-4.88,0,6.85,6.85,0,0,0-.48,3.37Z" fill="#fff"/><path d="M95.44,417.57V434.3c0,3.11-.37,4.7-1.41,6.1a6.08,6.08,0,0,1-5.1,2.22,6.14,6.14,0,0,1-5.15-2.22c-1-1.4-1.4-3-1.4-6.1V417.57h3.81v17.36c0,2.92.78,4.11,2.74,4.11s2.7-1.19,2.7-4.11V417.57Z" fill="#fff"/><path d="M103.36,442.25H99.55V417.57h6a6.89,6.89,0,0,1,4.89,1.48,7,7,0,0,1,2.22,5.59c0,3.11-1.11,5.26-3.33,6.4l3.62,11.21h-4l-3.26-10.13h-2.29Zm1.4-13.65c1.63,0,2.37-.18,3-.78a5.22,5.22,0,0,0,0-5.95c-.59-.6-1.33-.78-3-.78h-1.4v7.51Z" fill="#fff"/><path d="M47.86,476.4H44.05V455.23H39.27v-3.51h13.4v3.51H47.86Z" fill="#fff"/><path d="M58,471l-1,5.37H53.26L58,451.72h5.21l5,24.68H64.29l-1-5.37Zm2.59-14.58-2,11.07h4Z" fill="#fff"/><path d="M71.46,451.72h5.7c4.63,0,7.22,2.25,7.22,6.25a5.17,5.17,0,0,1-4.07,5.51c3.33,1,4.66,2.67,4.66,5.92,0,4.37-2.74,7-7.33,7H71.46Zm5.18,10.06c2.34,0,3.85-1.37,3.85-3.48a3.09,3.09,0,0,0-.92-2.29,3.91,3.91,0,0,0-2.85-.78H75.27v6.55Zm.56,11.1c2.44,0,3.81-1.26,3.81-3.48,0-2.48-1.7-4.1-4.37-4.1H75.27v7.58Z" fill="#fff"/><path d="M92.52,472.88h7.58v3.52H88.71V451.72h3.81Z" fill="#fff"/><path d="M114,455.23h-7.36v6.51h5.44v3.52h-5.44v7.62H114v3.52H102.84V451.72H114Z" fill="#fff"/><path d="M120.64,476.4h-3.59v-4h3.59Z" fill="#fff"/></g></g></svg>