<svg xmlns="http://www.w3.org/2000/svg" viewBox="0 0 160 600"><title>txt5</title><g id="Layer_2" data-name="Layer 2"><g id="Rect"><rect width="160" height="600" fill="none"/></g><g id="your_anything." data-name="youranything."><path d="M60.93,402H57.84v-7.8L53.34,382h3.42l2.67,8.46L62.19,382h3.36l-4.62,12.21Z" fill="#fff"/><path d="M78.24,395.63a7.63,7.63,0,0,1-1.14,4.74,5.82,5.82,0,0,1-8.64,0,7.63,7.63,0,0,1-1.14-4.74v-7.29a7.63,7.63,0,0,1,1.14-4.74,5.82,5.82,0,0,1,8.64,0,7.63,7.63,0,0,1,1.14,4.74Zm-7.83-.06a5.52,5.52,0,0,0,.39,2.73,2.35,2.35,0,0,0,4,0,5.18,5.18,0,0,0,.39-2.73V388.4a5.18,5.18,0,0,0-.39-2.73,2.35,2.35,0,0,0-4,0,5.52,5.52,0,0,0-.39,2.73Z" fill="#fff"/><path d="M92,382v13.56c0,2.52-.3,3.81-1.14,4.95a5.7,5.7,0,0,1-8.31,0c-.84-1.14-1.14-2.43-1.14-4.95V382h3.09v14.07c0,2.37.63,3.33,2.22,3.33s2.19-1,2.19-3.33V382Z" fill="#fff"/><path d="M98.4,402H95.31V382h4.83a5.54,5.54,0,0,1,4,1.2,5.64,5.64,0,0,1,1.8,4.53c0,2.52-.9,4.26-2.7,5.19l2.94,9.09H102.9l-2.64-8.22H98.4Zm1.14-11.07c1.32,0,1.92-.15,2.4-.63a4.26,4.26,0,0,0,0-4.83c-.48-.48-1.08-.63-2.4-.63H98.4v6.09Z" fill="#fff"/><path d="M30,426.64,29.23,431h-3L30,411h4.23l4,20H35.14l-.84-4.35Zm2.1-11.82-1.62,9h3.27Z" fill="#fff"/><path d="M51.85,431H49.09l-5.4-13.32V431H40.75V411h3.12l5,12.45V411h2.94Z" fill="#fff"/><path d="M62,431H58.93v-7.8L54.43,411h3.42l2.67,8.46L63.28,411h3.36L62,423.19Z" fill="#fff"/><path d="M75.55,431H72.46V413.83H68.59V411H79.45v2.85h-3.9Z" fill="#fff"/><path d="M85,422.17V431H81.91V411H85v8.34h4.41V411H92.5v20H89.41v-8.82Z" fill="#fff"/><path d="M98.92,431H95.83V411h3.09Z" fill="#fff"/><path d="M113.38,431h-2.76l-5.4-13.32V431h-2.94V411h3.12l5,12.45V411h2.94Z" fill="#fff"/><path d="M127.42,421.06V431h-1.59l-.57-1.71a4.18,4.18,0,0,1-3.75,2,4.53,4.53,0,0,1-4.14-2.34c-.66-1.29-.87-2.58-.87-5.34v-5.52c0-3.18.24-4.32,1.17-5.55a5.05,5.05,0,0,1,4.23-1.86,4.94,4.94,0,0,1,4.71,2.67,8.83,8.83,0,0,1,.72,4.14h-3.09c0-2.76-.69-3.9-2.37-3.9a2,2,0,0,0-1.83,1,5.43,5.43,0,0,0-.45,2.88v6.12a10.57,10.57,0,0,0,.33,3.27,2.16,2.16,0,0,0,2.1,1.5c1.62,0,2.31-1.17,2.31-4v-.81h-2.55v-2.55Z" fill="#fff"/><path d="M133.24,431h-2.91v-3.21h2.91Z" fill="#fff"/></g></g></svg>