<svg xmlns="http://www.w3.org/2000/svg" viewBox="0 0 160 600"><title>txt</title><g id="Layer_2" data-name="Layer 2"><g id="SUPERIOR_STAIN_FOR_ALL_INTERIOR_PROJECTS." data-name="SUPERIOR  STAIN  FOR ALL  INTERIOR PROJECTS."><path d="M27.55,323.1c-.6-2.44-1.71-3.66-3.26-3.66A2.44,2.44,0,0,0,21.81,322a3.69,3.69,0,0,0,1,2.48c.63.71.63.71,3.25,2.7a21.5,21.5,0,0,1,3.67,3.33A7.23,7.23,0,0,1,31.36,335c0,3.74-2.74,6.29-6.77,6.29-4.22,0-6.7-2.26-7.48-7l3.66-1.07c.49,3,1.78,4.44,3.82,4.44a2.68,2.68,0,0,0,2.81-2.81c0-1.56-.78-2.56-3.67-4.81-3.44-2.7-3.58-2.85-4.51-4a6.66,6.66,0,0,1-1.37-4.1c0-3.55,2.67-6.07,6.44-6.07,3.51,0,5.88,2.11,6.92,6.18Z" fill="#fff"/><path d="M47.45,316.22v16.72c0,3.11-.37,4.7-1.4,6.11a6.14,6.14,0,0,1-5.11,2.22,6.14,6.14,0,0,1-5.14-2.22c-1-1.41-1.41-3-1.41-6.11V316.22H38.2v17.35c0,2.93.78,4.11,2.74,4.11s2.7-1.18,2.7-4.11V316.22Z" fill="#fff"/><path d="M55.37,340.9H51.56V316.22h6.33c2.47,0,4,.48,5.18,1.59,1.33,1.26,2,3.11,2,5.73s-.63,4.52-2,5.78c-1.15,1.11-2.71,1.59-5.18,1.59H55.37ZM57,327.39c3.08,0,4-.92,4-3.85s-1-3.81-4-3.81H55.37v7.66Z" fill="#fff"/><path d="M79.49,319.73H72.13v6.52h5.44v3.51H72.13v7.62h7.36v3.52H68.32V316.22H79.49Z" fill="#fff"/><path d="M86.3,340.9H82.49V316.22h6a6.81,6.81,0,0,1,4.88,1.48,7,7,0,0,1,2.22,5.59c0,3.1-1.11,5.25-3.33,6.4l3.63,11.21h-4l-3.26-10.14H86.3Zm1.41-13.65c1.62,0,2.36-.19,3-.78a4.15,4.15,0,0,0,.92-3,4.1,4.1,0,0,0-.92-3c-.6-.59-1.34-.78-3-.78H86.3v7.52Z" fill="#fff"/><path d="M103.06,340.9H99.25V316.22h3.81Z" fill="#fff"/><path d="M120.41,333.05c0,2.78-.4,4.45-1.4,5.85a7.18,7.18,0,0,1-10.66,0c-1-1.4-1.4-3.07-1.4-5.85v-9c0-2.77.4-4.44,1.4-5.84a7.18,7.18,0,0,1,10.66,0c1,1.4,1.4,3.07,1.4,5.84Zm-9.65-.07c0,2,.11,2.63.48,3.37a2.9,2.9,0,0,0,4.88,0c.41-.78.48-1.37.48-3.37v-8.84c0-2-.07-2.59-.48-3.37a2.9,2.9,0,0,0-4.88,0c-.37.74-.48,1.41-.48,3.37Z" fill="#fff"/><path d="M128.11,340.9H124.3V316.22h6a6.81,6.81,0,0,1,4.88,1.48,7,7,0,0,1,2.22,5.59c0,3.1-1.11,5.25-3.33,6.4l3.63,11.21h-4l-3.26-10.14h-2.29Zm1.41-13.65c1.62,0,2.36-.19,3-.78a4.15,4.15,0,0,0,.92-3,4.1,4.1,0,0,0-.92-3c-.6-.59-1.34-.78-3-.78h-1.41v7.52Z" fill="#fff"/><path d="M52.45,359.28c-.6-2.45-1.71-3.67-3.26-3.67a2.45,2.45,0,0,0-2.48,2.52,3.69,3.69,0,0,0,1,2.48c.63.7.63.7,3.25,2.7a20.71,20.71,0,0,1,3.67,3.33,7.2,7.2,0,0,1,1.59,4.51c0,3.74-2.74,6.29-6.77,6.29-4.22,0-6.7-2.25-7.48-6.95l3.66-1.07c.49,3,1.78,4.44,3.82,4.44A2.69,2.69,0,0,0,52.3,371c0-1.55-.78-2.55-3.67-4.81-3.44-2.7-3.58-2.85-4.51-4a6.69,6.69,0,0,1-1.37-4.11c0-3.55,2.67-6.07,6.44-6.07,3.52,0,5.88,2.11,6.92,6.18Z" fill="#fff"/><path d="M66.91,377.07H63.1V355.91H58.33v-3.52H71.72v3.52H66.91Z" fill="#fff"/><path d="M77.05,371.71l-1,5.36H72.31l4.74-24.68h5.22l5,24.68H83.34l-1-5.36Zm2.59-14.58-2,11.06h4Z" fill="#fff"/><path d="M94.07,377.07H90.26V352.39h3.81Z" fill="#fff"/><path d="M111.9,377.07h-3.4l-6.66-16.42v16.42H98.21V352.39h3.85l6.22,15.36V352.39h3.62Z" fill="#fff"/><path d="M33.72,413.25H29.91V388.57H41.2v3.51H33.72v6.67h5.55v3.51H33.72Z" fill="#fff"/><path d="M57.4,405.41c0,2.77-.4,4.44-1.4,5.84a6.19,6.19,0,0,1-5.33,2.37,6.19,6.19,0,0,1-5.33-2.37c-1-1.4-1.4-3.07-1.4-5.84v-9c0-2.77.4-4.44,1.4-5.84a6.19,6.19,0,0,1,5.33-2.37A6.19,6.19,0,0,1,56,390.57c1,1.4,1.4,3.07,1.4,5.84Zm-9.65-.08c0,2,.11,2.63.48,3.37a2.9,2.9,0,0,0,4.88,0c.41-.78.48-1.37.48-3.37v-8.84c0-2-.07-2.59-.48-3.37a2.9,2.9,0,0,0-4.88,0c-.37.74-.48,1.41-.48,3.37Z" fill="#fff"/><path d="M65.1,413.25H61.29V388.57h6a6.81,6.81,0,0,1,4.88,1.48,7,7,0,0,1,2.22,5.59c0,3.11-1.11,5.25-3.33,6.4l3.63,11.21h-4l-3.26-10.14H65.1Zm1.41-13.65c1.62,0,2.36-.19,3-.78a4.15,4.15,0,0,0,.92-3,4.1,4.1,0,0,0-.92-3c-.6-.59-1.34-.78-3-.78H65.1v7.52Z" fill="#fff"/><path d="M87.78,407.88l-1,5.37H83l4.74-24.68H93l5,24.68H94.07l-1-5.37Zm2.59-14.57-2,11.06h4Z" fill="#fff"/><path d="M104.8,409.73h7.59v3.52H101V388.57h3.81Z" fill="#fff"/><path d="M118.93,409.73h7.59v3.52h-11.4V388.57h3.81Z" fill="#fff"/><path d="M29.56,449.42H25.75V424.74h3.81Z" fill="#fff"/><path d="M47.4,449.42H44L37.33,433v16.42H33.71V424.74h3.84l6.22,15.36V424.74H47.4Z" fill="#fff"/><path d="M59,449.42H55.2V428.26H50.43v-3.52H63.82v3.52H59Z" fill="#fff"/><path d="M78,428.26H70.67v6.51h5.44v3.52H70.67v7.62H78v3.51H66.86V424.74H78Z" fill="#fff"/><path d="M84.84,449.42H81V424.74h6a6.86,6.86,0,0,1,4.88,1.48,7,7,0,0,1,2.22,5.59c0,3.11-1.11,5.26-3.33,6.4l3.63,11.21h-4l-3.26-10.13H84.84Zm1.41-13.65c1.62,0,2.36-.18,3-.78a5.27,5.27,0,0,0,0-5.95c-.6-.6-1.34-.78-3-.78H84.84v7.51Z" fill="#fff"/><path d="M101.6,449.42H97.79V424.74h3.81Z" fill="#fff"/><path d="M119,441.58c0,2.78-.4,4.44-1.4,5.85a7.2,7.2,0,0,1-10.66,0c-1-1.41-1.41-3.07-1.41-5.85v-9c0-2.78.41-4.44,1.41-5.85a7.18,7.18,0,0,1,10.66,0c1,1.41,1.4,3.07,1.4,5.85Zm-9.66-.07a6.74,6.74,0,0,0,.49,3.36,2.89,2.89,0,0,0,4.88,0c.41-.77.48-1.37.48-3.36v-8.85c0-2-.07-2.59-.48-3.37a2.9,2.9,0,0,0-4.88,0,6.82,6.82,0,0,0-.49,3.37Z" fill="#fff"/><path d="M126.65,449.42h-3.81V424.74h5.95a6.89,6.89,0,0,1,4.89,1.48,7,7,0,0,1,2.22,5.59c0,3.11-1.11,5.26-3.33,6.4l3.62,11.21h-4l-3.26-10.13h-2.29Zm1.4-13.65c1.63,0,2.37-.18,3-.78a5.22,5.22,0,0,0,0-5.95c-.59-.6-1.33-.78-3-.78h-1.4v7.51Z" fill="#fff"/><path d="M21.09,485.6H17.28V460.92h6.33c2.48,0,4,.48,5.18,1.59,1.33,1.26,2,3.11,2,5.74s-.63,4.51-2,5.77c-1.15,1.11-2.7,1.59-5.18,1.59H21.09Zm1.66-13.51c3.08,0,4-.92,4-3.84s-1-3.81-4-3.81H21.09v7.65Z" fill="#fff"/><path d="M37.85,485.6H34V460.92h6a6.81,6.81,0,0,1,4.88,1.48A7,7,0,0,1,47.1,468c0,3.11-1.11,5.25-3.33,6.4L47.4,485.6h-4l-3.25-10.14h-2.3ZM39.26,472c1.62,0,2.37-.19,3-.78a4.1,4.1,0,0,0,.92-3,4.06,4.06,0,0,0-.92-3c-.59-.59-1.34-.77-3-.77H37.85V472Z" fill="#fff"/><path d="M64,477.76c0,2.77-.41,4.44-1.41,5.84A6.19,6.19,0,0,1,57.28,486,6.19,6.19,0,0,1,52,483.6c-1-1.4-1.41-3.07-1.41-5.84v-9c0-2.77.41-4.44,1.41-5.84a6.19,6.19,0,0,1,5.33-2.37,6.19,6.19,0,0,1,5.32,2.37c1,1.4,1.41,3.07,1.41,5.84Zm-9.66-.08c0,2,.11,2.63.48,3.37a2.91,2.91,0,0,0,4.89,0c.41-.78.48-1.37.48-3.37v-8.84c0-2-.07-2.59-.48-3.37a2.91,2.91,0,0,0-4.89,0c-.37.74-.48,1.41-.48,3.37Z" fill="#fff"/><path d="M74,460.92v18.65c0,2.59-.26,3.66-1.07,4.66s-2,1.37-3.85,1.37h-2.3V482h.89c1.85,0,2.52-.7,2.52-2.74V460.92Z" fill="#fff"/><path d="M89.32,464.44H82V471h5.44v3.51H82v7.62h7.37v3.52H78.14V460.92H89.32Z" fill="#fff"/><path d="M101.79,469v-.52c0-2.85-1-4.29-2.89-4.29a2.41,2.41,0,0,0-2.26,1.22c-.48.81-.59,1.55-.59,3.55v8.22a10.44,10.44,0,0,0,.41,3.66,2.57,2.57,0,0,0,2.44,1.59c1.4,0,2.33-.81,2.74-2.44a14.12,14.12,0,0,0,.22-3h3.85v.85c0,5.37-2.33,8.18-6.77,8.18a6.11,6.11,0,0,1-5.52-2.74c-.92-1.52-1.18-3-1.18-6.62v-6.92c0-3.92.29-5.29,1.44-6.85a6.18,6.18,0,0,1,5.22-2.29c4.22,0,6.7,2.81,6.7,7.66V469Z" fill="#fff"/><path d="M116.73,485.6h-3.81V464.44h-4.77v-3.52h13.39v3.52h-4.81Z" fill="#fff"/><path d="M133.9,467.8c-.59-2.44-1.7-3.66-3.26-3.66a2.45,2.45,0,0,0-2.48,2.52,3.67,3.67,0,0,0,1,2.47c.63.71.63.71,3.26,2.71a20.16,20.16,0,0,1,3.66,3.33,7.18,7.18,0,0,1,1.59,4.51c0,3.74-2.74,6.29-6.77,6.29-4.22,0-6.7-2.26-7.48-7l3.67-1.07c.48,3,1.77,4.44,3.81,4.44a2.68,2.68,0,0,0,2.81-2.81c0-1.56-.78-2.55-3.66-4.81-3.44-2.7-3.59-2.85-4.52-4a6.74,6.74,0,0,1-1.36-4.11c0-3.55,2.66-6.07,6.43-6.07,3.52,0,5.89,2.11,6.92,6.18Z" fill="#fff"/><path d="M144.26,485.6h-3.59v-4h3.59Z" fill="#fff"/><rect width="160" height="600" fill="none"/></g></g></svg>