<svg xmlns="http://www.w3.org/2000/svg" viewBox="0 0 160 600"><title>txt6</title><g id="Layer_2" data-name="Layer 2"><g id="Rect"><rect width="160" height="600" fill="none"/></g><g id="SUPERIOR_STAIN_FOR_ALL_PROJECTS." data-name="SUPERIOR  STAIN  FOR ALL  PROJECTS."><path d="M27.55,338.1c-.6-2.44-1.71-3.66-3.26-3.66A2.44,2.44,0,0,0,21.81,337a3.69,3.69,0,0,0,1,2.48c.63.71.63.71,3.25,2.7a21.5,21.5,0,0,1,3.67,3.33A7.23,7.23,0,0,1,31.36,350c0,3.74-2.74,6.29-6.77,6.29-4.22,0-6.7-2.26-7.48-7l3.66-1.07c.49,3,1.78,4.44,3.82,4.44a2.68,2.68,0,0,0,2.81-2.81c0-1.56-.78-2.56-3.67-4.81-3.44-2.7-3.58-2.85-4.51-4a6.66,6.66,0,0,1-1.37-4.1c0-3.55,2.67-6.07,6.44-6.07,3.51,0,5.88,2.11,6.92,6.18Z" fill="#fff"/><path d="M47.45,331.22v16.72c0,3.11-.37,4.7-1.4,6.11a6.14,6.14,0,0,1-5.11,2.22,6.14,6.14,0,0,1-5.14-2.22c-1-1.41-1.41-3-1.41-6.11V331.22H38.2v17.35c0,2.93.78,4.11,2.74,4.11s2.7-1.18,2.7-4.11V331.22Z" fill="#fff"/><path d="M55.37,355.9H51.56V331.22h6.33c2.47,0,4,.48,5.18,1.59,1.33,1.26,2,3.11,2,5.73s-.63,4.52-2,5.78c-1.15,1.11-2.71,1.59-5.18,1.59H55.37ZM57,342.39c3.08,0,4-.92,4-3.85s-1-3.81-4-3.81H55.37v7.66Z" fill="#fff"/><path d="M79.49,334.73H72.13v6.52h5.44v3.51H72.13v7.62h7.36v3.52H68.32V331.22H79.49Z" fill="#fff"/><path d="M86.3,355.9H82.49V331.22h6a6.81,6.81,0,0,1,4.88,1.48,7,7,0,0,1,2.22,5.59c0,3.1-1.11,5.25-3.33,6.4l3.63,11.21h-4l-3.26-10.14H86.3Zm1.41-13.65c1.62,0,2.36-.19,3-.78a4.15,4.15,0,0,0,.92-3,4.1,4.1,0,0,0-.92-3c-.6-.59-1.34-.78-3-.78H86.3v7.52Z" fill="#fff"/><path d="M103.06,355.9H99.25V331.22h3.81Z" fill="#fff"/><path d="M120.41,348.05c0,2.78-.4,4.45-1.4,5.85a7.18,7.18,0,0,1-10.66,0c-1-1.4-1.4-3.07-1.4-5.85v-9c0-2.77.4-4.44,1.4-5.84a7.18,7.18,0,0,1,10.66,0c1,1.4,1.4,3.07,1.4,5.84Zm-9.65-.07c0,2,.11,2.63.48,3.37a2.9,2.9,0,0,0,4.88,0c.41-.78.48-1.37.48-3.37v-8.84c0-2-.07-2.59-.48-3.37a2.9,2.9,0,0,0-4.88,0c-.37.74-.48,1.41-.48,3.37Z" fill="#fff"/><path d="M128.11,355.9H124.3V331.22h6a6.81,6.81,0,0,1,4.88,1.48,7,7,0,0,1,2.22,5.59c0,3.1-1.11,5.25-3.33,6.4l3.63,11.21h-4l-3.26-10.14h-2.29Zm1.41-13.65c1.62,0,2.36-.19,3-.78a4.15,4.15,0,0,0,.92-3,4.1,4.1,0,0,0-.92-3c-.6-.59-1.34-.78-3-.78h-1.41v7.52Z" fill="#fff"/><path d="M52.45,374.28c-.6-2.45-1.71-3.67-3.26-3.67a2.45,2.45,0,0,0-2.48,2.52,3.69,3.69,0,0,0,1,2.48c.63.7.63.7,3.25,2.7a20.71,20.71,0,0,1,3.67,3.33,7.2,7.2,0,0,1,1.59,4.51c0,3.74-2.74,6.29-6.77,6.29-4.22,0-6.7-2.25-7.48-6.95l3.66-1.07c.49,3,1.78,4.44,3.82,4.44A2.69,2.69,0,0,0,52.3,386c0-1.55-.78-2.55-3.67-4.81-3.44-2.7-3.58-2.85-4.51-4a6.69,6.69,0,0,1-1.37-4.11c0-3.55,2.67-6.07,6.44-6.07,3.52,0,5.88,2.11,6.92,6.18Z" fill="#fff"/><path d="M66.91,392.07H63.1V370.91H58.33v-3.52H71.72v3.52H66.91Z" fill="#fff"/><path d="M77.05,386.71l-1,5.36H72.31l4.74-24.68h5.22l5,24.68H83.34l-1-5.36Zm2.59-14.58-2,11.06h4Z" fill="#fff"/><path d="M94.07,392.07H90.26V367.39h3.81Z" fill="#fff"/><path d="M111.9,392.07h-3.4l-6.66-16.42v16.42H98.21V367.39h3.85l6.22,15.36V367.39h3.62Z" fill="#fff"/><path d="M33.72,428.25H29.91V403.57H41.2v3.51H33.72v6.67h5.55v3.51H33.72Z" fill="#fff"/><path d="M57.4,420.41c0,2.77-.4,4.44-1.4,5.84a6.19,6.19,0,0,1-5.33,2.37,6.19,6.19,0,0,1-5.33-2.37c-1-1.4-1.4-3.07-1.4-5.84v-9c0-2.77.4-4.44,1.4-5.84a6.19,6.19,0,0,1,5.33-2.37A6.19,6.19,0,0,1,56,405.57c1,1.4,1.4,3.07,1.4,5.84Zm-9.65-.08c0,2,.11,2.63.48,3.37a2.9,2.9,0,0,0,4.88,0c.41-.78.48-1.37.48-3.37v-8.84c0-2-.07-2.59-.48-3.37a2.9,2.9,0,0,0-4.88,0c-.37.74-.48,1.41-.48,3.37Z" fill="#fff"/><path d="M65.1,428.25H61.29V403.57h6a6.81,6.81,0,0,1,4.88,1.48,7,7,0,0,1,2.22,5.59c0,3.11-1.11,5.25-3.33,6.4l3.63,11.21h-4l-3.26-10.14H65.1Zm1.41-13.65c1.62,0,2.36-.19,3-.78a4.15,4.15,0,0,0,.92-3,4.1,4.1,0,0,0-.92-3c-.6-.59-1.34-.78-3-.78H65.1v7.52Z" fill="#fff"/><path d="M87.78,422.88l-1,5.37H83l4.74-24.68H93l5,24.68H94.07l-1-5.37Zm2.59-14.57-2,11.06h4Z" fill="#fff"/><path d="M104.8,424.73h7.59v3.52H101V403.57h3.81Z" fill="#fff"/><path d="M118.93,424.73h7.59v3.52h-11.4V403.57h3.81Z" fill="#fff"/><path d="M21.09,464.42H17.28V439.74h6.33c2.48,0,4,.49,5.18,1.59,1.33,1.26,2,3.11,2,5.74s-.63,4.51-2,5.77c-1.15,1.11-2.7,1.59-5.18,1.59H21.09Zm1.66-13.5c3.08,0,4-.93,4-3.85s-1-3.81-4-3.81H21.09v7.66Z" fill="#fff"/><path d="M37.85,464.42H34V439.74h6a6.86,6.86,0,0,1,4.88,1.48,7,7,0,0,1,2.22,5.59c0,3.11-1.11,5.26-3.33,6.4l3.63,11.21h-4l-3.25-10.13h-2.3Zm1.41-13.65c1.62,0,2.36-.18,3-.78a5.27,5.27,0,0,0,0-5.95c-.6-.6-1.34-.78-3-.78H37.85v7.51Z" fill="#fff"/><path d="M64,456.58c0,2.78-.41,4.44-1.41,5.85a6.21,6.21,0,0,1-5.32,2.36A6.21,6.21,0,0,1,52,462.43c-1-1.41-1.41-3.07-1.41-5.85v-9c0-2.78.41-4.44,1.41-5.85a6.22,6.22,0,0,1,5.33-2.37,6.21,6.21,0,0,1,5.32,2.37c1,1.41,1.41,3.07,1.41,5.85Zm-9.66-.07c0,2,.11,2.62.48,3.36a2.9,2.9,0,0,0,4.89,0c.4-.77.48-1.37.48-3.36v-8.85c0-2-.08-2.59-.48-3.37a2.91,2.91,0,0,0-4.89,0,6.85,6.85,0,0,0-.48,3.37Z" fill="#fff"/><path d="M74,439.74v18.65c0,2.59-.26,3.67-1.07,4.67s-2,1.36-3.85,1.36h-2.3v-3.58h.89c1.85,0,2.52-.71,2.52-2.74V439.74Z" fill="#fff"/><path d="M89.32,443.26H82v6.51h5.44v3.52H82v7.62h7.37v3.51H78.14V439.74H89.32Z" fill="#fff"/><path d="M101.79,447.77v-.51c0-2.85-1-4.3-2.89-4.3a2.43,2.43,0,0,0-2.26,1.22c-.48.82-.59,1.56-.59,3.56V456a10.41,10.41,0,0,0,.41,3.66,2.56,2.56,0,0,0,2.44,1.6c1.4,0,2.33-.82,2.74-2.45a14,14,0,0,0,.22-3h3.85v.85c0,5.36-2.33,8.17-6.77,8.17a6.12,6.12,0,0,1-5.52-2.73c-.92-1.52-1.18-3-1.18-6.63v-6.92c0-3.92.29-5.29,1.44-6.84a6.18,6.18,0,0,1,5.22-2.3c4.22,0,6.7,2.82,6.7,7.66v.74Z" fill="#fff"/><path d="M116.73,464.42h-3.81V443.26h-4.77v-3.52h13.39v3.52h-4.81Z" fill="#fff"/><path d="M133.9,446.63c-.59-2.45-1.7-3.67-3.26-3.67a2.45,2.45,0,0,0-2.48,2.52,3.69,3.69,0,0,0,1,2.48c.63.7.63.7,3.26,2.7a20.54,20.54,0,0,1,3.66,3.33,7.2,7.2,0,0,1,1.59,4.51c0,3.74-2.74,6.29-6.77,6.29-4.22,0-6.7-2.25-7.48-7l3.67-1.07c.48,3,1.77,4.44,3.81,4.44a2.69,2.69,0,0,0,2.81-2.82c0-1.55-.78-2.55-3.66-4.81-3.44-2.7-3.59-2.85-4.52-4a6.74,6.74,0,0,1-1.36-4.11c0-3.55,2.66-6.07,6.43-6.07,3.52,0,5.89,2.11,6.92,6.18Z" fill="#fff"/><path d="M144.26,464.42h-3.59v-3.95h3.59Z" fill="#fff"/></g></g></svg>