<svg xmlns="http://www.w3.org/2000/svg" viewBox="0 0 160 600"><title>txt6</title><g id="Layer_2" data-name="Layer 2"><g id="Rect"><rect width="160" height="600" fill="none"/></g><g id="Superior_stain_for_all_projects." data-name="Superior stain for all projects."><path d="M39.37,329.56c-.48-2-1.38-3-2.64-3a2,2,0,0,0-2,2,3,3,0,0,0,.84,2,14.35,14.35,0,0,0,2.64,2.19,16.72,16.72,0,0,1,3,2.7,5.85,5.85,0,0,1,1.29,3.66c0,3-2.22,5.1-5.49,5.1s-5.43-1.83-6.06-5.64l3-.87c.39,2.4,1.44,3.6,3.09,3.6a2.17,2.17,0,0,0,2.28-2.28c0-1.26-.63-2.07-3-3.9-2.79-2.19-2.91-2.31-3.66-3.27a5.42,5.42,0,0,1-1.11-3.33,4.87,4.87,0,0,1,5.22-4.92c2.85,0,4.77,1.71,5.61,5Z" fill="#fff"/><path d="M55.51,324v13.56c0,2.52-.3,3.81-1.14,4.95a5,5,0,0,1-4.14,1.8,5,5,0,0,1-4.17-1.8c-.84-1.14-1.14-2.43-1.14-4.95V324H48v14.07c0,2.37.63,3.33,2.22,3.33s2.19-1,2.19-3.33V324Z" fill="#fff"/><path d="M61.93,344H58.84V324H64c2,0,3.27.39,4.2,1.29a6,6,0,0,1,1.59,4.65c0,2.16-.51,3.66-1.59,4.68S66,335.89,64,335.89h-2ZM63.28,333c2.49,0,3.27-.75,3.27-3.12s-.78-3.09-3.27-3.09H61.93V333Z" fill="#fff"/><path d="M81.49,326.83h-6v5.28h4.41V335H75.52v6.18h6V344H72.43V324h9.06Z" fill="#fff"/><path d="M87,344H83.92V324h4.83a5.54,5.54,0,0,1,4,1.2,5.64,5.64,0,0,1,1.8,4.53c0,2.52-.9,4.26-2.7,5.19L94.75,344H91.51l-2.64-8.22H87Zm1.14-11.07c1.32,0,1.92-.15,2.4-.63a4.26,4.26,0,0,0,0-4.83c-.48-.48-1.08-.63-2.4-.63H87v6.09Z" fill="#fff"/><path d="M100.6,344H97.51V324h3.09Z" fill="#fff"/><path d="M114.67,337.63a7.63,7.63,0,0,1-1.14,4.74,5.82,5.82,0,0,1-8.64,0,7.63,7.63,0,0,1-1.14-4.74v-7.29a7.63,7.63,0,0,1,1.14-4.74,5.82,5.82,0,0,1,8.64,0,7.63,7.63,0,0,1,1.14,4.74Zm-7.83-.06a5.52,5.52,0,0,0,.39,2.73,2.35,2.35,0,0,0,4,0,5.18,5.18,0,0,0,.39-2.73V330.4a5.18,5.18,0,0,0-.39-2.73,2.36,2.36,0,0,0-4,0,5.52,5.52,0,0,0-.39,2.73Z" fill="#fff"/><path d="M120.91,344h-3.09V324h4.83a5.54,5.54,0,0,1,4,1.2,5.64,5.64,0,0,1,1.8,4.53c0,2.52-.9,4.26-2.7,5.19l2.94,9.09h-3.24l-2.64-8.22h-1.86Zm1.14-11.07c1.32,0,1.92-.15,2.4-.63a4.26,4.26,0,0,0,0-4.83c-.48-.48-1.08-.63-2.4-.63h-1.14v6.09Z" fill="#fff"/><path d="M16.84,358.56c-.48-2-1.38-3-2.64-3a2,2,0,0,0-2,2,3,3,0,0,0,.84,2,14.35,14.35,0,0,0,2.64,2.19,16.72,16.72,0,0,1,3,2.7,5.85,5.85,0,0,1,1.29,3.66c0,3-2.22,5.1-5.49,5.1S9,371.46,8.38,367.65l3-.87c.39,2.4,1.44,3.6,3.09,3.6a2.17,2.17,0,0,0,2.28-2.28c0-1.26-.63-2.07-3-3.9-2.79-2.19-2.91-2.31-3.66-3.27A5.42,5.42,0,0,1,9,357.6a4.87,4.87,0,0,1,5.22-4.92c2.85,0,4.77,1.71,5.61,5Z" fill="#fff"/><path d="M28.57,373H25.48V355.83H21.61V353H32.47v2.85h-3.9Z" fill="#fff"/><path d="M36.79,368.64,36,373H33l3.84-20H41l4,20H41.89l-.84-4.35Zm2.1-11.82-1.62,9h3.27Z" fill="#fff"/><path d="M50.59,373H47.5V353h3.09Z" fill="#fff"/><path d="M65.05,373H62.29l-5.4-13.32V373H54V353h3.12l5,12.45V353h2.94Z" fill="#fff"/><path d="M76.36,373H73.27V353h9.15v2.85H76.36v5.4h4.5v2.85h-4.5Z" fill="#fff"/><path d="M95.56,366.63a7.63,7.63,0,0,1-1.14,4.74,5.82,5.82,0,0,1-8.64,0,7.63,7.63,0,0,1-1.14-4.74v-7.29a7.63,7.63,0,0,1,1.14-4.74,5.82,5.82,0,0,1,8.64,0,7.63,7.63,0,0,1,1.14,4.74Zm-7.83-.06a5.52,5.52,0,0,0,.39,2.73,2.35,2.35,0,0,0,4,0,5.18,5.18,0,0,0,.39-2.73V359.4a5.18,5.18,0,0,0-.39-2.73,2.36,2.36,0,0,0-4,0,5.52,5.52,0,0,0-.39,2.73Z" fill="#fff"/><path d="M101.8,373H98.71V353h4.83a5.54,5.54,0,0,1,4,1.2,5.64,5.64,0,0,1,1.8,4.53c0,2.52-.9,4.26-2.7,5.19l2.94,9.09H106.3l-2.64-8.22H101.8Zm1.14-11.07c1.32,0,1.92-.15,2.4-.63a4.26,4.26,0,0,0,0-4.83c-.48-.48-1.08-.63-2.4-.63H101.8v6.09Z" fill="#fff"/><path d="M120.19,368.64l-.81,4.35h-3l3.84-20h4.23l4,20h-3.18l-.84-4.35Zm2.1-11.82-1.62,9h3.27Z" fill="#fff"/><path d="M134,370.14h6.15V373H130.9V353H134Z" fill="#fff"/><path d="M145.45,370.14h6.15V373h-9.24V353h3.09Z" fill="#fff"/><path d="M31.69,402H28.6V382h5.13c2,0,3.27.39,4.2,1.29a6,6,0,0,1,1.59,4.65c0,2.16-.51,3.66-1.59,4.68s-2.19,1.29-4.2,1.29h-2ZM33,391c2.49,0,3.27-.75,3.27-3.12s-.78-3.09-3.27-3.09H31.69V391Z" fill="#fff"/><path d="M45.28,402H42.19V382H47a5.54,5.54,0,0,1,4,1.2,5.64,5.64,0,0,1,1.8,4.53c0,2.52-.9,4.26-2.7,5.19L53,402H49.78l-2.64-8.22H45.28Zm1.14-11.07c1.32,0,1.92-.15,2.4-.63a4.26,4.26,0,0,0,0-4.83c-.48-.48-1.08-.63-2.4-.63H45.28v6.09Z" fill="#fff"/><path d="M66.49,395.63a7.63,7.63,0,0,1-1.14,4.74A5.06,5.06,0,0,1,61,402.29a5.06,5.06,0,0,1-4.32-1.92,7.63,7.63,0,0,1-1.14-4.74v-7.29a7.63,7.63,0,0,1,1.14-4.74A5,5,0,0,1,61,381.68a5,5,0,0,1,4.32,1.92,7.63,7.63,0,0,1,1.14,4.74Zm-7.83-.06a5.52,5.52,0,0,0,.39,2.73,2.35,2.35,0,0,0,4,0,5.18,5.18,0,0,0,.39-2.73V388.4a5.18,5.18,0,0,0-.39-2.73,2.35,2.35,0,0,0-4,0,5.52,5.52,0,0,0-.39,2.73Z" fill="#fff"/><path d="M74.59,382V397.1c0,2.1-.21,3-.87,3.78A3.67,3.67,0,0,1,70.6,402H68.74v-2.91h.72c1.5,0,2-.57,2-2.22V382Z" fill="#fff"/><path d="M87,384.83H81v5.28h4.41V393H81v6.18h6V402H78V382H87Z" fill="#fff"/><path d="M97.12,388.49v-.42c0-2.31-.81-3.48-2.34-3.48a2,2,0,0,0-1.83,1,5.08,5.08,0,0,0-.48,2.88v6.66a8.57,8.57,0,0,0,.33,3,2.08,2.08,0,0,0,2,1.29,2.21,2.21,0,0,0,2.22-2,11.3,11.3,0,0,0,.18-2.43h3.12v.69c0,4.35-1.89,6.63-5.49,6.63a4.94,4.94,0,0,1-4.47-2.22c-.75-1.23-1-2.4-1-5.37v-5.61c0-3.18.24-4.29,1.17-5.55a5,5,0,0,1,4.23-1.86c3.42,0,5.43,2.28,5.43,6.21v.6Z" fill="#fff"/><path d="M109.24,402h-3.09V384.83h-3.87V382h10.86v2.85h-3.9Z" fill="#fff"/><path d="M123.16,387.56c-.48-2-1.38-3-2.64-3a2,2,0,0,0-2,2,3,3,0,0,0,.84,2,14.35,14.35,0,0,0,2.64,2.19,16.72,16.72,0,0,1,3,2.7,5.85,5.85,0,0,1,1.29,3.66c0,3-2.22,5.1-5.49,5.1-3.42,0-5.43-1.83-6.06-5.64l3-.87c.39,2.4,1.44,3.6,3.09,3.6A2.17,2.17,0,0,0,123,397.1c0-1.26-.63-2.07-3-3.9-2.79-2.19-2.91-2.31-3.66-3.27a5.42,5.42,0,0,1-1.11-3.33,4.87,4.87,0,0,1,5.22-4.92c2.85,0,4.77,1.71,5.61,5Z" fill="#fff"/><path d="M131.56,402h-2.91v-3.21h2.91Z" fill="#fff"/></g></g></svg>