<svg xmlns="http://www.w3.org/2000/svg" viewBox="0 0 970 250"><title>txt1</title><g id="Layer_2" data-name="Layer 2"><g id="Rect"><rect width="970" height="250" fill="none"/></g><g id="Today_let_s_stain" data-name="Todaylet’s stain"><path d="M452.38,97H446.2V62.67h-7.74V57h21.72v5.7h-7.8Z" fill="#fff"/><path d="M486.28,84.27c0,4.5-.66,7.2-2.28,9.48-1.8,2.52-4.8,3.84-8.64,3.84s-6.84-1.32-8.64-3.84c-1.62-2.28-2.28-5-2.28-9.48V69.69c0-4.5.66-7.2,2.28-9.48,1.8-2.52,4.8-3.84,8.64-3.84s6.84,1.32,8.64,3.84c1.62,2.28,2.28,5,2.28,9.48Zm-15.66-.12c0,3.18.18,4.26.78,5.46a4.71,4.71,0,0,0,7.92,0c.66-1.26.78-2.22.78-5.46V69.81c0-3.24-.12-4.2-.78-5.46a4.71,4.71,0,0,0-7.92,0c-.6,1.2-.78,2.28-.78,5.46Z" fill="#fff"/><path d="M492.58,57h9.78c7.86,0,11.58,4,11.58,12.54V84.45C513.94,93,510.22,97,502.36,97h-9.78Zm9.24,34.32c4.38,0,5.94-2.28,5.94-8.52V71.19c0-6.3-1.56-8.52-5.94-8.52h-3.06V91.29Z" fill="#fff"/><path d="M526,88.29,524.38,97h-6.06L526,57h8.46l8.1,40H536.2l-1.68-8.7Zm4.2-23.64L527,82.59h6.54Z" fill="#fff"/><path d="M558,97h-6.18V81.39l-9-24.42h6.84L555,73.89,560.56,57h6.72L558,81.39Z" fill="#fff"/><path d="M447.28,143.29h12.3V149H441.1V109h6.18Z" fill="#fff"/><path d="M482.14,114.67H470.2v10.56H479v5.7H470.2v12.36h11.94V149H464V109h18.12Z" fill="#fff"/><path d="M500.08,149H493.9V114.67h-7.74V109h21.72v5.7h-7.8Z" fill="#fff"/><path d="M518.26,115.39l-3.54,8.28h-2.28l2.64-8.28h-2.64V109h5.82Z" fill="#fff"/><path d="M539.37,120.13c-1-4-2.76-5.94-5.28-5.94a4,4,0,0,0-4,4.08,6,6,0,0,0,1.68,4c1,1.14,1,1.14,5.28,4.38a33.45,33.45,0,0,1,5.94,5.4,11.69,11.69,0,0,1,2.58,7.32c0,6.06-4.44,10.19-11,10.19-6.84,0-10.86-3.65-12.11-11.27l5.93-1.74c.78,4.8,2.88,7.2,6.18,7.2a4.35,4.35,0,0,0,4.56-4.56c0-2.52-1.26-4.14-5.94-7.8-5.58-4.38-5.81-4.62-7.31-6.54a10.8,10.8,0,0,1-2.23-6.66c0-5.76,4.32-9.84,10.44-9.84,5.7,0,9.54,3.42,11.22,10Z" fill="#fff"/><path d="M575.31,120.13c-1-4-2.76-5.94-5.28-5.94a4,4,0,0,0-4,4.08,6,6,0,0,0,1.68,4c1,1.14,1,1.14,5.28,4.38a33.45,33.45,0,0,1,5.94,5.4,11.69,11.69,0,0,1,2.58,7.32c0,6.06-4.44,10.19-11,10.19-6.84,0-10.86-3.65-12.12-11.27l5.94-1.74c.78,4.8,2.88,7.2,6.18,7.2a4.35,4.35,0,0,0,4.56-4.56c0-2.52-1.26-4.14-5.94-7.8-5.58-4.38-5.82-4.62-7.32-6.54a10.85,10.85,0,0,1-2.22-6.66c0-5.76,4.32-9.84,10.44-9.84,5.7,0,9.54,3.42,11.22,10Z" fill="#fff"/><path d="M598.77,149h-6.18V114.67h-7.74V109h21.72v5.7h-7.8Z" fill="#fff"/><path d="M615.21,140.29l-1.62,8.7h-6.06l7.68-40h8.46l8.1,40h-6.36l-1.68-8.7Zm4.2-23.64-3.24,17.94h6.54Z" fill="#fff"/><path d="M642.81,149h-6.18V109h6.18Z" fill="#fff"/><path d="M671.73,149h-5.52l-10.8-26.64V149h-5.88V109h6.24l10.08,24.9V109h5.88Z" fill="#fff"/></g></g></svg>