<svg xmlns="http://www.w3.org/2000/svg" viewBox="0 0 970 250"><title>txt2</title><g id="Layer_2" data-name="Layer 2"><g id="Rect"><rect width="970" height="250" fill="none"/></g><g id="TODAY_LET_S_STAIN_YOUR_CHAIR." data-name="TODAY LET’S STAINYOUR CHAIR."><path d="M521.41,117.53H515.9V86.93H509V81.84h19.37v5.09h-7Z" fill="#fff"/><path d="M551.64,106.19c0,4-.59,6.41-2,8.45-1.6,2.24-4.28,3.42-7.7,3.42s-6.1-1.18-7.7-3.42c-1.45-2-2-4.44-2-8.45v-13c0-4,.59-6.42,2-8.46,1.6-2.24,4.28-3.42,7.7-3.42s6.1,1.18,7.7,3.42c1.45,2,2,4.44,2,8.46Zm-14-.11c0,2.83.16,3.8.7,4.87a4.21,4.21,0,0,0,7.06,0c.59-1.13.69-2,.69-4.87V93.29c0-2.89-.1-3.74-.69-4.87a4.21,4.21,0,0,0-7.06,0c-.54,1.07-.7,2-.7,4.87Z" fill="#fff"/><path d="M557.25,81.84H566c7,0,10.32,3.59,10.32,11.18v13.33c0,7.59-3.31,11.18-10.32,11.18h-8.72Zm8.24,30.6c3.9,0,5.29-2,5.29-7.59V94.52c0-5.61-1.39-7.59-5.29-7.59h-2.73v25.51Z" fill="#fff"/><path d="M587,109.77l-1.44,7.76h-5.4L587,81.84h7.55l7.22,35.69h-5.67l-1.5-7.76Zm3.75-21.08-2.89,16h5.83Z" fill="#fff"/><path d="M615.61,117.53H610.1V103.62l-8-21.78h6.1l4.76,15.09,4.93-15.09h6l-8.24,21.78Z" fill="#fff"/><path d="M642.19,112.44h11v5.09H636.68V81.84h5.51Z" fill="#fff"/><path d="M673.27,86.93H662.62v9.41h7.87v5.08h-7.87v11h10.65v5.09H657.11V81.84h16.16Z" fill="#fff"/><path d="M689.26,117.53h-5.51V86.93h-6.9V81.84h19.37v5.09h-7Z" fill="#fff"/><path d="M705.47,87.57,702.31,95h-2l2.35-7.38h-2.35V81.84h5.19Z" fill="#fff"/><path d="M724.3,91.79c-.86-3.53-2.47-5.29-4.71-5.29A3.53,3.53,0,0,0,716,90.14a5.37,5.37,0,0,0,1.5,3.58c.91,1,.91,1,4.71,3.91a29.89,29.89,0,0,1,5.3,4.81,10.46,10.46,0,0,1,2.3,6.53c0,5.4-4,9.09-9.79,9.09-6.1,0-9.69-3.26-10.81-10.06l5.3-1.55c.69,4.28,2.56,6.42,5.51,6.42a3.87,3.87,0,0,0,4.06-4.06c0-2.25-1.12-3.69-5.29-7-5-3.9-5.19-4.12-6.53-5.83a9.63,9.63,0,0,1-2-5.94c0-5.13,3.85-8.77,9.31-8.77,5.08,0,8.5,3,10,8.93Z" fill="#fff"/><path d="M756.34,91.79c-.86-3.53-2.46-5.29-4.71-5.29A3.54,3.54,0,0,0,748,90.14a5.37,5.37,0,0,0,1.5,3.58c.91,1,.91,1,4.71,3.91a29.89,29.89,0,0,1,5.3,4.81,10.46,10.46,0,0,1,2.3,6.53c0,5.4-4,9.09-9.79,9.09-6.1,0-9.69-3.26-10.81-10.06l5.3-1.55c.69,4.28,2.56,6.42,5.51,6.42a3.87,3.87,0,0,0,4.06-4.06c0-2.25-1.12-3.69-5.29-7-5-3.9-5.19-4.12-6.53-5.83a9.63,9.63,0,0,1-2-5.94c0-5.13,3.85-8.77,9.31-8.77,5.08,0,8.5,3,10,8.93Z" fill="#fff"/><path d="M777.25,117.53h-5.51V86.93h-6.9V81.84H784.2v5.09h-7Z" fill="#fff"/><path d="M791.91,109.77l-1.45,7.76h-5.4l6.85-35.69h7.54l7.22,35.69H801l-1.5-7.76Zm3.74-21.08-2.89,16h5.83Z" fill="#fff"/><path d="M816.51,117.53H811V81.84h5.51Z" fill="#fff"/><path d="M842.29,117.53h-4.92l-9.63-23.76v23.76H822.5V81.84h5.56l9,22.21V81.84h5.24Z" fill="#fff"/><path d="M523.07,167.77h-5.51V153.86l-8-21.77h6.09l4.77,15.09,4.92-15.09h6l-8.24,21.77Z" fill="#fff"/><path d="M553.94,156.43c0,4-.59,6.42-2,8.45-1.6,2.25-4.28,3.43-7.7,3.43s-6.1-1.18-7.7-3.43c-1.45-2-2-4.44-2-8.45v-13c0-4,.59-6.42,2-8.45,1.6-2.25,4.28-3.42,7.7-3.42s6.1,1.17,7.7,3.42c1.45,2,2,4.44,2,8.45Zm-14-.1c0,2.83.16,3.79.7,4.86a4.19,4.19,0,0,0,7.06,0c.59-1.12.7-2,.7-4.86V143.54c0-2.89-.11-3.75-.7-4.87a4.21,4.21,0,0,0-7.06,0c-.54,1.07-.7,2-.7,4.87Z" fill="#fff"/><path d="M578.43,132.09v24.18c0,4.5-.53,6.8-2,8.83s-4.17,3.21-7.38,3.21-5.89-1.13-7.44-3.21-2-4.33-2-8.83V132.09h5.51v25.09c0,4.23,1.12,5.94,4,5.94s3.9-1.71,3.9-5.94V132.09Z" fill="#fff"/><path d="M589.88,167.77h-5.51V132.09H593c3.26,0,5.35.64,7.06,2.14,2.14,1.82,3.21,4.55,3.21,8.08,0,4.49-1.6,7.6-4.81,9.25l5.24,16.21H597.9l-4.7-14.65h-3.32Zm2-19.74c2.35,0,3.42-.26,4.28-1.12a7.59,7.59,0,0,0,0-8.61c-.86-.86-1.93-1.13-4.28-1.13h-2V148Z" fill="#fff"/><path d="M630.53,143.7V143c0-4.12-1.44-6.2-4.17-6.2a3.47,3.47,0,0,0-3.26,1.76c-.7,1.18-.86,2.25-.86,5.14v11.87a15.25,15.25,0,0,0,.59,5.3,3.7,3.7,0,0,0,3.53,2.3c2,0,3.37-1.18,4-3.53a20.23,20.23,0,0,0,.32-4.34h5.56v1.24c0,7.75-3.37,11.82-9.79,11.82-3.58,0-6.42-1.39-8-4-1.34-2.19-1.71-4.28-1.71-9.58v-10c0-5.67.43-7.65,2.09-9.9s4.22-3.31,7.54-3.31c6.1,0,9.68,4.06,9.68,11.07v1.07Z" fill="#fff"/><path d="M646.9,152v15.73h-5.51V132.09h5.51V147h7.86V132.09h5.51v35.68h-5.51V152Z" fill="#fff"/><path d="M672,160l-1.45,7.75h-5.4L672,132.09h7.54l7.22,35.68h-5.67l-1.5-7.75Zm3.74-21.08-2.89,16h5.83Z" fill="#fff"/><path d="M696.64,167.77h-5.51V132.09h5.51Z" fill="#fff"/><path d="M708.14,167.77h-5.51V132.09h8.61c3.27,0,5.35.64,7.07,2.14,2.14,1.82,3.21,4.55,3.21,8.08,0,4.49-1.61,7.6-4.82,9.25l5.24,16.21h-5.77l-4.71-14.65h-3.32Zm2-19.74c2.36,0,3.43-.26,4.28-1.12a7.59,7.59,0,0,0,0-8.61c-.85-.86-1.92-1.13-4.28-1.13h-2V148Z" fill="#fff"/><path d="M731.68,167.77h-5.19v-5.72h5.19Z" fill="#fff"/></g></g></svg>