<svg xmlns="http://www.w3.org/2000/svg" viewBox="0 0 970 250"><title>txt5</title><g id="Layer_2" data-name="Layer 2"><g id="Rect"><rect width="970" height="250" fill="none"/></g><g id="your_anything." data-name="your anything."><path d="M454.24,201h-6.18v-15.6l-9-24.42h6.84l5.34,16.92L456.76,161h6.72l-9.24,24.42Z" fill="#fff"/><path d="M488.86,188.27c0,4.5-.66,7.2-2.28,9.48-1.8,2.52-4.8,3.83-8.64,3.83s-6.84-1.31-8.64-3.83c-1.62-2.28-2.28-5-2.28-9.48V173.69c0-4.5.66-7.2,2.28-9.48,1.8-2.52,4.8-3.84,8.64-3.84s6.84,1.32,8.64,3.84c1.62,2.28,2.28,5,2.28,9.48Zm-15.66-.12c0,3.18.18,4.26.78,5.46a4.71,4.71,0,0,0,7.92,0c.66-1.26.78-2.22.78-5.46V173.81c0-3.24-.12-4.2-.78-5.46a4.71,4.71,0,0,0-7.92,0c-.6,1.2-.78,2.28-.78,5.46Z" fill="#fff"/><path d="M516.34,161v27.12c0,5-.6,7.62-2.28,9.9s-4.68,3.59-8.28,3.59-6.6-1.25-8.34-3.59-2.28-4.86-2.28-9.9V161h6.18v28.14c0,4.74,1.26,6.66,4.44,6.66s4.38-1.92,4.38-6.66V161Z" fill="#fff"/><path d="M529.18,201H523V161h9.66c3.66,0,6,.72,7.92,2.4,2.4,2,3.6,5.1,3.6,9.06,0,5-1.8,8.52-5.4,10.38L544.66,201h-6.48l-5.28-16.44h-3.72Zm2.28-22.14c2.64,0,3.84-.3,4.8-1.26s1.5-2.64,1.5-4.86-.48-3.78-1.5-4.8-2.16-1.26-4.8-1.26h-2.28v12.18Z" fill="#fff"/><path d="M566,192.29l-1.62,8.7h-6.06L566,161h8.46l8.1,40h-6.36l-1.68-8.7Zm4.2-23.64-3.24,17.94h6.54Z" fill="#fff"/><path d="M609.58,201h-5.52l-10.8-26.64V201h-5.88V161h6.24l10.08,24.9V161h5.88Z" fill="#fff"/><path d="M629.91,201h-6.18v-15.6l-9-24.42h6.84l5.34,16.92L632.43,161h6.72l-9.24,24.42Z" fill="#fff"/><path d="M657,201h-6.18V166.67h-7.74V161h21.72v5.7H657Z" fill="#fff"/><path d="M675.87,183.35V201h-6.18V161h6.18v16.68h8.82V161h6.18v40h-6.18V183.35Z" fill="#fff"/><path d="M703.71,201h-6.18V161h6.18Z" fill="#fff"/><path d="M732.63,201h-5.52l-10.8-26.64V201h-5.88V161h6.24l10.08,24.9V161h5.88Z" fill="#fff"/><path d="M760.71,181.13V201h-3.18l-1.14-3.42a8.34,8.34,0,0,1-7.5,4,9.05,9.05,0,0,1-8.28-4.67c-1.32-2.58-1.74-5.16-1.74-10.68v-11c0-6.36.48-8.64,2.34-11.1s4.8-3.72,8.46-3.72c4.38,0,7.62,1.86,9.42,5.34,1,2,1.44,4.44,1.44,8.28h-6.18c0-5.52-1.38-7.8-4.74-7.8a3.91,3.91,0,0,0-3.66,2c-.72,1.32-.9,2.52-.9,5.76v12.24a21.15,21.15,0,0,0,.66,6.54,4.32,4.32,0,0,0,4.2,3c3.24,0,4.62-2.34,4.62-7.92v-1.62h-5.1v-5.1Z" fill="#fff"/><path d="M772.35,201h-5.82v-6.42h5.82Z" fill="#fff"/></g></g></svg>