<svg xmlns="http://www.w3.org/2000/svg" viewBox="0 0 970 250"><title>txt</title><g id="Layer_2" data-name="Layer 2"><g id="SUPERIOR_STAIN_FOR_ALL_INTERIOR_PROJECTS." data-name="SUPERIOR STAIN FOR  ALL INTERIOR PROJECTS."><path d="M524.78,58.79c-.85-3.53-2.46-5.29-4.7-5.29a3.53,3.53,0,0,0-3.59,3.64,5.37,5.37,0,0,0,1.5,3.58c.91,1,.91,1,4.71,3.91A29.73,29.73,0,0,1,528,69.44a10.4,10.4,0,0,1,2.3,6.53c0,5.4-4,9.09-9.79,9.09-6.1,0-9.68-3.26-10.8-10.06L515,73.45c.7,4.28,2.57,6.42,5.51,6.42a3.88,3.88,0,0,0,4.07-4.06c0-2.25-1.12-3.69-5.3-7-5-3.9-5.19-4.12-6.52-5.83a9.63,9.63,0,0,1-2-5.94c0-5.13,3.85-8.77,9.31-8.77,5.08,0,8.5,3,10,8.93Z" fill="#fff"/><path d="M553.56,48.84V73c0,4.5-.53,6.8-2,8.83s-4.17,3.21-7.38,3.21-5.89-1.12-7.44-3.21-2-4.33-2-8.83V48.84h5.51V73.93c0,4.23,1.12,5.94,4,5.94s3.9-1.71,3.9-5.94V48.84Z" fill="#fff"/><path d="M565,84.53H559.5V48.84h9.14c3.59,0,5.84.7,7.49,2.3,1.93,1.82,2.84,4.5,2.84,8.3s-.91,6.52-2.84,8.34c-1.65,1.61-3.9,2.3-7.49,2.3H565ZM567.41,65c4.44,0,5.84-1.34,5.84-5.56s-1.4-5.51-5.84-5.51H565V65Z" fill="#fff"/><path d="M599.88,53.93H589.24v9.41h7.86v5.08h-7.86v11h10.64v5.09H583.73V48.84h16.15Z" fill="#fff"/><path d="M609.72,84.53h-5.51V48.84h8.62c3.26,0,5.34.65,7.06,2.14,2.14,1.82,3.21,4.55,3.21,8.08,0,4.5-1.61,7.6-4.82,9.26l5.24,16.21h-5.77L613,69.87h-3.32Zm2-19.74c2.36,0,3.43-.27,4.29-1.13a6,6,0,0,0,1.33-4.33A5.9,5.9,0,0,0,616,55.05c-.86-.86-1.93-1.12-4.29-1.12h-2V64.79Z" fill="#fff"/><path d="M634,84.53h-5.51V48.84H634Z" fill="#fff"/><path d="M659,73.19c0,4-.59,6.41-2,8.45-1.61,2.24-4.28,3.42-7.71,3.42s-6.09-1.18-7.7-3.42c-1.44-2-2-4.44-2-8.45v-13c0-4,.59-6.42,2-8.46,1.61-2.24,4.28-3.42,7.7-3.42s6.1,1.18,7.71,3.42c1.44,2,2,4.44,2,8.46Zm-14-.11c0,2.83.16,3.8.69,4.87a4.21,4.21,0,0,0,7.06,0c.59-1.13.7-2,.7-4.87V60.29c0-2.89-.11-3.74-.7-4.87a4.21,4.21,0,0,0-7.06,0c-.53,1.07-.69,2-.69,4.87Z" fill="#fff"/><path d="M670.16,84.53h-5.51V48.84h8.62c3.26,0,5.35.65,7.06,2.14,2.14,1.82,3.21,4.55,3.21,8.08,0,4.5-1.61,7.6-4.82,9.26L684,84.53h-5.78l-4.71-14.66h-3.32Zm2-19.74c2.35,0,3.42-.27,4.28-1.13s1.33-2.35,1.33-4.33a5.86,5.86,0,0,0-1.33-4.28c-.86-.86-1.93-1.12-4.28-1.12h-2V64.79Z" fill="#fff"/><path d="M710.82,58.79c-.86-3.53-2.46-5.29-4.71-5.29a3.53,3.53,0,0,0-3.58,3.64A5.36,5.36,0,0,0,704,60.72c.91,1,.91,1,4.71,3.91a29.89,29.89,0,0,1,5.3,4.81,10.46,10.46,0,0,1,2.3,6.53c0,5.4-4,9.09-9.79,9.09-6.1,0-9.69-3.26-10.81-10.06l5.3-1.55c.69,4.28,2.56,6.42,5.51,6.42a3.87,3.87,0,0,0,4.06-4.06c0-2.25-1.12-3.69-5.29-7-5-3.9-5.19-4.12-6.53-5.83a9.69,9.69,0,0,1-2-5.94c0-5.13,3.85-8.77,9.31-8.77,5.08,0,8.51,3,10,8.93Z" fill="#fff"/><path d="M731.73,84.53h-5.51V53.93h-6.9V48.84h19.36v5.09h-6.95Z" fill="#fff"/><path d="M746.39,76.77l-1.45,7.76h-5.4l6.85-35.69h7.54l7.22,35.69h-5.67L754,76.77Zm3.74-21.08-2.89,16h5.83Z" fill="#fff"/><path d="M771,84.53h-5.51V48.84H771Z" fill="#fff"/><path d="M796.77,84.53h-4.92l-9.63-23.76V84.53H777V48.84h5.56l9,22.21V48.84h5.24Z" fill="#fff"/><path d="M816.94,84.53h-5.51V48.84h16.31v5.09h-10.8v9.63h8v5.08h-8Z" fill="#fff"/><path d="M851.17,73.19c0,4-.59,6.41-2,8.45-1.61,2.24-4.28,3.42-7.7,3.42s-6.1-1.18-7.71-3.42c-1.44-2-2-4.44-2-8.45v-13c0-4,.59-6.42,2-8.46,1.61-2.24,4.28-3.42,7.71-3.42s6.09,1.18,7.7,3.42c1.44,2,2,4.44,2,8.46Zm-14-.11c0,2.83.16,3.8.69,4.87A4.21,4.21,0,0,0,845,78c.58-1.13.69-2,.69-4.87V60.29c0-2.89-.11-3.74-.69-4.87a4.21,4.21,0,0,0-7.07,0c-.53,1.07-.69,2-.69,4.87Z" fill="#fff"/><path d="M862.29,84.53h-5.5V48.84h8.61c3.26,0,5.35.65,7.06,2.14,2.14,1.82,3.21,4.55,3.21,8.08,0,4.5-1.61,7.6-4.82,9.26l5.25,16.21h-5.78l-4.71-14.66h-3.32Zm2-19.74c2.35,0,3.42-.27,4.28-1.13A5.92,5.92,0,0,0,870,59.33a5.86,5.86,0,0,0-1.34-4.28c-.86-.86-1.93-1.12-4.28-1.12h-2V64.79Z" fill="#fff"/><path d="M516.92,127l-1.45,7.75h-5.4l6.85-35.68h7.54l7.22,35.68H526L524.52,127Zm3.74-21.08-2.88,16h5.83Z" fill="#fff"/><path d="M541.52,129.69h11v5.08H536V99.09h5.51Z" fill="#fff"/><path d="M562,129.69h11v5.08H556.45V99.09H562Z" fill="#fff"/><path d="M591.11,134.77H585.6V99.09h5.51Z" fill="#fff"/><path d="M616.89,134.77H612L602.34,111v23.75H597.1V99.09h5.56l9,22.2V99.09h5.24Z" fill="#fff"/><path d="M633.69,134.77h-5.52v-30.6h-6.9V99.09h19.37v5.08h-6.95Z" fill="#fff"/><path d="M661.18,104.17H650.53v9.42h7.87v5.08h-7.87v11h10.65v5.08H645V99.09h16.16Z" fill="#fff"/><path d="M671,134.77h-5.51V99.09h8.61c3.27,0,5.35.64,7.06,2.14,2.14,1.82,3.21,4.55,3.21,8.08,0,4.49-1.6,7.6-4.81,9.25l5.24,16.21H679l-4.7-14.65H671Zm2-19.74c2.36,0,3.43-.26,4.28-1.12a7.59,7.59,0,0,0,0-8.61c-.85-.86-1.92-1.13-4.28-1.13h-2V115Z" fill="#fff"/><path d="M695.25,134.77h-5.51V99.09h5.51Z" fill="#fff"/><path d="M720.34,123.43c0,4-.59,6.42-2,8.45-1.61,2.25-4.28,3.43-7.71,3.43s-6.1-1.18-7.7-3.43c-1.45-2-2-4.44-2-8.45v-13c0-4,.58-6.42,2-8.45,1.6-2.25,4.28-3.42,7.7-3.42s6.1,1.17,7.71,3.42c1.44,2,2,4.44,2,8.45Zm-14-.1c0,2.83.16,3.79.69,4.86a4.19,4.19,0,0,0,7.06,0c.59-1.12.7-2,.7-4.86V110.54c0-2.89-.11-3.75-.7-4.87a4.21,4.21,0,0,0-7.06,0c-.53,1.07-.69,2-.69,4.87Z" fill="#fff"/><path d="M731.46,134.77H726V99.09h8.62c3.26,0,5.35.64,7.06,2.14,2.14,1.82,3.21,4.55,3.21,8.08,0,4.49-1.61,7.6-4.82,9.25l5.24,16.21h-5.77l-4.71-14.65h-3.32Zm2-19.74c2.35,0,3.42-.26,4.28-1.12a7.63,7.63,0,0,0,0-8.61c-.86-.86-1.93-1.13-4.28-1.13h-2V115Z" fill="#fff"/><path d="M764.2,134.77h-5.51V99.09h9.14c3.59,0,5.84.7,7.5,2.3,1.92,1.82,2.83,4.49,2.83,8.29s-.91,6.53-2.83,8.35c-1.66,1.6-3.91,2.3-7.5,2.3H764.2Zm2.4-19.52c4.44,0,5.84-1.34,5.84-5.57s-1.4-5.51-5.84-5.51h-2.4v11.08Z" fill="#fff"/><path d="M788.43,134.77h-5.51V99.09h8.61c3.26,0,5.35.64,7.06,2.14,2.14,1.82,3.21,4.55,3.21,8.08,0,4.49-1.6,7.6-4.81,9.25l5.24,16.21h-5.78l-4.7-14.65h-3.32Zm2-19.74c2.35,0,3.42-.26,4.28-1.12a7.59,7.59,0,0,0,0-8.61c-.86-.86-1.93-1.13-4.28-1.13h-2V115Z" fill="#fff"/><path d="M826.25,123.43c0,4-.59,6.42-2,8.45-1.6,2.25-4.28,3.43-7.7,3.43s-6.1-1.18-7.7-3.43c-1.45-2-2-4.44-2-8.45v-13c0-4,.59-6.42,2-8.45,1.6-2.25,4.28-3.42,7.7-3.42s6.1,1.17,7.7,3.42c1.45,2,2,4.44,2,8.45Zm-14-.1c0,2.83.16,3.79.7,4.86a4.19,4.19,0,0,0,7.06,0c.59-1.12.7-2,.7-4.86V110.54c0-2.89-.11-3.75-.7-4.87a4.21,4.21,0,0,0-7.06,0c-.54,1.07-.7,2-.7,4.87Z" fill="#fff"/><path d="M840.69,99.09v27c0,3.75-.38,5.3-1.55,6.74s-2.84,2-5.57,2h-3.32v-5.19h1.29c2.67,0,3.64-1,3.64-4V99.09Z" fill="#fff"/><path d="M862.83,104.17H852.19v9.42h7.86v5.08h-7.86v11h10.64v5.08H846.68V99.09h16.15Z" fill="#fff"/><path d="M880.86,110.7V110c0-4.12-1.45-6.2-4.18-6.2a3.49,3.49,0,0,0-3.26,1.76c-.7,1.18-.86,2.25-.86,5.14v11.87a15.25,15.25,0,0,0,.59,5.3,3.72,3.72,0,0,0,3.53,2.3c2,0,3.37-1.18,4-3.53a19.55,19.55,0,0,0,.32-4.34h5.57v1.24c0,7.75-3.37,11.82-9.79,11.82-3.59,0-6.42-1.39-8-4-1.34-2.19-1.72-4.28-1.72-9.58v-10c0-5.67.43-7.65,2.09-9.9s4.23-3.31,7.54-3.31c6.1,0,9.69,4.06,9.69,11.07v1.07Z" fill="#fff"/><path d="M902.46,134.77H897v-30.6h-6.9V99.09h19.37v5.08h-7Z" fill="#fff"/><path d="M927.28,109c-.85-3.53-2.46-5.29-4.7-5.29a3.53,3.53,0,0,0-3.59,3.63,5.4,5.4,0,0,0,1.5,3.59c.91,1,.91,1,4.71,3.9a29.68,29.68,0,0,1,5.29,4.82,10.38,10.38,0,0,1,2.3,6.52c0,5.41-3.95,9.1-9.79,9.1-6.09,0-9.68-3.27-10.8-10.06l5.29-1.55c.7,4.28,2.57,6.42,5.51,6.42a3.88,3.88,0,0,0,4.07-4.07c0-2.24-1.12-3.69-5.3-7-5-3.91-5.19-4.12-6.52-5.83a9.65,9.65,0,0,1-2-5.94c0-5.14,3.85-8.77,9.31-8.77,5.08,0,8.5,3,10,8.93Z" fill="#fff"/><path d="M942.26,134.77h-5.19v-5.72h5.19Z" fill="#fff"/><rect width="970" height="250" fill="none"/></g></g></svg>