<svg xmlns="http://www.w3.org/2000/svg" viewBox="0 0 120 34"><title>cta</title><g id="Layer_2" data-name="Layer 2"><g id="fill" style="isolation:isolate"><rect width="120" height="34" rx="4" fill="#fff"/></g><g id="LEARN_MORE" data-name="LEARN MORE"><path d="M15.3,21.2H19v1.71H13.45v-12H15.3Z" fill="#8f9784"/><path d="M25.76,12.61H22.18v3.17h2.64v1.71H22.18V21.2h3.58v1.71H20.32v-12h5.44Z" fill="#8f9784"/><path d="M29.45,20.3,29,22.91H27.14l2.31-12H32l2.43,12H32.51L32,20.3Zm1.26-7.09-1,5.38h2Z" fill="#8f9784"/><path d="M37.73,22.91H35.87v-12h2.9a3.36,3.36,0,0,1,2.38.72,3.4,3.4,0,0,1,1.08,2.72,3.2,3.2,0,0,1-1.62,3.12l1.76,5.45H40.43L38.84,18H37.73Zm.68-6.64c.79,0,1.15-.09,1.44-.38a2,2,0,0,0,.45-1.46A2,2,0,0,0,39.85,13c-.29-.29-.65-.38-1.44-.38h-.68v3.66Z" fill="#8f9784"/><path d="M50.69,22.91H49l-3.24-8v8H44v-12H45.9l3,7.48V10.9h1.77Z" fill="#8f9784"/><path d="M64.35,22.91H62.59V14.07L60.5,22.91h-1l-2.07-8.84v8.84H55.62v-12h2.72L60,18.45l1.68-7.55h2.68Z" fill="#8f9784"/><path d="M72.79,19.1a4.6,4.6,0,0,1-.68,2.84,3.5,3.5,0,0,1-5.19,0,4.6,4.6,0,0,1-.68-2.84V14.72a4.6,4.6,0,0,1,.68-2.84,3.48,3.48,0,0,1,5.19,0,4.6,4.6,0,0,1,.68,2.84Zm-4.7,0a3.31,3.31,0,0,0,.24,1.64,1.41,1.41,0,0,0,2.37,0,3.09,3.09,0,0,0,.24-1.64v-4.3a3.07,3.07,0,0,0-.24-1.64,1.41,1.41,0,0,0-2.37,0,3.28,3.28,0,0,0-.24,1.64Z" fill="#8f9784"/><path d="M76.53,22.91H74.68v-12h2.9a3.36,3.36,0,0,1,2.38.72A3.4,3.4,0,0,1,81,14.34a3.2,3.2,0,0,1-1.62,3.12l1.76,5.45H79.24L77.65,18H76.53Zm.69-6.64c.79,0,1.15-.09,1.44-.38a2,2,0,0,0,.45-1.46A2,2,0,0,0,78.66,13c-.29-.29-.65-.38-1.44-.38h-.69v3.66Z" fill="#8f9784"/><path d="M88.27,12.61H84.69v3.17h2.65v1.71H84.69V21.2h3.58v1.71H82.83v-12h5.44Z" fill="#8f9784"/></g><g id="Layer_4" data-name="Layer 4"><polyline points="95.86 20.9 100.26 16.9 95.86 12.9" fill="none" stroke="#8f9784" stroke-miterlimit="10"/><polyline points="100.67 20.9 105.06 16.9 100.67 12.9" fill="none" stroke="#8f9784" stroke-miterlimit="10"/></g></g></svg>