<?xml version="1.0" encoding="utf-8"?>
<!-- Generator: Adobe Illustrator 23.1.1, SVG Export Plug-In . SVG Version: 6.00 Build 0)  -->
<svg version="1.1" id="Layer_1" xmlns="http://www.w3.org/2000/svg" xmlns:xlink="http://www.w3.org/1999/xlink" x="0px" y="0px"
	 viewBox="0 0 160 600" style="enable-background:new 0 0 160 600;" xml:space="preserve">
<style type="text/css">
	.st0{fill:none;}
	.st1{fill:#FFFFFF;}
</style>
<title>txt1</title>
<g>
	<g id="Rect">
		<rect class="st0" width="160" height="600"/>
	</g>
</g>
<g>
	<path class="st1" d="M54.5,344h-3.1v-17.2h-3.9V324h10.9v2.8h-3.9V344z"/>
	<path class="st1" d="M71.5,337.6c0,2.2-0.3,3.6-1.1,4.7c-0.9,1.3-2.4,1.9-4.3,1.9s-3.4-0.7-4.3-1.9c-0.8-1.1-1.1-2.5-1.1-4.7v-7.3
		c0-2.2,0.3-3.6,1.1-4.7c0.9-1.3,2.4-1.9,4.3-1.9s3.4,0.7,4.3,1.9c0.8,1.1,1.1,2.5,1.1,4.7V337.6z M63.6,337.6
		c0,1.6,0.1,2.1,0.4,2.7c0.4,0.7,1.1,1.1,2,1.1s1.6-0.4,2-1.1c0.3-0.6,0.4-1.1,0.4-2.7v-7.2c0-1.6-0.1-2.1-0.4-2.7
		c-0.4-0.7-1.1-1.1-2-1.1s-1.6,0.4-2,1.1c-0.3,0.6-0.4,1.1-0.4,2.7V337.6z"/>
	<path class="st1" d="M74.6,324h4.9c3.9,0,5.8,2,5.8,6.3v7.5c0,4.3-1.9,6.3-5.8,6.3h-4.9V324z M79.2,341.1c2.2,0,3-1.1,3-4.3v-5.8
		c0-3.2-0.8-4.3-3-4.3h-1.5v14.3H79.2z"/>
	<path class="st1" d="M91.3,339.6l-0.8,4.3h-3l3.8-20h4.2l4,20h-3.2l-0.8-4.3H91.3z M93.4,327.8l-1.6,9h3.3L93.4,327.8z"/>
	<path class="st1" d="M107.3,344h-3.1v-7.8L99.7,324h3.4l2.7,8.5l2.8-8.5h3.4l-4.6,12.2V344z"/>
	<path class="st1" d="M18.9,370.1h6.1v2.8h-9.2v-20h3.1V370.1z"/>
	<path class="st1" d="M36.4,355.8h-6v5.3h4.4v2.9h-4.4v6.2h6v2.8h-9.1v-20h9.1V355.8z"/>
	<path class="st1" d="M45.3,373h-3.1v-17.2h-3.9V353h10.9v2.8h-3.9V373z"/>
	<path class="st1" d="M54.4,356.2l-1.8,4.1h-1.1l1.3-4.1h-1.3V353h2.9V356.2z"/>
	<path class="st1" d="M65,358.6c-0.5-2-1.4-3-2.6-3c-1.1,0-2,0.9-2,2c0,0.7,0.3,1.4,0.8,2c0.5,0.6,0.5,0.6,2.6,2.2
		c1.7,1.3,2.3,1.9,3,2.7c0.8,1,1.3,2.3,1.3,3.7c0,3-2.2,5.1-5.5,5.1c-3.4,0-5.4-1.8-6.1-5.6l3-0.9c0.4,2.4,1.4,3.6,3.1,3.6
		c1.4,0,2.3-0.9,2.3-2.3c0-1.3-0.6-2.1-3-3.9c-2.8-2.2-2.9-2.3-3.7-3.3c-0.7-0.9-1.1-2.1-1.1-3.3c0-2.9,2.2-4.9,5.2-4.9
		c2.8,0,4.8,1.7,5.6,5L65,358.6z"/>
	<path class="st1" d="M83,358.6c-0.5-2-1.4-3-2.6-3c-1.1,0-2,0.9-2,2c0,0.7,0.3,1.4,0.8,2c0.5,0.6,0.5,0.6,2.6,2.2
		c1.7,1.3,2.3,1.9,3,2.7c0.8,1,1.3,2.3,1.3,3.7c0,3-2.2,5.1-5.5,5.1c-3.4,0-5.4-1.8-6.1-5.6l3-0.9c0.4,2.4,1.4,3.6,3.1,3.6
		c1.3,0,2.3-0.9,2.3-2.3c0-1.3-0.6-2.1-3-3.9c-2.8-2.2-2.9-2.3-3.7-3.3c-0.7-0.9-1.1-2.1-1.1-3.3c0-2.9,2.2-4.9,5.2-4.9
		c2.8,0,4.8,1.7,5.6,5L83,358.6z"/>
	<path class="st1" d="M94.7,373h-3.1v-17.2h-3.9V353h10.9v2.8h-3.9V373z"/>
	<path class="st1" d="M102.9,368.6l-0.8,4.3h-3l3.8-20h4.2l4,20H108l-0.8-4.3H102.9z M105,356.8l-1.6,9h3.3L105,356.8z"/>
	<path class="st1" d="M116.7,373h-3.1v-20h3.1V373z"/>
	<path class="st1" d="M131.2,373h-2.8l-5.4-13.3V373h-2.9v-20h3.1l5,12.4V353h2.9V373z"/>
	<path class="st1" d="M138.2,360H137v-5.6h-1.3v-1h3.8v1h-1.3V360z M144.9,360h-1.1v-4.4l-1,4.4H142l-1-4.4v4.4h-1.1v-6.6h1.6
		l0.9,3.8l0.9-3.8h1.6V360z"/>
</g>
</svg>
