<svg xmlns="http://www.w3.org/2000/svg" viewBox="0 0 160 600"><title>txt2</title><g id="Layer_2" data-name="Layer 2"><g id="Rect"><rect width="160" height="600" fill="none"/></g><g id="your_table." data-name="your table."><path d="M24.67,402H21.58v-7.8L17.08,382H20.5l2.67,8.46L25.93,382h3.36l-4.62,12.21Z" fill="#fff"/><path d="M42,395.63a7.63,7.63,0,0,1-1.14,4.74,5.06,5.06,0,0,1-4.32,1.92,5.06,5.06,0,0,1-4.32-1.92,7.63,7.63,0,0,1-1.14-4.74v-7.29a7.63,7.63,0,0,1,1.14-4.74,5,5,0,0,1,4.32-1.92,5,5,0,0,1,4.32,1.92A7.63,7.63,0,0,1,42,388.34Zm-7.83-.06a5.52,5.52,0,0,0,.39,2.73,2.35,2.35,0,0,0,4,0,5.18,5.18,0,0,0,.39-2.73V388.4a5.18,5.18,0,0,0-.39-2.73,2.35,2.35,0,0,0-4,0,5.52,5.52,0,0,0-.39,2.73Z" fill="#fff"/><path d="M55.72,382v13.56c0,2.52-.3,3.81-1.14,4.95a5,5,0,0,1-4.14,1.8,5,5,0,0,1-4.17-1.8c-.84-1.14-1.14-2.43-1.14-4.95V382h3.09v14.07c0,2.37.63,3.33,2.22,3.33s2.19-1,2.19-3.33V382Z" fill="#fff"/><path d="M62.14,402H59.05V382h4.83a5.54,5.54,0,0,1,4,1.2,5.64,5.64,0,0,1,1.8,4.53c0,2.52-.9,4.26-2.7,5.19L69.88,402H66.64L64,393.77H62.14Zm1.14-11.07c1.32,0,1.92-.15,2.4-.63a4.26,4.26,0,0,0,0-4.83c-.48-.48-1.08-.63-2.4-.63H62.14v6.09Z" fill="#fff"/><path d="M83.05,402H80V384.83H76.09V382H87v2.85h-3.9Z" fill="#fff"/><path d="M91.27,397.64,90.46,402h-3l3.84-20H95.5l4,20H96.37l-.84-4.35Zm2.1-11.82-1.62,9H95Z" fill="#fff"/><path d="M102.19,382h4.62c3.75,0,5.85,1.83,5.85,5.07a4.19,4.19,0,0,1-3.3,4.47c2.7.78,3.78,2.16,3.78,4.8,0,3.54-2.22,5.67-5.94,5.67h-5Zm4.2,8.16a2.8,2.8,0,0,0,3.12-2.82,2.51,2.51,0,0,0-.75-1.86,3.18,3.18,0,0,0-2.31-.63h-1.17v5.31Zm.45,9c2,0,3.09-1,3.09-2.82a3.22,3.22,0,0,0-3.54-3.33h-1.11v6.15Z" fill="#fff"/><path d="M119.26,399.14h6.15V402h-9.24V382h3.09Z" fill="#fff"/><path d="M136.69,384.83h-6v5.28h4.41V393h-4.41v6.18h6V402h-9.06V382h9.06Z" fill="#fff"/><path d="M142.06,402h-2.91v-3.21h2.91Z" fill="#fff"/></g></g></svg>