<svg xmlns="http://www.w3.org/2000/svg" viewBox="0 0 300 250"><title>txt1</title><g id="Layer_2" data-name="Layer 2"><g id="Rect"><rect width="300" height="250" fill="none"/></g><g id="TODAY_LET_S_STAIN." data-name="TODAY LET’S STAIN."><path d="M167.87,91.63h-2.78V76.25h-3.47V73.69h9.74v2.56h-3.49Z" fill="#fff"/><path d="M183.6,85.93a6.81,6.81,0,0,1-1,4.25,5.23,5.23,0,0,1-7.75,0,6.87,6.87,0,0,1-1-4.25V79.39a6.89,6.89,0,0,1,1-4.25,5.23,5.23,0,0,1,7.75,0,6.83,6.83,0,0,1,1,4.25Zm-7-.05a4.89,4.89,0,0,0,.35,2.44,2,2,0,0,0,1.78,1,2,2,0,0,0,1.77-1,4.56,4.56,0,0,0,.35-2.44V79.45a4.58,4.58,0,0,0-.35-2.45,2,2,0,0,0-1.77-1,2,2,0,0,0-1.78,1,4.94,4.94,0,0,0-.35,2.45Z" fill="#fff"/><path d="M187,73.69h4.38c3.53,0,5.2,1.8,5.2,5.62V86c0,3.82-1.67,5.62-5.2,5.62H187Zm4.14,15.39c2,0,2.67-1,2.67-3.82V80.07c0-2.83-.7-3.82-2.67-3.82h-1.37V89.08Z" fill="#fff"/><path d="M202.5,87.73l-.73,3.9h-2.72l3.45-17.94h3.79l3.63,17.94h-2.85l-.76-3.9Zm1.88-10.6-1.45,8.05h2.93Z" fill="#fff"/><path d="M217.4,91.63h-2.77v-7l-4-11h3.07l2.4,7.59,2.47-7.59h3l-4.14,11Z" fill="#fff"/><path d="M165.58,116.21h5.51v2.55h-8.28V100.82h2.77Z" fill="#fff"/><path d="M181.61,103.38h-5.35v4.73h4v2.56h-4v5.54h5.35v2.55h-8.12V100.82h8.12Z" fill="#fff"/><path d="M190.06,118.76h-2.77V103.38h-3.47v-2.56h9.74v2.56h-3.5Z" fill="#fff"/><path d="M198.62,103.7,197,107.41h-1l1.18-3.71H196v-2.88h2.61Z" fill="#fff"/><path d="M208.49,105.82c-.43-1.77-1.23-2.66-2.36-2.66a1.78,1.78,0,0,0-1.81,1.83,2.66,2.66,0,0,0,.76,1.8,12.61,12.61,0,0,0,2.36,2,14.64,14.64,0,0,1,2.67,2.42,5.25,5.25,0,0,1,1.15,3.28c0,2.72-2,4.57-4.92,4.57s-4.87-1.64-5.43-5.06l2.66-.78c.35,2.16,1.29,3.23,2.77,3.23a2,2,0,0,0,2-2c0-1.13-.57-1.86-2.67-3.5-2.5-2-2.61-2.07-3.28-2.93a4.84,4.84,0,0,1-1-3,4.37,4.37,0,0,1,4.68-4.41c2.55,0,4.27,1.53,5,4.49Z" fill="#fff"/><path d="M225.42,105.82c-.43-1.77-1.24-2.66-2.37-2.66a1.78,1.78,0,0,0-1.8,1.83,2.7,2.7,0,0,0,.75,1.8,13.35,13.35,0,0,0,2.37,2,14.48,14.48,0,0,1,2.66,2.42,5.2,5.2,0,0,1,1.16,3.28c0,2.72-2,4.57-4.92,4.57s-4.87-1.64-5.44-5.06l2.67-.78c.34,2.16,1.29,3.23,2.77,3.23a1.94,1.94,0,0,0,2-2c0-1.13-.56-1.86-2.66-3.5-2.5-2-2.61-2.07-3.28-2.93a4.85,4.85,0,0,1-1-3,4.37,4.37,0,0,1,4.68-4.41c2.56,0,4.28,1.53,5,4.49Z" fill="#fff"/><path d="M236.34,118.76h-2.77V103.38H230.1v-2.56h9.74v2.56h-3.5Z" fill="#fff"/><path d="M244.12,114.86l-.73,3.9h-2.71l3.44-17.94h3.79l3.63,17.94h-2.85l-.75-3.9Zm1.88-10.6-1.45,8h2.93Z" fill="#fff"/><path d="M256.9,118.76h-2.77V100.82h2.77Z" fill="#fff"/><path d="M270.27,118.76H267.8L263,106.82v11.94h-2.63V100.82h2.8L267.64,112V100.82h2.63Z" fill="#fff"/><path d="M276,118.76h-2.61v-2.88H276Z" fill="#fff"/></g></g></svg>