<svg xmlns="http://www.w3.org/2000/svg" viewBox="0 0 300 250"><title>txt3</title><g id="Layer_2" data-name="Layer 2"><g id="Rect"><rect width="300" height="250" fill="none"/></g><g id="your_chair." data-name="your chair."><path d="M18.14,135H15.05v-7.8L10.55,115H14l2.67,8.46L19.4,115h3.36l-4.62,12.21Z" fill="#fff"/><path d="M35.45,128.63a7.63,7.63,0,0,1-1.14,4.74A5.06,5.06,0,0,1,30,135.29a5.06,5.06,0,0,1-4.32-1.92,7.63,7.63,0,0,1-1.14-4.74v-7.29a7.63,7.63,0,0,1,1.14-4.74A5,5,0,0,1,30,114.68a5,5,0,0,1,4.32,1.92,7.63,7.63,0,0,1,1.14,4.74Zm-7.83-.06A5.52,5.52,0,0,0,28,131.3a2.36,2.36,0,0,0,4,0,5.18,5.18,0,0,0,.39-2.73V121.4a5.18,5.18,0,0,0-.39-2.73,2.35,2.35,0,0,0-4,0,5.52,5.52,0,0,0-.39,2.73Z" fill="#fff"/><path d="M49.19,115v13.56c0,2.52-.3,3.81-1.14,5a5,5,0,0,1-4.14,1.8,5,5,0,0,1-4.17-1.8c-.84-1.14-1.14-2.43-1.14-5V115h3.09v14.07c0,2.37.63,3.33,2.22,3.33s2.19-1,2.19-3.33V115Z" fill="#fff"/><path d="M55.61,135H52.52V115h4.83a5.54,5.54,0,0,1,4,1.2,5.64,5.64,0,0,1,1.8,4.53c0,2.52-.9,4.26-2.7,5.19L63.35,135H60.11l-2.64-8.22H55.61Zm1.14-11.07c1.32,0,1.92-.15,2.4-.63a4.26,4.26,0,0,0,0-4.83c-.48-.48-1.08-.63-2.4-.63H55.61v6.09Z" fill="#fff"/><path d="M78.41,121.49v-.42c0-2.31-.81-3.48-2.34-3.48a2,2,0,0,0-1.83,1,5.08,5.08,0,0,0-.48,2.88v6.66a8.57,8.57,0,0,0,.33,3,2.08,2.08,0,0,0,2,1.29,2.21,2.21,0,0,0,2.22-2,11.3,11.3,0,0,0,.18-2.43h3.12v.69c0,4.35-1.89,6.63-5.49,6.63a4.94,4.94,0,0,1-4.47-2.22c-.75-1.23-1-2.4-1-5.37v-5.61c0-3.18.24-4.29,1.17-5.55a5,5,0,0,1,4.23-1.86c3.42,0,5.43,2.28,5.43,6.21v.6Z" fill="#fff"/><path d="M87.59,126.17V135H84.5V115h3.09v8.34H92V115h3.09v20H92v-8.82Z" fill="#fff"/><path d="M101.69,130.64l-.81,4.35h-3l3.84-20h4.23l4,20h-3.18l-.84-4.35Zm2.1-11.82-1.62,9h3.27Z" fill="#fff"/><path d="M115.49,135H112.4V115h3.09Z" fill="#fff"/><path d="M121.94,135h-3.09V115h4.83a5.53,5.53,0,0,1,3.95,1.2,5.65,5.65,0,0,1,1.81,4.53c0,2.52-.9,4.26-2.71,5.19l2.94,9.09h-3.23l-2.65-8.22h-1.85Zm1.14-11.07c1.32,0,1.92-.15,2.4-.63a4.26,4.26,0,0,0,0-4.83c-.48-.48-1.08-.63-2.4-.63h-1.14v6.09Z" fill="#fff"/><path d="M135.14,135h-2.91v-3.21h2.91Z" fill="#fff"/></g></g></svg>