<svg xmlns="http://www.w3.org/2000/svg" viewBox="0 0 300 250"><title>txt</title><g id="Layer_2" data-name="Layer 2"><g id="SUPERIOR_STAIN_FOR_ALL_INTERIOR_PROJECTS." data-name="SUPERIOR STAIN FOR ALL INTERIOR PROJECTS."><path d="M169.68,80.09c-.38-1.59-1.1-2.38-2.11-2.38A1.59,1.59,0,0,0,166,79.34a2.35,2.35,0,0,0,.68,1.61,10.49,10.49,0,0,0,2.11,1.75,13.6,13.6,0,0,1,2.37,2.16,4.69,4.69,0,0,1,1,2.93c0,2.43-1.78,4.08-4.4,4.08s-4.34-1.46-4.84-4.51l2.37-.7c.31,1.92,1.15,2.88,2.47,2.88a1.74,1.74,0,0,0,1.83-1.82c0-1-.51-1.66-2.38-3.12-2.23-1.75-2.33-1.85-2.93-2.62a4.36,4.36,0,0,1-.88-2.66,3.9,3.9,0,0,1,4.17-3.94c2.28,0,3.82,1.37,4.49,4Z" fill="#fff"/><path d="M183.08,75.62V86.47c0,2-.24,3-.91,4a4.56,4.56,0,0,1-6.65,0c-.68-.91-.92-1.94-.92-4V75.62h2.48V86.88c0,1.9.5,2.66,1.77,2.66s1.75-.76,1.75-2.66V75.62Z" fill="#fff"/><path d="M188.69,91.63h-2.47v-16h4.1a4.47,4.47,0,0,1,3.36,1A4.78,4.78,0,0,1,195,80.38a4.83,4.83,0,0,1-1.28,3.74,4.47,4.47,0,0,1-3.36,1h-1.63Zm1.08-8.76c2,0,2.62-.6,2.62-2.49s-.63-2.48-2.62-2.48h-1.08v5Z" fill="#fff"/><path d="M204.82,77.9H200v4.23h3.53v2.28H200v4.94h4.78v2.28h-7.25v-16h7.25Z" fill="#fff"/><path d="M209.71,91.63h-2.47v-16h3.87a4.46,4.46,0,0,1,3.17,1,4.52,4.52,0,0,1,1.44,3.63c0,2-.72,3.41-2.16,4.15l2.35,7.27h-2.59l-2.12-6.57h-1.49Zm.92-8.85c1.05,0,1.53-.12,1.92-.51a3.4,3.4,0,0,0,0-3.86c-.39-.39-.87-.51-1.92-.51h-.92v4.88Z" fill="#fff"/><path d="M221.07,91.63h-2.48v-16h2.48Z" fill="#fff"/><path d="M232.8,86.54a6.13,6.13,0,0,1-.91,3.8,4.67,4.67,0,0,1-6.91,0,6.13,6.13,0,0,1-.91-3.8V80.71a6.08,6.08,0,0,1,.91-3.79,4.65,4.65,0,0,1,6.91,0,6.08,6.08,0,0,1,.91,3.79Zm-6.26,0a4.41,4.41,0,0,0,.31,2.18,1.89,1.89,0,0,0,3.17,0,4.18,4.18,0,0,0,.31-2.18V80.76a4.16,4.16,0,0,0-.31-2.18,1.88,1.88,0,0,0-3.17,0,4.41,4.41,0,0,0-.31,2.18Z" fill="#fff"/><path d="M238.27,91.63H235.8v-16h3.87a4.42,4.42,0,0,1,3.16,1,4.53,4.53,0,0,1,1.45,3.63c0,2-.73,3.41-2.16,4.15l2.35,7.27h-2.59l-2.12-6.57h-1.49Zm.92-8.85c1.05,0,1.53-.12,1.92-.51a3.4,3.4,0,0,0,0-3.86c-.39-.39-.87-.51-1.92-.51h-.92v4.88Z" fill="#fff"/><path d="M169.68,107.22c-.38-1.59-1.1-2.38-2.11-2.38a1.59,1.59,0,0,0-1.61,1.63,2.35,2.35,0,0,0,.68,1.61,10.49,10.49,0,0,0,2.11,1.75,13.6,13.6,0,0,1,2.37,2.16,4.69,4.69,0,0,1,1,2.93c0,2.43-1.78,4.08-4.4,4.08s-4.34-1.46-4.84-4.51l2.37-.7c.31,1.92,1.15,2.88,2.47,2.88a1.74,1.74,0,0,0,1.83-1.82c0-1-.51-1.66-2.38-3.12-2.23-1.75-2.33-1.85-2.93-2.62a4.36,4.36,0,0,1-.88-2.66,3.9,3.9,0,0,1,4.17-3.94c2.28,0,3.82,1.37,4.49,4Z" fill="#fff"/><path d="M179.55,118.76h-2.47V105H174v-2.28h8.69V105h-3.12Z" fill="#fff"/><path d="M186.6,115.28l-.64,3.48h-2.43l3.07-16H190l3.24,16h-2.55l-.67-3.48Zm1.68-9.45L187,113h2.61Z" fill="#fff"/><path d="M198.12,118.76h-2.47v-16h2.47Z" fill="#fff"/><path d="M210.17,118.76H208l-4.32-10.65v10.65h-2.35v-16h2.5l4,10v-10h2.35Z" fill="#fff"/><path d="M220.18,118.76h-2.47v-16H225V105h-4.85v4.32h3.6v2.28h-3.6Z" fill="#fff"/><path d="M236,113.67a6.2,6.2,0,0,1-.91,3.8,4.68,4.68,0,0,1-6.92,0,6.2,6.2,0,0,1-.91-3.8v-5.83a6.15,6.15,0,0,1,.91-3.79,4.66,4.66,0,0,1,6.92,0,6.15,6.15,0,0,1,.91,3.79Zm-6.27,0a4.37,4.37,0,0,0,.32,2.18,1.88,1.88,0,0,0,3.16,0,4,4,0,0,0,.32-2.18v-5.74a4,4,0,0,0-.32-2.18,1.87,1.87,0,0,0-3.16,0,4.37,4.37,0,0,0-.32,2.18Z" fill="#fff"/><path d="M241.49,118.76H239v-16h3.86a4.44,4.44,0,0,1,3.17,1,4.52,4.52,0,0,1,1.44,3.63c0,2-.72,3.41-2.16,4.15l2.35,7.27h-2.59L243,112.19h-1.49Zm.91-8.85c1.06,0,1.54-.12,1.92-.51a3.4,3.4,0,0,0,0-3.86c-.38-.39-.86-.51-1.92-.51h-.91v4.88Z" fill="#fff"/><path d="M166.16,141.41l-.65,3.48h-2.43l3.08-16h3.38l3.24,16h-2.54l-.68-3.48Zm1.68-9.46-1.3,7.18h2.62Z" fill="#fff"/><path d="M177.68,142.61h4.92v2.28h-7.4v-16h2.48Z" fill="#fff"/><path d="M187.32,142.61h4.92v2.28h-7.39v-16h2.47Z" fill="#fff"/><path d="M201.36,144.89h-2.47v-16h2.47Z" fill="#fff"/><path d="M213.41,144.89H211.2l-4.32-10.66v10.66h-2.35v-16H207l4,10v-10h2.35Z" fill="#fff"/><path d="M221.43,144.89H219V131.16h-3.1v-2.28h8.69v2.28h-3.12Z" fill="#fff"/><path d="M234.24,131.16h-4.77v4.22H233v2.28h-3.53v5h4.77v2.28H227v-16h7.25Z" fill="#fff"/><path d="M239.14,144.89h-2.47v-16h3.86a4.44,4.44,0,0,1,3.17,1,4.52,4.52,0,0,1,1.44,3.62q0,3-2.16,4.16l2.35,7.27h-2.59l-2.11-6.58h-1.49Zm.91-8.86c1.06,0,1.54-.12,1.92-.5a2.67,2.67,0,0,0,.6-1.95,2.63,2.63,0,0,0-.6-1.92c-.38-.38-.86-.5-1.92-.5h-.91V136Z" fill="#fff"/><path d="M250.49,144.89H248v-16h2.47Z" fill="#fff"/><path d="M262.23,139.8a6.08,6.08,0,0,1-.92,3.79,4.65,4.65,0,0,1-6.91,0,6.08,6.08,0,0,1-.91-3.79V134a6.08,6.08,0,0,1,.91-3.79,4.65,4.65,0,0,1,6.91,0,6.08,6.08,0,0,1,.92,3.79Zm-6.27-.05a4.45,4.45,0,0,0,.31,2.19,1.89,1.89,0,0,0,3.17,0,4.12,4.12,0,0,0,.31-2.19V134a4.12,4.12,0,0,0-.31-2.19,1.89,1.89,0,0,0-3.17,0A4.43,4.43,0,0,0,256,134Z" fill="#fff"/><path d="M267.7,144.89h-2.47v-16h3.86a4.46,4.46,0,0,1,3.17,1,4.52,4.52,0,0,1,1.44,3.62q0,3-2.16,4.16l2.35,7.27H271.3l-2.11-6.58H267.7Zm.91-8.86c1.06,0,1.54-.12,1.92-.5a2.67,2.67,0,0,0,.6-1.95,2.63,2.63,0,0,0-.6-1.92c-.38-.38-.86-.5-1.92-.5h-.91V136Z" fill="#fff"/><path d="M166.13,171h-2.47V155h4.1a4.47,4.47,0,0,1,3.36,1,6.07,6.07,0,0,1,0,7.46,4.47,4.47,0,0,1-3.36,1h-1.63Zm1.08-8.77c2,0,2.62-.59,2.62-2.49s-.63-2.47-2.62-2.47h-1.08v5Z" fill="#fff"/><path d="M177.48,171H175V155h3.87a4.37,4.37,0,0,1,3.16,1,4.5,4.5,0,0,1,1.44,3.62c0,2-.72,3.41-2.16,4.15l2.36,7.28h-2.6L179,164.44h-1.49Zm.92-8.86c1,0,1.53-.12,1.92-.5a2.71,2.71,0,0,0,.6-1.95,2.68,2.68,0,0,0-.6-1.92c-.39-.38-.87-.5-1.92-.5h-.92v4.87Z" fill="#fff"/><path d="M194.93,165.93a6.08,6.08,0,0,1-.91,3.79,4.65,4.65,0,0,1-6.91,0,6.08,6.08,0,0,1-.91-3.79v-5.84a6.08,6.08,0,0,1,.91-3.79,4.67,4.67,0,0,1,6.91,0,6.08,6.08,0,0,1,.91,3.79Zm-6.26-.05a4.41,4.41,0,0,0,.31,2.18,1.88,1.88,0,0,0,3.17,0,4.16,4.16,0,0,0,.31-2.18v-5.74a4.18,4.18,0,0,0-.31-2.18,1.88,1.88,0,0,0-3.17,0,4.41,4.41,0,0,0-.31,2.18Z" fill="#fff"/><path d="M201.89,155V167.1c0,1.68-.17,2.38-.69,3a3,3,0,0,1-2.5.89h-1.49v-2.33h.58c1.2,0,1.63-.46,1.63-1.78V155Z" fill="#fff"/><path d="M212.31,157.29h-4.78v4.22h3.53v2.28h-3.53v5h4.78V171h-7.25V155h7.25Z" fill="#fff"/><path d="M220.88,160.21v-.33c0-1.85-.65-2.79-1.88-2.79a1.55,1.55,0,0,0-1.46.8,4,4,0,0,0-.39,2.3v5.33a6.92,6.92,0,0,0,.27,2.38,1.66,1.66,0,0,0,1.58,1,1.78,1.78,0,0,0,1.78-1.59,8.48,8.48,0,0,0,.14-1.94h2.5V166c0,3.48-1.51,5.31-4.39,5.31a4,4,0,0,1-3.58-1.78c-.6-1-.77-1.92-.77-4.3v-4.49c0-2.54.19-3.43.94-4.44a4,4,0,0,1,3.38-1.48c2.74,0,4.35,1.82,4.35,5v.48Z" fill="#fff"/><path d="M231.05,171h-2.47V157.29h-3.1V155h8.69v2.28h-3.12Z" fill="#fff"/><path d="M242.67,159.47c-.39-1.58-1.11-2.38-2.12-2.38a1.58,1.58,0,0,0-1.6,1.64,2.38,2.38,0,0,0,.67,1.6,11.52,11.52,0,0,0,2.11,1.76,13.36,13.36,0,0,1,2.38,2.16,4.7,4.7,0,0,1,1,2.93c0,2.42-1.78,4.08-4.39,4.08s-4.35-1.47-4.85-4.52l2.37-.69c.31,1.92,1.16,2.88,2.48,2.88a1.74,1.74,0,0,0,1.82-1.83c0-1-.5-1.65-2.38-3.12-2.23-1.75-2.32-1.85-2.92-2.61a4.33,4.33,0,0,1-.89-2.67,3.9,3.9,0,0,1,4.17-3.93c2.28,0,3.82,1.36,4.49,4Z" fill="#fff"/><path d="M249.87,171h-2.33v-2.57h2.33Z" fill="#fff"/><rect width="300" height="250" fill="none"/></g></g></svg>