<svg xmlns="http://www.w3.org/2000/svg" viewBox="0 0 300 250"><title>txt6</title><g id="Layer_2" data-name="Layer 2"><g id="Rect"><rect width="300" height="250" fill="none"/></g><g id="SUPERIOR_STAIN_FOR_ALL_PROJECTS." data-name="SUPERIOR STAIN FOR ALL PROJECTS."><path d="M173.56,78.69c-.43-1.78-1.23-2.67-2.36-2.67a1.78,1.78,0,0,0-1.81,1.83,2.66,2.66,0,0,0,.76,1.8,11.78,11.78,0,0,0,2.36,2A15,15,0,0,1,175.18,84a5.23,5.23,0,0,1,1.16,3.29c0,2.71-2,4.57-4.93,4.57s-4.87-1.64-5.44-5.06l2.67-.78c.35,2.15,1.29,3.23,2.77,3.23a2,2,0,0,0,2.05-2c0-1.14-.57-1.86-2.67-3.5-2.5-2-2.61-2.08-3.28-2.94a4.83,4.83,0,0,1-1-3,4.37,4.37,0,0,1,4.69-4.41c2.55,0,4.28,1.53,5,4.5Z" fill="#fff"/><path d="M188.58,73.68V85.85c0,2.26-.27,3.41-1,4.44a5.13,5.13,0,0,1-7.46,0c-.75-1-1-2.18-1-4.44V73.68h2.77V86.3c0,2.13.57,3,2,3s2-.86,2-3V73.68Z" fill="#fff"/><path d="M194.88,91.63H192.1V73.68h4.61a5,5,0,0,1,3.76,1.16A5.39,5.39,0,0,1,201.9,79a5.44,5.44,0,0,1-1.43,4.2,5,5,0,0,1-3.76,1.16h-1.83Zm1.21-9.82c2.23,0,2.93-.67,2.93-2.8s-.7-2.77-2.93-2.77h-1.21v5.57Z" fill="#fff"/><path d="M213,76.24H207.6V81h4v2.56h-4v5.55H213v2.55h-8.13V73.68H213Z" fill="#fff"/><path d="M218.45,91.63h-2.77V73.68H220a4.94,4.94,0,0,1,3.55,1.08,5,5,0,0,1,1.62,4.06c0,2.26-.81,3.82-2.42,4.66l2.63,8.15h-2.9l-2.37-7.37h-1.67Zm1-9.93c1.19,0,1.72-.13,2.15-.56a3.8,3.8,0,0,0,0-4.34c-.43-.43-1-.56-2.15-.56h-1V81.7Z" fill="#fff"/><path d="M231.18,91.63H228.4V73.68h2.78Z" fill="#fff"/><path d="M244.34,85.93a6.8,6.8,0,0,1-1,4.25,5.23,5.23,0,0,1-7.75,0,6.81,6.81,0,0,1-1-4.25V79.39a6.86,6.86,0,0,1,1-4.26,5.23,5.23,0,0,1,7.75,0,6.85,6.85,0,0,1,1,4.26Zm-7-.06a4.94,4.94,0,0,0,.35,2.45,2.11,2.11,0,0,0,3.55,0,4.58,4.58,0,0,0,.35-2.45V79.44a4.63,4.63,0,0,0-.35-2.45,2.11,2.11,0,0,0-3.55,0,4.94,4.94,0,0,0-.35,2.45Z" fill="#fff"/><path d="M250.47,91.63H247.7V73.68H252a4.94,4.94,0,0,1,3.55,1.08,5,5,0,0,1,1.62,4.06c0,2.26-.81,3.82-2.42,4.66l2.64,8.15h-2.91l-2.37-7.37h-1.67Zm1-9.93c1.19,0,1.73-.13,2.16-.56a3.85,3.85,0,0,0,0-4.34c-.43-.43-1-.56-2.16-.56h-1V81.7Z" fill="#fff"/><path d="M173.56,105.82c-.43-1.78-1.23-2.67-2.36-2.67a1.78,1.78,0,0,0-1.81,1.83,2.66,2.66,0,0,0,.76,1.8,11.78,11.78,0,0,0,2.36,2,15,15,0,0,1,2.67,2.42,5.23,5.23,0,0,1,1.16,3.29c0,2.71-2,4.57-4.93,4.57s-4.87-1.64-5.44-5.06l2.67-.78c.35,2.15,1.29,3.23,2.77,3.23a2,2,0,0,0,2.05-2c0-1.14-.57-1.86-2.67-3.5-2.5-2-2.61-2.08-3.28-2.94a4.83,4.83,0,0,1-1-3,4.37,4.37,0,0,1,4.69-4.41c2.55,0,4.28,1.53,5,4.5Z" fill="#fff"/><path d="M184.62,118.76h-2.77V103.37h-3.47v-2.56h9.74v2.56h-3.5Z" fill="#fff"/><path d="M192.53,114.86l-.72,3.9h-2.72l3.44-18h3.8l3.63,18h-2.85l-.75-3.9Zm1.89-10.61-1.46,8h2.94Z" fill="#fff"/><path d="M205.45,118.76h-2.77v-18h2.77Z" fill="#fff"/><path d="M219,118.76h-2.47l-4.85-12v12H209v-18h2.8L216.32,112V100.81H219Z" fill="#fff"/><path d="M169.58,145.89h-2.77V127.94H175v2.56h-5.44v4.84h4v2.56h-4Z" fill="#fff"/><path d="M187.34,140.19a6.81,6.81,0,0,1-1,4.25,5.23,5.23,0,0,1-7.75,0,6.8,6.8,0,0,1-1-4.25v-6.54a6.85,6.85,0,0,1,1-4.26,5.23,5.23,0,0,1,7.75,0,6.86,6.86,0,0,1,1,4.26Zm-7-.06a4.94,4.94,0,0,0,.35,2.45,2.11,2.11,0,0,0,3.55,0,4.58,4.58,0,0,0,.35-2.45V133.7a4.63,4.63,0,0,0-.35-2.45,2.11,2.11,0,0,0-3.55,0,4.94,4.94,0,0,0-.35,2.45Z" fill="#fff"/><path d="M193.48,145.89H190.7V127.94H195a4.94,4.94,0,0,1,3.55,1.08,5,5,0,0,1,1.62,4.06c0,2.26-.81,3.82-2.43,4.66l2.64,8.15h-2.91l-2.37-7.37h-1.66Zm1-9.93c1.18,0,1.72-.13,2.15-.56a3,3,0,0,0,.68-2.19,3,3,0,0,0-.68-2.15c-.43-.43-1-.56-2.15-.56h-1V136Z" fill="#fff"/><path d="M211.05,142l-.73,3.9H207.6l3.45-17.95h3.79l3.64,17.95h-2.86l-.75-3.9Zm1.88-10.61-1.45,8.05h2.93Z" fill="#fff"/><path d="M224,143.34h5.52v2.55h-8.29V127.94H224Z" fill="#fff"/><path d="M234.78,143.34h5.52v2.55H232V127.94h2.77Z" fill="#fff"/><path d="M169.58,172h-2.77v-18h4.6a5.07,5.07,0,0,1,3.77,1.15,6.84,6.84,0,0,1,0,8.37,5,5,0,0,1-3.77,1.16h-1.83Zm1.21-9.83c2.24,0,2.94-.67,2.94-2.8s-.7-2.77-2.94-2.77h-1.21v5.57Z" fill="#fff"/><path d="M182.31,172h-2.77v-18h4.33a5,5,0,0,1,3.55,1.07,5.07,5.07,0,0,1,1.62,4.07c0,2.26-.81,3.82-2.42,4.65l2.63,8.16h-2.9L184,164.64h-1.67Zm1-9.93c1.19,0,1.72-.14,2.16-.57a3,3,0,0,0,.67-2.18,3,3,0,0,0-.67-2.15c-.44-.43-1-.57-2.16-.57h-1v5.47Z" fill="#fff"/><path d="M201.87,166.31a6.86,6.86,0,0,1-1,4.26,5.23,5.23,0,0,1-7.75,0,6.86,6.86,0,0,1-1-4.26v-6.54a6.81,6.81,0,0,1,1-4.25,5.23,5.23,0,0,1,7.75,0,6.81,6.81,0,0,1,1,4.25Zm-7-.05a5,5,0,0,0,.35,2.45,2.11,2.11,0,0,0,3.55,0,4.63,4.63,0,0,0,.35-2.45v-6.43a4.58,4.58,0,0,0-.35-2.45,2.11,2.11,0,0,0-3.55,0,4.91,4.91,0,0,0-.35,2.45Z" fill="#fff"/><path d="M209.68,154.07v13.56c0,1.89-.19,2.67-.78,3.39a3.3,3.3,0,0,1-2.8,1h-1.67v-2.61h.64c1.35,0,1.83-.51,1.83-2V154.07Z" fill="#fff"/><path d="M221.36,156.62H216v4.74h4v2.56h-4v5.54h5.36V172h-8.13v-18h8.13Z" fill="#fff"/><path d="M231,159.91v-.38c0-2.07-.72-3.12-2.1-3.12a1.76,1.76,0,0,0-1.64.88,4.61,4.61,0,0,0-.43,2.59v6a7.55,7.55,0,0,0,.3,2.67,1.86,1.86,0,0,0,1.77,1.16,2,2,0,0,0,2-1.78,10,10,0,0,0,.17-2.18h2.79v.62c0,3.9-1.69,5.95-4.92,5.95a4.44,4.44,0,0,1-4-2c-.67-1.11-.86-2.16-.86-4.82v-5c0-2.85.21-3.84,1-5a4.5,4.5,0,0,1,3.79-1.66c3.07,0,4.87,2,4.87,5.57v.54Z" fill="#fff"/><path d="M242.37,172H239.6v-15.4h-3.47v-2.55h9.74v2.55h-3.5Z" fill="#fff"/><path d="M255.4,159.07c-.44-1.78-1.24-2.66-2.37-2.66a1.78,1.78,0,0,0-1.81,1.83A2.66,2.66,0,0,0,252,160a12.49,12.49,0,0,0,2.37,2,14.84,14.84,0,0,1,2.66,2.42,5.22,5.22,0,0,1,1.16,3.28c0,2.72-2,4.58-4.93,4.58s-4.87-1.64-5.44-5.06l2.67-.78c.35,2.15,1.29,3.23,2.77,3.23a2,2,0,0,0,2-2.05c0-1.13-.57-1.86-2.67-3.5-2.5-2-2.61-2.07-3.28-2.93a4.87,4.87,0,0,1-1-3A4.37,4.37,0,0,1,253,153.8c2.55,0,4.28,1.53,5,4.49Z" fill="#fff"/><path d="M263.47,172h-2.61v-2.88h2.61Z" fill="#fff"/></g></g></svg>