<svg xmlns="http://www.w3.org/2000/svg" viewBox="0 0 728 90"><title>txt1</title><g id="Layer_2" data-name="Layer 2"><g id="Rect"><rect width="728" height="90" fill="none"/></g><g id="TODAY_LET_S_STAIN." data-name="TODAY LET’S STAIN."><path d="M259,56h-3V39.4h-3.74V36.65h10.5V39.4H259Z" fill="#fff"/><path d="M275.35,49.84a7.39,7.39,0,0,1-1.1,4.58,5.62,5.62,0,0,1-8.35,0,7.32,7.32,0,0,1-1.11-4.58V42.79a7.32,7.32,0,0,1,1.11-4.58,5.64,5.64,0,0,1,8.35,0,7.39,7.39,0,0,1,1.1,4.58Zm-7.57-.06a5.32,5.32,0,0,0,.38,2.64,2.27,2.27,0,0,0,3.82,0,5,5,0,0,0,.38-2.64V42.85a5,5,0,0,0-.38-2.64,2.27,2.27,0,0,0-3.82,0,5.35,5.35,0,0,0-.38,2.64Z" fill="#fff"/><path d="M278.39,36.65h4.73c3.79,0,5.59,1.94,5.59,6.06v7.22c0,4.11-1.8,6.06-5.59,6.06h-4.73Zm4.47,16.58c2.11,0,2.87-1.1,2.87-4.12V43.52c0-3.05-.76-4.12-2.87-4.12h-1.48V53.23Z" fill="#fff"/><path d="M294.54,51.78,293.76,56h-2.93l3.71-19.34h4.09L302.54,56h-3.07l-.81-4.21Zm2-11.42L295,49h3.16Z" fill="#fff"/><path d="M310,56h-3V48.45l-4.35-11.8H306l2.58,8.17,2.67-8.17h3.25L310,48.45Z" fill="#fff"/><path d="M324.43,53.23h5.94V56h-8.93V36.65h3Z" fill="#fff"/><path d="M341.27,39.4h-5.76v5.1h4.26v2.76h-4.26v6h5.76V56h-8.75V36.65h8.75Z" fill="#fff"/><path d="M349.94,56h-3V39.4h-3.74V36.65h10.49V39.4h-3.77Z" fill="#fff"/><path d="M358.73,39.75l-1.71,4h-1.1l1.27-4h-1.27v-3.1h2.81Z" fill="#fff"/><path d="M368.93,42c-.46-1.91-1.33-2.87-2.55-2.87a1.91,1.91,0,0,0-1.94,2,2.9,2.9,0,0,0,.81,1.94,13.81,13.81,0,0,0,2.55,2.12,16.28,16.28,0,0,1,2.87,2.61,5.61,5.61,0,0,1,1.25,3.54c0,2.92-2.15,4.93-5.31,4.93s-5.24-1.77-5.85-5.45l2.87-.85c.37,2.32,1.39,3.48,3,3.48a2.1,2.1,0,0,0,2.21-2.2c0-1.22-.61-2-2.87-3.77-2.7-2.12-2.82-2.23-3.54-3.16a5.22,5.22,0,0,1-1.07-3.22,4.7,4.7,0,0,1,5-4.75c2.76,0,4.61,1.65,5.42,4.84Z" fill="#fff"/><path d="M386.3,42c-.46-1.91-1.33-2.87-2.55-2.87a1.91,1.91,0,0,0-1.94,2,2.9,2.9,0,0,0,.81,1.94,13.81,13.81,0,0,0,2.55,2.12A16.66,16.66,0,0,1,388,47.81a5.67,5.67,0,0,1,1.25,3.54c0,2.92-2.15,4.93-5.31,4.93-3.31,0-5.25-1.77-5.86-5.45L381,50c.38,2.32,1.4,3.48,3,3.48a2.09,2.09,0,0,0,2.2-2.2c0-1.22-.61-2-2.87-3.77-2.69-2.12-2.81-2.23-3.53-3.16a5.23,5.23,0,0,1-1.08-3.22,4.71,4.71,0,0,1,5.05-4.75c2.75,0,4.61,1.65,5.42,4.84Z" fill="#fff"/><path d="M397.63,56h-3V39.4h-3.74V36.65H401.4V39.4h-3.77Z" fill="#fff"/><path d="M405.58,51.78,404.8,56h-2.93l3.71-19.34h4.09L413.58,56h-3.07l-.81-4.21Zm2-11.42L406,49h3.16Z" fill="#fff"/><path d="M418.92,56h-3V36.65h3Z" fill="#fff"/><path d="M432.89,56h-2.67L425,43.11V56h-2.84V36.65h3l4.87,12v-12h2.84Z" fill="#fff"/><path d="M438.66,56h-2.81V52.88h2.81Z" fill="#fff"/></g></g></svg>