<svg xmlns="http://www.w3.org/2000/svg" viewBox="0 0 728 90"><title>txt2</title><g id="Layer_2" data-name="Layer 2"><g id="Rect"><rect width="728" height="90" fill="none"/></g><g id="TODAY_LET_S_STAIN_YOUR_CHAIR." data-name="TODAY LET’S STAIN YOUR CHAIR."><path d="M259,56h-3V39.4h-3.74V36.65h10.5V39.4H259Z" fill="#fff"/><path d="M275.35,49.84a7.39,7.39,0,0,1-1.1,4.58,5.62,5.62,0,0,1-8.35,0,7.32,7.32,0,0,1-1.11-4.58V42.79a7.32,7.32,0,0,1,1.11-4.58,5.64,5.64,0,0,1,8.35,0,7.39,7.39,0,0,1,1.1,4.58Zm-7.57-.06a5.32,5.32,0,0,0,.38,2.64,2.27,2.27,0,0,0,3.82,0,5,5,0,0,0,.38-2.64V42.85a5,5,0,0,0-.38-2.64,2.27,2.27,0,0,0-3.82,0,5.35,5.35,0,0,0-.38,2.64Z" fill="#fff"/><path d="M278.39,36.65h4.73c3.79,0,5.59,1.94,5.59,6.06v7.22c0,4.11-1.8,6.06-5.59,6.06h-4.73Zm4.47,16.58c2.11,0,2.87-1.1,2.87-4.12V43.52c0-3.05-.76-4.12-2.87-4.12h-1.48V53.23Z" fill="#fff"/><path d="M294.54,51.78,293.76,56h-2.93l3.71-19.34h4.09L302.54,56h-3.07l-.81-4.21Zm2-11.42L295,49h3.16Z" fill="#fff"/><path d="M310,56h-3V48.45l-4.35-11.8H306l2.58,8.17,2.67-8.17h3.25L310,48.45Z" fill="#fff"/><path d="M324.43,53.23h5.94V56h-8.93V36.65h3Z" fill="#fff"/><path d="M341.27,39.4h-5.76v5.1h4.26v2.76h-4.26v6h5.76V56h-8.75V36.65h8.75Z" fill="#fff"/><path d="M349.94,56h-3V39.4h-3.74V36.65h10.49V39.4h-3.77Z" fill="#fff"/><path d="M358.73,39.75l-1.71,4h-1.1l1.27-4h-1.27v-3.1h2.81Z" fill="#fff"/><path d="M368.93,42c-.46-1.91-1.33-2.87-2.55-2.87a1.91,1.91,0,0,0-1.94,2,2.9,2.9,0,0,0,.81,1.94,13.81,13.81,0,0,0,2.55,2.12,16.28,16.28,0,0,1,2.87,2.61,5.61,5.61,0,0,1,1.25,3.54c0,2.92-2.15,4.93-5.31,4.93s-5.24-1.77-5.85-5.45l2.87-.85c.37,2.32,1.39,3.48,3,3.48a2.1,2.1,0,0,0,2.21-2.2c0-1.22-.61-2-2.87-3.77-2.7-2.12-2.82-2.23-3.54-3.16a5.22,5.22,0,0,1-1.07-3.22,4.7,4.7,0,0,1,5-4.75c2.76,0,4.61,1.65,5.42,4.84Z" fill="#fff"/><path d="M386.3,42c-.46-1.91-1.33-2.87-2.55-2.87a1.91,1.91,0,0,0-1.94,2,2.9,2.9,0,0,0,.81,1.94,13.81,13.81,0,0,0,2.55,2.12A16.66,16.66,0,0,1,388,47.81a5.67,5.67,0,0,1,1.25,3.54c0,2.92-2.15,4.93-5.31,4.93-3.31,0-5.25-1.77-5.86-5.45L381,50c.38,2.32,1.4,3.48,3,3.48a2.09,2.09,0,0,0,2.2-2.2c0-1.22-.61-2-2.87-3.77-2.69-2.12-2.81-2.23-3.53-3.16a5.23,5.23,0,0,1-1.08-3.22,4.71,4.71,0,0,1,5.05-4.75c2.75,0,4.61,1.65,5.42,4.84Z" fill="#fff"/><path d="M397.63,56h-3V39.4h-3.74V36.65H401.4V39.4h-3.77Z" fill="#fff"/><path d="M405.58,51.78,404.8,56h-2.93l3.71-19.34h4.09L413.58,56h-3.07l-.81-4.21Zm2-11.42L406,49h3.16Z" fill="#fff"/><path d="M418.92,56h-3V36.65h3Z" fill="#fff"/><path d="M432.89,56h-2.67L425,43.11V56h-2.84V36.65h3l4.87,12v-12h2.84Z" fill="#fff"/><path d="M447.18,56h-3V48.45l-4.35-11.8h3.3l2.58,8.17,2.67-8.17h3.25l-4.47,11.8Z" fill="#fff"/><path d="M463.91,49.84a7.39,7.39,0,0,1-1.1,4.58,5.62,5.62,0,0,1-8.35,0,7.39,7.39,0,0,1-1.1-4.58V42.79a7.39,7.39,0,0,1,1.1-4.58,5.64,5.64,0,0,1,8.35,0,7.39,7.39,0,0,1,1.1,4.58Zm-7.57-.06a5.32,5.32,0,0,0,.38,2.64,2.28,2.28,0,0,0,3.83,0,5,5,0,0,0,.37-2.64V42.85a5,5,0,0,0-.37-2.64,2.28,2.28,0,0,0-3.83,0,5.35,5.35,0,0,0-.38,2.64Z" fill="#fff"/><path d="M477.19,36.65v13.1c0,2.44-.29,3.68-1.1,4.79a5.5,5.5,0,0,1-8,0c-.81-1.11-1.1-2.35-1.1-4.79V36.65h3v13.6c0,2.29.61,3.21,2.15,3.21s2.11-.92,2.11-3.21V36.65Z" fill="#fff"/><path d="M483.39,56h-3V36.65h4.67a5.36,5.36,0,0,1,3.82,1.16,5.44,5.44,0,0,1,1.74,4.38c0,2.43-.87,4.11-2.61,5L490.87,56h-3.13l-2.55-8h-1.8Zm1.11-10.7c1.27,0,1.85-.15,2.31-.61a3.19,3.19,0,0,0,.73-2.35,3.15,3.15,0,0,0-.73-2.32c-.46-.46-1-.61-2.31-.61h-1.11v5.89Z" fill="#fff"/><path d="M505.43,42.94v-.41c0-2.23-.79-3.36-2.26-3.36a1.89,1.89,0,0,0-1.77,1,4.83,4.83,0,0,0-.47,2.78v6.44a8.33,8.33,0,0,0,.32,2.87,2,2,0,0,0,1.92,1.24,2.13,2.13,0,0,0,2.14-1.91,10.57,10.57,0,0,0,.18-2.35h3v.67c0,4.2-1.83,6.41-5.3,6.41a4.78,4.78,0,0,1-4.32-2.15c-.73-1.19-.93-2.32-.93-5.19V43.52c0-3.07.23-4.15,1.13-5.36a4.85,4.85,0,0,1,4.09-1.8c3.3,0,5.24,2.2,5.24,6v.58Z" fill="#fff"/><path d="M514.3,47.46V56h-3V36.65h3v8.06h4.26V36.65h3V56h-3V47.46Z" fill="#fff"/><path d="M527.92,51.78,527.14,56h-2.93l3.71-19.34H532L535.93,56h-3.08L532,51.78Zm2-11.42L528.39,49h3.16Z" fill="#fff"/><path d="M541.26,56h-3V36.65h3Z" fill="#fff"/><path d="M547.49,56h-3V36.65h4.67A5.36,5.36,0,0,1,553,37.81a5.44,5.44,0,0,1,1.74,4.38c0,2.43-.87,4.11-2.61,5L555,56h-3.13l-2.55-8h-1.8Zm1.11-10.7c1.27,0,1.85-.15,2.32-.61a3.23,3.23,0,0,0,.72-2.35,3.2,3.2,0,0,0-.72-2.32c-.47-.46-1-.61-2.32-.61h-1.11v5.89Z" fill="#fff"/><path d="M560.25,56h-2.81V52.88h2.81Z" fill="#fff"/></g></g></svg>