<svg xmlns="http://www.w3.org/2000/svg" viewBox="0 0 728 90"><title>txt3</title><g id="Layer_2" data-name="Layer 2"><g id="Rect"><rect width="728" height="90" fill="none"/></g><g id="your_chair." data-name="your chair."><path d="M454.22,56h-3.51V47.15l-5.09-13.84h3.87l3,9.59,3.12-9.59h3.81l-5.23,13.84Z" fill="#fff"/><path d="M473.83,48.78c0,2.55-.37,4.08-1.29,5.37a6.59,6.59,0,0,1-9.79,0c-.92-1.29-1.29-2.82-1.29-5.37V40.52c0-2.55.37-4.08,1.29-5.37a6.59,6.59,0,0,1,9.79,0c.92,1.29,1.29,2.82,1.29,5.37ZM465,48.71a6.25,6.25,0,0,0,.44,3.09,2.66,2.66,0,0,0,4.49,0c.37-.71.44-1.25.44-3.09V40.58c0-1.83-.07-2.37-.44-3.09a2.68,2.68,0,0,0-4.49,0,6.25,6.25,0,0,0-.44,3.09Z" fill="#fff"/><path d="M489.41,33.31V48.68c0,2.85-.34,4.31-1.3,5.61a6.45,6.45,0,0,1-9.41,0c-.95-1.3-1.3-2.76-1.3-5.61V33.31h3.51V49.25c0,2.69.71,3.78,2.51,3.78s2.48-1.09,2.48-3.78V33.31Z" fill="#fff"/><path d="M496.68,56h-3.5V33.31h5.47a6.29,6.29,0,0,1,4.49,1.36,6.4,6.4,0,0,1,2,5.13c0,2.86-1,4.83-3.06,5.88L505.45,56h-3.67l-3-9.32h-2.11ZM498,43.44c1.5,0,2.18-.17,2.72-.71a3.77,3.77,0,0,0,.85-2.76,3.73,3.73,0,0,0-.85-2.72c-.54-.54-1.22-.71-2.72-.71h-1.29v6.9Z" fill="#fff"/><path d="M522.52,40.69v-.48c0-2.62-.92-3.94-2.65-3.94a2.21,2.21,0,0,0-2.07,1.12c-.45.75-.55,1.43-.55,3.26V48.2a9.53,9.53,0,0,0,.38,3.37A2.36,2.36,0,0,0,519.87,53a2.52,2.52,0,0,0,2.52-2.25,12.92,12.92,0,0,0,.2-2.75h3.53v.78c0,4.93-2.14,7.52-6.22,7.52a5.6,5.6,0,0,1-5.06-2.52c-.85-1.39-1.09-2.72-1.09-6.09V41.37c0-3.61.27-4.86,1.33-6.29A5.67,5.67,0,0,1,519.87,33c3.88,0,6.15,2.58,6.15,7v.68Z" fill="#fff"/><path d="M532.93,46V56h-3.51V33.31h3.51v9.45h5V33.31h3.5V56h-3.5V46Z" fill="#fff"/><path d="M548.91,51.06,548,56h-3.44l4.36-22.68h4.79L558.29,56h-3.61l-.95-4.93Zm2.38-13.4-1.84,10.17h3.7Z" fill="#fff"/><path d="M564.54,56H561V33.31h3.5Z" fill="#fff"/><path d="M571.85,56h-3.5V33.31h5.48a6.26,6.26,0,0,1,4.48,1.36,6.4,6.4,0,0,1,2,5.13c0,2.86-1,4.83-3.06,5.88L580.63,56H577l-3-9.32h-2.11Zm1.3-12.55c1.49,0,2.17-.17,2.72-.71a3.82,3.82,0,0,0,.85-2.76,3.78,3.78,0,0,0-.85-2.72c-.55-.54-1.23-.71-2.72-.71h-1.3v6.9Z" fill="#fff"/><path d="M586.81,56h-3.29V52.35h3.29Z" fill="#fff"/></g></g></svg>