<svg xmlns="http://www.w3.org/2000/svg" viewBox="0 0 728 90"><title>txt5</title><g id="Layer_2" data-name="Layer 2"><g id="Rect"><rect width="728" height="90" fill="none"/></g><g id="your_anything." data-name="your anything."><path d="M454.22,56h-3.51V47.15l-5.09-13.84h3.87l3,9.59,3.12-9.59h3.81l-5.23,13.84Z" fill="#fff"/><path d="M473.83,48.78c0,2.55-.37,4.08-1.29,5.37a6.59,6.59,0,0,1-9.79,0c-.92-1.29-1.29-2.82-1.29-5.37V40.52c0-2.55.37-4.08,1.29-5.37a6.59,6.59,0,0,1,9.79,0c.92,1.29,1.29,2.82,1.29,5.37ZM465,48.71a6.25,6.25,0,0,0,.44,3.09,2.66,2.66,0,0,0,4.49,0c.37-.71.44-1.25.44-3.09V40.58c0-1.83-.07-2.37-.44-3.09a2.68,2.68,0,0,0-4.49,0,6.25,6.25,0,0,0-.44,3.09Z" fill="#fff"/><path d="M489.41,33.31V48.68c0,2.85-.34,4.31-1.3,5.61a6.45,6.45,0,0,1-9.41,0c-.95-1.3-1.3-2.76-1.3-5.61V33.31h3.51V49.25c0,2.69.71,3.78,2.51,3.78s2.48-1.09,2.48-3.78V33.31Z" fill="#fff"/><path d="M496.68,56h-3.5V33.31h5.47a6.29,6.29,0,0,1,4.49,1.36,6.4,6.4,0,0,1,2,5.13c0,2.86-1,4.83-3.06,5.88L505.45,56h-3.67l-3-9.32h-2.11ZM498,43.44c1.5,0,2.18-.17,2.72-.71a3.77,3.77,0,0,0,.85-2.76,3.73,3.73,0,0,0-.85-2.72c-.54-.54-1.22-.71-2.72-.71h-1.29v6.9Z" fill="#fff"/><path d="M517.52,51.06,516.61,56h-3.44l4.35-22.68h4.8L526.91,56H523.3l-.95-4.93Zm2.38-13.4-1.83,10.17h3.7Z" fill="#fff"/><path d="M542.24,56h-3.13L533,40.89V56h-3.33V33.31h3.54l5.71,14.11V33.31h3.33Z" fill="#fff"/><path d="M553.77,56h-3.5V47.15l-5.1-13.84H549l3,9.59,3.13-9.59H559l-5.23,13.84Z" fill="#fff"/><path d="M569.1,56h-3.5V36.54h-4.39V33.31h12.31v3.23H569.1Z" fill="#fff"/><path d="M579.81,46V56h-3.5V33.31h3.5v9.45h5V33.31h3.5V56h-3.5V46Z" fill="#fff"/><path d="M595.59,56h-3.51V33.31h3.51Z" fill="#fff"/><path d="M612,56h-3.13l-6.11-15.1V56h-3.34V33.31h3.54l5.71,14.11V33.31H612Z" fill="#fff"/><path d="M627.88,44.73V56h-1.8l-.64-1.94a4.75,4.75,0,0,1-4.25,2.28,5.12,5.12,0,0,1-4.69-2.66c-.75-1.46-1-2.92-1-6.05V41.37c0-3.61.27-4.9,1.33-6.29A5.72,5.72,0,0,1,621.63,33,5.6,5.6,0,0,1,627,36a10.09,10.09,0,0,1,.81,4.69h-3.5c0-3.13-.78-4.42-2.68-4.42a2.24,2.24,0,0,0-2.08,1.15c-.41.75-.51,1.43-.51,3.27v6.93a11.72,11.72,0,0,0,.38,3.71,2.44,2.44,0,0,0,2.38,1.7c1.83,0,2.61-1.33,2.61-4.49v-.92h-2.89V44.73Z" fill="#fff"/><path d="M634.48,56h-3.3V52.35h3.3Z" fill="#fff"/></g></g></svg>