<svg xmlns="http://www.w3.org/2000/svg" viewBox="0 0 728 90"><title>txt6</title><g id="Layer_2" data-name="Layer 2"><g id="Rect"><rect width="728" height="90" fill="none"/></g><g id="SUPERIOR_STAIN_FOR_ALL_PROJECTS." data-name="SUPERIOR STAIN  FOR ALL PROJECTS."><path d="M234.3,27.63c-.54-2.24-1.56-3.36-3-3.36A2.23,2.23,0,0,0,229,26.58a3.43,3.43,0,0,0,1,2.28,16.12,16.12,0,0,0,3,2.48,18.41,18.41,0,0,1,3.36,3.06,6.62,6.62,0,0,1,1.47,4.15c0,3.43-2.52,5.78-6.23,5.78-3.87,0-6.15-2.08-6.86-6.4l3.36-1c.45,2.72,1.63,4.08,3.5,4.08a2.47,2.47,0,0,0,2.59-2.59c0-1.42-.72-2.34-3.37-4.42-3.16-2.48-3.29-2.61-4.14-3.7a6.14,6.14,0,0,1-1.26-3.78c0-3.26,2.45-5.57,5.91-5.57,3.23,0,5.41,1.94,6.36,5.68Z" fill="#fff"/><path d="M252.6,21.31V36.68c0,2.85-.34,4.31-1.3,5.61a6.45,6.45,0,0,1-9.41,0c-.95-1.3-1.29-2.76-1.29-5.61V21.31h3.5V37.25c0,2.69.71,3.78,2.51,3.78s2.48-1.09,2.48-3.78V21.31Z" fill="#fff"/><path d="M259.87,44h-3.5V21.31h5.81c2.28,0,3.71.44,4.76,1.46,1.23,1.16,1.81,2.86,1.81,5.27s-.58,4.15-1.81,5.3c-1.05,1-2.48,1.47-4.76,1.47h-2.31Zm1.53-12.41c2.82,0,3.71-.85,3.71-3.54s-.89-3.5-3.71-3.5h-1.53v7Z" fill="#fff"/><path d="M282,24.54h-6.77v6h5v3.23h-5v7H282V44H271.77V21.31H282Z" fill="#fff"/><path d="M288.3,44h-3.51V21.31h5.48a6.31,6.31,0,0,1,4.49,1.36,6.39,6.39,0,0,1,2,5.13c0,2.86-1,4.83-3.05,5.88L297.07,44H293.4l-3-9.32h-2.1Zm1.29-12.55c1.49,0,2.17-.17,2.72-.71a3.77,3.77,0,0,0,.85-2.76,3.73,3.73,0,0,0-.85-2.72c-.55-.54-1.23-.71-2.72-.71H288.3v6.9Z" fill="#fff"/><path d="M303.7,44h-3.5V21.31h3.5Z" fill="#fff"/><path d="M319.64,36.78c0,2.55-.37,4.08-1.29,5.37a6.59,6.59,0,0,1-9.79,0c-.92-1.29-1.29-2.82-1.29-5.37V28.52c0-2.55.37-4.08,1.29-5.37a6.59,6.59,0,0,1,9.79,0c.92,1.29,1.29,2.82,1.29,5.37Zm-8.87-.07a6.25,6.25,0,0,0,.44,3.09,2.66,2.66,0,0,0,4.49,0c.37-.71.44-1.25.44-3.09V28.58c0-1.83-.07-2.37-.44-3.09a2.68,2.68,0,0,0-4.49,0,6.25,6.25,0,0,0-.44,3.09Z" fill="#fff"/><path d="M326.71,44h-3.5V21.31h5.48a6.26,6.26,0,0,1,4.48,1.36,6.4,6.4,0,0,1,2,5.13c0,2.86-1,4.83-3.06,5.88L335.49,44h-3.68l-3-9.32h-2.11ZM328,31.44c1.49,0,2.17-.17,2.72-.71a3.82,3.82,0,0,0,.85-2.76,3.78,3.78,0,0,0-.85-2.72c-.55-.54-1.23-.71-2.72-.71h-1.3v6.9Z" fill="#fff"/><path d="M352.55,27.63c-.54-2.24-1.56-3.36-3-3.36a2.23,2.23,0,0,0-2.27,2.31,3.38,3.38,0,0,0,.95,2.28,16.12,16.12,0,0,0,3,2.48,18.41,18.41,0,0,1,3.36,3.06,6.62,6.62,0,0,1,1.47,4.15c0,3.43-2.52,5.78-6.23,5.78-3.87,0-6.15-2.08-6.86-6.4l3.36-1c.45,2.72,1.63,4.08,3.5,4.08a2.47,2.47,0,0,0,2.59-2.59c0-1.42-.72-2.34-3.37-4.42-3.16-2.48-3.29-2.61-4.14-3.7a6.14,6.14,0,0,1-1.26-3.78c0-3.26,2.45-5.57,5.91-5.57,3.23,0,5.41,1.94,6.36,5.68Z" fill="#fff"/><path d="M365.85,44h-3.5V24.54H358V21.31h12.31v3.23h-4.42Z" fill="#fff"/><path d="M375.17,39.06,374.25,44h-3.44l4.36-22.68H380L384.55,44h-3.61L380,39.06Zm2.37-13.4-1.83,10.17h3.7Z" fill="#fff"/><path d="M390.8,44h-3.5V21.31h3.5Z" fill="#fff"/><path d="M407.19,44h-3.13l-6.12-15.1V44h-3.33V21.31h3.54l5.71,14.11V21.31h3.33Z" fill="#fff"/><path d="M229.27,74h-3.5V51.31h10.37v3.23h-6.87v6.12h5.1v3.23h-5.1Z" fill="#fff"/><path d="M251,66.78c0,2.55-.37,4.08-1.29,5.37a6.59,6.59,0,0,1-9.79,0c-.92-1.29-1.29-2.82-1.29-5.37V58.52c0-2.55.37-4.08,1.29-5.37a6.59,6.59,0,0,1,9.79,0c.92,1.29,1.29,2.82,1.29,5.37Zm-8.87-.07a6.25,6.25,0,0,0,.44,3.09,2.66,2.66,0,0,0,4.49,0c.37-.71.44-1.25.44-3.09V58.58c0-1.83-.07-2.37-.44-3.09a2.68,2.68,0,0,0-4.49,0,6.25,6.25,0,0,0-.44,3.09Z" fill="#fff"/><path d="M258.1,74h-3.5V51.31h5.48a6.26,6.26,0,0,1,4.48,1.36,6.4,6.4,0,0,1,2,5.13c0,2.86-1,4.83-3.06,5.88L266.88,74H263.2l-3-9.32H258.1Zm1.3-12.55c1.49,0,2.17-.17,2.72-.71A3.82,3.82,0,0,0,263,58a3.78,3.78,0,0,0-.85-2.72c-.55-.54-1.23-.71-2.72-.71h-1.3v6.9Z" fill="#fff"/><path d="M279,69.06,278,74h-3.44L279,51.31h4.79L288.33,74h-3.6l-1-4.93Zm2.38-13.4-1.84,10.17h3.71Z" fill="#fff"/><path d="M294.59,70.76h7V74H291.08V51.31h3.51Z" fill="#fff"/><path d="M307.57,70.76h7V74H304.07V51.31h3.5Z" fill="#fff"/><path d="M326.1,74h-3.5V51.31h5.82c2.27,0,3.7.44,4.75,1.46C334.4,53.93,335,55.63,335,58s-.58,4.15-1.81,5.3c-1.05,1-2.48,1.47-4.75,1.47H326.1Zm1.53-12.41c2.82,0,3.71-.85,3.71-3.54s-.89-3.5-3.71-3.5H326.1v7Z" fill="#fff"/><path d="M341.5,74H338V51.31h5.48A6.26,6.26,0,0,1,348,52.67a6.4,6.4,0,0,1,2,5.13c0,2.86-1,4.83-3.06,5.88L350.28,74H346.6l-3-9.32H341.5Zm1.3-12.55c1.49,0,2.17-.17,2.72-.71a3.82,3.82,0,0,0,.85-2.76,3.78,3.78,0,0,0-.85-2.72c-.55-.54-1.23-.71-2.72-.71h-1.3v6.9Z" fill="#fff"/><path d="M365.54,66.78c0,2.55-.37,4.08-1.29,5.37a6.59,6.59,0,0,1-9.79,0c-.92-1.29-1.29-2.82-1.29-5.37V58.52c0-2.55.37-4.08,1.29-5.37a6.59,6.59,0,0,1,9.79,0c.92,1.29,1.29,2.82,1.29,5.37Zm-8.87-.07a6.25,6.25,0,0,0,.44,3.09,2.66,2.66,0,0,0,4.49,0c.37-.71.44-1.25.44-3.09V58.58c0-1.83-.07-2.37-.44-3.09a2.68,2.68,0,0,0-4.49,0,6.25,6.25,0,0,0-.44,3.09Z" fill="#fff"/><path d="M374.72,51.31V68.44c0,2.38-.24,3.37-1,4.29S371.93,74,370.2,74h-2.11v-3.3h.82c1.7,0,2.31-.65,2.31-2.52V51.31Z" fill="#fff"/><path d="M388.8,54.54H382v6h5v3.23h-5v7h6.77V74H378.53V51.31H388.8Z" fill="#fff"/><path d="M400.25,58.69v-.48c0-2.62-.91-3.94-2.65-3.94a2.21,2.21,0,0,0-2.07,1.12c-.44.75-.55,1.43-.55,3.26V66.2a9.78,9.78,0,0,0,.38,3.37A2.36,2.36,0,0,0,397.6,71a2.52,2.52,0,0,0,2.52-2.25,12.92,12.92,0,0,0,.2-2.75h3.54v.78c0,4.93-2.14,7.52-6.22,7.52a5.62,5.62,0,0,1-5.07-2.52c-.85-1.39-1.09-2.72-1.09-6.09V59.37c0-3.61.27-4.87,1.33-6.29A5.68,5.68,0,0,1,397.6,51c3.88,0,6.16,2.58,6.16,7v.68Z" fill="#fff"/><path d="M414,74h-3.5V54.54H406.1V51.31h12.31v3.23H414Z" fill="#fff"/><path d="M429.76,57.63c-.54-2.24-1.56-3.36-3-3.36a2.23,2.23,0,0,0-2.27,2.31,3.43,3.43,0,0,0,.95,2.28,17,17,0,0,0,3,2.48,18.41,18.41,0,0,1,3.36,3.06,6.62,6.62,0,0,1,1.47,4.15c0,3.43-2.52,5.78-6.23,5.78-3.87,0-6.15-2.08-6.86-6.4l3.36-1C424,69.67,425.18,71,427,71a2.47,2.47,0,0,0,2.59-2.59c0-1.42-.71-2.34-3.37-4.42-3.16-2.48-3.29-2.61-4.14-3.7a6.14,6.14,0,0,1-1.26-3.78c0-3.26,2.45-5.57,5.91-5.57,3.23,0,5.41,1.94,6.36,5.68Z" fill="#fff"/><path d="M439.29,74H436V70.35h3.3Z" fill="#fff"/></g></g></svg>