<svg xmlns="http://www.w3.org/2000/svg" viewBox="0 0 728 90"><title>txt</title><g id="Layer_2" data-name="Layer 2"><g id="SUPERIOR_STAIN_FOR_ALL_INTERIOR_PROJECTS." data-name="SUPERIOR STAIN FOR ALL  INTERIOR PROJECTS."><path d="M260.79,31c-.46-1.91-1.33-2.87-2.55-2.87a1.91,1.91,0,0,0-1.94,2,2.9,2.9,0,0,0,.81,1.94,13.81,13.81,0,0,0,2.55,2.12,16.28,16.28,0,0,1,2.87,2.61,5.61,5.61,0,0,1,1.25,3.54c0,2.92-2.15,4.93-5.31,4.93s-5.24-1.77-5.85-5.46l2.87-.84c.37,2.32,1.39,3.48,3,3.48a2.1,2.1,0,0,0,2.21-2.2c0-1.22-.61-2-2.87-3.77-2.7-2.12-2.82-2.23-3.54-3.16a5.22,5.22,0,0,1-1.07-3.22,4.7,4.7,0,0,1,5-4.75c2.76,0,4.61,1.65,5.42,4.84Z" fill="#fff"/><path d="M276.39,25.65v13.1c0,2.44-.29,3.68-1.1,4.79a5.5,5.5,0,0,1-8,0c-.81-1.11-1.1-2.35-1.1-4.79V25.65h3v13.6c0,2.29.61,3.21,2.15,3.21s2.11-.92,2.11-3.21V25.65Z" fill="#fff"/><path d="M282.6,45h-3V25.65h5c1.94,0,3.16.37,4.06,1.24a5.86,5.86,0,0,1,1.53,4.5c0,2.09-.49,3.54-1.53,4.52s-2.12,1.25-4.06,1.25h-2Zm1.3-10.59c2.41,0,3.16-.72,3.16-3s-.75-3-3.16-3h-1.3v6Z" fill="#fff"/><path d="M301.5,28.4h-5.77v5.1H300v2.76h-4.26v6h5.77V45h-8.76V25.65h8.76Z" fill="#fff"/><path d="M306.83,45h-3V25.65h4.66a5.38,5.38,0,0,1,3.83,1.16,5.44,5.44,0,0,1,1.74,4.38c0,2.43-.87,4.11-2.61,5L314.31,45h-3.13l-2.55-8h-1.8Zm1.1-10.7c1.28,0,1.86-.15,2.32-.61a3.19,3.19,0,0,0,.73-2.35,3.15,3.15,0,0,0-.73-2.32c-.46-.46-1-.61-2.32-.61h-1.1v5.89Z" fill="#fff"/><path d="M320,45h-3V25.65h3Z" fill="#fff"/><path d="M333.56,38.84a7.39,7.39,0,0,1-1.1,4.58,5.62,5.62,0,0,1-8.35,0,7.39,7.39,0,0,1-1.1-4.58V31.79a7.39,7.39,0,0,1,1.1-4.58,5.64,5.64,0,0,1,8.35,0,7.39,7.39,0,0,1,1.1,4.58ZM326,38.78a5.35,5.35,0,0,0,.37,2.64,2.28,2.28,0,0,0,3.83,0,5,5,0,0,0,.38-2.64V31.85a5,5,0,0,0-.38-2.64,2.28,2.28,0,0,0-3.83,0,5.38,5.38,0,0,0-.37,2.64Z" fill="#fff"/><path d="M339.59,45h-3V25.65h4.66a5.38,5.38,0,0,1,3.83,1.16,5.44,5.44,0,0,1,1.74,4.38c0,2.43-.87,4.11-2.61,5L347.07,45h-3.13l-2.55-8h-1.8Zm1.1-10.7c1.28,0,1.86-.15,2.32-.61a3.19,3.19,0,0,0,.73-2.35A3.15,3.15,0,0,0,343,29c-.46-.46-1-.61-2.32-.61h-1.1v5.89Z" fill="#fff"/><path d="M361.63,31c-.47-1.91-1.34-2.87-2.55-2.87a1.91,1.91,0,0,0-1.95,2,2.86,2.86,0,0,0,.82,1.94,13.81,13.81,0,0,0,2.55,2.12,16.66,16.66,0,0,1,2.87,2.61,5.66,5.66,0,0,1,1.24,3.54c0,2.92-2.14,4.93-5.3,4.93s-5.25-1.77-5.86-5.46l2.87-.84c.38,2.32,1.39,3.48,3,3.48a2.1,2.1,0,0,0,2.2-2.2c0-1.22-.61-2-2.87-3.77-2.7-2.12-2.81-2.23-3.54-3.16A5.28,5.28,0,0,1,354,30.11a4.71,4.71,0,0,1,5.05-4.75c2.75,0,4.61,1.65,5.42,4.84Z" fill="#fff"/><path d="M373,45h-3V28.4h-3.74V25.65h10.49V28.4H373Z" fill="#fff"/><path d="M380.91,40.78,380.12,45H377.2l3.71-19.34H385L388.91,45h-3.08L385,40.78Zm2-11.42L381.37,38h3.16Z" fill="#fff"/><path d="M394.24,45h-3V25.65h3Z" fill="#fff"/><path d="M408.22,45h-2.67l-5.22-12.88V45h-2.84V25.65h3l4.87,12v-12h2.84Z" fill="#fff"/><path d="M419.15,45h-3V25.65H425V28.4h-5.85v5.22h4.35v2.76h-4.35Z" fill="#fff"/><path d="M437.7,38.84a7.39,7.39,0,0,1-1.1,4.58,5.62,5.62,0,0,1-8.35,0,7.39,7.39,0,0,1-1.1-4.58V31.79a7.39,7.39,0,0,1,1.1-4.58,5.64,5.64,0,0,1,8.35,0,7.39,7.39,0,0,1,1.1,4.58Zm-7.57-.06a5.32,5.32,0,0,0,.38,2.64,2.28,2.28,0,0,0,3.83,0,5,5,0,0,0,.38-2.64V31.85a5,5,0,0,0-.38-2.64,2.28,2.28,0,0,0-3.83,0,5.35,5.35,0,0,0-.38,2.64Z" fill="#fff"/><path d="M443.73,45h-3V25.65h4.66a5.38,5.38,0,0,1,3.83,1.16A5.44,5.44,0,0,1,451,31.19c0,2.43-.87,4.11-2.61,5L451.21,45h-3.13l-2.55-8h-1.8Zm1.1-10.7c1.28,0,1.86-.15,2.32-.61a3.19,3.19,0,0,0,.73-2.35,3.15,3.15,0,0,0-.73-2.32c-.46-.46-1-.61-2.32-.61h-1.1v5.89Z" fill="#fff"/><path d="M461.5,40.78,460.72,45h-2.93l3.71-19.34h4.09L469.5,45h-3.07l-.81-4.21Zm2-11.42L462,38h3.16Z" fill="#fff"/><path d="M474.84,42.23h5.94V45h-8.93V25.65h3Z" fill="#fff"/><path d="M485.92,42.23h5.94V45h-8.93V25.65h3Z" fill="#fff"/><path d="M256.5,72.43h-3V53.09h3Z" fill="#fff"/><path d="M270.48,72.43h-2.67l-5.22-12.87V72.43h-2.84V53.09h3l4.87,12v-12h2.85Z" fill="#fff"/><path d="M279.58,72.43h-3V55.84h-3.74V53.09h10.5v2.75h-3.77Z" fill="#fff"/><path d="M294.48,55.84h-5.77V61H293V63.7h-4.26v6h5.77v2.76h-8.75V53.09h8.75Z" fill="#fff"/><path d="M299.82,72.43h-3V53.09h4.67a5.33,5.33,0,0,1,3.82,1.16,5.45,5.45,0,0,1,1.74,4.38c0,2.43-.87,4.11-2.61,5l2.85,8.79h-3.14l-2.55-8h-1.79Zm1.1-10.7c1.27,0,1.85-.15,2.32-.61a4.15,4.15,0,0,0,0-4.67c-.47-.46-1.05-.61-2.32-.61h-1.1v5.89Z" fill="#fff"/><path d="M313,72.43h-3V53.09h3Z" fill="#fff"/><path d="M326.55,66.28a7.3,7.3,0,0,1-1.11,4.58,5.6,5.6,0,0,1-8.34,0A7.3,7.3,0,0,1,316,66.28v-7a7.3,7.3,0,0,1,1.11-4.58,5.6,5.6,0,0,1,8.34,0,7.3,7.3,0,0,1,1.11,4.58ZM319,66.22a5.32,5.32,0,0,0,.38,2.64,2.26,2.26,0,0,0,3.82,0,5,5,0,0,0,.38-2.64V59.29a4.94,4.94,0,0,0-.38-2.63,2.26,2.26,0,0,0-3.82,0,5.3,5.3,0,0,0-.38,2.63Z" fill="#fff"/><path d="M332.58,72.43h-3V53.09h4.67a5.33,5.33,0,0,1,3.82,1.16,5.45,5.45,0,0,1,1.74,4.38c0,2.43-.87,4.11-2.6,5l2.84,8.79h-3.13l-2.56-8h-1.79Zm1.1-10.7c1.27,0,1.85-.15,2.32-.61a4.15,4.15,0,0,0,0-4.67c-.47-.46-1.05-.61-2.32-.61h-1.1v5.89Z" fill="#fff"/><path d="M350.32,72.43h-3V53.09h5c1.94,0,3.16.38,4.06,1.25a5.82,5.82,0,0,1,1.54,4.49,5.85,5.85,0,0,1-1.54,4.52c-.9.87-2.12,1.25-4.06,1.25h-2Zm1.3-10.58c2.41,0,3.16-.73,3.16-3s-.75-3-3.16-3h-1.3v6Z" fill="#fff"/><path d="M363.45,72.43h-3V53.09h4.66A5.38,5.38,0,0,1,369,54.25a5.45,5.45,0,0,1,1.74,4.38c0,2.43-.87,4.11-2.61,5l2.84,8.79H367.8l-2.55-8h-1.8Zm1.1-10.7c1.28,0,1.86-.15,2.33-.61a4.15,4.15,0,0,0,0-4.67c-.47-.46-1.05-.61-2.33-.61h-1.1v5.89Z" fill="#fff"/><path d="M384,66.28a7.37,7.37,0,0,1-1.1,4.58,5.62,5.62,0,0,1-8.35,0,7.37,7.37,0,0,1-1.1-4.58v-7a7.37,7.37,0,0,1,1.1-4.58,5.62,5.62,0,0,1,8.35,0,7.37,7.37,0,0,1,1.1,4.58Zm-7.57-.06a5.32,5.32,0,0,0,.38,2.64,2.27,2.27,0,0,0,3.83,0,5,5,0,0,0,.37-2.64V59.29a5,5,0,0,0-.37-2.63,2.27,2.27,0,0,0-3.83,0,5.3,5.3,0,0,0-.38,2.63Z" fill="#fff"/><path d="M391.78,53.09V67.7c0,2-.2,2.87-.84,3.66a3.56,3.56,0,0,1-3,1.07h-1.79V69.62h.69c1.45,0,2-.56,2-2.15V53.09Z" fill="#fff"/><path d="M403.78,55.84H398V61h4.26V63.7H398v6h5.77v2.76H395V53.09h8.75Z" fill="#fff"/><path d="M413.55,59.38V59c0-2.24-.78-3.37-2.26-3.37a1.9,1.9,0,0,0-1.77,1,4.89,4.89,0,0,0-.46,2.78v6.44a8.08,8.08,0,0,0,.32,2.87,2,2,0,0,0,1.91,1.25A2.13,2.13,0,0,0,413.43,68a10.57,10.57,0,0,0,.18-2.35h3v.67c0,4.2-1.82,6.41-5.3,6.41A4.79,4.79,0,0,1,407,70.57c-.73-1.19-.93-2.32-.93-5.19V60c0-3.07.23-4.14,1.13-5.36a4.85,4.85,0,0,1,4.09-1.8c3.3,0,5.25,2.2,5.25,6v.58Z" fill="#fff"/><path d="M425.26,72.43h-3V55.84h-3.74V53.09H429v2.75h-3.77Z" fill="#fff"/><path d="M438.71,58.48c-.46-1.91-1.33-2.87-2.55-2.87a1.91,1.91,0,0,0-1.94,2,2.92,2.92,0,0,0,.81,2,14.43,14.43,0,0,0,2.55,2.11,15.91,15.91,0,0,1,2.87,2.61,5.61,5.61,0,0,1,1.25,3.54c0,2.93-2.14,4.93-5.3,4.93s-5.25-1.77-5.86-5.45l2.87-.84c.38,2.32,1.39,3.48,3,3.48a2.1,2.1,0,0,0,2.2-2.21c0-1.22-.61-2-2.87-3.77-2.7-2.11-2.81-2.23-3.54-3.16a5.28,5.28,0,0,1-1.07-3.22,4.71,4.71,0,0,1,5-4.75c2.76,0,4.61,1.65,5.42,4.84Z" fill="#fff"/><path d="M446.83,72.43H444v-3.1h2.81Z" fill="#fff"/><rect width="728" height="90" fill="none"/></g></g></svg>