<svg xmlns="http://www.w3.org/2000/svg" viewBox="0 0 728 90"><title>txt6</title><g id="Layer_2" data-name="Layer 2"><g id="Rect"><rect width="728" height="90" fill="none"/></g><g id="SUPERIOR_STAIN_FOR_ALL_PROJECTS." data-name="SUPERIOR STAIN FOR ALL PROJECTS."><path d="M260.79,42c-.46-1.91-1.33-2.87-2.55-2.87a1.91,1.91,0,0,0-1.94,2,2.9,2.9,0,0,0,.81,1.94,13.81,13.81,0,0,0,2.55,2.12,16.28,16.28,0,0,1,2.87,2.61,5.61,5.61,0,0,1,1.25,3.54c0,2.92-2.15,4.93-5.31,4.93s-5.24-1.77-5.85-5.45l2.87-.85c.37,2.32,1.39,3.48,3,3.48a2.1,2.1,0,0,0,2.21-2.2c0-1.22-.61-2-2.87-3.77-2.7-2.12-2.82-2.23-3.54-3.16a5.22,5.22,0,0,1-1.07-3.22,4.7,4.7,0,0,1,5-4.75c2.76,0,4.61,1.65,5.42,4.84Z" fill="#fff"/><path d="M276.39,36.65v13.1c0,2.44-.29,3.68-1.1,4.79a5.5,5.5,0,0,1-8,0c-.81-1.11-1.1-2.35-1.1-4.79V36.65h3v13.6c0,2.29.61,3.21,2.15,3.21s2.11-.92,2.11-3.21V36.65Z" fill="#fff"/><path d="M282.6,56h-3V36.65h5c1.94,0,3.16.37,4.06,1.24a5.86,5.86,0,0,1,1.53,4.5,5.86,5.86,0,0,1-1.53,4.52c-.9.87-2.12,1.25-4.06,1.25h-2Zm1.3-10.59c2.41,0,3.16-.72,3.16-3s-.75-3-3.16-3h-1.3v6Z" fill="#fff"/><path d="M301.5,39.4h-5.77v5.1H300v2.76h-4.26v6h5.77V56h-8.76V36.65h8.76Z" fill="#fff"/><path d="M306.83,56h-3V36.65h4.66a5.38,5.38,0,0,1,3.83,1.16,5.44,5.44,0,0,1,1.74,4.38c0,2.43-.87,4.11-2.61,5L314.31,56h-3.13l-2.55-8h-1.8Zm1.1-10.7c1.28,0,1.86-.15,2.32-.61a3.19,3.19,0,0,0,.73-2.35,3.15,3.15,0,0,0-.73-2.32c-.46-.46-1-.61-2.32-.61h-1.1v5.89Z" fill="#fff"/><path d="M320,56h-3V36.65h3Z" fill="#fff"/><path d="M333.56,49.84a7.39,7.39,0,0,1-1.1,4.58,5.62,5.62,0,0,1-8.35,0,7.39,7.39,0,0,1-1.1-4.58V42.79a7.39,7.39,0,0,1,1.1-4.58,5.64,5.64,0,0,1,8.35,0,7.39,7.39,0,0,1,1.1,4.58ZM326,49.78a5.35,5.35,0,0,0,.37,2.64,2.28,2.28,0,0,0,3.83,0,5,5,0,0,0,.38-2.64V42.85a5,5,0,0,0-.38-2.64,2.28,2.28,0,0,0-3.83,0,5.38,5.38,0,0,0-.37,2.64Z" fill="#fff"/><path d="M339.59,56h-3V36.65h4.66a5.38,5.38,0,0,1,3.83,1.16,5.44,5.44,0,0,1,1.74,4.38c0,2.43-.87,4.11-2.61,5L347.07,56h-3.13l-2.55-8h-1.8Zm1.1-10.7c1.28,0,1.86-.15,2.32-.61a3.19,3.19,0,0,0,.73-2.35A3.15,3.15,0,0,0,343,40c-.46-.46-1-.61-2.32-.61h-1.1v5.89Z" fill="#fff"/><path d="M361.63,42c-.47-1.91-1.34-2.87-2.55-2.87a1.91,1.91,0,0,0-1.95,2,2.86,2.86,0,0,0,.82,1.94,13.81,13.81,0,0,0,2.55,2.12,16.66,16.66,0,0,1,2.87,2.61,5.66,5.66,0,0,1,1.24,3.54c0,2.92-2.14,4.93-5.3,4.93s-5.25-1.77-5.86-5.45l2.87-.85c.38,2.32,1.39,3.48,3,3.48a2.1,2.1,0,0,0,2.2-2.2c0-1.22-.61-2-2.87-3.77-2.7-2.12-2.81-2.23-3.54-3.16A5.28,5.28,0,0,1,354,41.11a4.71,4.71,0,0,1,5.05-4.75c2.75,0,4.61,1.65,5.42,4.84Z" fill="#fff"/><path d="M373,56h-3V39.4h-3.74V36.65h10.49V39.4H373Z" fill="#fff"/><path d="M380.91,51.78,380.12,56H377.2l3.71-19.34H385L388.91,56h-3.08L385,51.78Zm2-11.42L381.37,49h3.16Z" fill="#fff"/><path d="M394.24,56h-3V36.65h3Z" fill="#fff"/><path d="M408.22,56h-2.67l-5.22-12.88V56h-2.84V36.65h3l4.87,12v-12h2.84Z" fill="#fff"/><path d="M419.15,56h-3V36.65H425V39.4h-5.85v5.22h4.35v2.76h-4.35Z" fill="#fff"/><path d="M437.7,49.84a7.39,7.39,0,0,1-1.1,4.58,5.62,5.62,0,0,1-8.35,0,7.39,7.39,0,0,1-1.1-4.58V42.79a7.39,7.39,0,0,1,1.1-4.58,5.64,5.64,0,0,1,8.35,0,7.39,7.39,0,0,1,1.1,4.58Zm-7.57-.06a5.32,5.32,0,0,0,.38,2.64,2.28,2.28,0,0,0,3.83,0,5,5,0,0,0,.38-2.64V42.85a5,5,0,0,0-.38-2.64,2.28,2.28,0,0,0-3.83,0,5.35,5.35,0,0,0-.38,2.64Z" fill="#fff"/><path d="M443.73,56h-3V36.65h4.66a5.38,5.38,0,0,1,3.83,1.16A5.44,5.44,0,0,1,451,42.19c0,2.43-.87,4.11-2.61,5L451.21,56h-3.13l-2.55-8h-1.8Zm1.1-10.7c1.28,0,1.86-.15,2.32-.61a3.19,3.19,0,0,0,.73-2.35,3.15,3.15,0,0,0-.73-2.32c-.46-.46-1-.61-2.32-.61h-1.1v5.89Z" fill="#fff"/><path d="M461.5,51.78,460.72,56h-2.93l3.71-19.34h4.09L469.5,56h-3.07l-.81-4.21Zm2-11.42L462,49h3.16Z" fill="#fff"/><path d="M474.84,53.23h5.94V56h-8.93V36.65h3Z" fill="#fff"/><path d="M485.92,53.23h5.94V56h-8.93V36.65h3Z" fill="#fff"/><path d="M501.72,56h-3V36.65h5c1.94,0,3.16.37,4.06,1.24a5.86,5.86,0,0,1,1.53,4.5,5.86,5.86,0,0,1-1.53,4.52c-.9.87-2.12,1.25-4.06,1.25h-2ZM503,45.4c2.41,0,3.16-.72,3.16-3s-.75-3-3.16-3h-1.3v6Z" fill="#fff"/><path d="M514.85,56h-3V36.65h4.67a5.38,5.38,0,0,1,3.83,1.16,5.44,5.44,0,0,1,1.74,4.38c0,2.43-.87,4.11-2.61,5L522.33,56H519.2l-2.55-8h-1.8Zm1.1-10.7c1.28,0,1.86-.15,2.32-.61a3.23,3.23,0,0,0,.73-2.35,3.2,3.2,0,0,0-.73-2.32c-.46-.46-1-.61-2.32-.61h-1.1v5.89Z" fill="#fff"/><path d="M535.35,49.84a7.32,7.32,0,0,1-1.11,4.58,5.62,5.62,0,0,1-8.35,0,7.39,7.39,0,0,1-1.1-4.58V42.79a7.39,7.39,0,0,1,1.1-4.58,5.64,5.64,0,0,1,8.35,0,7.32,7.32,0,0,1,1.11,4.58Zm-7.57-.06a5.32,5.32,0,0,0,.38,2.64,2.27,2.27,0,0,0,3.82,0,5,5,0,0,0,.38-2.64V42.85a5,5,0,0,0-.38-2.64,2.27,2.27,0,0,0-3.82,0,5.35,5.35,0,0,0-.38,2.64Z" fill="#fff"/><path d="M543.17,36.65V51.26c0,2-.2,2.87-.84,3.65a3.51,3.51,0,0,1-3,1.08h-1.8V53.17h.7c1.45,0,2-.55,2-2.14V36.65Z" fill="#fff"/><path d="M555.18,39.4h-5.77v5.1h4.26v2.76h-4.26v6h5.77V56h-8.76V36.65h8.76Z" fill="#fff"/><path d="M565,42.94v-.41c0-2.23-.79-3.36-2.27-3.36a1.88,1.88,0,0,0-1.76,1,4.83,4.83,0,0,0-.47,2.78v6.44a8.33,8.33,0,0,0,.32,2.87,2,2,0,0,0,1.91,1.24,2.13,2.13,0,0,0,2.15-1.91A10.82,10.82,0,0,0,565,49.2h3v.67c0,4.2-1.83,6.41-5.31,6.41a4.79,4.79,0,0,1-4.32-2.15c-.72-1.19-.92-2.32-.92-5.19V43.52c0-3.07.23-4.15,1.13-5.36a4.84,4.84,0,0,1,4.08-1.8c3.31,0,5.25,2.2,5.25,6v.58Z" fill="#fff"/><path d="M576.66,56h-3V39.4h-3.74V36.65h10.5V39.4h-3.77Z" fill="#fff"/><path d="M590.11,42c-.46-1.91-1.33-2.87-2.55-2.87a1.91,1.91,0,0,0-1.94,2,2.9,2.9,0,0,0,.81,1.94A13.81,13.81,0,0,0,589,45.2a16.66,16.66,0,0,1,2.87,2.61,5.67,5.67,0,0,1,1.25,3.54c0,2.92-2.15,4.93-5.31,4.93s-5.25-1.77-5.85-5.45l2.87-.85c.37,2.32,1.39,3.48,3,3.48a2.1,2.1,0,0,0,2.21-2.2c0-1.22-.61-2-2.88-3.77-2.69-2.12-2.81-2.23-3.53-3.16a5.22,5.22,0,0,1-1.07-3.22,4.7,4.7,0,0,1,5-4.75c2.75,0,4.61,1.65,5.42,4.84Z" fill="#fff"/><path d="M598.23,56h-2.81V52.88h2.81Z" fill="#fff"/></g></g></svg>