<?xml version="1.0" encoding="utf-8"?>
<!-- Generator: Adobe Illustrator 23.1.1, SVG Export Plug-In . SVG Version: 6.00 Build 0)  -->
<svg version="1.1" id="Layer_1" xmlns="http://www.w3.org/2000/svg" xmlns:xlink="http://www.w3.org/1999/xlink" x="0px" y="0px"
	 viewBox="0 0 300 600" style="enable-background:new 0 0 300 600;" xml:space="preserve">
<style type="text/css">
	.st0{fill:none;}
	.st1{fill:#FFFFFF;}
</style>
<title>txt1</title>
<g>
	<g id="Rect">
		<rect class="st0" width="300" height="600"/>
	</g>
</g>
<g>
	<path class="st1" d="M116,424.6h-4.1v-22.9h-5.2v-3.8h14.5v3.8H116V424.6z"/>
	<path class="st1" d="M138.6,416.1c0,3-0.4,4.8-1.5,6.3c-1.2,1.7-3.2,2.6-5.8,2.6s-4.6-0.9-5.8-2.6c-1.1-1.5-1.5-3.3-1.5-6.3v-9.7
		c0-3,0.4-4.8,1.5-6.3c1.2-1.7,3.2-2.6,5.8-2.6s4.6,0.9,5.8,2.6c1.1,1.5,1.5,3.3,1.5,6.3V416.1z M128.2,416c0,2.1,0.1,2.8,0.5,3.6
		c0.5,0.9,1.5,1.4,2.6,1.4s2.2-0.6,2.6-1.4c0.4-0.8,0.5-1.5,0.5-3.6v-9.6c0-2.2-0.1-2.8-0.5-3.6c-0.5-0.9-1.5-1.4-2.6-1.4
		s-2.2,0.6-2.6,1.4c-0.4,0.8-0.5,1.5-0.5,3.6V416z"/>
	<path class="st1" d="M142.8,397.9h6.5c5.2,0,7.7,2.7,7.7,8.4v10c0,5.7-2.5,8.4-7.7,8.4h-6.5V397.9z M149,420.8c2.9,0,4-1.5,4-5.7
		v-7.7c0-4.2-1-5.7-4-5.7h-2v19.1H149z"/>
	<path class="st1" d="M165.1,418.8l-1.1,5.8h-4l5.1-26.7h5.6l5.4,26.7h-4.2l-1.1-5.8H165.1z M167.9,403l-2.2,12h4.4L167.9,403z"/>
	<path class="st1" d="M186.4,424.6h-4.1v-10.4l-6-16.3h4.6l3.6,11.3l3.7-11.3h4.5l-6.2,16.3V424.6z"/>
	<path class="st1" d="M68.6,455.8h8.2v3.8H64.5v-26.7h4.1V455.8z"/>
	<path class="st1" d="M91.8,436.7h-8v7h5.9v3.8h-5.9v8.2h8v3.8H79.7v-26.7h12.1V436.7z"/>
	<path class="st1" d="M103.8,459.6h-4.1v-22.9h-5.2v-3.8H109v3.8h-5.2V459.6z"/>
	<path class="st1" d="M115.9,437.2l-2.4,5.5H112l1.8-5.5H112v-4.3h3.9V437.2z"/>
	<path class="st1" d="M130,440.3c-0.6-2.6-1.8-4-3.5-4c-1.5,0-2.7,1.2-2.7,2.7c0,0.9,0.4,1.9,1.1,2.7c0.7,0.8,0.7,0.8,3.5,2.9
		c2.2,1.8,3.1,2.5,4,3.6c1.1,1.3,1.7,3.1,1.7,4.9c0,4-3,6.8-7.3,6.8c-4.6,0-7.2-2.4-8.1-7.5l4-1.2c0.5,3.2,1.9,4.8,4.1,4.8
		c1.8,0,3-1.2,3-3c0-1.7-0.8-2.8-4-5.2c-3.7-2.9-3.9-3.1-4.9-4.4c-1-1.2-1.5-2.8-1.5-4.4c0-3.8,2.9-6.6,7-6.6c3.8,0,6.4,2.3,7.5,6.7
		L130,440.3z"/>
	<path class="st1" d="M153.9,440.3c-0.6-2.6-1.8-4-3.5-4c-1.5,0-2.7,1.2-2.7,2.7c0,0.9,0.4,1.9,1.1,2.7c0.7,0.8,0.7,0.8,3.5,2.9
		c2.2,1.8,3.1,2.5,4,3.6c1.1,1.3,1.7,3.1,1.7,4.9c0,4-3,6.8-7.3,6.8c-4.6,0-7.2-2.4-8.1-7.5l4-1.2c0.5,3.2,1.9,4.8,4.1,4.8
		c1.8,0,3-1.2,3-3c0-1.7-0.8-2.8-4-5.2c-3.7-2.9-3.9-3.1-4.9-4.4c-1-1.2-1.5-2.8-1.5-4.4c0-3.8,2.9-6.6,7-6.6c3.8,0,6.4,2.3,7.5,6.7
		L153.9,440.3z"/>
	<path class="st1" d="M169.6,459.6h-4.1v-22.9h-5.2v-3.8h14.5v3.8h-5.2V459.6z"/>
	<path class="st1" d="M180.5,453.8l-1.1,5.8h-4l5.1-26.7h5.6l5.4,26.7h-4.2l-1.1-5.8H180.5z M183.3,438l-2.2,12h4.4L183.3,438z"/>
	<path class="st1" d="M198.9,459.6h-4.1v-26.7h4.1V459.6z"/>
	<path class="st1" d="M218.2,459.6h-3.7l-7.2-17.8v17.8h-3.9v-26.7h4.2l6.7,16.6v-16.6h3.9V459.6z"/>
	<path class="st1" d="M227.6,441.6H226v-7.5h-1.7v-1.4h5.1v1.4h-1.7V441.6z M236.5,441.6H235v-5.9l-1.4,5.9h-1l-1.4-5.9v5.9h-1.5
		v-8.9h2.2l1.2,5.1l1.2-5.1h2.2V441.6z"/>
</g>
</svg>
