<svg xmlns="http://www.w3.org/2000/svg" viewBox="0 0 300 600"><title>txt1</title><g id="Layer_2" data-name="Layer 2"><g id="Rect"><rect width="300" height="600" fill="none"/></g><g id="Today_Let_s_stain" data-name="TodayLet’s stain"><path d="M116,425h-4.12V402.11h-5.16v-3.8h14.47v3.8H116Z" fill="#fff"/><path d="M138.59,416.51c0,3-.44,4.8-1.52,6.32a7.75,7.75,0,0,1-11.51,0c-1.08-1.52-1.52-3.32-1.52-6.32v-9.72c0-3,.44-4.8,1.52-6.32a7.75,7.75,0,0,1,11.51,0c1.08,1.52,1.52,3.32,1.52,6.32Zm-10.43-.08c0,2.12.12,2.84.52,3.64a3.14,3.14,0,0,0,5.28,0c.44-.84.51-1.48.51-3.64v-9.56c0-2.16-.07-2.8-.51-3.64a3.14,3.14,0,0,0-5.28,0c-.4.8-.52,1.52-.52,3.64Z" fill="#fff"/><path d="M142.8,398.31h6.52c5.23,0,7.71,2.68,7.71,8.36v10c0,5.68-2.48,8.36-7.71,8.36H142.8ZM149,421.19c2.92,0,4-1.52,4-5.68v-7.72c0-4.2-1-5.68-4-5.68h-2v19.08Z" fill="#fff"/><path d="M165.08,419.19,164,425h-4l5.12-26.68h5.63l5.4,26.68h-4.23l-1.13-5.8Zm2.8-15.76-2.16,12h4.36Z" fill="#fff"/><path d="M186.43,425h-4.11v-10.4l-6-16.28h4.56l3.56,11.28,3.67-11.28h4.48l-6.16,16.28Z" fill="#fff"/><path d="M77.1,456.19h8.2V460H73V433.31H77.1Z" fill="#fff"/><path d="M100.34,437.11h-8v7h5.88V448H92.38v8.24h8V460H88.26V433.31h12.08Z" fill="#fff"/><path d="M112.3,460h-4.12V437.11H103v-3.8H117.5v3.8h-5.2Z" fill="#fff"/><path d="M124.42,437.59l-2.36,5.52h-1.52l1.76-5.52h-1.76v-4.28h3.88Z" fill="#fff"/><path d="M138.5,440.75c-.65-2.64-1.84-4-3.52-4a2.64,2.64,0,0,0-2.68,2.72,4,4,0,0,0,1.12,2.68c.68.76.68.76,3.52,2.92a22.51,22.51,0,0,1,3.95,3.6,7.79,7.79,0,0,1,1.72,4.88c0,4-3,6.8-7.31,6.8-4.56,0-7.24-2.44-8.08-7.52l4-1.16c.52,3.2,1.92,4.8,4.12,4.8a2.89,2.89,0,0,0,3-3c0-1.68-.83-2.76-4-5.2-3.72-2.92-3.88-3.08-4.88-4.36a7.23,7.23,0,0,1-1.48-4.44c0-3.84,2.88-6.56,7-6.56,3.79,0,6.35,2.28,7.47,6.68Z" fill="#fff"/><path d="M162.46,440.75c-.64-2.64-1.84-4-3.52-4a2.64,2.64,0,0,0-2.68,2.72,4,4,0,0,0,1.12,2.68c.68.76.68.76,3.52,2.92a22.51,22.51,0,0,1,3.95,3.6,7.79,7.79,0,0,1,1.72,4.88c0,4-3,6.8-7.31,6.8-4.56,0-7.24-2.44-8.08-7.52l4-1.16c.52,3.2,1.92,4.8,4.12,4.8a2.9,2.9,0,0,0,3-3c0-1.68-.83-2.76-3.95-5.2-3.72-2.92-3.88-3.08-4.88-4.36a7.23,7.23,0,0,1-1.48-4.44c0-3.84,2.88-6.56,7-6.56,3.8,0,6.35,2.28,7.47,6.68Z" fill="#fff"/><path d="M178.09,460H174V437.11h-5.16v-3.8h14.47v3.8h-5.2Z" fill="#fff"/><path d="M189.06,454.19,188,460h-4l5.12-26.68h5.63l5.4,26.68h-4.24l-1.12-5.8Zm2.79-15.76-2.15,12h4.35Z" fill="#fff"/><path d="M207.46,460h-4.12V433.31h4.12Z" fill="#fff"/><path d="M226.73,460h-3.68l-7.2-17.76V460h-3.91V433.31h4.15l6.72,16.6v-16.6h3.92Z" fill="#fff"/></g></g></svg>