<svg xmlns="http://www.w3.org/2000/svg" viewBox="0 0 300 600"><title>txt3</title><g id="Layer_2" data-name="Layer 2"><g id="Rect"><rect width="300" height="600" fill="none"/></g><g id="your_chair." data-name="your chair."><path d="M76.48,495H72.36v-10.4l-6-16.28h4.56l3.56,11.28,3.68-11.28h4.48l-6.16,16.28Z" fill="#fff"/><path d="M99.56,486.51c0,3-.44,4.8-1.52,6.32a6.71,6.71,0,0,1-5.76,2.56,6.71,6.71,0,0,1-5.76-2.56c-1.08-1.52-1.52-3.32-1.52-6.32v-9.72c0-3,.44-4.8,1.52-6.32a6.71,6.71,0,0,1,5.76-2.56A6.71,6.71,0,0,1,98,470.47c1.08,1.52,1.52,3.32,1.52,6.32Zm-10.44-.08c0,2.12.12,2.84.52,3.64a3.14,3.14,0,0,0,5.28,0c.44-.84.52-1.48.52-3.64v-9.56c0-2.16-.08-2.8-.52-3.64a3.14,3.14,0,0,0-5.28,0c-.4.8-.52,1.52-.52,3.64Z" fill="#fff"/><path d="M117.88,468.31v18.08c0,3.36-.4,5.08-1.52,6.6a7.59,7.59,0,0,1-11.08,0c-1.12-1.52-1.52-3.24-1.52-6.6V468.31h4.12v18.76c0,3.16.84,4.44,3,4.44s2.92-1.28,2.92-4.44V468.31Z" fill="#fff"/><path d="M126.44,495h-4.12V468.31h6.44c2.44,0,4,.48,5.28,1.6a7.52,7.52,0,0,1,2.4,6c0,3.36-1.2,5.68-3.6,6.92L136.76,495h-4.32l-3.52-11h-2.48ZM128,480.23c1.76,0,2.56-.2,3.2-.84a5.68,5.68,0,0,0,0-6.44c-.64-.64-1.44-.84-3.2-.84h-1.52v8.12Z" fill="#fff"/><path d="M156.84,477v-.56c0-3.08-1.08-4.64-3.12-4.64a2.61,2.61,0,0,0-2.44,1.32c-.52.88-.64,1.68-.64,3.84v8.88a11.43,11.43,0,0,0,.44,4,2.77,2.77,0,0,0,2.64,1.72c1.52,0,2.52-.88,3-2.64a15.06,15.06,0,0,0,.24-3.24h4.16v.92c0,5.8-2.52,8.84-7.32,8.84a6.59,6.59,0,0,1-6-3c-1-1.64-1.28-3.2-1.28-7.16v-7.48c0-4.24.32-5.72,1.56-7.4a6.69,6.69,0,0,1,5.64-2.48c4.56,0,7.24,3,7.24,8.28v.8Z" fill="#fff"/><path d="M169.08,483.23V495H165V468.31h4.12v11.12H175V468.31h4.12V495H175V483.23Z" fill="#fff"/><path d="M187.88,489.19,186.8,495h-4l5.12-26.68h5.63l5.4,26.68h-4.24l-1.12-5.8Zm2.79-15.76-2.15,12h4.36Z" fill="#fff"/><path d="M206.28,495h-4.12V468.31h4.12Z" fill="#fff"/><path d="M214.88,495h-4.12V468.31h6.43c2.44,0,4,.48,5.28,1.6a7.52,7.52,0,0,1,2.4,6c0,3.36-1.2,5.68-3.6,6.92L225.19,495h-4.32l-3.52-11h-2.47Zm1.51-14.76c1.76,0,2.56-.2,3.2-.84a5.68,5.68,0,0,0,0-6.44c-.64-.64-1.44-.84-3.2-.84h-1.51v8.12Z" fill="#fff"/><path d="M232.47,495h-3.88v-4.28h3.88Z" fill="#fff"/></g></g></svg>