<svg xmlns="http://www.w3.org/2000/svg" viewBox="0 0 300 600"><title>txt6</title><g id="Layer_2" data-name="Layer 2"><g id="Rect"><rect width="300" height="600" fill="none"/></g><g id="Superior_stain_for_all_projects." data-name="Superior stain for all projects."><path d="M95.82,405.75c-.64-2.64-1.84-4-3.52-4a2.64,2.64,0,0,0-2.68,2.72,4,4,0,0,0,1.12,2.68c.68.76.68.76,3.52,2.92a22.3,22.3,0,0,1,4,3.6,7.79,7.79,0,0,1,1.72,4.88c0,4-3,6.8-7.32,6.8-4.56,0-7.24-2.44-8.08-7.52l4-1.16c.52,3.2,1.92,4.8,4.12,4.8a2.9,2.9,0,0,0,3-3c0-1.68-.84-2.76-4-5.2-3.72-2.92-3.88-3.08-4.88-4.36a7.23,7.23,0,0,1-1.48-4.44c0-3.84,2.88-6.56,7-6.56,3.8,0,6.36,2.28,7.48,6.68Z" fill="#fff"/><path d="M117.34,398.31v18.08c0,3.36-.4,5.08-1.52,6.6a7.59,7.59,0,0,1-11.08,0c-1.12-1.52-1.52-3.24-1.52-6.6V398.31h4.12v18.76c0,3.16.84,4.44,3,4.44s2.92-1.28,2.92-4.44V398.31Z" fill="#fff"/><path d="M125.9,425h-4.12V398.31h6.84c2.68,0,4.36.52,5.6,1.72,1.44,1.36,2.11,3.36,2.11,6.2s-.67,4.88-2.11,6.24c-1.24,1.2-2.92,1.72-5.6,1.72H125.9Zm1.8-14.6c3.32,0,4.36-1,4.36-4.16s-1-4.12-4.36-4.12h-1.8v8.28Z" fill="#fff"/><path d="M152,402.11H144v7h5.88V413H144v8.24H152V425H139.9V398.31H152Z" fill="#fff"/><path d="M159.34,425h-4.12V398.31h6.44c2.43,0,4,.48,5.27,1.6a7.52,7.52,0,0,1,2.4,6c0,3.36-1.2,5.68-3.6,6.92L169.65,425h-4.32l-3.51-11h-2.48Zm1.52-14.76c1.76,0,2.56-.2,3.19-.84a5.68,5.68,0,0,0,0-6.44c-.63-.64-1.43-.84-3.19-.84h-1.52v8.12Z" fill="#fff"/><path d="M177.46,425h-4.12V398.31h4.12Z" fill="#fff"/><path d="M196.21,416.51c0,3-.44,4.8-1.52,6.32a7.75,7.75,0,0,1-11.51,0c-1.08-1.52-1.52-3.32-1.52-6.32v-9.72c0-3,.44-4.8,1.52-6.32a7.75,7.75,0,0,1,11.51,0c1.08,1.52,1.52,3.32,1.52,6.32Zm-10.43-.08c0,2.12.12,2.84.51,3.64a3.14,3.14,0,0,0,5.28,0c.44-.84.52-1.48.52-3.64v-9.56c0-2.16-.08-2.8-.52-3.64a3.14,3.14,0,0,0-5.28,0c-.39.8-.51,1.52-.51,3.64Z" fill="#fff"/><path d="M204.54,425h-4.12V398.31h6.43c2.44,0,4,.48,5.28,1.6a7.52,7.52,0,0,1,2.4,6c0,3.36-1.2,5.68-3.6,6.92L214.85,425h-4.32L207,414h-2.47Zm1.51-14.76c1.76,0,2.56-.2,3.2-.84a5.68,5.68,0,0,0,0-6.44c-.64-.64-1.44-.84-3.2-.84h-1.51v8.12Z" fill="#fff"/><path d="M65.78,440.75c-.64-2.64-1.84-4-3.52-4a2.64,2.64,0,0,0-2.68,2.72,4,4,0,0,0,1.12,2.68c.68.76.68.76,3.52,2.92a22.3,22.3,0,0,1,4,3.6,7.79,7.79,0,0,1,1.72,4.88c0,4-3,6.8-7.32,6.8-4.56,0-7.24-2.44-8.08-7.52l4-1.16c.52,3.2,1.92,4.8,4.12,4.8a2.9,2.9,0,0,0,3-3c0-1.68-.84-2.76-4-5.2-3.72-2.92-3.88-3.08-4.88-4.36a7.23,7.23,0,0,1-1.48-4.44c0-3.84,2.88-6.56,7-6.56,3.8,0,6.36,2.28,7.48,6.68Z" fill="#fff"/><path d="M81.42,460H77.3V437.11H72.14v-3.8H86.62v3.8h-5.2Z" fill="#fff"/><path d="M92.38,454.19,91.3,460h-4l5.12-26.68H98l5.4,26.68H99.18l-1.12-5.8Zm2.8-15.76-2.16,12h4.36Z" fill="#fff"/><path d="M110.78,460h-4.12V433.31h4.12Z" fill="#fff"/><path d="M130.06,460h-3.68l-7.2-17.76V460h-3.92V433.31h4.16l6.72,16.6v-16.6h3.92Z" fill="#fff"/><path d="M145.14,460H141V433.31h12.19v3.8h-8.07v7.2h6v3.8h-6Z" fill="#fff"/><path d="M170.73,451.51c0,3-.44,4.8-1.52,6.32a7.75,7.75,0,0,1-11.51,0c-1.08-1.52-1.52-3.32-1.52-6.32v-9.72c0-3,.44-4.8,1.52-6.32a7.75,7.75,0,0,1,11.51,0c1.08,1.52,1.52,3.32,1.52,6.32Zm-10.43-.08c0,2.12.12,2.84.52,3.64a3.13,3.13,0,0,0,5.27,0c.45-.84.53-1.48.53-3.64v-9.56c0-2.16-.08-2.8-.53-3.64a3.13,3.13,0,0,0-5.27,0c-.4.8-.52,1.52-.52,3.64Z" fill="#fff"/><path d="M179.06,460h-4.12V433.31h6.44c2.43,0,4,.48,5.27,1.6a7.52,7.52,0,0,1,2.4,6c0,3.36-1.2,5.68-3.6,6.92L189.37,460h-4.32l-3.51-11h-2.48Zm1.52-14.76c1.75,0,2.55-.2,3.19-.84a5.68,5.68,0,0,0,0-6.44c-.64-.64-1.44-.84-3.19-.84h-1.52v8.12Z" fill="#fff"/><path d="M203.58,454.19,202.5,460h-4l5.12-26.68h5.63l5.4,26.68h-4.24l-1.12-5.8Zm2.79-15.76-2.16,12h4.36Z" fill="#fff"/><path d="M222,456.19h8.2V460H217.86V433.31H222Z" fill="#fff"/><path d="M237.25,456.19h8.2V460H233.14V433.31h4.11Z" fill="#fff"/><path d="M85.58,495H81.46V468.31H88.3c2.68,0,4.36.52,5.6,1.72,1.44,1.36,2.12,3.36,2.12,6.2s-.68,4.88-2.12,6.24c-1.24,1.2-2.92,1.72-5.6,1.72H85.58Zm1.8-14.6c3.32,0,4.36-1,4.36-4.16s-1-4.12-4.36-4.12h-1.8v8.28Z" fill="#fff"/><path d="M103.7,495H99.58V468.31H106c2.44,0,4,.48,5.28,1.6a7.52,7.52,0,0,1,2.4,6c0,3.36-1.2,5.68-3.6,6.92L114,495H109.7l-3.52-11H103.7Zm1.52-14.76c1.76,0,2.56-.2,3.2-.84a5.68,5.68,0,0,0,0-6.44c-.64-.64-1.44-.84-3.2-.84H103.7v8.12Z" fill="#fff"/><path d="M132,486.51c0,3-.44,4.8-1.52,6.32a7.76,7.76,0,0,1-11.52,0c-1.08-1.52-1.52-3.32-1.52-6.32v-9.72c0-3,.44-4.8,1.52-6.32a7.76,7.76,0,0,1,11.52,0c1.08,1.52,1.52,3.32,1.52,6.32Zm-10.44-.08c0,2.12.12,2.84.52,3.64a3.14,3.14,0,0,0,5.28,0c.44-.84.52-1.48.52-3.64v-9.56c0-2.16-.08-2.8-.52-3.64a3.14,3.14,0,0,0-5.28,0c-.4.8-.52,1.52-.52,3.64Z" fill="#fff"/><path d="M142.78,468.31v20.16c0,2.8-.28,4-1.16,5S139.5,495,137.46,495H135v-3.88h1c2,0,2.72-.76,2.72-3V468.31Z" fill="#fff"/><path d="M159.34,472.11h-8v7h5.88V483h-5.88v8.24h8V495H147.26V468.31h12.08Z" fill="#fff"/><path d="M172.82,477v-.56c0-3.08-1.08-4.64-3.12-4.64a2.61,2.61,0,0,0-2.44,1.32c-.52.88-.64,1.68-.64,3.84v8.88a11.43,11.43,0,0,0,.44,4,2.77,2.77,0,0,0,2.64,1.72c1.52,0,2.52-.88,3-2.64a15.06,15.06,0,0,0,.24-3.24h4.15v.92c0,5.8-2.51,8.84-7.31,8.84a6.59,6.59,0,0,1-6-3c-1-1.64-1.28-3.2-1.28-7.16v-7.48c0-4.24.32-5.72,1.56-7.4a6.69,6.69,0,0,1,5.64-2.48c4.55,0,7.23,3,7.23,8.28v.8Z" fill="#fff"/><path d="M189,495h-4.11V472.11H179.7v-3.8h14.47v3.8H189Z" fill="#fff"/><path d="M207.53,475.75c-.64-2.64-1.84-4-3.52-4a2.64,2.64,0,0,0-2.68,2.72,4,4,0,0,0,1.12,2.68c.68.76.68.76,3.52,2.92a22.3,22.3,0,0,1,4,3.6,7.79,7.79,0,0,1,1.72,4.88c0,4-3,6.8-7.32,6.8-4.56,0-7.24-2.44-8.08-7.52l4-1.16c.52,3.2,1.92,4.8,4.12,4.8a2.9,2.9,0,0,0,3-3c0-1.68-.84-2.76-4-5.2-3.72-2.92-3.88-3.08-4.88-4.36a7.3,7.3,0,0,1-1.48-4.44c0-3.84,2.88-6.56,7-6.56,3.8,0,6.36,2.28,7.48,6.68Z" fill="#fff"/><path d="M218.73,495h-3.88v-4.28h3.88Z" fill="#fff"/></g></g></svg>