<?xml version="1.0" encoding="utf-8"?>
<!-- Generator: Adobe Illustrator 23.1.1, SVG Export Plug-In . SVG Version: 6.00 Build 0)  -->
<svg version="1.1" id="Layer_1" xmlns="http://www.w3.org/2000/svg" xmlns:xlink="http://www.w3.org/1999/xlink" x="0px" y="0px"
	 viewBox="0 0 970 250" style="enable-background:new 0 0 970 250;" xml:space="preserve">
<style type="text/css">
	.st0{fill:none;}
	.st1{fill:#FFFFFF;}
</style>
<title>txt1</title>
<g>
	<g id="Rect">
		<rect class="st0" width="970" height="250"/>
	</g>
</g>
<g>
	<path class="st1" d="M452.4,97h-6.2V62.7h-7.7V57h21.7v5.7h-7.8V97z"/>
	<path class="st1" d="M486.3,84.3c0,4.5-0.7,7.2-2.3,9.5c-1.8,2.5-4.8,3.8-8.6,3.8s-6.8-1.3-8.6-3.8c-1.6-2.3-2.3-5-2.3-9.5V69.7
		c0-4.5,0.7-7.2,2.3-9.5c1.8-2.5,4.8-3.8,8.6-3.8s6.8,1.3,8.6,3.8c1.6,2.3,2.3,5,2.3,9.5V84.3z M470.6,84.1c0,3.2,0.2,4.3,0.8,5.5
		c0.7,1.3,2.2,2.2,4,2.2c1.7,0,3.2-0.8,4-2.2c0.7-1.3,0.8-2.2,0.8-5.5V69.8c0-3.2-0.1-4.2-0.8-5.5c-0.7-1.3-2.2-2.2-4-2.2
		c-1.7,0-3.2,0.8-4,2.2c-0.6,1.2-0.8,2.3-0.8,5.5V84.1z"/>
	<path class="st1" d="M492.6,57h9.8c7.9,0,11.6,4,11.6,12.5v14.9c0,8.5-3.7,12.5-11.6,12.5h-9.8V57z M501.8,91.3
		c4.4,0,5.9-2.3,5.9-8.5V71.2c0-6.3-1.6-8.5-5.9-8.5h-3.1v28.6H501.8z"/>
	<path class="st1" d="M526,88.3l-1.6,8.7h-6.1l7.7-40h8.5l8.1,40h-6.4l-1.7-8.7H526z M530.2,64.6L527,82.6h6.5L530.2,64.6z"/>
	<path class="st1" d="M558,97h-6.2V81.4l-9-24.4h6.8l5.3,16.9l5.5-16.9h6.7L558,81.4V97z"/>
	<path class="st1" d="M447.3,143.3h12.3v5.7h-18.5v-40h6.2V143.3z"/>
	<path class="st1" d="M482.1,114.7h-11.9v10.6h8.8v5.7h-8.8v12.4h11.9v5.7H464v-40h18.1V114.7z"/>
	<path class="st1" d="M500.1,149h-6.2v-34.3h-7.7V109h21.7v5.7h-7.8V149z"/>
	<path class="st1" d="M518.3,115.4l-3.5,8.3h-2.3l2.6-8.3h-2.6V109h5.8V115.4z"/>
	<path class="st1" d="M539.4,120.1c-1-4-2.8-5.9-5.3-5.9c-2.3,0-4,1.7-4,4.1c0,1.4,0.6,2.9,1.7,4c1,1.1,1,1.1,5.3,4.4
		c3.4,2.6,4.6,3.8,5.9,5.4c1.6,2,2.6,4.6,2.6,7.3c0,6.1-4.4,10.2-11,10.2c-6.8,0-10.9-3.7-12.1-11.3l5.9-1.7
		c0.8,4.8,2.9,7.2,6.2,7.2c2.7,0,4.6-1.9,4.6-4.6c0-2.5-1.3-4.1-5.9-7.8c-5.6-4.4-5.8-4.6-7.3-6.5c-1.4-1.9-2.2-4.2-2.2-6.7
		c0-5.8,4.3-9.8,10.4-9.8c5.7,0,9.5,3.4,11.2,10L539.4,120.1z"/>
	<path class="st1" d="M575.3,120.1c-1-4-2.8-5.9-5.3-5.9c-2.3,0-4,1.7-4,4.1c0,1.4,0.6,2.9,1.7,4c1,1.1,1,1.1,5.3,4.4
		c3.4,2.6,4.6,3.8,5.9,5.4c1.6,2,2.6,4.6,2.6,7.3c0,6.1-4.4,10.2-11,10.2c-6.8,0-10.9-3.7-12.1-11.3l5.9-1.7
		c0.8,4.8,2.9,7.2,6.2,7.2c2.7,0,4.6-1.9,4.6-4.6c0-2.5-1.3-4.1-5.9-7.8c-5.6-4.4-5.8-4.6-7.3-6.5c-1.4-1.9-2.2-4.2-2.2-6.7
		c0-5.8,4.3-9.8,10.4-9.8c5.7,0,9.5,3.4,11.2,10L575.3,120.1z"/>
	<path class="st1" d="M598.8,149h-6.2v-34.3h-7.7V109h21.7v5.7h-7.8V149z"/>
	<path class="st1" d="M615.2,140.3l-1.6,8.7h-6.1l7.7-40h8.5l8.1,40h-6.4l-1.7-8.7H615.2z M619.4,116.6l-3.2,17.9h6.5L619.4,116.6z"
		/>
	<path class="st1" d="M642.8,149h-6.2v-40h6.2V149z"/>
	<path class="st1" d="M671.7,149h-5.5l-10.8-26.6V149h-5.9v-40h6.2l10.1,24.9V109h5.9V149z"/>
	<path class="st1" d="M685.8,122h-2.3v-11.2h-2.6v-2.1h7.6v2.1h-2.6V122z M699.1,122h-2.2v-8.8l-2.1,8.8h-1.5l-2.1-8.8v8.8H689
		v-13.3h3.3l1.7,7.6l1.8-7.6h3.3V122z"/>
</g>
</svg>
