<svg xmlns="http://www.w3.org/2000/svg" viewBox="0 0 970 250"><title>txt2</title><g id="Layer_2" data-name="Layer 2"><g id="Rect"><rect width="970" height="250" fill="none"/></g><g id="your_table." data-name="your table."><path d="M454.24,201h-6.18v-15.6l-9-24.42h6.84l5.34,16.92L456.76,161h6.72l-9.24,24.42Z" fill="#fff"/><path d="M488.86,188.27c0,4.5-.66,7.2-2.28,9.48-1.8,2.52-4.8,3.83-8.64,3.83s-6.84-1.31-8.64-3.83c-1.62-2.28-2.28-5-2.28-9.48V173.69c0-4.5.66-7.2,2.28-9.48,1.8-2.52,4.8-3.84,8.64-3.84s6.84,1.32,8.64,3.84c1.62,2.28,2.28,5,2.28,9.48Zm-15.66-.12c0,3.18.18,4.26.78,5.46a4.71,4.71,0,0,0,7.92,0c.66-1.26.78-2.22.78-5.46V173.81c0-3.24-.12-4.2-.78-5.46a4.71,4.71,0,0,0-7.92,0c-.6,1.2-.78,2.28-.78,5.46Z" fill="#fff"/><path d="M516.34,161v27.12c0,5-.6,7.62-2.28,9.9s-4.68,3.59-8.28,3.59-6.6-1.25-8.34-3.59-2.28-4.86-2.28-9.9V161h6.18v28.14c0,4.74,1.26,6.66,4.44,6.66s4.38-1.92,4.38-6.66V161Z" fill="#fff"/><path d="M529.18,201H523V161h9.66c3.66,0,6,.72,7.92,2.4,2.4,2,3.6,5.1,3.6,9.06,0,5-1.8,8.52-5.4,10.38L544.66,201h-6.48l-5.28-16.44h-3.72Zm2.28-22.14c2.64,0,3.84-.3,4.8-1.26s1.5-2.64,1.5-4.86-.48-3.78-1.5-4.8-2.16-1.26-4.8-1.26h-2.28v12.18Z" fill="#fff"/><path d="M571,201h-6.18V166.67h-7.74V161H578.8v5.7H571Z" fill="#fff"/><path d="M587.44,192.29l-1.62,8.7h-6.06l7.68-40h8.46l8.1,40h-6.36l-1.68-8.7Zm4.2-23.64-3.24,17.94h6.54Z" fill="#fff"/><path d="M609.28,161h9.24c7.49,0,11.69,3.66,11.69,10.14,0,4.74-2.09,7.56-6.59,8.94,5.39,1.56,7.55,4.32,7.55,9.6,0,7.08-4.43,11.34-11.88,11.34h-10Zm8.4,16.32c3.78,0,6.24-2.22,6.24-5.64a5,5,0,0,0-1.5-3.72c-1-.9-2.29-1.26-4.63-1.26h-2.33v10.62Zm.9,18c4,0,6.17-2,6.17-5.64,0-4-2.75-6.66-7.07-6.66h-2.22v12.3Z" fill="#fff"/><path d="M643.42,195.29h12.29V201H637.24V161h6.18Z" fill="#fff"/><path d="M678.27,166.67H666.33v10.56h8.82v5.7h-8.82v12.36h11.94V201H660.15V161h18.12Z" fill="#fff"/><path d="M689,201h-5.82v-6.42H689Z" fill="#fff"/></g></g></svg>