<svg xmlns="http://www.w3.org/2000/svg" viewBox="0 0 970 250"><title>txt6</title><g id="Layer_2" data-name="Layer 2"><g id="Rect"><rect width="970" height="250" fill="none"/></g><g id="SUPERIOR_STAIN_FOR_ALL_PROJECTS." data-name="SUPERIOR STAIN FOR  ALL PROJECTS."><path d="M456.16,68.13c-1-4-2.76-5.94-5.28-5.94a4,4,0,0,0-4,4.08,6,6,0,0,0,1.68,4c1,1.14,1,1.14,5.28,4.38a33.45,33.45,0,0,1,5.94,5.4,11.69,11.69,0,0,1,2.58,7.32c0,6.06-4.44,10.2-11,10.2-6.84,0-10.86-3.66-12.12-11.28l5.94-1.74c.78,4.8,2.88,7.2,6.18,7.2a4.35,4.35,0,0,0,4.56-4.56c0-2.52-1.26-4.14-5.94-7.8-5.58-4.38-5.82-4.62-7.32-6.54a10.85,10.85,0,0,1-2.22-6.66c0-5.76,4.32-9.84,10.44-9.84,5.7,0,9.54,3.42,11.22,10Z" fill="#fff"/><path d="M488.44,57V84.09c0,5-.6,7.62-2.28,9.9s-4.68,3.6-8.28,3.6-6.6-1.26-8.34-3.6-2.28-4.86-2.28-9.9V57h6.18V85.11c0,4.74,1.26,6.66,4.44,6.66s4.38-1.92,4.38-6.66V57Z" fill="#fff"/><path d="M501.28,97H495.1V57h10.26c4,0,6.54.78,8.4,2.58,2.16,2,3.18,5,3.18,9.3s-1,7.32-3.18,9.36c-1.86,1.8-4.38,2.58-8.4,2.58h-4.08Zm2.7-21.9c5,0,6.54-1.5,6.54-6.24S509,62.67,504,62.67h-2.7V75.09Z" fill="#fff"/><path d="M540.4,62.67H528.46V73.23h8.82v5.7h-8.82V91.29H540.4V97H522.28V57H540.4Z" fill="#fff"/><path d="M551.43,97h-6.18V57h9.67c3.65,0,6,.72,7.91,2.4,2.4,2,3.6,5.1,3.6,9.06,0,5-1.8,8.52-5.4,10.38L566.91,97h-6.48l-5.28-16.44h-3.72Zm2.28-22.14c2.64,0,3.84-.3,4.8-1.26S560,71,560,68.73s-.48-3.78-1.5-4.8-2.16-1.26-4.8-1.26h-2.28V74.85Z" fill="#fff"/><path d="M578.61,97h-6.18V57h6.18Z" fill="#fff"/><path d="M606.75,84.27c0,4.5-.66,7.2-2.28,9.48-1.8,2.52-4.8,3.84-8.64,3.84s-6.84-1.32-8.64-3.84c-1.62-2.28-2.28-5-2.28-9.48V69.69c0-4.5.66-7.2,2.28-9.48,1.8-2.52,4.8-3.84,8.64-3.84s6.84,1.32,8.64,3.84c1.62,2.28,2.28,5,2.28,9.48Zm-15.66-.12c0,3.18.18,4.26.78,5.46a4.71,4.71,0,0,0,7.92,0c.66-1.26.78-2.22.78-5.46V69.81c0-3.24-.12-4.2-.78-5.46a4.71,4.71,0,0,0-7.92,0c-.6,1.2-.78,2.28-.78,5.46Z" fill="#fff"/><path d="M619.23,97h-6.18V57h9.66c3.66,0,6,.72,7.92,2.4,2.4,2,3.6,5.1,3.6,9.06,0,5-1.8,8.52-5.4,10.38L634.71,97h-6.48L623,80.55h-3.72Zm2.28-22.14c2.64,0,3.84-.3,4.8-1.26s1.5-2.64,1.5-4.86-.48-3.78-1.5-4.8-2.16-1.26-4.8-1.26h-2.28V74.85Z" fill="#fff"/><path d="M456.16,120.13c-1-4-2.76-5.94-5.28-5.94a4,4,0,0,0-4,4.08,6,6,0,0,0,1.68,4c1,1.14,1,1.14,5.28,4.38a33.45,33.45,0,0,1,5.94,5.4,11.69,11.69,0,0,1,2.58,7.32c0,6.06-4.44,10.19-11,10.19-6.84,0-10.86-3.65-12.12-11.27l5.94-1.74c.78,4.8,2.88,7.2,6.18,7.2a4.35,4.35,0,0,0,4.56-4.56c0-2.52-1.26-4.14-5.94-7.8-5.58-4.38-5.82-4.62-7.32-6.54a10.85,10.85,0,0,1-2.22-6.66c0-5.76,4.32-9.84,10.44-9.84,5.7,0,9.54,3.42,11.22,10Z" fill="#fff"/><path d="M479.62,149h-6.18V114.67H465.7V109h21.72v5.7h-7.8Z" fill="#fff"/><path d="M496.06,140.29l-1.62,8.7h-6.06l7.68-40h8.46l8.1,40h-6.36l-1.68-8.7Zm4.2-23.64L497,134.59h6.54Z" fill="#fff"/><path d="M523.66,149h-6.18V109h6.18Z" fill="#fff"/><path d="M552.57,149h-5.52l-10.8-26.64V149h-5.87V109h6.24l10.07,24.9V109h5.88Z" fill="#fff"/><path d="M575.19,149H569V109h18.3v5.7H575.19v10.8h9v5.7h-9Z" fill="#fff"/><path d="M613.59,136.27c0,4.5-.66,7.2-2.28,9.48-1.8,2.52-4.8,3.83-8.64,3.83s-6.84-1.31-8.64-3.83c-1.62-2.28-2.28-5-2.28-9.48V121.69c0-4.5.66-7.2,2.28-9.48,1.8-2.52,4.8-3.84,8.64-3.84s6.84,1.32,8.64,3.84c1.62,2.28,2.28,5,2.28,9.48Zm-15.66-.12c0,3.18.18,4.26.78,5.46a4.71,4.71,0,0,0,7.92,0c.66-1.26.78-2.22.78-5.46V121.81c0-3.24-.12-4.2-.78-5.46a4.71,4.71,0,0,0-7.92,0c-.6,1.2-.78,2.28-.78,5.46Z" fill="#fff"/><path d="M626.07,149h-6.18V109h9.66c3.66,0,6,.72,7.92,2.4,2.4,2,3.6,5.1,3.6,9.06,0,5-1.8,8.52-5.4,10.38L641.55,149h-6.48l-5.28-16.44h-3.72Zm2.28-22.14c2.64,0,3.84-.3,4.8-1.26s1.5-2.64,1.5-4.86-.48-3.78-1.5-4.8-2.16-1.26-4.8-1.26h-2.28v12.18Z" fill="#fff"/><path d="M447.34,192.29l-1.62,8.7h-6.06l7.68-40h8.46l8.1,40h-6.36l-1.68-8.7Zm4.2-23.64-3.24,17.94h6.54Z" fill="#fff"/><path d="M474.94,195.29h12.3V201H468.76V161h6.18Z" fill="#fff"/><path d="M497.86,195.29h12.3V201H491.68V161h6.18Z" fill="#fff"/><path d="M530.56,201h-6.18V161h10.26c4,0,6.54.78,8.4,2.58,2.16,2,3.18,5,3.18,9.3s-1,7.32-3.18,9.36c-1.86,1.8-4.38,2.58-8.4,2.58h-4.08Zm2.7-21.9c5,0,6.54-1.5,6.54-6.24s-1.56-6.18-6.54-6.18h-2.7v12.42Z" fill="#fff"/><path d="M557.74,201h-6.18V161h9.66c3.66,0,6,.72,7.91,2.4,2.41,2,3.61,5.1,3.61,9.06,0,5-1.8,8.52-5.41,10.38L573.21,201h-6.47l-5.28-16.44h-3.72ZM560,178.85c2.64,0,3.84-.3,4.8-1.26s1.5-2.64,1.5-4.86-.49-3.78-1.5-4.8-2.16-1.26-4.8-1.26h-2.28v12.18Z" fill="#fff"/><path d="M600.15,188.27c0,4.5-.65,7.2-2.27,9.48-1.8,2.52-4.8,3.83-8.64,3.83s-6.84-1.31-8.64-3.83c-1.62-2.28-2.28-5-2.28-9.48V173.69c0-4.5.66-7.2,2.28-9.48,1.8-2.52,4.8-3.84,8.64-3.84s6.84,1.32,8.64,3.84c1.62,2.28,2.27,5,2.27,9.48Zm-15.65-.12c0,3.18.18,4.26.78,5.46a4.71,4.71,0,0,0,7.92,0c.66-1.26.77-2.22.77-5.46V173.81c0-3.24-.11-4.2-.77-5.46a4.71,4.71,0,0,0-7.92,0c-.6,1.2-.78,2.28-.78,5.46Z" fill="#fff"/><path d="M616.35,161v30.24c0,4.2-.42,5.94-1.74,7.56s-3.18,2.22-6.23,2.22h-3.72v-5.82h1.43c3,0,4.08-1.14,4.08-4.44V161Z" fill="#fff"/><path d="M641.19,166.67H629.25v10.56h8.82v5.7h-8.82v12.36h11.94V201H623.07V161h18.12Z" fill="#fff"/><path d="M661.41,174v-.84c0-4.62-1.62-7-4.68-7a3.91,3.91,0,0,0-3.66,2c-.78,1.32-1,2.52-1,5.76v13.32a17.14,17.14,0,0,0,.66,5.94,4.16,4.16,0,0,0,4,2.58c2.28,0,3.78-1.32,4.44-4a22.6,22.6,0,0,0,.36-4.86h6.24v1.38c0,8.7-3.78,13.25-11,13.25-4,0-7.2-1.55-8.94-4.43-1.5-2.46-1.92-4.8-1.92-10.74V175.19c0-6.36.48-8.58,2.34-11.1s4.74-3.72,8.46-3.72c6.84,0,10.86,4.56,10.86,12.42V174Z" fill="#fff"/><path d="M685.65,201h-6.18V166.67h-7.74V161h21.72v5.7h-7.8Z" fill="#fff"/><path d="M713.49,172.13c-1-4-2.76-5.94-5.28-5.94a4,4,0,0,0-4,4.08,6,6,0,0,0,1.68,4c1,1.14,1,1.14,5.28,4.38a33.45,33.45,0,0,1,5.94,5.4,11.69,11.69,0,0,1,2.58,7.32c0,6.06-4.44,10.19-11,10.19-6.84,0-10.86-3.65-12.12-11.27l5.94-1.74c.78,4.8,2.88,7.2,6.18,7.2a4.35,4.35,0,0,0,4.56-4.56c0-2.52-1.26-4.14-5.94-7.8-5.58-4.38-5.82-4.62-7.32-6.54a10.85,10.85,0,0,1-2.22-6.66c0-5.76,4.32-9.84,10.44-9.84,5.7,0,9.54,3.42,11.22,10Z" fill="#fff"/><path d="M730.29,201h-5.82v-6.42h5.82Z" fill="#fff"/></g></g></svg>