<svg xmlns="http://www.w3.org/2000/svg" viewBox="0 0 133 34"><title>water cta</title><g id="Layer_2" data-name="Layer 2"><g id="Rect"><rect width="133" height="34" fill="none"/></g><g id="LEARN_MORE" data-name="LEARN MORE"><path d="M21.8,21.2h3.69v1.71H20v-12H21.8Z" fill="#9c9067"/><path d="M32.26,12.61H28.68v3.17h2.64v1.71H28.68V21.2h3.58v1.71H26.82v-12h5.44Z" fill="#9c9067"/><path d="M36,20.3l-.49,2.61H33.64L36,10.9h2.54l2.43,12H39L38.5,20.3Zm1.26-7.09-1,5.38h2Z" fill="#9c9067"/><path d="M44.23,22.91H42.37v-12h2.9a3.36,3.36,0,0,1,2.38.72,3.4,3.4,0,0,1,1.08,2.72,3.2,3.2,0,0,1-1.62,3.12l1.76,5.45H46.93L45.34,18H44.23Zm.68-6.64c.79,0,1.15-.09,1.44-.38a2,2,0,0,0,.45-1.46A2,2,0,0,0,46.35,13c-.29-.29-.65-.38-1.44-.38h-.68v3.66Z" fill="#9c9067"/><path d="M57.19,22.91H55.53l-3.24-8v8H50.53v-12H52.4l3,7.48V10.9h1.77Z" fill="#9c9067"/><path d="M70.85,22.91H69.09V14.07L67,22.91H66l-2.07-8.84v8.84H62.12v-12h2.72l1.65,7.55,1.68-7.55h2.68Z" fill="#9c9067"/><path d="M79.29,19.1a4.6,4.6,0,0,1-.68,2.84,3.5,3.5,0,0,1-5.19,0,4.6,4.6,0,0,1-.68-2.84V14.72a4.6,4.6,0,0,1,.68-2.84,3.48,3.48,0,0,1,5.19,0,4.6,4.6,0,0,1,.68,2.84Zm-4.7,0a3.31,3.31,0,0,0,.24,1.64,1.41,1.41,0,0,0,2.37,0,3.09,3.09,0,0,0,.24-1.64v-4.3a3.07,3.07,0,0,0-.24-1.64,1.41,1.41,0,0,0-2.37,0,3.28,3.28,0,0,0-.24,1.64Z" fill="#9c9067"/><path d="M83,22.91H81.18v-12h2.9a3.36,3.36,0,0,1,2.38.72,3.4,3.4,0,0,1,1.08,2.72,3.2,3.2,0,0,1-1.62,3.12l1.76,5.45H85.74L84.15,18H83Zm.69-6.64c.79,0,1.15-.09,1.44-.38a2,2,0,0,0,.45-1.46A2,2,0,0,0,85.16,13c-.29-.29-.65-.38-1.44-.38H83v3.66Z" fill="#9c9067"/><path d="M94.77,12.61H91.19v3.17h2.65v1.71H91.19V21.2h3.58v1.71H89.33v-12h5.44Z" fill="#9c9067"/></g><g id="chevrons"><polyline points="103 12.61 107.03 17 103 21.2" fill="none" stroke="#9c9067" stroke-miterlimit="10" stroke-width="1.5"/><polyline points="108 12.61 112.03 17 108 21.2" fill="none" stroke="#9c9067" stroke-miterlimit="10" stroke-width="1.5"/></g></g></svg>