<svg xmlns="http://www.w3.org/2000/svg" viewBox="0 0 970 250"><title>txt1</title><g id="Layer_2" data-name="Layer 2"><g id="Rect"><rect width="970" height="250" fill="none"/></g><g id="Today_let_s_stain" data-name="Todaylet’s stain"><path d="M450,120h-5.15V91.38h-6.45V86.63h18.1v4.75H450Z" fill="#fff"/><path d="M478.24,109.38c0,3.75-.55,6-1.9,7.91-1.5,2.1-4,3.2-7.2,3.2s-5.7-1.1-7.2-3.2c-1.35-1.9-1.9-4.16-1.9-7.91V97.23c0-3.75.55-6,1.9-7.9,1.5-2.1,4-3.2,7.2-3.2s5.7,1.1,7.2,3.2c1.35,1.9,1.9,4.15,1.9,7.9Zm-13.05-.1c0,2.66.15,3.55.65,4.55a3.91,3.91,0,0,0,6.6,0c.55-1,.65-1.85.65-4.55v-12c0-2.7-.1-3.5-.65-4.55a3.93,3.93,0,0,0-6.6,0c-.5,1-.65,1.9-.65,4.55Z" fill="#fff"/><path d="M483.49,86.63h8.15c6.55,0,9.65,3.35,9.65,10.45v12.45c0,7.11-3.1,10.46-9.65,10.46h-8.15Zm7.7,28.6c3.65,0,4.95-1.9,4.95-7.1V98.48c0-5.25-1.3-7.1-4.95-7.1h-2.55v23.85Z" fill="#fff"/><path d="M511.34,112.73,510,120h-5.05l6.4-33.36h7.05L525.14,120h-5.3l-1.4-7.26Zm3.5-19.7-2.7,15h5.45Z" fill="#fff"/><path d="M538,120h-5.15V107l-7.5-20.35h5.7l4.45,14.1,4.6-14.1h5.6L538,107Z" fill="#fff"/><path d="M445.74,159.24H456V164h-15.4V130.63h5.15Z" fill="#fff"/><path d="M474.79,135.38h-10v8.8h7.35v4.75h-7.35v10.31h10V164h-15.1V130.63h15.1Z" fill="#fff"/><path d="M489.74,164h-5.15V135.38h-6.45v-4.75h18.1v4.75h-6.5Z" fill="#fff"/><path d="M504.89,136l-2.95,6.9H500l2.2-6.9H500v-5.35h4.85Z" fill="#fff"/><path d="M522.49,139.93c-.8-3.3-2.3-5-4.4-5a3.3,3.3,0,0,0-3.35,3.4,5,5,0,0,0,1.4,3.35c.85,1,.85,1,4.4,3.65a27.87,27.87,0,0,1,5,4.5,9.74,9.74,0,0,1,2.15,6.1c0,5.06-3.7,8.51-9.15,8.51-5.7,0-9.05-3.05-10.1-9.41l5-1.45c.65,4,2.4,6,5.15,6a3.62,3.62,0,0,0,3.8-3.8c0-2.1-1-3.45-4.95-6.5-4.65-3.65-4.85-3.85-6.1-5.45a9,9,0,0,1-1.85-5.55c0-4.8,3.6-8.2,8.7-8.2,4.75,0,7.95,2.85,9.35,8.35Z" fill="#fff"/><path d="M552.44,139.93c-.8-3.3-2.3-5-4.4-5a3.3,3.3,0,0,0-3.35,3.4,5,5,0,0,0,1.4,3.35c.85,1,.85,1,4.4,3.65a27.87,27.87,0,0,1,5,4.5,9.74,9.74,0,0,1,2.15,6.1c0,5.06-3.7,8.51-9.15,8.51-5.7,0-9.06-3.05-10.11-9.41l5-1.45c.65,4,2.4,6,5.15,6a3.62,3.62,0,0,0,3.8-3.8c0-2.1-1-3.45-5-6.5-4.65-3.65-4.85-3.85-6.1-5.45a9,9,0,0,1-1.86-5.55c0-4.8,3.61-8.2,8.71-8.2,4.75,0,8,2.85,9.35,8.35Z" fill="#fff"/><path d="M572,164h-5.16V135.38h-6.45v-4.75h18.11v4.75H572Z" fill="#fff"/><path d="M585.68,156.74,584.33,164h-5.05l6.4-33.36h7.06L599.49,164h-5.3l-1.4-7.25ZM589.19,137,586.49,152h5.45Z" fill="#fff"/><path d="M608.68,164h-5.15V130.63h5.15Z" fill="#fff"/><path d="M632.79,164h-4.61l-9-22.21V164h-4.9V130.63h5.2l8.4,20.75V130.63h4.91Z" fill="#fff"/></g></g></svg>