<?xml version="1.0" encoding="utf-8"?>
<!-- Generator: Adobe Illustrator 23.1.1, SVG Export Plug-In . SVG Version: 6.00 Build 0)  -->
<svg version="1.1" id="Layer_1" xmlns="http://www.w3.org/2000/svg" xmlns:xlink="http://www.w3.org/1999/xlink" x="0px" y="0px"
	 viewBox="0 0 970 250" style="enable-background:new 0 0 970 250;" xml:space="preserve">
<style type="text/css">
	.st0{fill:none;}
	.st1{fill:#FFFFFF;}
</style>
<title>txt1</title>
<g>
	<g id="Rect">
		<rect class="st0" width="970" height="250"/>
	</g>
</g>
<g>
	<path class="st1" d="M450.6,120h-5.2V91.4h-6.5v-4.8H457v4.8h-6.4V120z"/>
	<path class="st1" d="M478.8,109.4c0,3.8-0.6,6-1.9,7.9c-1.5,2.1-4,3.2-7.2,3.2s-5.7-1.1-7.2-3.2c-1.4-1.9-1.9-4.2-1.9-7.9V97.2
		c0-3.8,0.5-6,1.9-7.9c1.5-2.1,4-3.2,7.2-3.2s5.7,1.1,7.2,3.2c1.4,1.9,1.9,4.2,1.9,7.9V109.4z M465.8,109.3c0,2.7,0.1,3.6,0.6,4.6
		c0.6,1.1,1.9,1.8,3.3,1.8s2.7-0.7,3.3-1.8c0.5-1,0.6-1.9,0.6-4.6v-12c0-2.7-0.1-3.5-0.6-4.6c-0.6-1.1-1.9-1.8-3.3-1.8
		s-2.7,0.7-3.3,1.8c-0.5,1-0.6,1.9-0.6,4.6V109.3z"/>
	<path class="st1" d="M484.1,86.6h8.2c6.6,0,9.7,3.4,9.7,10.5v12.5c0,7.1-3.1,10.5-9.7,10.5h-8.2V86.6z M491.8,115.2
		c3.7,0,5-1.9,5-7.1v-9.7c0-5.2-1.3-7.1-5-7.1h-2.5v23.9C489.3,115.2,491.8,115.2,491.8,115.2z"/>
	<path class="st1" d="M511.9,112.7l-1.3,7.3h-5.1l6.4-33.4h7.1l6.8,33.4h-5.3l-1.4-7.3H511.9z M515.4,93l-2.7,15h5.5L515.4,93z"/>
	<path class="st1" d="M538.6,120h-5.2v-13l-7.5-20.4h5.7l4.5,14.1l4.6-14.1h5.6l-7.7,20.4V120z"/>
	<path class="st1" d="M446.3,159.2h10.3v4.8h-15.4v-33.4h5.2v28.6H446.3z"/>
	<path class="st1" d="M475.4,135.4h-10v8.8h7.4v4.8h-7.4v10.3h10v4.8h-15.1v-33.4h15.1V135.4z"/>
	<path class="st1" d="M490.3,164h-5.2v-28.6h-6.5v-4.8h18.1v4.8h-6.5V164H490.3z"/>
	<path class="st1" d="M505.5,136l-3,6.9h-1.9l2.2-6.9h-2.2v-5.3h4.9V136z"/>
	<path class="st1" d="M523.1,139.9c-0.8-3.3-2.3-5-4.4-5c-1.9,0-3.4,1.5-3.4,3.4c0,1.2,0.5,2.4,1.4,3.4c0.9,0.9,0.9,0.9,4.4,3.6
		c2.8,2.2,3.9,3.2,5,4.5c1.4,1.6,2.2,3.8,2.2,6.1c0,5.1-3.7,8.5-9.2,8.5c-5.7,0-9.1-3-10.1-9.4l5-1.5c0.7,4,2.4,6,5.2,6
		c2.2,0,3.8-1.5,3.8-3.8c0-2.1-1-3.5-5-6.5c-4.7-3.6-4.9-3.8-6.1-5.5c-1.2-1.5-1.9-3.5-1.9-5.5c0-4.8,3.6-8.2,8.7-8.2
		c4.8,0,8,2.9,9.4,8.4L523.1,139.9z"/>
	<path class="st1" d="M553,139.9c-0.8-3.3-2.3-5-4.4-5c-1.9,0-3.3,1.5-3.3,3.4c0,1.2,0.5,2.4,1.4,3.4c0.8,0.9,0.8,0.9,4.4,3.6
		c2.8,2.2,3.9,3.2,5,4.5c1.3,1.6,2.1,3.8,2.1,6.1c0,5.1-3.7,8.5-9.2,8.5c-5.7,0-9.1-3-10.1-9.4l5-1.5c0.7,4,2.4,6,5.2,6
		c2.2,0,3.8-1.5,3.8-3.8c0-2.1-1.1-3.5-5-6.5c-4.6-3.6-4.8-3.8-6.1-5.5c-1.2-1.5-1.9-3.5-1.9-5.5c0-4.8,3.6-8.2,8.7-8.2
		c4.8,0,8,2.9,9.4,8.4L553,139.9z"/>
	<path class="st1" d="M572.6,164h-5.2v-28.6h-6.5v-4.8H579v4.8h-6.4V164z"/>
	<path class="st1" d="M586.3,156.7l-1.3,7.2h-5.1l6.4-33.4h7.1l6.8,33.4h-5.3l-1.4-7.2H586.3z M589.8,137l-2.7,15h5.5L589.8,137z"/>
	<path class="st1" d="M609.3,164h-5.2v-33.4h5.2V164z"/>
	<path class="st1" d="M633.4,164h-4.6l-9-22.2V164h-4.9v-33.4h5.2l8.4,20.8v-20.8h4.9L633.4,164L633.4,164z"/>
	<path class="st1" d="M646.1,141h-2v-9.3h-2.2V130h6.3v1.7H646v9.3H646.1z M657.2,141h-1.9v-7.4l-1.7,7.4h-1.2l-1.7-7.4v7.4h-1.9
		v-11.1h2.7l1.5,6.3l1.5-6.3h2.7V141z"/>
</g>
</svg>
