<svg xmlns="http://www.w3.org/2000/svg" viewBox="0 0 970 250"><title>txt1</title><g id="Layer_2" data-name="Layer 2"><g id="Rect"><rect width="970" height="250" fill="none"/></g><g id="TODAY_LET_S_STAIN" data-name="TODAY LET’S STAIN"><path d="M519.41,144.53H513.9v-30.6H507v-5.09h19.37v5.09h-7Z" fill="#fff"/><path d="M549.64,133.19c0,4-.59,6.42-2,8.45-1.6,2.25-4.28,3.42-7.7,3.42s-6.1-1.17-7.7-3.42c-1.45-2-2-4.44-2-8.45v-13c0-4,.59-6.42,2-8.46,1.6-2.24,4.28-3.42,7.7-3.42s6.1,1.18,7.7,3.42c1.45,2,2,4.44,2,8.46Zm-14-.11c0,2.83.16,3.8.7,4.87a4.21,4.21,0,0,0,7.06,0c.59-1.13.69-2,.69-4.87V120.29c0-2.89-.1-3.74-.69-4.87a4.21,4.21,0,0,0-7.06,0c-.54,1.07-.7,2-.7,4.87Z" fill="#fff"/><path d="M555.25,108.84H564c7,0,10.32,3.59,10.32,11.19v13.32c0,7.59-3.31,11.18-10.32,11.18h-8.72Zm8.24,30.61c3.9,0,5.29-2,5.29-7.6V121.52c0-5.61-1.39-7.59-5.29-7.59h-2.73v25.52Z" fill="#fff"/><path d="M585,136.77l-1.44,7.76h-5.4L585,108.84h7.55l7.22,35.69h-5.67l-1.5-7.76Zm3.75-21.08-2.89,16h5.83Z" fill="#fff"/><path d="M613.61,144.53H608.1V130.62l-8-21.78h6.1l4.76,15.09,4.93-15.09h6l-8.24,21.78Z" fill="#fff"/><path d="M640.19,139.45h11v5.08H634.68V108.84h5.51Z" fill="#fff"/><path d="M671.27,113.93H660.62v9.41h7.87v5.08h-7.87v11h10.65v5.08H655.11V108.84h16.16Z" fill="#fff"/><path d="M687.26,144.53h-5.51v-30.6h-6.9v-5.09h19.37v5.09h-7Z" fill="#fff"/><path d="M703.47,114.57,700.31,122h-2l2.35-7.38h-2.35v-5.73h5.19Z" fill="#fff"/><path d="M722.3,118.79c-.86-3.53-2.47-5.29-4.71-5.29a3.53,3.53,0,0,0-3.59,3.64,5.37,5.37,0,0,0,1.5,3.58c.91,1,.91,1,4.71,3.91a29.89,29.89,0,0,1,5.3,4.81,10.46,10.46,0,0,1,2.3,6.53c0,5.4-4,9.09-9.79,9.09-6.1,0-9.69-3.26-10.81-10.06l5.3-1.55c.69,4.28,2.56,6.42,5.51,6.42a3.87,3.87,0,0,0,4.06-4.06c0-2.25-1.12-3.69-5.29-7-5-3.9-5.19-4.12-6.53-5.83a9.63,9.63,0,0,1-2-5.94c0-5.13,3.85-8.77,9.31-8.77,5.08,0,8.5,3,10,8.93Z" fill="#fff"/><path d="M754.34,118.79c-.86-3.53-2.46-5.29-4.71-5.29a3.54,3.54,0,0,0-3.59,3.64,5.37,5.37,0,0,0,1.5,3.58c.91,1,.91,1,4.71,3.91a29.89,29.89,0,0,1,5.3,4.81,10.46,10.46,0,0,1,2.3,6.53c0,5.4-4,9.09-9.79,9.09-6.1,0-9.69-3.26-10.81-10.06l5.3-1.55c.69,4.28,2.56,6.42,5.51,6.42a3.87,3.87,0,0,0,4.06-4.06c0-2.25-1.12-3.69-5.29-7-5-3.9-5.19-4.12-6.53-5.83a9.63,9.63,0,0,1-2-5.94c0-5.13,3.85-8.77,9.31-8.77,5.08,0,8.5,3,10,8.93Z" fill="#fff"/><path d="M775.25,144.53h-5.51v-30.6h-6.9v-5.09H782.2v5.09h-7Z" fill="#fff"/><path d="M789.91,136.77l-1.45,7.76h-5.4l6.85-35.69h7.54l7.22,35.69H799l-1.5-7.76Zm3.74-21.08-2.89,16h5.83Z" fill="#fff"/><path d="M814.51,144.53H809V108.84h5.51Z" fill="#fff"/><path d="M840.29,144.53h-4.92l-9.63-23.76v23.76H820.5V108.84h5.56l9,22.21V108.84h5.24Z" fill="#fff"/></g></g></svg>