<svg xmlns="http://www.w3.org/2000/svg" viewBox="0 0 970 250"><title>txt2</title><g id="Layer_2" data-name="Layer 2"><g id="Rect"><rect width="970" height="250" fill="none"/></g><g id="your_interior_projects_with" data-name="your interiorprojects with"><path d="M451.54,120h-5.15V107l-7.5-20.35h5.7l4.45,14.1,4.6-14.1h5.6L451.54,107Z" fill="#fff"/><path d="M480.39,109.38c0,3.75-.55,6-1.9,7.91-1.5,2.1-4,3.2-7.2,3.2s-5.7-1.1-7.2-3.2c-1.35-1.9-1.9-4.16-1.9-7.91V97.23c0-3.75.55-6,1.9-7.9,1.5-2.1,4-3.2,7.2-3.2s5.7,1.1,7.2,3.2c1.35,1.9,1.9,4.15,1.9,7.9Zm-13.05-.1c0,2.66.15,3.55.65,4.55a3.91,3.91,0,0,0,6.6,0c.55-1,.65-1.85.65-4.55v-12c0-2.7-.1-3.5-.65-4.55a3.93,3.93,0,0,0-6.6,0c-.5,1-.65,1.9-.65,4.55Z" fill="#fff"/><path d="M503.29,86.63v22.6c0,4.21-.5,6.35-1.9,8.26s-3.9,3-6.9,3-5.5-1-6.95-3-1.9-4-1.9-8.26V86.63h5.15v23.45c0,4,1,5.56,3.7,5.56s3.65-1.6,3.65-5.56V86.63Z" fill="#fff"/><path d="M514,120h-5.15V86.63h8.05c3.05,0,5,.6,6.6,2,2,1.7,3,4.25,3,7.55,0,4.2-1.5,7.1-4.5,8.65l4.9,15.16h-5.4l-4.4-13.71H514Zm1.9-18.46c2.2,0,3.2-.25,4-1a5.54,5.54,0,0,0,1.25-4,5.49,5.49,0,0,0-1.25-4c-.8-.8-1.8-1.05-4-1.05H514v10.15Z" fill="#fff"/><path d="M544.59,120h-5.15V86.63h5.15Z" fill="#fff"/><path d="M568.69,120h-4.6l-9-22.21V120h-4.9V86.63h5.2l8.4,20.75V86.63h4.9Z" fill="#fff"/><path d="M584.39,120h-5.15V91.38h-6.45V86.63h18.1v4.75h-6.5Z" fill="#fff"/><path d="M610.09,91.38h-10v8.8h7.35v4.75h-7.35v10.3h10V120H595V86.63h15.1Z" fill="#fff"/><path d="M619.29,120h-5.16V86.63h8.06c3,0,5,.6,6.6,2,2,1.7,3,4.25,3,7.55,0,4.2-1.5,7.1-4.5,8.65l4.9,15.16h-5.4l-4.4-13.71h-3.1Zm1.9-18.46c2.2,0,3.2-.25,4-1a5.54,5.54,0,0,0,1.25-4,5.49,5.49,0,0,0-1.25-4c-.8-.8-1.8-1.05-4-1.05h-1.9v10.15Z" fill="#fff"/><path d="M641.93,120h-5.15V86.63h5.15Z" fill="#fff"/><path d="M665.39,109.38c0,3.75-.55,6-1.9,7.91-1.5,2.1-4,3.2-7.2,3.2s-5.71-1.1-7.21-3.2c-1.35-1.9-1.9-4.16-1.9-7.91V97.23c0-3.75.55-6,1.9-7.9,1.5-2.1,4-3.2,7.21-3.2s5.7,1.1,7.2,3.2c1.35,1.9,1.9,4.15,1.9,7.9Zm-13.06-.1c0,2.66.15,3.55.65,4.55a3.91,3.91,0,0,0,6.6,0c.56-1,.66-1.85.66-4.55v-12c0-2.7-.1-3.5-.66-4.55a3.92,3.92,0,0,0-6.6,0c-.5,1-.65,1.9-.65,4.55Z" fill="#fff"/><path d="M675.78,120h-5.15V86.63h8c3.05,0,5,.6,6.61,2,2,1.7,3,4.25,3,7.55,0,4.2-1.5,7.1-4.5,8.65l4.9,15.16h-5.4l-4.41-13.71h-3.1Zm1.9-18.46c2.2,0,3.2-.25,4-1a5.5,5.5,0,0,0,1.25-4,5.44,5.44,0,0,0-1.25-4c-.8-.8-1.8-1.05-4-1.05h-1.9v10.15Z" fill="#fff"/><path d="M445.74,164h-5.15V130.63h8.55c3.35,0,5.45.65,7,2.15,1.8,1.7,2.65,4.2,2.65,7.75s-.85,6.1-2.65,7.8c-1.55,1.5-3.65,2.15-7,2.15h-3.4ZM448,145.73c4.15,0,5.45-1.25,5.45-5.2s-1.3-5.15-5.45-5.15h-2.25v10.35Z" fill="#fff"/><path d="M468.39,164h-5.15V130.63h8.05c3,0,5,.6,6.6,2,2,1.7,3,4.25,3,7.55,0,4.2-1.5,7.1-4.5,8.65l4.9,15.16h-5.4l-4.4-13.71h-3.1Zm1.9-18.46c2.2,0,3.2-.25,4-1.05a7.11,7.11,0,0,0,0-8c-.8-.8-1.8-1.05-4-1.05h-1.9v10.15Z" fill="#fff"/><path d="M503.74,153.38c0,3.75-.55,6-1.9,7.91-1.5,2.1-4,3.2-7.2,3.2s-5.7-1.1-7.2-3.2c-1.35-1.91-1.9-4.16-1.9-7.91V141.23c0-3.75.55-6,1.9-7.9,1.5-2.1,4-3.2,7.2-3.2s5.7,1.1,7.2,3.2c1.35,1.9,1.9,4.15,1.9,7.9Zm-13.05-.09c0,2.64.15,3.54.65,4.54a3.92,3.92,0,0,0,6.6,0c.55-1,.65-1.85.65-4.54v-12c0-2.7-.1-3.5-.65-4.55a3.93,3.93,0,0,0-6.6,0c-.5,1-.65,1.9-.65,4.55Z" fill="#fff"/><path d="M517.24,130.63v25.2c0,3.5-.35,5-1.45,6.3s-2.65,1.86-5.2,1.86h-3.1v-4.86h1.2c2.5,0,3.4-.95,3.4-3.7v-24.8Z" fill="#fff"/><path d="M537.94,135.38H528v8.8h7.35v4.75H528v10.31h10V164h-15.1V130.63h15.1Z" fill="#fff"/><path d="M554.79,141.48v-.7c0-3.85-1.35-5.8-3.91-5.8a3.27,3.27,0,0,0-3,1.65c-.65,1.1-.79,2.1-.79,4.8v11.1a14.45,14.45,0,0,0,.54,5,3.46,3.46,0,0,0,3.3,2.14c1.91,0,3.16-1.09,3.71-3.3a18.83,18.83,0,0,0,.3-4.05h5.2v1.15c0,7.26-3.15,11.06-9.15,11.06-3.36,0-6-1.3-7.46-3.7-1.25-2-1.6-4-1.6-9v-9.35c0-5.3.41-7.15,2-9.25s4-3.1,7-3.1c5.71,0,9.06,3.8,9.06,10.35v1Z" fill="#fff"/><path d="M575,164h-5.15V135.38h-6.45v-4.75h18.1v4.75H575Z" fill="#fff"/><path d="M598.18,139.93c-.8-3.3-2.3-5-4.4-5a3.3,3.3,0,0,0-3.35,3.4,5,5,0,0,0,1.4,3.35c.85,1,.85,1,4.4,3.65a27.87,27.87,0,0,1,4.95,4.5,9.74,9.74,0,0,1,2.15,6.1c0,5.06-3.7,8.51-9.15,8.51-5.7,0-9-3.05-10.1-9.41l4.95-1.45c.65,4,2.4,6,5.15,6a3.62,3.62,0,0,0,3.8-3.8c0-2.1-1.05-3.45-5-6.5-4.65-3.65-4.85-3.85-6.1-5.45a9,9,0,0,1-1.85-5.55c0-4.8,3.6-8.2,8.7-8.2,4.75,0,8,2.85,9.35,8.35Z" fill="#fff"/><path d="M633.43,164l-4.3-22.61-4,22.61h-4.8L614,130.63h5l3.8,21.5,4-21.5h4.45l4.4,21.5,3.35-21.5h4.85L638.23,164Z" fill="#fff"/><path d="M653.48,164h-5.15V130.63h5.15Z" fill="#fff"/><path d="M669.18,164H664V135.38h-6.45v-4.75h18.1v4.75h-6.5Z" fill="#fff"/><path d="M684.93,149.28V164h-5.15V130.63h5.15v13.9h7.35v-13.9h5.15V164h-5.15V149.28Z" fill="#fff"/></g></g></svg>