<svg xmlns="http://www.w3.org/2000/svg" viewBox="0 0 970 250"><title>txt2</title><g id="Layer_2" data-name="Layer 2"><g id="Rect"><rect width="970" height="250" fill="none"/></g><g id="YOUR_INTERIOR_PROJECTS" data-name="YOUR INTERIORPROJECTS"><path d="M521.07,114.53h-5.51V100.62l-8-21.78h6.09l4.77,15.09,4.92-15.09h6l-8.24,21.78Z" fill="#fff"/><path d="M551.94,103.19c0,4-.59,6.41-2,8.45-1.6,2.24-4.28,3.42-7.7,3.42s-6.1-1.18-7.7-3.42c-1.45-2-2-4.44-2-8.45v-13c0-4,.59-6.42,2-8.46,1.6-2.24,4.28-3.42,7.7-3.42s6.1,1.18,7.7,3.42c1.45,2,2,4.44,2,8.46Zm-14-.11c0,2.83.16,3.8.7,4.87a4.21,4.21,0,0,0,7.06,0c.59-1.13.7-2,.7-4.87V90.29c0-2.89-.11-3.74-.7-4.87a4.21,4.21,0,0,0-7.06,0c-.54,1.07-.7,2-.7,4.87Z" fill="#fff"/><path d="M576.43,78.84V103c0,4.5-.53,6.8-2,8.83s-4.17,3.21-7.38,3.21-5.89-1.12-7.44-3.21-2-4.33-2-8.83V78.84h5.51v25.09c0,4.23,1.12,5.94,4,5.94s3.9-1.71,3.9-5.94V78.84Z" fill="#fff"/><path d="M587.88,114.53h-5.51V78.84H591c3.26,0,5.35.65,7.06,2.14,2.14,1.82,3.21,4.55,3.21,8.08,0,4.5-1.6,7.6-4.81,9.26l5.24,16.21H595.9l-4.7-14.66h-3.32Zm2-19.74c2.35,0,3.42-.27,4.28-1.13a5.92,5.92,0,0,0,1.34-4.33,5.86,5.86,0,0,0-1.34-4.28c-.86-.86-1.93-1.12-4.28-1.12h-2V94.79Z" fill="#fff"/><path d="M620.61,114.53H615.1V78.84h5.51Z" fill="#fff"/><path d="M646.4,114.53h-4.92l-9.63-23.76v23.76H626.6V78.84h5.57l9,22.21V78.84h5.25Z" fill="#fff"/><path d="M663.19,114.53h-5.51V83.93h-6.9V78.84h19.37v5.09h-7Z" fill="#fff"/><path d="M690.69,83.93H680v9.41h7.86v5.08H680v11h10.65v5.09H674.53V78.84h16.16Z" fill="#fff"/><path d="M700.53,114.53H695V78.84h8.61c3.26,0,5.35.65,7.06,2.14,2.14,1.82,3.21,4.55,3.21,8.08,0,4.5-1.61,7.6-4.82,9.26l5.25,16.21h-5.78l-4.71-14.66h-3.31Zm2-19.74c2.35,0,3.42-.27,4.28-1.13a5.92,5.92,0,0,0,1.34-4.33,5.86,5.86,0,0,0-1.34-4.28c-.86-.86-1.93-1.12-4.28-1.12h-2V94.79Z" fill="#fff"/><path d="M724.76,114.53h-5.51V78.84h5.51Z" fill="#fff"/><path d="M749.84,103.19c0,4-.58,6.41-2,8.45-1.6,2.24-4.28,3.42-7.7,3.42s-6.1-1.18-7.71-3.42c-1.44-2-2-4.44-2-8.45v-13c0-4,.59-6.42,2-8.46,1.61-2.24,4.28-3.42,7.71-3.42s6.1,1.18,7.7,3.42c1.45,2,2,4.44,2,8.46Zm-14-.11c0,2.83.16,3.8.7,4.87a4.21,4.21,0,0,0,7.06,0c.59-1.13.69-2,.69-4.87V90.29c0-2.89-.1-3.74-.69-4.87a4.21,4.21,0,0,0-7.06,0c-.54,1.07-.7,2-.7,4.87Z" fill="#fff"/><path d="M761,114.53h-5.51V78.84h8.61c3.26,0,5.35.65,7.06,2.14,2.14,1.82,3.21,4.55,3.21,8.08,0,4.5-1.6,7.6-4.81,9.26l5.24,16.21H769l-4.7-14.66H761Zm2-19.74c2.35,0,3.42-.27,4.28-1.13a5.92,5.92,0,0,0,1.34-4.33,5.86,5.86,0,0,0-1.34-4.28c-.86-.86-1.93-1.12-4.28-1.12h-2V94.79Z" fill="#fff"/><path d="M514.87,164.77h-5.51V129.09h9.14c3.59,0,5.83.7,7.49,2.3,1.93,1.82,2.84,4.49,2.84,8.29s-.91,6.53-2.84,8.35c-1.66,1.6-3.9,2.3-7.49,2.3h-3.63Zm2.4-19.52c4.44,0,5.83-1.34,5.83-5.57s-1.39-5.51-5.83-5.51h-2.4v11.08Z" fill="#fff"/><path d="M539.1,164.77h-5.51V129.09h8.61c3.26,0,5.35.64,7.06,2.14,2.14,1.82,3.21,4.55,3.21,8.08,0,4.49-1.6,7.6-4.81,9.25l5.24,16.21h-5.78l-4.71-14.65H539.1Zm2-19.74c2.35,0,3.42-.26,4.28-1.12a7.59,7.59,0,0,0,0-8.61c-.86-.86-1.93-1.13-4.28-1.13h-2V145Z" fill="#fff"/><path d="M576.92,153.43c0,4-.59,6.42-2,8.45-1.6,2.25-4.28,3.43-7.7,3.43s-6.1-1.18-7.71-3.43c-1.44-2-2-4.44-2-8.45v-13c0-4,.59-6.42,2-8.45,1.61-2.25,4.28-3.42,7.71-3.42s6.1,1.17,7.7,3.42c1.45,2,2,4.44,2,8.45Zm-14-.1c0,2.83.16,3.79.7,4.86a4.19,4.19,0,0,0,7.06,0c.59-1.12.69-2,.69-4.86V140.54c0-2.89-.1-3.75-.69-4.87a4.21,4.21,0,0,0-7.06,0c-.54,1.07-.7,2-.7,4.87Z" fill="#fff"/><path d="M591.36,129.09v27c0,3.75-.38,5.3-1.56,6.74s-2.83,2-5.56,2h-3.32v-5.19h1.29c2.67,0,3.63-1,3.63-4V129.09Z" fill="#fff"/><path d="M613.5,134.17H602.85v9.42h7.87v5.08h-7.87v11H613.5v5.08H597.34V129.09H613.5Z" fill="#fff"/><path d="M631.52,140.7V140c0-4.12-1.44-6.2-4.17-6.2a3.48,3.48,0,0,0-3.26,1.76c-.7,1.18-.86,2.25-.86,5.14v11.87a15.25,15.25,0,0,0,.59,5.3,3.72,3.72,0,0,0,3.53,2.3c2,0,3.37-1.18,4-3.53a20.23,20.23,0,0,0,.32-4.34h5.57v1.24c0,7.75-3.37,11.82-9.79,11.82-3.59,0-6.42-1.39-8-4-1.33-2.19-1.71-4.28-1.71-9.58v-10c0-5.67.43-7.65,2.09-9.9s4.23-3.31,7.54-3.31c6.1,0,9.68,4.06,9.68,11.07v1.07Z" fill="#fff"/><path d="M653.13,164.77h-5.51v-30.6h-6.9v-5.08h19.37v5.08h-7Z" fill="#fff"/><path d="M678,139c-.85-3.53-2.46-5.29-4.71-5.29a3.53,3.53,0,0,0-3.58,3.63,5.4,5.4,0,0,0,1.5,3.59c.91,1,.91,1,4.71,3.9a29.68,29.68,0,0,1,5.29,4.82,10.38,10.38,0,0,1,2.3,6.52c0,5.41-4,9.1-9.79,9.1-6.1,0-9.68-3.27-10.8-10.06l5.29-1.55c.7,4.28,2.57,6.42,5.51,6.42a3.88,3.88,0,0,0,4.07-4.07c0-2.24-1.13-3.69-5.3-7-5-3.91-5.19-4.12-6.52-5.83a9.65,9.65,0,0,1-2-5.94c0-5.14,3.85-8.77,9.3-8.77,5.09,0,8.51,3.05,10,8.93Z" fill="#fff"/></g></g></svg>