<svg xmlns="http://www.w3.org/2000/svg" viewBox="0 0 970 250"><title>txt3</title><g id="Layer_2" data-name="Layer 2"><g id="Rect"><rect width="970" height="250" fill="none"/></g><g id="with_the_color_richness_of_oil" data-name="with the color  richness of oil"><path d="M528.45,114.53l-4.6-24.18-4.33,24.18h-5.14L507.7,78.84h5.35l4.06,23,4.28-23h4.76l4.71,23,3.59-23h5.18l-6,35.69Z" fill="#fff"/><path d="M549.9,114.53h-5.51V78.84h5.51Z" fill="#fff"/><path d="M566.7,114.53h-5.51V83.93h-6.91V78.84h19.37v5.09H566.7Z" fill="#fff"/><path d="M583.54,98.8v15.73H578V78.84h5.51V93.72h7.87V78.84h5.51v35.69h-5.51V98.8Z" fill="#fff"/><path d="M621.63,114.53h-5.51V83.93h-6.9V78.84h19.36v5.09h-7Z" fill="#fff"/><path d="M638.48,98.8v15.73H633V78.84h5.51V93.72h7.86V78.84h5.51v35.69h-5.51V98.8Z" fill="#fff"/><path d="M673.94,83.93H663.3v9.41h7.86v5.08H663.3v11h10.64v5.09H657.79V78.84h16.15Z" fill="#fff"/><path d="M700.42,90.45V89.7c0-4.12-1.44-6.2-4.17-6.2A3.5,3.5,0,0,0,693,85.26c-.69,1.18-.85,2.25-.85,5.14v11.88a15.19,15.19,0,0,0,.59,5.29,3.7,3.7,0,0,0,3.53,2.3c2,0,3.37-1.17,4-3.53a20.91,20.91,0,0,0,.32-4.33h5.56v1.23c0,7.76-3.37,11.82-9.79,11.82-3.58,0-6.42-1.39-8-4-1.34-2.19-1.71-4.28-1.71-9.57v-10c0-5.67.43-7.65,2.08-9.89s4.23-3.32,7.55-3.32c6.1,0,9.68,4.07,9.68,11.07v1.07Z" fill="#fff"/><path d="M730.53,103.19c0,4-.58,6.41-2,8.45-1.6,2.24-4.28,3.42-7.7,3.42s-6.1-1.18-7.71-3.42c-1.44-2-2-4.44-2-8.45v-13c0-4,.59-6.42,2-8.46,1.61-2.24,4.28-3.42,7.71-3.42s6.1,1.18,7.7,3.42c1.45,2,2,4.44,2,8.46Zm-14-.11c0,2.83.16,3.8.7,4.87a4.21,4.21,0,0,0,7.06,0c.59-1.13.69-2,.69-4.87V90.29c0-2.89-.1-3.74-.69-4.87a4.21,4.21,0,0,0-7.06,0c-.54,1.07-.7,2-.7,4.87Z" fill="#fff"/><path d="M741.66,109.44h11v5.09H736.15V78.84h5.51Z" fill="#fff"/><path d="M776.11,103.19c0,4-.59,6.41-2,8.45-1.6,2.24-4.28,3.42-7.7,3.42s-6.1-1.18-7.7-3.42c-1.45-2-2-4.44-2-8.45v-13c0-4,.59-6.42,2-8.46,1.6-2.24,4.28-3.42,7.7-3.42s6.1,1.18,7.7,3.42c1.45,2,2,4.44,2,8.46Zm-14-.11c0,2.83.16,3.8.7,4.87a4.21,4.21,0,0,0,7.06,0c.59-1.13.7-2,.7-4.87V90.29c0-2.89-.11-3.74-.7-4.87a4.21,4.21,0,0,0-7.06,0c-.54,1.07-.7,2-.7,4.87Z" fill="#fff"/><path d="M787.23,114.53h-5.51V78.84h8.61c3.27,0,5.35.65,7.06,2.14,2.14,1.82,3.21,4.55,3.21,8.08,0,4.5-1.6,7.6-4.81,9.26L801,114.53h-5.78l-4.7-14.66h-3.32Zm2-19.74c2.36,0,3.43-.27,4.28-1.13a5.92,5.92,0,0,0,1.34-4.33,5.86,5.86,0,0,0-1.34-4.28c-.85-.86-1.92-1.12-4.28-1.12h-2V94.79Z" fill="#fff"/><path d="M514.87,164.77h-5.51V129.09H518c3.26,0,5.35.64,7.06,2.14,2.14,1.82,3.21,4.55,3.21,8.08,0,4.49-1.61,7.6-4.82,9.25l5.25,16.21h-5.78l-4.71-14.65h-3.31Zm2-19.74c2.35,0,3.42-.26,4.28-1.12a7.59,7.59,0,0,0,0-8.61c-.86-.86-1.93-1.13-4.28-1.13h-2V145Z" fill="#fff"/><path d="M539.1,164.77h-5.51V129.09h5.51Z" fill="#fff"/><path d="M558.51,140.7V140c0-4.12-1.44-6.2-4.17-6.2a3.48,3.48,0,0,0-3.26,1.76c-.7,1.18-.86,2.25-.86,5.14v11.87a15.25,15.25,0,0,0,.59,5.3,3.71,3.71,0,0,0,3.53,2.3c2,0,3.37-1.18,4-3.53a20.23,20.23,0,0,0,.32-4.34h5.56v1.24c0,7.75-3.37,11.82-9.79,11.82-3.58,0-6.42-1.39-8-4-1.33-2.19-1.71-4.28-1.71-9.58v-10c0-5.67.43-7.65,2.09-9.9s4.22-3.31,7.54-3.31c6.1,0,9.68,4.06,9.68,11.07v1.07Z" fill="#fff"/><path d="M574.88,149v15.73h-5.51V129.09h5.51V144h7.86V129.09h5.51v35.68h-5.51V149Z" fill="#fff"/><path d="M614,164.77h-4.92L599.43,141v23.75h-5.24V129.09h5.56l9,22.2v-22.2H614Z" fill="#fff"/><path d="M636.07,134.17H625.43v9.42h7.86v5.08h-7.86v11h10.64v5.08H619.92V129.09h16.15Z" fill="#fff"/><path d="M654.52,139c-.85-3.53-2.46-5.29-4.7-5.29a3.53,3.53,0,0,0-3.59,3.63,5.4,5.4,0,0,0,1.5,3.59c.91,1,.91,1,4.71,3.9a29.68,29.68,0,0,1,5.29,4.82,10.38,10.38,0,0,1,2.3,6.52c0,5.41-3.95,9.1-9.79,9.1-6.09,0-9.68-3.27-10.8-10.06l5.29-1.55c.7,4.28,2.57,6.42,5.51,6.42a3.88,3.88,0,0,0,4.07-4.07c0-2.24-1.12-3.69-5.3-7-5-3.91-5.18-4.12-6.52-5.83a9.65,9.65,0,0,1-2-5.94c0-5.14,3.85-8.77,9.31-8.77,5.08,0,8.5,3.05,10,8.93Z" fill="#fff"/><path d="M679,139c-.85-3.53-2.46-5.29-4.71-5.29a3.53,3.53,0,0,0-3.58,3.63,5.35,5.35,0,0,0,1.5,3.59c.91,1,.91,1,4.7,3.9a29.84,29.84,0,0,1,5.3,4.82,10.38,10.38,0,0,1,2.3,6.52c0,5.41-4,9.1-9.79,9.1-6.1,0-9.68-3.27-10.8-10.06l5.29-1.55c.7,4.28,2.57,6.42,5.51,6.42a3.88,3.88,0,0,0,4.07-4.07c0-2.24-1.13-3.69-5.3-7-5-3.91-5.19-4.12-6.53-5.83a9.71,9.71,0,0,1-2-5.94c0-5.14,3.86-8.77,9.31-8.77,5.09,0,8.51,3.05,10,8.93Z" fill="#fff"/><path d="M716.73,153.43c0,4-.59,6.42-2,8.45-1.61,2.25-4.28,3.43-7.7,3.43s-6.1-1.18-7.71-3.43c-1.44-2-2-4.44-2-8.45v-13c0-4,.59-6.42,2-8.45,1.61-2.25,4.28-3.42,7.71-3.42s6.09,1.17,7.7,3.42c1.44,2,2,4.44,2,8.45Zm-14-.1c0,2.83.16,3.79.69,4.86a4.2,4.2,0,0,0,7.07,0c.59-1.12.69-2,.69-4.86V140.54c0-2.89-.1-3.75-.69-4.87a4.21,4.21,0,0,0-7.07,0c-.53,1.07-.69,2-.69,4.87Z" fill="#fff"/><path d="M727.86,164.77h-5.51V129.09h16.31v5.08h-10.8v9.63h8v5.08h-8Z" fill="#fff"/><path d="M770.33,153.43c0,4-.59,6.42-2,8.45-1.61,2.25-4.28,3.43-7.71,3.43s-6.1-1.18-7.7-3.43c-1.45-2-2-4.44-2-8.45v-13c0-4,.58-6.42,2-8.45,1.6-2.25,4.28-3.42,7.7-3.42s6.1,1.17,7.71,3.42c1.44,2,2,4.44,2,8.45Zm-14-.1c0,2.83.16,3.79.69,4.86a4.19,4.19,0,0,0,7.06,0c.59-1.12.7-2,.7-4.86V140.54c0-2.89-.11-3.75-.7-4.87a4.21,4.21,0,0,0-7.06,0c-.53,1.07-.69,2-.69,4.87Z" fill="#fff"/><path d="M781.45,164.77h-5.51V129.09h5.51Z" fill="#fff"/><path d="M793,159.69h11v5.08H787.44V129.09H793Z" fill="#fff"/></g></g></svg>