<svg xmlns="http://www.w3.org/2000/svg" viewBox="0 0 970 250"><title>txt3</title><g id="Layer_2" data-name="Layer 2"><g id="Rect"><rect width="970" height="250" fill="none"/></g><g id="The_color_richness_of_oil" data-name="The colorrichness of oil"><path d="M450,120h-5.15V91.38h-6.45V86.63h18.1v4.75H450Z" fill="#fff"/><path d="M465.74,105.28V120h-5.15V86.63h5.15v13.9h7.35V86.63h5.15V120h-5.15V105.28Z" fill="#fff"/><path d="M498.89,91.38h-9.95v8.8h7.35v4.75h-7.35v10.3h9.95V120h-15.1V86.63h15.1Z" fill="#fff"/><path d="M523.64,97.48v-.7c0-3.85-1.35-5.8-3.9-5.8a3.26,3.26,0,0,0-3,1.65c-.65,1.1-.8,2.1-.8,4.8v11.1a14.28,14.28,0,0,0,.55,5,3.46,3.46,0,0,0,3.3,2.16c1.9,0,3.15-1.1,3.7-3.31a18.83,18.83,0,0,0,.3-4h5.2v1.15c0,7.26-3.15,11.06-9.15,11.06-3.35,0-6-1.3-7.45-3.7-1.25-2.06-1.6-4-1.6-9V98.48c0-5.3.4-7.15,2-9.25s3.95-3.1,7-3.1c5.7,0,9,3.8,9,10.35v1Z" fill="#fff"/><path d="M551.79,109.38c0,3.75-.55,6-1.9,7.91-1.5,2.1-4,3.2-7.2,3.2s-5.7-1.1-7.2-3.2c-1.35-1.9-1.9-4.16-1.9-7.91V97.23c0-3.75.55-6,1.9-7.9,1.5-2.1,4-3.2,7.2-3.2s5.7,1.1,7.2,3.2c1.35,1.9,1.9,4.15,1.9,7.9Zm-13-.1c0,2.66.15,3.55.65,4.55a3.91,3.91,0,0,0,6.6,0c.55-1,.65-1.85.65-4.55v-12c0-2.7-.1-3.5-.65-4.55a3.93,3.93,0,0,0-6.6,0c-.5,1-.65,1.9-.65,4.55Z" fill="#fff"/><path d="M562.19,115.23h10.25V120H557V86.63h5.15Z" fill="#fff"/><path d="M594.39,109.38c0,3.75-.55,6-1.9,7.91-1.5,2.1-4,3.2-7.2,3.2s-5.71-1.1-7.21-3.2c-1.35-1.9-1.9-4.16-1.9-7.91V97.23c0-3.75.55-6,1.9-7.9,1.5-2.1,4-3.2,7.21-3.2s5.7,1.1,7.2,3.2c1.35,1.9,1.9,4.15,1.9,7.9Zm-13.06-.1c0,2.66.15,3.55.65,4.55a3.91,3.91,0,0,0,6.6,0c.56-1,.66-1.85.66-4.55v-12c0-2.7-.1-3.5-.66-4.55a3.92,3.92,0,0,0-6.6,0c-.5,1-.65,1.9-.65,4.55Z" fill="#fff"/><path d="M604.78,120h-5.15V86.63h8c3.05,0,5,.6,6.61,2,2,1.7,3,4.25,3,7.55,0,4.2-1.5,7.1-4.5,8.65l4.9,15.16h-5.4l-4.41-13.71h-3.1Zm1.9-18.46c2.2,0,3.2-.25,4-1a5.5,5.5,0,0,0,1.25-4,5.44,5.44,0,0,0-1.25-4c-.8-.8-1.8-1.05-4-1.05h-1.9v10.15Z" fill="#fff"/><path d="M445.74,164h-5.15V130.63h8.05c3.05,0,5,.6,6.6,2,2,1.7,3,4.25,3,7.55,0,4.2-1.5,7.1-4.5,8.65l4.9,15.16h-5.4l-4.4-13.71h-3.1Zm1.9-18.46c2.2,0,3.2-.25,4-1.05a7.11,7.11,0,0,0,0-8c-.8-.8-1.8-1.05-4-1.05h-1.9v10.15Z" fill="#fff"/><path d="M468.39,164h-5.15V130.63h5.15Z" fill="#fff"/><path d="M486.54,141.48v-.7c0-3.85-1.35-5.8-3.9-5.8a3.26,3.26,0,0,0-3.05,1.65c-.65,1.1-.8,2.1-.8,4.8v11.1a14.39,14.39,0,0,0,.55,5,3.46,3.46,0,0,0,3.3,2.14c1.9,0,3.15-1.09,3.7-3.3a18.83,18.83,0,0,0,.3-4.05h5.2v1.15c0,7.26-3.15,11.06-9.15,11.06-3.35,0-6-1.3-7.45-3.7-1.25-2-1.6-4-1.6-9v-9.35c0-5.3.4-7.15,1.95-9.25s4-3.1,7.05-3.1c5.7,0,9.05,3.8,9.05,10.35v1Z" fill="#fff"/><path d="M501.84,149.28V164h-5.15V130.63h5.15v13.9h7.35v-13.9h5.15V164h-5.15V149.28Z" fill="#fff"/><path d="M538.39,164h-4.6l-9-22.21V164h-4.9V130.63h5.2l8.4,20.75V130.63h4.9Z" fill="#fff"/><path d="M559,135.38h-10v8.8h7.36v4.75h-7.36v10.31h10V164H543.93V130.63H559Z" fill="#fff"/><path d="M576.28,139.93c-.8-3.3-2.3-5-4.4-5a3.3,3.3,0,0,0-3.35,3.4,5,5,0,0,0,1.4,3.35c.85,1,.85,1,4.4,3.65a28.42,28.42,0,0,1,5,4.5,9.79,9.79,0,0,1,2.14,6.1c0,5.06-3.7,8.51-9.15,8.51-5.7,0-9-3.05-10.1-9.41l5-1.45c.65,4,2.4,6,5.15,6a3.62,3.62,0,0,0,3.8-3.8c0-2.1-1.05-3.45-5-6.5-4.65-3.65-4.85-3.85-6.1-5.45a9,9,0,0,1-1.85-5.55c0-4.8,3.6-8.2,8.7-8.2,4.75,0,8,2.85,9.35,8.35Z" fill="#fff"/><path d="M599.18,139.93c-.8-3.3-2.3-5-4.4-5a3.3,3.3,0,0,0-3.35,3.4,5,5,0,0,0,1.4,3.35c.85,1,.85,1,4.4,3.65a27.87,27.87,0,0,1,4.95,4.5,9.74,9.74,0,0,1,2.15,6.1c0,5.06-3.7,8.51-9.15,8.51-5.7,0-9-3.05-10.1-9.41l4.95-1.45c.65,4,2.4,6,5.15,6a3.62,3.62,0,0,0,3.8-3.8c0-2.1-1.05-3.45-5-6.5-4.65-3.65-4.85-3.85-6.1-5.45a9,9,0,0,1-1.85-5.55c0-4.8,3.6-8.2,8.7-8.2,4.75,0,8,2.85,9.35,8.35Z" fill="#fff"/><path d="M634.43,153.38c0,3.75-.55,6-1.9,7.91-1.5,2.1-4,3.2-7.2,3.2s-5.7-1.1-7.2-3.2c-1.35-1.91-1.9-4.16-1.9-7.91V141.23c0-3.75.55-6,1.9-7.9,1.5-2.1,4-3.2,7.2-3.2s5.7,1.1,7.2,3.2c1.35,1.9,1.9,4.15,1.9,7.9Zm-13-.09c0,2.64.15,3.54.65,4.54a3.92,3.92,0,0,0,6.6,0c.55-1,.65-1.85.65-4.54v-12c0-2.7-.1-3.5-.65-4.55a3.93,3.93,0,0,0-6.6,0c-.5,1-.65,1.9-.65,4.55Z" fill="#fff"/><path d="M644.83,164h-5.15V130.63h15.25v4.75h-10.1v9h7.5v4.75h-7.5Z" fill="#fff"/><path d="M684.53,153.38c0,3.75-.55,6-1.9,7.91-1.5,2.1-4,3.2-7.2,3.2s-5.7-1.1-7.2-3.2c-1.35-1.91-1.9-4.16-1.9-7.91V141.23c0-3.75.55-6,1.9-7.9,1.5-2.1,4-3.2,7.2-3.2s5.7,1.1,7.2,3.2c1.35,1.9,1.9,4.15,1.9,7.9Zm-13-.09c0,2.64.15,3.54.65,4.54a3.92,3.92,0,0,0,6.6,0c.55-1,.65-1.85.65-4.54v-12c0-2.7-.1-3.5-.65-4.55a3.92,3.92,0,0,0-6.6,0c-.5,1-.65,1.9-.65,4.55Z" fill="#fff"/><path d="M694.93,164h-5.15V130.63h5.15Z" fill="#fff"/><path d="M705.68,159.24h10.25V164h-15.4V130.63h5.15Z" fill="#fff"/></g></g></svg>