<svg xmlns="http://www.w3.org/2000/svg" viewBox="0 0 970 250"><title>txt3</title><g id="Layer_2" data-name="Layer 2"><g id="Rect"><rect width="970" height="250" fill="none"/></g><g id="LESS_MESS_AND..." data-name="LESS MESS AND..."><path d="M514.87,137.45h11v5.08H509.36V106.84h5.51Z" fill="#fff"/><path d="M545.94,111.93H535.3v9.41h7.86v5.08H535.3v11h10.64v5.08H529.79V106.84h16.15Z" fill="#fff"/><path d="M564.4,116.79c-.86-3.53-2.46-5.29-4.71-5.29a3.54,3.54,0,0,0-3.59,3.64,5.37,5.37,0,0,0,1.5,3.58c.91,1,.91,1,4.71,3.91a29.89,29.89,0,0,1,5.3,4.81,10.46,10.46,0,0,1,2.3,6.53c0,5.4-4,9.09-9.79,9.09-6.1,0-9.69-3.26-10.81-10.06l5.3-1.55c.69,4.28,2.56,6.42,5.51,6.42a3.87,3.87,0,0,0,4.06-4.06c0-2.25-1.12-3.69-5.29-7-5-3.9-5.19-4.12-6.53-5.83a9.69,9.69,0,0,1-2-5.94c0-5.13,3.85-8.77,9.31-8.77,5.08,0,8.5,3,10,8.93Z" fill="#fff"/><path d="M588.89,116.79c-.85-3.53-2.46-5.29-4.7-5.29a3.53,3.53,0,0,0-3.59,3.64,5.37,5.37,0,0,0,1.5,3.58c.91,1,.91,1,4.71,3.91a29.73,29.73,0,0,1,5.29,4.81,10.4,10.4,0,0,1,2.3,6.53c0,5.4-3.95,9.09-9.79,9.09-6.1,0-9.68-3.26-10.8-10.06l5.29-1.55c.7,4.28,2.57,6.42,5.51,6.42a3.88,3.88,0,0,0,4.07-4.06c0-2.25-1.12-3.69-5.3-7-5-3.9-5.19-4.12-6.52-5.83a9.63,9.63,0,0,1-2-5.94c0-5.13,3.85-8.77,9.31-8.77,5.08,0,8.5,3,10,8.93Z" fill="#fff"/><path d="M633.45,142.53h-5.24V116.26L622,142.53h-3.1l-6.15-26.27v26.27h-5.24V106.84h8.07l4.93,22.42,5-22.42h8Z" fill="#fff"/><path d="M655.6,111.93H645v9.41h7.86v5.08H645v11H655.6v5.08H639.44V106.84H655.6Z" fill="#fff"/><path d="M674.05,116.79c-.86-3.53-2.46-5.29-4.71-5.29a3.54,3.54,0,0,0-3.59,3.64,5.37,5.37,0,0,0,1.5,3.58c.91,1,.91,1,4.71,3.91a29.89,29.89,0,0,1,5.3,4.81,10.46,10.46,0,0,1,2.3,6.53c0,5.4-4,9.09-9.79,9.09-6.1,0-9.69-3.26-10.81-10.06l5.3-1.55c.69,4.28,2.56,6.42,5.51,6.42a3.87,3.87,0,0,0,4.06-4.06c0-2.25-1.12-3.69-5.29-7-5-3.9-5.19-4.12-6.53-5.83a9.69,9.69,0,0,1-2-5.94c0-5.13,3.85-8.77,9.31-8.77,5.08,0,8.5,3,10,8.93Z" fill="#fff"/><path d="M698.54,116.79c-.85-3.53-2.46-5.29-4.7-5.29a3.53,3.53,0,0,0-3.59,3.64,5.37,5.37,0,0,0,1.5,3.58c.91,1,.91,1,4.71,3.91a29.73,29.73,0,0,1,5.29,4.81,10.4,10.4,0,0,1,2.3,6.53c0,5.4-3.95,9.09-9.79,9.09-6.09,0-9.68-3.26-10.8-10.06l5.29-1.55c.7,4.28,2.57,6.42,5.51,6.42a3.88,3.88,0,0,0,4.07-4.06c0-2.25-1.12-3.69-5.3-7-5-3.9-5.18-4.12-6.52-5.83a9.63,9.63,0,0,1-2-5.94c0-5.13,3.85-8.77,9.31-8.77,5.08,0,8.5,3,10,8.93Z" fill="#fff"/><path d="M722.72,134.77l-1.44,7.76h-5.41l6.85-35.69h7.54l7.23,35.69h-5.67l-1.5-7.76Zm3.75-21.08-2.89,16h5.83Z" fill="#fff"/><path d="M761.61,142.53h-4.92l-9.63-23.76v23.76h-5.24V106.84h5.56l9,22.21V106.84h5.24Z" fill="#fff"/><path d="M767.54,106.84h8.72c7,0,10.33,3.59,10.33,11.19v13.32c0,7.59-3.32,11.18-10.33,11.18h-8.72Zm8.24,30.61c3.91,0,5.3-2,5.3-7.6V119.52c0-5.61-1.39-7.59-5.3-7.59h-2.73v25.52Z" fill="#fff"/><path d="M796.54,142.53h-5.19V136.8h5.19Z" fill="#fff"/><path d="M806.86,142.53h-5.19V136.8h5.19Z" fill="#fff"/><path d="M817.18,142.53H812V136.8h5.19Z" fill="#fff"/></g></g></svg>