<svg xmlns="http://www.w3.org/2000/svg" viewBox="0 0 970 250"><title>txt4</title><g id="Layer_2" data-name="Layer 2"><g id="Rect"><rect width="970" height="250" fill="none"/></g><g id="BUT_WITH_LESS_MESS_AND..." data-name="BUT WITH LESS MESS AND..."><path d="M509.36,83.84h8.23c6.69,0,10.44,3.27,10.44,9,0,4.22-1.88,6.74-5.89,8,4.82,1.39,6.74,3.85,6.74,8.56,0,6.31-4,10.11-10.59,10.11h-8.93Zm7.48,14.56c3.37,0,5.57-2,5.57-5a4.46,4.46,0,0,0-1.34-3.32c-.91-.8-2-1.12-4.12-1.12h-2.08V98.4Zm.81,16c3.53,0,5.51-1.81,5.51-5,0-3.59-2.46-5.94-6.32-5.94h-2v11Z" fill="#fff"/><path d="M553.17,83.84V108c0,4.5-.54,6.8-2,8.83s-4.17,3.21-7.38,3.21-5.88-1.12-7.44-3.21-2-4.33-2-8.83V83.84h5.51v25.09c0,4.23,1.13,5.94,4,5.94s3.91-1.71,3.91-5.94V83.84Z" fill="#fff"/><path d="M570,119.53h-5.51V88.93h-6.9V83.84h19.36v5.09H570Z" fill="#fff"/><path d="M608.31,119.53l-4.6-24.18-4.33,24.18h-5.14l-6.68-35.69h5.35l4.06,23,4.28-23H606l4.71,23,3.58-23h5.19l-6,35.69Z" fill="#fff"/><path d="M629.76,119.53h-5.51V83.84h5.51Z" fill="#fff"/><path d="M646.56,119.53H641V88.93h-6.9V83.84h19.37v5.09h-7Z" fill="#fff"/><path d="M663.4,103.8v15.73h-5.51V83.84h5.51V98.72h7.87V83.84h5.51v35.69h-5.51V103.8Z" fill="#fff"/><path d="M696.94,114.44h11v5.09H691.43V83.84h5.51Z" fill="#fff"/><path d="M728,88.93H717.38v9.41h7.86v5.08h-7.86v11H728v5.09H711.87V83.84H728Z" fill="#fff"/><path d="M746.47,93.79c-.85-3.53-2.46-5.29-4.71-5.29a3.53,3.53,0,0,0-3.58,3.64,5.37,5.37,0,0,0,1.5,3.58c.91,1,.91,1,4.71,3.91a29.73,29.73,0,0,1,5.29,4.81A10.4,10.4,0,0,1,752,111c0,5.4-4,9.09-9.79,9.09-6.1,0-9.68-3.26-10.8-10.06l5.29-1.55c.7,4.28,2.57,6.42,5.51,6.42a3.88,3.88,0,0,0,4.07-4.06c0-2.25-1.13-3.69-5.3-7-5-3.9-5.19-4.12-6.52-5.83a9.63,9.63,0,0,1-2-5.94c0-5.13,3.85-8.77,9.3-8.77,5.09,0,8.51,3,10,8.93Z" fill="#fff"/><path d="M771,93.79c-.86-3.53-2.46-5.29-4.71-5.29a3.53,3.53,0,0,0-3.58,3.64,5.32,5.32,0,0,0,1.5,3.58c.91,1,.91,1,4.7,3.91a29.89,29.89,0,0,1,5.3,4.81,10.46,10.46,0,0,1,2.3,6.53c0,5.4-4,9.09-9.79,9.09-6.1,0-9.68-3.26-10.81-10.06l5.3-1.55c.7,4.28,2.57,6.42,5.51,6.42a3.88,3.88,0,0,0,4.07-4.06c0-2.25-1.13-3.69-5.3-7-5-3.9-5.19-4.12-6.53-5.83a9.69,9.69,0,0,1-2-5.94c0-5.13,3.86-8.77,9.31-8.77,5.08,0,8.51,3,10,8.93Z" fill="#fff"/><path d="M535.3,169.77h-5.24V143.51l-6.21,26.26h-3.1l-6.15-26.26v26.26h-5.24V134.09h8.07l4.93,22.42,5-22.42h8Z" fill="#fff"/><path d="M557.44,139.17H546.8v9.42h7.86v5.08H546.8v11h10.64v5.08H541.29V134.09h16.15Z" fill="#fff"/><path d="M575.9,144c-.86-3.53-2.46-5.29-4.71-5.29a3.53,3.53,0,0,0-3.59,3.63,5.4,5.4,0,0,0,1.5,3.59c.91,1,.91,1,4.71,3.9a29.84,29.84,0,0,1,5.3,4.82,10.44,10.44,0,0,1,2.3,6.52c0,5.41-4,9.1-9.79,9.1-6.1,0-9.69-3.27-10.81-10.06l5.3-1.55c.69,4.28,2.56,6.42,5.51,6.42a3.88,3.88,0,0,0,4.06-4.07c0-2.24-1.12-3.69-5.29-7-5-3.91-5.19-4.12-6.53-5.83a9.71,9.71,0,0,1-2-5.94c0-5.14,3.85-8.77,9.31-8.77,5.08,0,8.5,3.05,10,8.93Z" fill="#fff"/><path d="M600.39,144c-.85-3.53-2.46-5.29-4.7-5.29a3.53,3.53,0,0,0-3.59,3.63,5.4,5.4,0,0,0,1.5,3.59c.91,1,.91,1,4.71,3.9a29.68,29.68,0,0,1,5.29,4.82,10.38,10.38,0,0,1,2.3,6.52c0,5.41-3.95,9.1-9.79,9.1-6.1,0-9.68-3.27-10.8-10.06l5.29-1.55c.7,4.28,2.57,6.42,5.51,6.42a3.88,3.88,0,0,0,4.07-4.07c0-2.24-1.12-3.69-5.3-7-5-3.91-5.19-4.12-6.52-5.83a9.65,9.65,0,0,1-2-5.94c0-5.14,3.85-8.77,9.31-8.77,5.08,0,8.5,3.05,10,8.93Z" fill="#fff"/><path d="M624.57,162l-1.45,7.75h-5.4l6.85-35.68h7.54l7.22,35.68h-5.67L632.17,162Zm3.74-21.08-2.88,16h5.83Z" fill="#fff"/><path d="M663.46,169.77h-4.92L648.91,146v23.75h-5.25V134.09h5.57l9,22.2v-22.2h5.25Z" fill="#fff"/><path d="M669.39,134.09h8.72c7,0,10.33,3.58,10.33,11.18v13.32c0,7.6-3.32,11.18-10.33,11.18h-8.72Zm8.24,30.6c3.91,0,5.3-2,5.3-7.6V146.77c0-5.62-1.39-7.6-5.3-7.6H674.9v25.52Z" fill="#fff"/><path d="M698.38,169.77H693.2v-5.72h5.18Z" fill="#fff"/><path d="M708.71,169.77h-5.19v-5.72h5.19Z" fill="#fff"/><path d="M719,169.77h-5.19v-5.72H719Z" fill="#fff"/></g></g></svg>