<svg xmlns="http://www.w3.org/2000/svg" viewBox="0 0 970 250"><title>txt4</title><g id="Layer_2" data-name="Layer 2"><g id="Rect"><rect width="970" height="250" fill="none"/></g><g id="without_the_cleanup." data-name="without thecleanup."><path d="M458.44,169l-4.3-22.61L450.09,169h-4.8L439,135.63h5l3.8,21.5,4-21.5h4.45l4.4,21.5,3.35-21.5h4.85L463.24,169Z" fill="#fff"/><path d="M478.49,169h-5.15V135.63h5.15Z" fill="#fff"/><path d="M494.19,169H489V140.38h-6.45v-4.75h18.1v4.75h-6.5Z" fill="#fff"/><path d="M509.94,154.28V169h-5.15V135.63h5.15v13.9h7.35v-13.9h5.15V169h-5.15V154.28Z" fill="#fff"/><path d="M545.84,158.38c0,3.75-.55,6-1.9,7.91-1.5,2.1-4,3.2-7.2,3.2s-5.7-1.1-7.2-3.2c-1.35-1.91-1.9-4.16-1.9-7.91V146.23c0-3.75.55-6,1.9-7.9,1.5-2.1,4-3.2,7.2-3.2s5.7,1.1,7.2,3.2c1.35,1.9,1.9,4.15,1.9,7.9Zm-13.05-.09c0,2.64.15,3.54.65,4.54a3.92,3.92,0,0,0,6.6,0c.55-1,.65-1.85.65-4.54v-12c0-2.7-.1-3.5-.65-4.55a3.92,3.92,0,0,0-6.6,0c-.5,1-.65,1.9-.65,4.55Z" fill="#fff"/><path d="M568.74,135.63v22.6c0,4.2-.5,6.35-1.9,8.26s-3.9,3-6.9,3-5.5-1.05-7-3-1.91-4.06-1.91-8.26v-22.6h5.16v23.45c0,4,1,5.55,3.7,5.55s3.65-1.59,3.65-5.55V135.63Z" fill="#fff"/><path d="M584.44,169h-5.15V140.38h-6.46v-4.75h18.11v4.75h-6.5Z" fill="#fff"/><path d="M611.84,169h-5.15V140.38h-6.46v-4.75h18.11v4.75h-6.5Z" fill="#fff"/><path d="M627.58,154.28V169h-5.15V135.63h5.15v13.9h7.36v-13.9h5.15V169h-5.15V154.28Z" fill="#fff"/><path d="M660.74,140.38h-10v8.8h7.35v4.75h-7.35v10.31h10V169H645.63V135.63h15.11Z" fill="#fff"/><path d="M453.14,190.48v-.7c0-3.85-1.35-5.8-3.9-5.8a3.26,3.26,0,0,0-3.05,1.65c-.65,1.1-.8,2.1-.8,4.8v11.1a14.39,14.39,0,0,0,.55,5,3.46,3.46,0,0,0,3.3,2.14c1.9,0,3.15-1.09,3.7-3.3a18.83,18.83,0,0,0,.3-4.05h5.2v1.15c0,7.26-3.15,11.06-9.15,11.06-3.35,0-6-1.3-7.45-3.7-1.25-2-1.6-4-1.6-9v-9.35c0-5.3.4-7.15,1.95-9.25s3.95-3.1,7.05-3.1c5.7,0,9.05,3.8,9.05,10.35v1Z" fill="#fff"/><path d="M468.44,208.24h10.25V213h-15.4V179.63h5.15Z" fill="#fff"/><path d="M497.49,184.38h-9.95v8.8h7.35v4.75h-7.35v10.31h9.95V213h-15.1V179.63h15.1Z" fill="#fff"/><path d="M507.74,205.74,506.39,213h-5.06l6.41-33.36h7L521.54,213h-5.3l-1.4-7.25Zm3.5-19.71L508.54,201H514Z" fill="#fff"/><path d="M544.09,213h-4.6l-9-22.21V213h-4.91V179.63h5.21l8.4,20.75V179.63h4.9Z" fill="#fff"/><path d="M567.29,179.63v22.6c0,4.2-.5,6.35-1.91,8.26s-3.9,3-6.9,3-5.5-1.05-7-3-1.9-4.06-1.9-8.26v-22.6h5.15v23.45c0,4,1.05,5.55,3.7,5.55s3.65-1.59,3.65-5.55V179.63Z" fill="#fff"/><path d="M578,213h-5.15V179.63h8.55c3.36,0,5.45.65,7,2.15,1.8,1.7,2.65,4.2,2.65,7.75s-.85,6.1-2.65,7.8c-1.56,1.5-3.65,2.15-7,2.15H578Zm2.25-18.26c4.15,0,5.46-1.25,5.46-5.2s-1.31-5.15-5.46-5.15H578v10.35Z" fill="#fff"/><path d="M594.93,213h-4.85v-5.36h4.85Z" fill="#fff"/></g></g></svg>