<svg xmlns="http://www.w3.org/2000/svg" viewBox="0 0 970 250"><title>txt5</title><g id="Layer_2" data-name="Layer 2"><g id="Rect"><rect width="970" height="250" fill="none"/></g><g id="THE_BENEFITS_OF_WATER." data-name="THE BENEFITS OF WATER."><path d="M519.41,111.53H513.9V80.93H507V75.84h19.37v5.09h-7Z" fill="#fff"/><path d="M536.26,95.8v15.73h-5.51V75.84h5.51V90.72h7.86V75.84h5.52v35.69h-5.52V95.8Z" fill="#fff"/><path d="M571.73,80.93H561.08v9.41h7.86v5.08h-7.86v11h10.65v5.09H555.57V75.84h16.16Z" fill="#fff"/><path d="M584.78,75.84H593c6.69,0,10.44,3.27,10.44,9,0,4.22-1.88,6.74-5.89,8,4.82,1.39,6.74,3.85,6.74,8.56,0,6.31-4,10.11-10.59,10.11h-8.93Zm7.48,14.56c3.37,0,5.57-2,5.57-5a4.46,4.46,0,0,0-1.34-3.32c-.91-.8-2-1.12-4.12-1.12h-2.08V90.4Zm.81,16c3.53,0,5.51-1.81,5.51-5,0-3.59-2.46-5.94-6.32-5.94h-2v11Z" fill="#fff"/><path d="M625.86,80.93H615.21v9.41h7.87v5.08h-7.87v11h10.65v5.09H609.7V75.84h16.16Z" fill="#fff"/><path d="M650,111.53h-4.92l-9.63-23.76v23.76h-5.24V75.84h5.56l9,22.21V75.84H650Z" fill="#fff"/><path d="M672.07,80.93H661.42v9.41h7.87v5.08h-7.87v11h10.65v5.09H655.92V75.84h16.15Z" fill="#fff"/><path d="M682.34,111.53h-5.51V75.84h16.31v5.09h-10.8v9.63h8v5.08h-8Z" fill="#fff"/><path d="M702.5,111.53H697V75.84h5.51Z" fill="#fff"/><path d="M719.3,111.53h-5.51V80.93h-6.9V75.84h19.36v5.09h-7Z" fill="#fff"/><path d="M744.12,85.79c-.86-3.53-2.46-5.29-4.71-5.29a3.53,3.53,0,0,0-3.58,3.64,5.36,5.36,0,0,0,1.49,3.58c.91,1,.91,1,4.71,3.91a29.89,29.89,0,0,1,5.3,4.81,10.46,10.46,0,0,1,2.3,6.53c0,5.4-4,9.09-9.79,9.09-6.1,0-9.68-3.26-10.81-10.06l5.3-1.55c.69,4.28,2.57,6.42,5.51,6.42a3.87,3.87,0,0,0,4.06-4.06c0-2.25-1.12-3.69-5.29-7-5-3.9-5.19-4.12-6.53-5.83a9.69,9.69,0,0,1-2-5.94c0-5.13,3.85-8.77,9.31-8.77,5.08,0,8.51,3,10,8.93Z" fill="#fff"/><path d="M781.83,100.19c0,4-.59,6.41-2,8.45-1.61,2.24-4.28,3.42-7.71,3.42s-6.1-1.18-7.7-3.42c-1.45-2-2-4.44-2-8.45v-13c0-4,.58-6.42,2-8.46,1.6-2.24,4.28-3.42,7.7-3.42s6.1,1.18,7.71,3.42c1.44,2,2,4.44,2,8.46Zm-14-.11c0,2.83.16,3.8.69,4.87a4.21,4.21,0,0,0,7.06,0c.59-1.13.7-2,.7-4.87V87.29c0-2.89-.11-3.74-.7-4.87a4.21,4.21,0,0,0-7.06,0c-.53,1.07-.69,2-.69,4.87Z" fill="#fff"/><path d="M793,111.53h-5.51V75.84h16.32v5.09H793v9.63h8v5.08h-8Z" fill="#fff"/><path d="M835.42,111.53l-4.6-24.18-4.33,24.18h-5.14l-6.68-35.69H820l4.06,23,4.28-23h4.76l4.71,23,3.59-23h5.19l-6.05,35.69Z" fill="#fff"/><path d="M854.89,103.77l-1.44,7.76H848l6.85-35.69h7.55l7.22,35.69H864l-1.5-7.76Zm3.75-21.08-2.89,16h5.83Z" fill="#fff"/><path d="M882.6,111.53h-5.51V80.93h-6.9V75.84h19.37v5.09h-7Z" fill="#fff"/><path d="M910.1,80.93H899.45v9.41h7.86v5.08h-7.86v11H910.1v5.09H893.94V75.84H910.1Z" fill="#fff"/><path d="M919.94,111.53h-5.51V75.84H923c3.26,0,5.35.65,7.06,2.14,2.14,1.82,3.21,4.55,3.21,8.08,0,4.5-1.6,7.6-4.81,9.26l5.24,16.21H928l-4.71-14.66h-3.31Zm2-19.74c2.35,0,3.42-.27,4.28-1.13a5.92,5.92,0,0,0,1.34-4.33,5.86,5.86,0,0,0-1.34-4.28c-.86-.86-1.93-1.12-4.28-1.12h-2V91.79Z" fill="#fff"/><path d="M943.47,111.53h-5.19V105.8h5.19Z" fill="#fff"/></g></g></svg>