<svg xmlns="http://www.w3.org/2000/svg" viewBox="0 0 123.97 33.84"><title>cta</title><g id="Layer_2" data-name="Layer 2"><g id="Rounded_Rectangle_1" data-name="Rounded Rectangle 1" style="isolation:isolate"><g id="Rounded_Rectangle_1-2" data-name="Rounded Rectangle 1"><path d="M122,2V31.84H2V2H122m0-2H2A2,2,0,0,0,0,2V31.84a2,2,0,0,0,2,2H122a2,2,0,0,0,2-2V2a2,2,0,0,0-2-2Z" fill="#fff"/></g></g><g id="Layer_5" data-name="Layer 5"><polyline points="100.45 10.94 105.8 16.93 100.45 22.94" fill="none" stroke="#fff" stroke-linecap="round" stroke-linejoin="round" stroke-width="2"/><polyline points="107.08 10.94 112.43 16.93 107.08 22.94" fill="none" stroke="#fff" stroke-linecap="round" stroke-linejoin="round" stroke-width="2"/></g><g id="LEARN_MORE" data-name="LEARN MORE"><path d="M12.12,21.31h4v1.84H10.13V10.26h2Z" fill="#fff"/><path d="M23.73,12.1H19.88v3.4h2.84v1.83H19.88v4h3.85v1.84H17.89V10.26h5.84Z" fill="#fff"/><path d="M28.08,20.35l-.53,2.8H25.6l2.48-12.89H30.8l2.61,12.89h-2l-.54-2.8Zm1.35-7.61-1.05,5.77h2.11Z" fill="#fff"/><path d="M37.35,23.15h-2V10.26h3.11A3.58,3.58,0,0,1,41,11,3.62,3.62,0,0,1,42.18,14a3.4,3.4,0,0,1-1.74,3.34l1.89,5.86H40.25l-1.7-5.29h-1.2ZM38.08,16c.85,0,1.24-.1,1.55-.41a2.11,2.11,0,0,0,.48-1.56,2.12,2.12,0,0,0-.48-1.55c-.31-.3-.7-.4-1.55-.4h-.73V16Z" fill="#fff"/><path d="M51.64,23.15H49.87l-3.48-8.58v8.58H44.5V10.26h2l3.24,8v-8h1.89Z" fill="#fff"/><path d="M67.08,23.15H65.19V13.66L63,23.15H61.83L59.6,13.66v9.49H57.71V10.26h2.92l1.77,8.1,1.8-8.1h2.88Z" fill="#fff"/><path d="M76.53,19.05a5,5,0,0,1-.74,3.06,3.76,3.76,0,0,1-5.56,0,5,5,0,0,1-.74-3.06V14.36a4.9,4.9,0,0,1,.74-3,3.74,3.74,0,0,1,5.56,0,4.9,4.9,0,0,1,.74,3Zm-5,0a3.42,3.42,0,0,0,.26,1.76,1.41,1.41,0,0,0,1.27.7,1.43,1.43,0,0,0,1.28-.7A3.35,3.35,0,0,0,74.54,19V14.4a3.35,3.35,0,0,0-.25-1.76,1.43,1.43,0,0,0-1.28-.7,1.41,1.41,0,0,0-1.27.7,3.45,3.45,0,0,0-.26,1.76Z" fill="#fff"/><path d="M80.93,23.15h-2V10.26h3.11A3.35,3.35,0,0,1,85.76,14,3.4,3.4,0,0,1,84,17.29l1.9,5.86H83.83l-1.7-5.29h-1.2ZM81.67,16c.85,0,1.23-.1,1.54-.41a2.11,2.11,0,0,0,.48-1.56,2.12,2.12,0,0,0-.48-1.55c-.31-.3-.69-.4-1.54-.4h-.74V16Z" fill="#fff"/><path d="M93.91,12.1H90.07v3.4h2.84v1.83H90.07v4h3.84v1.84H88.08V10.26h5.83Z" fill="#fff"/></g></g></svg>