<svg xmlns="http://www.w3.org/2000/svg" viewBox="0 0 160 600"><title>txt1</title><g id="Layer_2" data-name="Layer 2"><g id="Rect"><rect width="160" height="600" fill="none"/></g><g id="TODAY_LET_S_STAIN" data-name="TODAYLET’SSTAIN"><path d="M49.23,364.9H45.42V343.73H40.64v-3.51H54v3.51H49.23Z" fill="#fff"/><path d="M70.13,357.05c0,2.78-.41,4.45-1.4,5.85a6.19,6.19,0,0,1-5.33,2.37,6.19,6.19,0,0,1-5.33-2.37c-1-1.4-1.41-3.07-1.41-5.85v-9c0-2.77.41-4.44,1.41-5.84a6.19,6.19,0,0,1,5.33-2.37,6.19,6.19,0,0,1,5.33,2.37c1,1.4,1.4,3.07,1.4,5.84ZM60.47,357c0,2,.11,2.63.49,3.37a2.9,2.9,0,0,0,4.88,0c.41-.78.48-1.37.48-3.37v-8.84c0-2-.07-2.59-.48-3.37a2.9,2.9,0,0,0-4.88,0c-.38.74-.49,1.41-.49,3.37Z" fill="#fff"/><path d="M74,340.22h6c4.84,0,7.14,2.48,7.14,7.73v9.22c0,5.25-2.3,7.73-7.14,7.73H74Zm5.69,21.16c2.71,0,3.67-1.4,3.67-5.25V349c0-3.89-1-5.26-3.67-5.26H77.83v17.65Z" fill="#fff"/><path d="M94.62,359.53l-1,5.37H89.89l4.73-24.68h5.22l5,24.68h-3.92l-1-5.37ZM97.21,345l-2,11.06h4Z" fill="#fff"/><path d="M114.38,364.9h-3.81v-9.62L105,340.22h4.22l3.29,10.43,3.41-10.43h4.14l-5.7,15.06Z" fill="#fff"/><path d="M52.69,396.39h7.58v3.52H48.88V375.23h3.81Z" fill="#fff"/><path d="M74.18,378.74H66.82v6.52h5.44v3.51H66.82v7.62h7.36v3.52H63V375.23H74.18Z" fill="#fff"/><path d="M85.25,399.91H81.43V378.74H76.66v-3.51h13.4v3.51H85.25Z" fill="#fff"/><path d="M96.46,379.19l-2.19,5.1h-1.4l1.63-5.1H92.87v-4h3.59Z" fill="#fff"/><path d="M109.48,382.11c-.59-2.44-1.7-3.66-3.26-3.66a2.44,2.44,0,0,0-2.47,2.51,3.73,3.73,0,0,0,1,2.48c.63.71.63.71,3.26,2.7a20.94,20.94,0,0,1,3.66,3.33,7.23,7.23,0,0,1,1.59,4.52c0,3.74-2.74,6.29-6.77,6.29-4.22,0-6.7-2.26-7.47-7l3.66-1.07c.48,3,1.78,4.44,3.81,4.44a2.68,2.68,0,0,0,2.81-2.81c0-1.56-.77-2.56-3.66-4.81-3.44-2.7-3.59-2.85-4.51-4a6.66,6.66,0,0,1-1.37-4.1c0-3.55,2.66-6.07,6.43-6.07,3.52,0,5.89,2.11,6.92,6.18Z" fill="#fff"/><path d="M55.46,417.12c-.59-2.44-1.7-3.66-3.25-3.66A2.44,2.44,0,0,0,49.73,416a3.73,3.73,0,0,0,1,2.48c.63.71.63.71,3.26,2.7a20.94,20.94,0,0,1,3.66,3.33A7.23,7.23,0,0,1,59.27,429c0,3.74-2.73,6.29-6.77,6.29-4.22,0-6.7-2.26-7.47-7l3.66-1.07c.48,3,1.78,4.44,3.81,4.44a2.68,2.68,0,0,0,2.81-2.81c0-1.56-.77-2.56-3.66-4.81-3.44-2.7-3.59-2.85-4.51-4a6.66,6.66,0,0,1-1.37-4.1c0-3.56,2.66-6.07,6.44-6.07,3.51,0,5.88,2.11,6.91,6.18Z" fill="#fff"/><path d="M69.93,434.92H66.12V413.75H61.34v-3.51h13.4v3.51H69.93Z" fill="#fff"/><path d="M80.07,429.55l-1,5.37H75.33l4.74-24.68h5.21l5,24.68H86.36l-1-5.37ZM82.66,415l-2,11.07h4Z" fill="#fff"/><path d="M97.09,434.92H93.27V410.24h3.82Z" fill="#fff"/><path d="M114.92,434.92h-3.4l-6.66-16.43v16.43h-3.63V410.24h3.85l6.21,15.35V410.24h3.63Z" fill="#fff"/></g></g></svg>