<svg xmlns="http://www.w3.org/2000/svg" viewBox="0 0 160 600"><title>txt1</title><g id="Layer_2" data-name="Layer 2"><g id="Rect"><rect width="160" height="600" fill="none"/></g><g id="Today_Let_s_stain" data-name="TodayLet’s stain"><path d="M54.51,344H51.42V326.83H47.55V324H58.41v2.85h-3.9Z" fill="#fff"/><path d="M71.46,337.63a7.63,7.63,0,0,1-1.14,4.74A5.06,5.06,0,0,1,66,344.29a5.06,5.06,0,0,1-4.32-1.92,7.63,7.63,0,0,1-1.14-4.74v-7.29a7.63,7.63,0,0,1,1.14-4.74A5,5,0,0,1,66,323.68a5,5,0,0,1,4.32,1.92,7.63,7.63,0,0,1,1.14,4.74Zm-7.83-.06A5.52,5.52,0,0,0,64,340.3a2.35,2.35,0,0,0,4,0,5.18,5.18,0,0,0,.39-2.73V330.4a5.18,5.18,0,0,0-.39-2.73,2.35,2.35,0,0,0-4,0,5.52,5.52,0,0,0-.39,2.73Z" fill="#fff"/><path d="M74.61,324H79.5c3.93,0,5.79,2,5.79,6.27v7.47c0,4.26-1.86,6.27-5.79,6.27H74.61Zm4.62,17.16c2.19,0,3-1.14,3-4.26v-5.79c0-3.15-.78-4.26-3-4.26H77.7v14.31Z" fill="#fff"/><path d="M91.32,339.64,90.51,344h-3l3.84-20h4.23l4,20H96.42l-.84-4.35Zm2.1-11.82-1.62,9h3.27Z" fill="#fff"/><path d="M107.34,344h-3.09v-7.8L99.75,324h3.42l2.67,8.46L108.6,324H112l-4.62,12.21Z" fill="#fff"/><path d="M25.33,370.14h6.15V373H22.24V353h3.09Z" fill="#fff"/><path d="M42.76,355.83h-6v5.28H41.2V364H36.79v6.18h6V373H33.7V353h9.06Z" fill="#fff"/><path d="M51.73,373H48.64V355.83H44.77V353H55.63v2.85h-3.9Z" fill="#fff"/><path d="M60.82,356.19l-1.77,4.14H57.91l1.32-4.14H57.91V353h2.91Z" fill="#fff"/><path d="M71.38,358.56c-.48-2-1.38-3-2.64-3a2,2,0,0,0-2,2,3,3,0,0,0,.84,2,14.35,14.35,0,0,0,2.64,2.19,16.72,16.72,0,0,1,3,2.7,5.85,5.85,0,0,1,1.29,3.66c0,3-2.22,5.1-5.49,5.1-3.42,0-5.43-1.83-6.06-5.64l3-.87c.39,2.4,1.44,3.6,3.09,3.6a2.17,2.17,0,0,0,2.28-2.28c0-1.26-.63-2.07-3-3.9-2.79-2.19-2.91-2.31-3.66-3.27a5.42,5.42,0,0,1-1.11-3.33,4.87,4.87,0,0,1,5.22-4.92c2.85,0,4.77,1.71,5.61,5Z" fill="#fff"/><path d="M89.35,358.56c-.48-2-1.38-3-2.64-3a2,2,0,0,0-2,2,3,3,0,0,0,.84,2,14.35,14.35,0,0,0,2.64,2.19,16.72,16.72,0,0,1,3,2.7,5.85,5.85,0,0,1,1.29,3.66c0,3-2.22,5.1-5.49,5.1-3.42,0-5.43-1.83-6.06-5.64l3-.87c.39,2.4,1.44,3.6,3.09,3.6a2.17,2.17,0,0,0,2.28-2.28c0-1.26-.63-2.07-3-3.9-2.79-2.19-2.91-2.31-3.66-3.27a5.42,5.42,0,0,1-1.11-3.33,4.87,4.87,0,0,1,5.22-4.92c2.85,0,4.77,1.71,5.61,5Z" fill="#fff"/><path d="M101.08,373H98V355.83H94.12V353H105v2.85h-3.9Z" fill="#fff"/><path d="M109.3,368.64l-.81,4.35h-3l3.84-20h4.23l4,20H114.4l-.84-4.35Zm2.1-11.82-1.62,9h3.27Z" fill="#fff"/><path d="M123.1,373H120V353h3.09Z" fill="#fff"/><path d="M137.56,373H134.8l-5.4-13.32V373h-2.94V353h3.12l5,12.45V353h2.94Z" fill="#fff"/></g></g></svg>