<svg xmlns="http://www.w3.org/2000/svg" viewBox="0 0 160 600"><title>txt2</title><g id="Layer_2" data-name="Layer 2"><g id="Rect"><rect width="160" height="600" fill="none"/></g><g id="your_interior_projects_with" data-name="yourinteriorprojectswith"><path d="M60.93,344H57.84v-7.8L53.34,324h3.42l2.67,8.46L62.19,324h3.36l-4.62,12.21Z" fill="#fff"/><path d="M78.24,337.63a7.63,7.63,0,0,1-1.14,4.74,5.82,5.82,0,0,1-8.64,0,7.63,7.63,0,0,1-1.14-4.74v-7.29a7.63,7.63,0,0,1,1.14-4.74,5.82,5.82,0,0,1,8.64,0,7.63,7.63,0,0,1,1.14,4.74Zm-7.83-.06a5.52,5.52,0,0,0,.39,2.73,2.35,2.35,0,0,0,4,0,5.18,5.18,0,0,0,.39-2.73V330.4a5.18,5.18,0,0,0-.39-2.73,2.35,2.35,0,0,0-4,0,5.52,5.52,0,0,0-.39,2.73Z" fill="#fff"/><path d="M92,324v13.56c0,2.52-.3,3.81-1.14,4.95a5.7,5.7,0,0,1-8.31,0c-.84-1.14-1.14-2.43-1.14-4.95V324h3.09v14.07c0,2.37.63,3.33,2.22,3.33s2.19-1,2.19-3.33V324Z" fill="#fff"/><path d="M98.4,344H95.31V324h4.83a5.54,5.54,0,0,1,4,1.2,5.64,5.64,0,0,1,1.8,4.53c0,2.52-.9,4.26-2.7,5.19l2.94,9.09H102.9l-2.64-8.22H98.4Zm1.14-11.07c1.32,0,1.92-.15,2.4-.63a4.26,4.26,0,0,0,0-4.83c-.48-.48-1.08-.63-2.4-.63H98.4v6.09Z" fill="#fff"/><path d="M38.56,373H35.47V353h3.09Z" fill="#fff"/><path d="M53,373H50.26l-5.4-13.32V373H41.92V353H45l5,12.45V353H53Z" fill="#fff"/><path d="M62.44,373H59.35V355.83H55.48V353H66.34v2.85h-3.9Z" fill="#fff"/><path d="M77.86,355.83h-6v5.28H76.3V364H71.89v6.18h6V373H68.8V353h9.06Z" fill="#fff"/><path d="M83.38,373H80.29V353h4.83a5.54,5.54,0,0,1,4,1.2,5.64,5.64,0,0,1,1.8,4.53c0,2.52-.9,4.26-2.7,5.19L91.12,373H87.88l-2.64-8.22H83.38Zm1.14-11.07c1.32,0,1.92-.15,2.4-.63a4.26,4.26,0,0,0,0-4.83c-.48-.48-1.08-.63-2.4-.63H83.38v6.09Z" fill="#fff"/><path d="M97,373H93.88V353H97Z" fill="#fff"/><path d="M111,366.63a7.63,7.63,0,0,1-1.14,4.74,5.82,5.82,0,0,1-8.64,0,7.63,7.63,0,0,1-1.14-4.74v-7.29a7.63,7.63,0,0,1,1.14-4.74,5.82,5.82,0,0,1,8.64,0,7.63,7.63,0,0,1,1.14,4.74Zm-7.83-.06a5.52,5.52,0,0,0,.39,2.73,2.35,2.35,0,0,0,4,0,5.18,5.18,0,0,0,.39-2.73V359.4a5.18,5.18,0,0,0-.39-2.73,2.35,2.35,0,0,0-4,0,5.52,5.52,0,0,0-.39,2.73Z" fill="#fff"/><path d="M117.28,373h-3.09V353H119a5.54,5.54,0,0,1,4,1.2,5.64,5.64,0,0,1,1.8,4.53c0,2.52-.9,4.26-2.7,5.19L125,373h-3.24l-2.64-8.22h-1.86Zm1.14-11.07c1.32,0,1.92-.15,2.4-.63a4.26,4.26,0,0,0,0-4.83c-.48-.48-1.08-.63-2.4-.63h-1.14v6.09Z" fill="#fff"/><path d="M34.6,402H31.51V382h5.13c2,0,3.27.39,4.2,1.29a6,6,0,0,1,1.59,4.65c0,2.16-.51,3.66-1.59,4.68s-2.19,1.29-4.2,1.29h-2ZM36,391c2.49,0,3.27-.75,3.27-3.12s-.78-3.09-3.27-3.09H34.6V391Z" fill="#fff"/><path d="M48.19,402H45.1V382h4.83a5.54,5.54,0,0,1,4,1.2,5.64,5.64,0,0,1,1.8,4.53c0,2.52-.9,4.26-2.7,5.19L55.93,402H52.69l-2.64-8.22H48.19Zm1.14-11.07c1.32,0,1.92-.15,2.4-.63a4.26,4.26,0,0,0,0-4.83c-.48-.48-1.08-.63-2.4-.63H48.19v6.09Z" fill="#fff"/><path d="M69.4,395.63a7.63,7.63,0,0,1-1.14,4.74,5.06,5.06,0,0,1-4.32,1.92,5.06,5.06,0,0,1-4.32-1.92,7.63,7.63,0,0,1-1.14-4.74v-7.29a7.63,7.63,0,0,1,1.14-4.74,5,5,0,0,1,4.32-1.92,5,5,0,0,1,4.32,1.92,7.63,7.63,0,0,1,1.14,4.74Zm-7.83-.06A5.52,5.52,0,0,0,62,398.3a2.35,2.35,0,0,0,4,0,5.18,5.18,0,0,0,.39-2.73V388.4a5.18,5.18,0,0,0-.39-2.73,2.35,2.35,0,0,0-4,0,5.52,5.52,0,0,0-.39,2.73Z" fill="#fff"/><path d="M77.5,382V397.1c0,2.1-.21,3-.87,3.78A3.67,3.67,0,0,1,73.51,402H71.65v-2.91h.72c1.5,0,2-.57,2-2.22V382Z" fill="#fff"/><path d="M89.92,384.83H84v5.28h4.41V393H84v6.18h6V402H80.86V382h9.06Z" fill="#fff"/><path d="M100,388.49v-.42c0-2.31-.81-3.48-2.34-3.48a2,2,0,0,0-1.83,1,5.08,5.08,0,0,0-.48,2.88v6.66a8.57,8.57,0,0,0,.33,3,2.08,2.08,0,0,0,2,1.29,2.21,2.21,0,0,0,2.22-2,11.3,11.3,0,0,0,.18-2.43h3.12v.69c0,4.35-1.89,6.63-5.49,6.63a4.94,4.94,0,0,1-4.47-2.22c-.75-1.23-1-2.4-1-5.37v-5.61c0-3.18.24-4.29,1.17-5.55a5,5,0,0,1,4.23-1.86c3.42,0,5.43,2.28,5.43,6.21v.6Z" fill="#fff"/><path d="M112.15,402h-3.09V384.83h-3.87V382h10.86v2.85h-3.9Z" fill="#fff"/><path d="M126.07,387.56c-.48-2-1.38-3-2.64-3a2,2,0,0,0-2,2,3,3,0,0,0,.84,2,14.35,14.35,0,0,0,2.64,2.19,16.72,16.72,0,0,1,3,2.7,5.85,5.85,0,0,1,1.29,3.66c0,3-2.22,5.1-5.49,5.1-3.42,0-5.43-1.83-6.06-5.64l3-.87c.39,2.4,1.44,3.6,3.09,3.6A2.17,2.17,0,0,0,126,397.1c0-1.26-.63-2.07-3-3.9-2.79-2.19-2.91-2.31-3.66-3.27a5.42,5.42,0,0,1-1.11-3.33,4.87,4.87,0,0,1,5.22-4.92c2.85,0,4.77,1.71,5.61,5Z" fill="#fff"/><path d="M66.06,431l-2.58-13.56L61.05,431H58.17l-3.75-20h3l2.28,12.9L62.1,411h2.67l2.64,12.9,2-12.9h2.91l-3.39,20Z" fill="#fff"/><path d="M78.09,431H75V411h3.09Z" fill="#fff"/><path d="M87.51,431H84.42V413.83H80.55V411H91.41v2.85h-3.9Z" fill="#fff"/><path d="M97,422.17V431H93.87V411H97v8.34h4.41V411h3.09v20h-3.09v-8.82Z" fill="#fff"/></g></g></svg>