<svg xmlns="http://www.w3.org/2000/svg" viewBox="0 0 160 600"><title>txt2</title><g id="Layer_2" data-name="Layer 2"><g id="Rect"><rect width="160" height="600" fill="none"/></g><g id="YOUR_INTERIOR_PROJECTS" data-name="YOURINTERIORPROJECTS"><path d="M57.15,364.9H53.33v-9.62l-5.55-15.06H52l3.29,10.43,3.41-10.43h4.14l-5.69,15.06Z" fill="#fff"/><path d="M78.49,357.05c0,2.78-.4,4.45-1.4,5.85a6.19,6.19,0,0,1-5.33,2.37,6.19,6.19,0,0,1-5.33-2.37c-1-1.4-1.4-3.07-1.4-5.85v-9c0-2.77.4-4.44,1.4-5.84a6.19,6.19,0,0,1,5.33-2.37,6.19,6.19,0,0,1,5.33,2.37c1,1.4,1.4,3.07,1.4,5.84ZM68.84,357c0,2,.11,2.63.48,3.37a2.9,2.9,0,0,0,4.88,0c.41-.78.48-1.37.48-3.37v-8.84c0-2-.07-2.59-.48-3.37a2.9,2.9,0,0,0-4.88,0c-.37.74-.48,1.41-.48,3.37Z" fill="#fff"/><path d="M95.44,340.22v16.72c0,3.11-.37,4.7-1.41,6.11a6.11,6.11,0,0,1-5.1,2.22,6.17,6.17,0,0,1-5.15-2.22c-1-1.41-1.4-3-1.4-6.11V340.22h3.81v17.35c0,2.93.78,4.11,2.74,4.11s2.7-1.18,2.7-4.11V340.22Z" fill="#fff"/><path d="M103.36,364.9H99.55V340.22h6a6.84,6.84,0,0,1,4.89,1.48,7,7,0,0,1,2.22,5.59c0,3.1-1.11,5.25-3.33,6.4l3.62,11.21h-4l-3.26-10.14h-2.29Zm1.4-13.65c1.63,0,2.37-.19,3-.78a4.1,4.1,0,0,0,.93-3,4.06,4.06,0,0,0-.93-3c-.59-.59-1.33-.78-3-.78h-1.4v7.52Z" fill="#fff"/><path d="M29.56,399.91H25.75V375.23h3.81Z" fill="#fff"/><path d="M47.4,399.91H44l-6.66-16.43v16.43H33.71V375.23h3.84l6.22,15.35V375.23H47.4Z" fill="#fff"/><path d="M59,399.91H55.2V378.74H50.43v-3.51H63.82v3.51H59Z" fill="#fff"/><path d="M78,378.74H70.67v6.52h5.44v3.51H70.67v7.62H78v3.52H66.86V375.23H78Z" fill="#fff"/><path d="M84.84,399.91H81V375.23h6a6.81,6.81,0,0,1,4.88,1.48,7,7,0,0,1,2.22,5.59c0,3.1-1.11,5.25-3.33,6.4l3.63,11.21h-4l-3.26-10.14H84.84Zm1.41-13.66c1.62,0,2.36-.18,3-.77a4.15,4.15,0,0,0,.92-3,4.1,4.1,0,0,0-.92-3c-.6-.59-1.34-.78-3-.78H84.84v7.51Z" fill="#fff"/><path d="M101.6,399.91H97.79V375.23h3.81Z" fill="#fff"/><path d="M119,392.06c0,2.78-.4,4.44-1.4,5.85a7.18,7.18,0,0,1-10.66,0c-1-1.41-1.41-3.07-1.41-5.85v-9c0-2.77.41-4.44,1.41-5.84a7.18,7.18,0,0,1,10.66,0c1,1.4,1.4,3.07,1.4,5.84Zm-9.66-.07a6.79,6.79,0,0,0,.49,3.37,2.9,2.9,0,0,0,4.88,0c.41-.78.48-1.37.48-3.37v-8.84c0-2-.07-2.59-.48-3.37a2.9,2.9,0,0,0-4.88,0,6.79,6.79,0,0,0-.49,3.37Z" fill="#fff"/><path d="M126.65,399.91h-3.81V375.23h5.95a6.84,6.84,0,0,1,4.89,1.48,7,7,0,0,1,2.22,5.59c0,3.1-1.11,5.25-3.33,6.4l3.62,11.21h-4l-3.26-10.14h-2.29Zm1.4-13.66c1.63,0,2.37-.18,3-.77a4.1,4.1,0,0,0,.93-3,4.06,4.06,0,0,0-.93-3c-.59-.59-1.33-.78-3-.78h-1.4v7.51Z" fill="#fff"/><path d="M24.68,434.92H20.87V410.24h6.32c2.48,0,4,.48,5.19,1.59,1.33,1.26,2,3.11,2,5.73s-.63,4.52-2,5.78c-1.15,1.11-2.71,1.59-5.19,1.59H24.68Zm1.66-13.51c3.08,0,4-.92,4-3.85s-1-3.81-4-3.81H24.68v7.66Z" fill="#fff"/><path d="M41.44,434.92H37.63V410.24h6a6.81,6.81,0,0,1,4.88,1.48,7,7,0,0,1,2.22,5.59c0,3.1-1.11,5.25-3.33,6.4L51,434.92H47l-3.26-10.14H41.44Zm1.41-13.66c1.62,0,2.36-.18,3-.77a4.1,4.1,0,0,0,.92-3,4.06,4.06,0,0,0-.92-3c-.6-.59-1.34-.78-3-.78H41.44v7.51Z" fill="#fff"/><path d="M67.6,427.07c0,2.78-.41,4.44-1.41,5.85a6.22,6.22,0,0,1-5.33,2.37,6.21,6.21,0,0,1-5.32-2.37c-1-1.41-1.41-3.07-1.41-5.85v-9c0-2.77.41-4.44,1.41-5.84a6.19,6.19,0,0,1,5.32-2.37,6.19,6.19,0,0,1,5.33,2.37c1,1.4,1.41,3.07,1.41,5.84ZM57.94,427c0,2,.11,2.63.48,3.37a2.91,2.91,0,0,0,4.89,0c.4-.78.48-1.37.48-3.37v-8.84c0-2-.08-2.59-.48-3.37a2.91,2.91,0,0,0-4.89,0c-.37.74-.48,1.41-.48,3.37Z" fill="#fff"/><path d="M77.59,410.24v18.65c0,2.59-.26,3.66-1.07,4.66s-2,1.37-3.85,1.37h-2.3v-3.59h.89c1.85,0,2.52-.7,2.52-2.74V410.24Z" fill="#fff"/><path d="M92.91,413.75H85.54v6.52H91v3.51H85.54v7.62h7.37v3.52H81.73V410.24H92.91Z" fill="#fff"/><path d="M105.37,418.27v-.52c0-2.85-1-4.29-2.88-4.29a2.41,2.41,0,0,0-2.26,1.22c-.48.81-.59,1.55-.59,3.55v8.22a10.48,10.48,0,0,0,.41,3.66,2.57,2.57,0,0,0,2.44,1.59c1.4,0,2.33-.81,2.74-2.44a14.88,14.88,0,0,0,.22-3h3.85v.85c0,5.37-2.34,8.18-6.78,8.18A6.09,6.09,0,0,1,97,432.55c-.92-1.52-1.18-3-1.18-6.62V419c0-3.92.29-5.29,1.44-6.85a6.18,6.18,0,0,1,5.22-2.29c4.22,0,6.7,2.81,6.7,7.66v.74Z" fill="#fff"/><path d="M120.32,434.92h-3.81V413.75h-4.77v-3.51h13.39v3.51h-4.81Z" fill="#fff"/><path d="M137.49,417.12c-.59-2.44-1.7-3.66-3.26-3.66a2.44,2.44,0,0,0-2.48,2.51,3.69,3.69,0,0,0,1,2.48c.63.71.63.71,3.25,2.7a21.1,21.1,0,0,1,3.67,3.33A7.23,7.23,0,0,1,141.3,429c0,3.74-2.74,6.29-6.77,6.29-4.22,0-6.7-2.26-7.48-7l3.67-1.07c.48,3,1.77,4.44,3.81,4.44a2.68,2.68,0,0,0,2.81-2.81c0-1.56-.78-2.56-3.66-4.81-3.44-2.7-3.59-2.85-4.52-4a6.66,6.66,0,0,1-1.37-4.1c0-3.56,2.67-6.07,6.44-6.07,3.52,0,5.89,2.11,6.92,6.18Z" fill="#fff"/></g></g></svg>