<svg xmlns="http://www.w3.org/2000/svg" viewBox="0 0 160 600"><title>txt2</title><g id="Layer_2" data-name="Layer 2"><g id="Rect"><rect width="160" height="600" fill="none"/></g><g id="WITH_THE_COLOR_RICHNESS_OF_OIL_" data-name="WITH THE COLOR RICHNESS OF OIL,"><path d="M63.47,344.9l-3.18-16.73-3,16.73H53.74l-4.62-24.68h3.7l2.81,15.91,3-15.91h3.29l3.26,15.91,2.48-15.91h3.59L67,344.9Z" fill="#fff"/><path d="M78.31,344.9H74.5V320.22h3.81Z" fill="#fff"/><path d="M89.93,344.9H86.11V323.73H81.34v-3.51h13.4v3.51H89.93Z" fill="#fff"/><path d="M101.58,334V344.9H97.77V320.22h3.81v10.29H107V320.22h3.81V344.9H107V334Z" fill="#fff"/><path d="M22.4,379.91H18.59V358.74H13.82v-3.51H27.21v3.51H22.4Z" fill="#fff"/><path d="M34.06,369v10.88H30.25V355.23h3.81v10.29H39.5V355.23h3.81v24.68H39.5V369Z" fill="#fff"/><path d="M58.59,358.74H51.23v6.52h5.43v3.51H51.23v7.62h7.36v3.52H47.41V355.23H58.59Z" fill="#fff"/><path d="M76.9,363.26v-.52c0-2.85-1-4.29-2.88-4.29a2.41,2.41,0,0,0-2.26,1.22c-.48.81-.59,1.55-.59,3.55v8.22a10.76,10.76,0,0,0,.4,3.66A2.58,2.58,0,0,0,74,376.69c1.4,0,2.33-.81,2.74-2.44a14.88,14.88,0,0,0,.22-3h3.85v.85c0,5.37-2.34,8.18-6.78,8.18a6.08,6.08,0,0,1-5.51-2.74c-.92-1.52-1.18-3-1.18-6.62V364c0-3.92.29-5.29,1.44-6.85A6.18,6.18,0,0,1,74,354.86c4.22,0,6.69,2.81,6.69,7.66v.74Z" fill="#fff"/><path d="M97.73,372.06c0,2.78-.4,4.44-1.4,5.85a7.18,7.18,0,0,1-10.66,0c-1-1.41-1.41-3.07-1.41-5.85v-9c0-2.77.41-4.44,1.41-5.84a7.18,7.18,0,0,1,10.66,0c1,1.4,1.4,3.07,1.4,5.84ZM88.08,372c0,2,.11,2.63.48,3.37a2.9,2.9,0,0,0,4.88,0c.41-.78.48-1.37.48-3.37v-8.84c0-2-.07-2.59-.48-3.37a2.9,2.9,0,0,0-4.88,0c-.37.74-.48,1.41-.48,3.37Z" fill="#fff"/><path d="M105.43,376.39H113v3.52H101.62V355.23h3.81Z" fill="#fff"/><path d="M129.26,372.06c0,2.78-.41,4.44-1.41,5.85a7.18,7.18,0,0,1-10.66,0c-1-1.41-1.4-3.07-1.4-5.85v-9c0-2.77.41-4.44,1.4-5.84a7.18,7.18,0,0,1,10.66,0c1,1.4,1.41,3.07,1.41,5.84ZM119.6,372c0,2,.11,2.63.48,3.37a2.9,2.9,0,0,0,4.88,0c.41-.78.49-1.37.49-3.37v-8.84c0-2-.08-2.59-.49-3.37a2.9,2.9,0,0,0-4.88,0c-.37.74-.48,1.41-.48,3.37Z" fill="#fff"/><path d="M137,379.91h-3.81V355.23h6c2.26,0,3.7.44,4.88,1.48a7,7,0,0,1,2.22,5.59c0,3.1-1.11,5.25-3.33,6.4l3.63,11.21h-4l-3.25-10.14H137Zm1.41-13.66c1.63,0,2.37-.18,3-.77a4.1,4.1,0,0,0,.92-3,4.06,4.06,0,0,0-.92-3c-.59-.59-1.33-.78-3-.78H137v7.51Z" fill="#fff"/><path d="M24.31,414.92H20.5V390.24h6a6.81,6.81,0,0,1,4.88,1.48,7,7,0,0,1,2.22,5.59c0,3.1-1.11,5.25-3.33,6.4l3.63,11.21h-4L26.6,404.78H24.31Zm1.4-13.66c1.63,0,2.37-.18,3-.77a4.1,4.1,0,0,0,.93-3,4.06,4.06,0,0,0-.93-3c-.59-.59-1.33-.78-3-.78h-1.4v7.51Z" fill="#fff"/><path d="M41.07,414.92H37.26V390.24h3.81Z" fill="#fff"/><path d="M54.5,398.27v-.52c0-2.85-1-4.29-2.89-4.29a2.39,2.39,0,0,0-2.25,1.22c-.48.81-.59,1.55-.59,3.55v8.22a10.8,10.8,0,0,0,.4,3.66,2.57,2.57,0,0,0,2.44,1.59c1.41,0,2.34-.81,2.74-2.44a13.45,13.45,0,0,0,.22-3h3.85v.85c0,5.37-2.33,8.18-6.77,8.18a6.08,6.08,0,0,1-5.51-2.74c-.93-1.52-1.19-3-1.19-6.62V399c0-3.92.3-5.29,1.45-6.85a6.17,6.17,0,0,1,5.21-2.29c4.22,0,6.7,2.81,6.7,7.66v.74Z" fill="#fff"/><path d="M65.82,404v10.88H62V390.24h3.81v10.29h5.44V390.24h3.81v24.68H71.26V404Z" fill="#fff"/><path d="M92.87,414.92H89.46L82.8,398.49v16.43H79.18V390.24H83l6.21,15.35V390.24h3.63Z" fill="#fff"/><path d="M108.15,393.75h-7.36v6.52h5.44v3.51h-5.44v7.62h7.36v3.52H97V390.24h11.18Z" fill="#fff"/><path d="M120.91,397.12c-.59-2.44-1.7-3.66-3.25-3.66a2.44,2.44,0,0,0-2.48,2.51,3.73,3.73,0,0,0,1,2.48c.63.71.63.71,3.26,2.7a20.94,20.94,0,0,1,3.66,3.33,7.23,7.23,0,0,1,1.59,4.52c0,3.74-2.73,6.29-6.77,6.29-4.22,0-6.69-2.26-7.47-7l3.66-1.07c.48,3,1.78,4.44,3.81,4.44a2.68,2.68,0,0,0,2.81-2.81c0-1.56-.77-2.56-3.66-4.81-3.44-2.7-3.59-2.85-4.51-4a6.66,6.66,0,0,1-1.37-4.1c0-3.56,2.66-6.07,6.44-6.07,3.51,0,5.88,2.11,6.92,6.18Z" fill="#fff"/><path d="M137.86,397.12c-.59-2.44-1.7-3.66-3.26-3.66a2.44,2.44,0,0,0-2.48,2.51,3.69,3.69,0,0,0,1,2.48c.63.71.63.71,3.26,2.7a21.33,21.33,0,0,1,3.66,3.33,7.23,7.23,0,0,1,1.59,4.52c0,3.74-2.74,6.29-6.77,6.29-4.22,0-6.7-2.26-7.48-7l3.67-1.07c.48,3,1.77,4.44,3.81,4.44a2.68,2.68,0,0,0,2.81-2.81c0-1.56-.78-2.56-3.66-4.81-3.44-2.7-3.59-2.85-4.52-4a6.66,6.66,0,0,1-1.37-4.1c0-3.56,2.67-6.07,6.44-6.07,3.52,0,5.89,2.11,6.92,6.18Z" fill="#fff"/><path d="M54,442.08c0,2.78-.4,4.44-1.4,5.85a6.22,6.22,0,0,1-5.33,2.37,6.22,6.22,0,0,1-5.33-2.37c-1-1.41-1.4-3.07-1.4-5.85v-9c0-2.77.4-4.44,1.4-5.84a6.19,6.19,0,0,1,5.33-2.37,6.19,6.19,0,0,1,5.33,2.37c1,1.4,1.4,3.07,1.4,5.84ZM44.31,442c0,2,.11,2.63.48,3.37a2.9,2.9,0,0,0,4.88,0c.41-.78.48-1.37.48-3.37v-8.84c0-2-.07-2.59-.48-3.37a2.9,2.9,0,0,0-4.88,0c-.37.74-.48,1.41-.48,3.37Z" fill="#fff"/><path d="M61.66,449.93H57.85V425.25H69.13v3.51H61.66v6.66h5.55v3.52H61.66Z" fill="#fff"/><path d="M91,442.08c0,2.78-.41,4.44-1.41,5.85a6.22,6.22,0,0,1-5.33,2.37A6.22,6.22,0,0,1,79,447.93c-1-1.41-1.4-3.07-1.4-5.85v-9c0-2.77.41-4.44,1.4-5.84a6.19,6.19,0,0,1,5.33-2.37,6.19,6.19,0,0,1,5.33,2.37c1,1.4,1.41,3.07,1.41,5.84ZM81.38,442c0,2,.11,2.63.48,3.37a2.91,2.91,0,0,0,4.89,0c.4-.78.48-1.37.48-3.37v-8.84c0-2-.08-2.59-.48-3.37a2.91,2.91,0,0,0-4.89,0c-.37.74-.48,1.41-.48,3.37Z" fill="#fff"/><path d="M98.73,449.93H94.92V425.25h3.81Z" fill="#fff"/><path d="M106.69,446.41h7.58v3.52H102.88V425.25h3.81Z" fill="#fff"/><path d="M120.78,449.93,118.6,455h-1.41l1.63-5.11h-1.63v-4h3.59Z" fill="#fff"/></g></g></svg>