<svg xmlns="http://www.w3.org/2000/svg" viewBox="0 0 160 600"><title>txt3</title><g id="Layer_2" data-name="Layer 2"><g id="Rect"><rect width="160" height="600" fill="none"/></g><g id="the_color_richness_of_oil" data-name="the colorrichnessof oil"><path d="M32.76,344H29.67V326.83H25.8V324H36.66v2.85h-3.9Z" fill="#fff"/><path d="M42.21,335.17V344H39.12V324h3.09v8.34h4.41V324h3.09v20H46.62v-8.82Z" fill="#fff"/><path d="M62.1,326.83h-6v5.28h4.41V335H56.13v6.18h6V344H53V324H62.1Z" fill="#fff"/><path d="M77,330.49v-.42c0-2.31-.81-3.48-2.34-3.48a2,2,0,0,0-1.83,1,5.08,5.08,0,0,0-.48,2.88v6.66a8.57,8.57,0,0,0,.33,3,2.08,2.08,0,0,0,2,1.29,2.21,2.21,0,0,0,2.22-2A11.3,11.3,0,0,0,77,337h3.12v.69c0,4.35-1.89,6.63-5.49,6.63a4.94,4.94,0,0,1-4.47-2.22c-.75-1.23-1-2.4-1-5.37v-5.61c0-3.18.24-4.29,1.17-5.55a5,5,0,0,1,4.23-1.86C78,323.68,80,326,80,329.89v.6Z" fill="#fff"/><path d="M93.84,337.63a7.63,7.63,0,0,1-1.14,4.74,5.82,5.82,0,0,1-8.64,0,7.63,7.63,0,0,1-1.14-4.74v-7.29a7.63,7.63,0,0,1,1.14-4.74,5.82,5.82,0,0,1,8.64,0,7.63,7.63,0,0,1,1.14,4.74ZM86,337.57a5.52,5.52,0,0,0,.39,2.73,2.35,2.35,0,0,0,4,0,5.18,5.18,0,0,0,.39-2.73V330.4a5.18,5.18,0,0,0-.39-2.73,2.36,2.36,0,0,0-4,0A5.52,5.52,0,0,0,86,330.4Z" fill="#fff"/><path d="M100.08,341.14h6.15V344H97V324h3.09Z" fill="#fff"/><path d="M119.4,337.63a7.63,7.63,0,0,1-1.14,4.74,5.82,5.82,0,0,1-8.64,0,7.63,7.63,0,0,1-1.14-4.74v-7.29a7.63,7.63,0,0,1,1.14-4.74,5.82,5.82,0,0,1,8.64,0,7.63,7.63,0,0,1,1.14,4.74Zm-7.83-.06a5.52,5.52,0,0,0,.39,2.73,2.35,2.35,0,0,0,4,0,5.18,5.18,0,0,0,.39-2.73V330.4a5.18,5.18,0,0,0-.39-2.73,2.36,2.36,0,0,0-4,0,5.52,5.52,0,0,0-.39,2.73Z" fill="#fff"/><path d="M125.64,344h-3.09V324h4.83a5.5,5.5,0,0,1,4,1.2,5.61,5.61,0,0,1,1.8,4.53c0,2.52-.89,4.26-2.69,5.19l2.94,9.09h-3.25l-2.63-8.22h-1.86Zm1.14-11.07c1.32,0,1.92-.15,2.4-.63a4.31,4.31,0,0,0,0-4.83c-.48-.48-1.08-.63-2.4-.63h-1.14v6.09Z" fill="#fff"/><path d="M34.3,373H31.21V353H36a5.54,5.54,0,0,1,4,1.2,5.64,5.64,0,0,1,1.8,4.53c0,2.52-.9,4.26-2.7,5.19L42,373H38.8l-2.64-8.22H34.3Zm1.14-11.07c1.32,0,1.92-.15,2.4-.63a4.26,4.26,0,0,0,0-4.83c-.48-.48-1.08-.63-2.4-.63H34.3v6.09Z" fill="#fff"/><path d="M47.89,373H44.8V353h3.09Z" fill="#fff"/><path d="M58.78,359.49v-.42c0-2.31-.81-3.48-2.34-3.48a2,2,0,0,0-1.83,1,5.08,5.08,0,0,0-.48,2.88v6.66a8.57,8.57,0,0,0,.33,3,2.08,2.08,0,0,0,2,1.29,2.21,2.21,0,0,0,2.22-2,11.3,11.3,0,0,0,.18-2.43H62v.69c0,4.35-1.89,6.63-5.49,6.63A4.94,4.94,0,0,1,52,371.07c-.75-1.23-1-2.4-1-5.37v-5.61c0-3.18.24-4.29,1.17-5.55a5,5,0,0,1,4.23-1.86c3.42,0,5.43,2.28,5.43,6.21v.6Z" fill="#fff"/><path d="M68,364.17V373H64.87V353H68v8.34h4.41V353h3.09v20H72.37v-8.82Z" fill="#fff"/><path d="M89.89,373H87.13l-5.4-13.32V373H78.79V353h3.12l5,12.45V353h2.94Z" fill="#fff"/><path d="M102.28,355.83h-6v5.28h4.41V364H96.31v6.18h6V373H93.22V353h9.06Z" fill="#fff"/><path d="M112.63,358.56c-.48-2-1.38-3-2.64-3a2,2,0,0,0-2,2,3,3,0,0,0,.84,2,14.35,14.35,0,0,0,2.64,2.19,16.72,16.72,0,0,1,3,2.7,5.85,5.85,0,0,1,1.29,3.66c0,3-2.22,5.1-5.49,5.1-3.42,0-5.43-1.83-6.06-5.64l3-.87c.39,2.4,1.44,3.6,3.09,3.6a2.17,2.17,0,0,0,2.28-2.28c0-1.26-.63-2.07-3-3.9-2.79-2.19-2.91-2.31-3.66-3.27a5.42,5.42,0,0,1-1.11-3.33,4.87,4.87,0,0,1,5.22-4.92c2.85,0,4.77,1.71,5.61,5Z" fill="#fff"/><path d="M126.37,358.56c-.48-2-1.38-3-2.64-3a2,2,0,0,0-2,2,3,3,0,0,0,.84,2,14.35,14.35,0,0,0,2.64,2.19,16.72,16.72,0,0,1,3,2.7,5.85,5.85,0,0,1,1.29,3.66c0,3-2.22,5.1-5.49,5.1-3.42,0-5.43-1.83-6.06-5.64l3-.87c.39,2.4,1.44,3.6,3.09,3.6a2.17,2.17,0,0,0,2.28-2.28c0-1.26-.63-2.07-3-3.9-2.79-2.19-2.91-2.31-3.66-3.27a5.42,5.42,0,0,1-1.11-3.33,4.87,4.87,0,0,1,5.22-4.92c2.85,0,4.77,1.71,5.61,5Z" fill="#fff"/><path d="M61.36,395.63a7.63,7.63,0,0,1-1.14,4.74,5.06,5.06,0,0,1-4.32,1.92,5.06,5.06,0,0,1-4.32-1.92,7.63,7.63,0,0,1-1.14-4.74v-7.29a7.63,7.63,0,0,1,1.14-4.74,5,5,0,0,1,4.32-1.92,5,5,0,0,1,4.32,1.92,7.63,7.63,0,0,1,1.14,4.74Zm-7.83-.06a5.52,5.52,0,0,0,.39,2.73,2.35,2.35,0,0,0,4,0,5.18,5.18,0,0,0,.39-2.73V388.4a5.18,5.18,0,0,0-.39-2.73,2.35,2.35,0,0,0-4,0,5.52,5.52,0,0,0-.39,2.73Z" fill="#fff"/><path d="M67.6,402H64.51V382h9.15v2.85H67.6v5.4h4.5v2.85H67.6Z" fill="#fff"/><path d="M91.42,395.63a7.63,7.63,0,0,1-1.14,4.74,5.82,5.82,0,0,1-8.64,0,7.63,7.63,0,0,1-1.14-4.74v-7.29a7.63,7.63,0,0,1,1.14-4.74,5.82,5.82,0,0,1,8.64,0,7.63,7.63,0,0,1,1.14,4.74Zm-7.83-.06A5.52,5.52,0,0,0,84,398.3a2.35,2.35,0,0,0,4,0,5.18,5.18,0,0,0,.39-2.73V388.4a5.18,5.18,0,0,0-.39-2.73,2.36,2.36,0,0,0-4,0,5.52,5.52,0,0,0-.39,2.73Z" fill="#fff"/><path d="M97.66,402H94.57V382h3.09Z" fill="#fff"/><path d="M104.11,399.14h6.15V402H101V382h3.09Z" fill="#fff"/></g></g></svg>