<svg xmlns="http://www.w3.org/2000/svg" viewBox="0 0 160 600"><title>txt3</title><g id="Layer_2" data-name="Layer 2"><g id="Rect"><rect width="160" height="600" fill="none"/></g><g id="LESS_MESS_AND..." data-name="LESSMESSAND..."><path d="M55.48,361.38h7.59v3.52H51.67V340.22h3.81Z" fill="#fff"/><path d="M77,343.73H69.61v6.52h5.44v3.51H69.61v7.62H77v3.52H65.8V340.22H77Z" fill="#fff"/><path d="M89.74,347.1c-.59-2.44-1.7-3.66-3.25-3.66A2.44,2.44,0,0,0,84,346a3.73,3.73,0,0,0,1,2.48c.63.71.63.71,3.26,2.7A20.94,20.94,0,0,1,92,354.46,7.23,7.23,0,0,1,93.55,359c0,3.74-2.74,6.29-6.77,6.29-4.22,0-6.7-2.26-7.47-7L83,357.24c.48,3,1.78,4.44,3.81,4.44a2.68,2.68,0,0,0,2.81-2.81c0-1.56-.77-2.56-3.66-4.81-3.44-2.7-3.59-2.85-4.51-4a6.66,6.66,0,0,1-1.37-4.1c0-3.55,2.66-6.07,6.44-6.07,3.51,0,5.88,2.11,6.91,6.18Z" fill="#fff"/><path d="M106.69,347.1c-.6-2.44-1.71-3.66-3.26-3.66A2.44,2.44,0,0,0,101,346a3.69,3.69,0,0,0,1,2.48c.63.71.63.71,3.25,2.7a21.1,21.1,0,0,1,3.67,3.33A7.23,7.23,0,0,1,110.5,359c0,3.74-2.74,6.29-6.77,6.29-4.22,0-6.7-2.26-7.48-7l3.67-1.07c.48,3,1.77,4.44,3.81,4.44a2.68,2.68,0,0,0,2.81-2.81c0-1.56-.78-2.56-3.66-4.81-3.45-2.7-3.59-2.85-4.52-4a6.66,6.66,0,0,1-1.37-4.1c0-3.55,2.67-6.07,6.44-6.07,3.52,0,5.88,2.11,6.92,6.18Z" fill="#fff"/><path d="M65.64,399.91H62V381.74l-4.29,18.17H55.57l-4.25-18.17v18.17H47.69V375.23h5.59l3.4,15.5,3.44-15.5h5.52Z" fill="#fff"/><path d="M81,378.74H73.59v6.52H79v3.51H73.59v7.62H81v3.52H69.78V375.23H81Z" fill="#fff"/><path d="M93.72,382.11c-.59-2.44-1.7-3.66-3.26-3.66A2.44,2.44,0,0,0,88,381a3.69,3.69,0,0,0,1,2.48c.63.71.63.71,3.26,2.7a21.33,21.33,0,0,1,3.66,3.33A7.23,7.23,0,0,1,97.53,394c0,3.74-2.74,6.29-6.77,6.29-4.22,0-6.7-2.26-7.48-7L87,392.25c.48,3,1.77,4.44,3.81,4.44a2.68,2.68,0,0,0,2.81-2.81c0-1.56-.78-2.56-3.66-4.81-3.44-2.7-3.59-2.85-4.52-4a6.66,6.66,0,0,1-1.37-4.1c0-3.55,2.67-6.07,6.44-6.07,3.52,0,5.89,2.11,6.92,6.18Z" fill="#fff"/><path d="M110.66,382.11c-.59-2.44-1.7-3.66-3.25-3.66a2.44,2.44,0,0,0-2.48,2.51,3.73,3.73,0,0,0,1,2.48c.63.71.63.71,3.26,2.7a20.94,20.94,0,0,1,3.66,3.33,7.24,7.24,0,0,1,1.6,4.52c0,3.74-2.74,6.29-6.78,6.29-4.21,0-6.69-2.26-7.47-7l3.66-1.07c.48,3,1.78,4.44,3.81,4.44a2.69,2.69,0,0,0,2.82-2.81c0-1.56-.78-2.56-3.67-4.81-3.44-2.7-3.59-2.85-4.51-4a6.66,6.66,0,0,1-1.37-4.1c0-3.55,2.66-6.07,6.44-6.07,3.51,0,5.88,2.11,6.92,6.18Z" fill="#fff"/><path d="M50,429.55l-1,5.37H45.29L50,410.24h5.22l5,24.68H56.31l-1-5.37ZM52.61,415l-2,11.07h4Z" fill="#fff"/><path d="M76.92,434.92h-3.4l-6.66-16.43v16.43H63.23V410.24h3.85l6.22,15.35V410.24h3.62Z" fill="#fff"/><path d="M81,410.24h6c4.85,0,7.14,2.48,7.14,7.73v9.22c0,5.25-2.29,7.73-7.14,7.73H81Zm5.7,21.16c2.7,0,3.66-1.4,3.66-5.25V419c0-3.89-1-5.26-3.66-5.26H84.84V431.4Z" fill="#fff"/><path d="M101.08,434.92H97.49v-4h3.59Z" fill="#fff"/><path d="M108.22,434.92h-3.59v-4h3.59Z" fill="#fff"/><path d="M115.36,434.92h-3.59v-4h3.59Z" fill="#fff"/></g></g></svg>