<svg xmlns="http://www.w3.org/2000/svg" viewBox="0 0 160 600"><title>txt4</title><g id="Layer_2" data-name="Layer 2"><g id="Rect"><rect width="160" height="600" fill="none"/></g><g id="BUT_WITH_LESS_MESS_AND..." data-name="BUT WITHLESS MESSAND..."><path d="M22.64,340.22h5.7c4.63,0,7.22,2.26,7.22,6.25A5.18,5.18,0,0,1,31.49,352c3.33,1,4.66,2.66,4.66,5.92,0,4.36-2.74,7-7.33,7H22.64Zm5.18,10.06c2.33,0,3.85-1.37,3.85-3.48a3.1,3.1,0,0,0-.92-2.29,4,4,0,0,0-2.85-.78H26.45v6.55Zm.56,11.1c2.44,0,3.81-1.25,3.81-3.47,0-2.48-1.7-4.11-4.37-4.11H26.45v7.58Z" fill="#fff"/><path d="M53,340.22v16.72c0,3.11-.37,4.7-1.41,6.11a6.13,6.13,0,0,1-5.11,2.22,6.15,6.15,0,0,1-5.14-2.22c-1-1.41-1.41-3-1.41-6.11V340.22H43.7v17.35c0,2.93.77,4.11,2.73,4.11s2.7-1.18,2.7-4.11V340.22Z" fill="#fff"/><path d="M64.56,364.9H60.75V343.73H56v-3.51H69.37v3.51H64.56Z" fill="#fff"/><path d="M91.09,364.9l-3.18-16.73-3,16.73H81.36l-4.62-24.68h3.7l2.81,15.91,3-15.91H89.5l3.26,15.91,2.48-15.91h3.59L94.65,364.9Z" fill="#fff"/><path d="M105.93,364.9h-3.81V340.22h3.81Z" fill="#fff"/><path d="M117.55,364.9h-3.81V343.73H109v-3.51h13.4v3.51h-4.81Z" fill="#fff"/><path d="M129.2,354V364.9h-3.81V340.22h3.81v10.29h5.44V340.22h3.81V364.9h-3.81V354Z" fill="#fff"/><path d="M17.56,396.39h7.58v3.52H13.75V375.23h3.81Z" fill="#fff"/><path d="M39.05,378.74H31.69v6.52h5.44v3.51H31.69v7.62h7.36v3.52H27.88V375.23H39.05Z" fill="#fff"/><path d="M51.82,382.11c-.59-2.44-1.7-3.66-3.26-3.66A2.44,2.44,0,0,0,46.08,381a3.69,3.69,0,0,0,1,2.48c.63.71.63.71,3.25,2.7A21.1,21.1,0,0,1,54,389.47,7.23,7.23,0,0,1,55.63,394c0,3.74-2.74,6.29-6.77,6.29-4.22,0-6.7-2.26-7.48-7l3.67-1.07c.48,3,1.77,4.44,3.81,4.44a2.68,2.68,0,0,0,2.81-2.81c0-1.56-.78-2.56-3.66-4.81-3.45-2.7-3.59-2.85-4.52-4a6.66,6.66,0,0,1-1.37-4.1c0-3.55,2.67-6.07,6.44-6.07,3.52,0,5.88,2.11,6.92,6.18Z" fill="#fff"/><path d="M68.76,382.11c-.59-2.44-1.7-3.66-3.25-3.66A2.44,2.44,0,0,0,63,381a3.73,3.73,0,0,0,1,2.48c.63.71.63.71,3.26,2.7A20.94,20.94,0,0,1,71,389.47,7.23,7.23,0,0,1,72.57,394c0,3.74-2.73,6.29-6.77,6.29-4.22,0-6.7-2.26-7.47-7L62,392.25c.48,3,1.78,4.44,3.81,4.44a2.68,2.68,0,0,0,2.81-2.81c0-1.56-.77-2.56-3.66-4.81-3.44-2.7-3.59-2.85-4.51-4a6.66,6.66,0,0,1-1.37-4.1c0-3.55,2.66-6.07,6.44-6.07,3.51,0,5.88,2.11,6.92,6.18Z" fill="#fff"/><path d="M99.58,399.91H96V381.74l-4.29,18.17H89.52l-4.26-18.17v18.17H81.64V375.23h5.59l3.4,15.5,3.44-15.5h5.51Z" fill="#fff"/><path d="M114.9,378.74h-7.36v6.52H113v3.51h-5.44v7.62h7.36v3.52H103.73V375.23H114.9Z" fill="#fff"/><path d="M127.67,382.11c-.6-2.44-1.71-3.66-3.26-3.66a2.44,2.44,0,0,0-2.48,2.51,3.69,3.69,0,0,0,1,2.48c.62.71.62.71,3.25,2.7a20.94,20.94,0,0,1,3.66,3.33,7.24,7.24,0,0,1,1.6,4.52c0,3.74-2.74,6.29-6.77,6.29-4.22,0-6.7-2.26-7.48-7l3.66-1.07c.49,3,1.78,4.44,3.82,4.44a2.68,2.68,0,0,0,2.81-2.81c0-1.56-.78-2.56-3.67-4.81-3.44-2.7-3.59-2.85-4.51-4a6.66,6.66,0,0,1-1.37-4.1c0-3.55,2.66-6.07,6.44-6.07,3.51,0,5.88,2.11,6.92,6.18Z" fill="#fff"/><path d="M144.61,382.11c-.59-2.44-1.7-3.66-3.26-3.66a2.44,2.44,0,0,0-2.47,2.51,3.73,3.73,0,0,0,1,2.48c.63.71.63.71,3.26,2.7a20.94,20.94,0,0,1,3.66,3.33,7.23,7.23,0,0,1,1.59,4.52c0,3.74-2.74,6.29-6.77,6.29-4.22,0-6.7-2.26-7.47-7l3.66-1.07c.48,3,1.78,4.44,3.81,4.44a2.68,2.68,0,0,0,2.81-2.81c0-1.56-.77-2.56-3.66-4.81-3.44-2.7-3.59-2.85-4.51-4a6.66,6.66,0,0,1-1.37-4.1c0-3.55,2.66-6.07,6.43-6.07,3.52,0,5.89,2.11,6.92,6.18Z" fill="#fff"/><path d="M50,429.55l-1,5.37H45.29L50,410.24h5.22l5,24.68H56.31l-1-5.37ZM52.61,415l-2,11.07h4Z" fill="#fff"/><path d="M76.92,434.92h-3.4l-6.66-16.43v16.43H63.23V410.24h3.85l6.22,15.35V410.24h3.62Z" fill="#fff"/><path d="M81,410.24h6c4.85,0,7.14,2.48,7.14,7.73v9.22c0,5.25-2.29,7.73-7.14,7.73H81Zm5.7,21.16c2.7,0,3.66-1.4,3.66-5.25V419c0-3.89-1-5.26-3.66-5.26H84.84V431.4Z" fill="#fff"/><path d="M101.08,434.92H97.49v-4h3.59Z" fill="#fff"/><path d="M108.22,434.92h-3.59v-4h3.59Z" fill="#fff"/><path d="M115.36,434.92h-3.59v-4h3.59Z" fill="#fff"/></g></g></svg>