<svg xmlns="http://www.w3.org/2000/svg" viewBox="0 0 160 600"><title>txt4</title><g id="Layer_2" data-name="Layer 2"><g id="Rect"><rect width="160" height="600" fill="none"/></g><g id="without_the_cleanup." data-name="without thecleanup."><path d="M25,431l-2.58-13.56L20,431H17.13l-3.75-20h3l2.28,12.9,2.4-12.9h2.67l2.64,12.9,2-12.9h2.91L27.9,431Z" fill="#fff"/><path d="M37.05,431H34V411h3.09Z" fill="#fff"/><path d="M46.47,431H43.38V413.83H39.51V411H50.37v2.85h-3.9Z" fill="#fff"/><path d="M55.92,422.17V431H52.83V411h3.09v8.34h4.41V411h3.09v20H60.33v-8.82Z" fill="#fff"/><path d="M77.46,424.63a7.63,7.63,0,0,1-1.14,4.74,5.82,5.82,0,0,1-8.64,0,7.63,7.63,0,0,1-1.14-4.74v-7.29a7.63,7.63,0,0,1,1.14-4.74,5.82,5.82,0,0,1,8.64,0,7.63,7.63,0,0,1,1.14,4.74Zm-7.83-.06A5.52,5.52,0,0,0,70,427.3a2.35,2.35,0,0,0,4,0,5.18,5.18,0,0,0,.39-2.73V417.4a5.18,5.18,0,0,0-.39-2.73,2.35,2.35,0,0,0-4,0,5.52,5.52,0,0,0-.39,2.73Z" fill="#fff"/><path d="M91.2,411v13.56c0,2.52-.3,3.81-1.14,4.95a5.7,5.7,0,0,1-8.31,0c-.84-1.14-1.14-2.43-1.14-4.95V411H83.7v14.07c0,2.37.63,3.33,2.22,3.33s2.19-1,2.19-3.33V411Z" fill="#fff"/><path d="M100.62,431H97.53V413.83H93.66V411h10.86v2.85h-3.9Z" fill="#fff"/><path d="M117.06,431H114V413.83H110.1V411H121v2.85h-3.9Z" fill="#fff"/><path d="M126.51,422.17V431h-3.09V411h3.09v8.34h4.41V411H134v20h-3.09v-8.82Z" fill="#fff"/><path d="M146.4,413.83h-6v5.28h4.41V422h-4.41v6.18h6V431h-9.06V411h9.06Z" fill="#fff"/><path d="M41.31,446.49v-.42c0-2.31-.81-3.48-2.34-3.48a2,2,0,0,0-1.83,1,5.08,5.08,0,0,0-.48,2.88v6.66a8.57,8.57,0,0,0,.33,3,2.08,2.08,0,0,0,2,1.29,2.21,2.21,0,0,0,2.22-2,11.3,11.3,0,0,0,.18-2.43h3.12v.69c0,4.35-1.89,6.63-5.49,6.63a4.94,4.94,0,0,1-4.47-2.22c-.75-1.23-1-2.4-1-5.37v-5.61c0-3.18.24-4.29,1.17-5.55A5,5,0,0,1,39,439.68c3.42,0,5.43,2.28,5.43,6.21v.6Z" fill="#fff"/><path d="M50.49,457.14h6.15V460H47.4V440h3.09Z" fill="#fff"/><path d="M67.92,442.83H62v5.28h4.41V451H62v6.18h6V460H58.86V440h9.06Z" fill="#fff"/><path d="M74.07,455.64,73.26,460h-3l3.84-20H78.3l4,20H79.17l-.84-4.35Zm2.1-11.82-1.62,9h3.27Z" fill="#fff"/><path d="M95.88,460H93.12l-5.4-13.32V460H84.78V440H87.9l5,12.45V440h2.94Z" fill="#fff"/><path d="M109.79,440v13.56c0,2.52-.29,3.81-1.13,4.95a5.7,5.7,0,0,1-8.31,0c-.84-1.14-1.14-2.43-1.14-4.95V440h3.09v14.07c0,2.37.63,3.33,2.22,3.33s2.19-1,2.19-3.33V440Z" fill="#fff"/><path d="M116.22,460h-3.09V440h5.13c2,0,3.27.39,4.2,1.29,1.08,1,1.58,2.52,1.58,4.65s-.5,3.66-1.58,4.68c-.93.9-2.19,1.29-4.2,1.29h-2ZM117.57,449c2.49,0,3.26-.75,3.26-3.12s-.77-3.09-3.26-3.09h-1.35V449Z" fill="#fff"/><path d="M126.39,460h-2.91v-3.21h2.91Z" fill="#fff"/></g></g></svg>