<svg xmlns="http://www.w3.org/2000/svg" viewBox="0 0 160 600"><title>txt4</title><g id="Layer_2" data-name="Layer 2"><g id="Rect"><rect width="160" height="600" fill="none"/></g><g id="THE_BENEFITS_OF_WATER." data-name="THEBENEFITSOF WATER."><path d="M66.49,344.9H62.68V323.73H57.9v-3.51H71.3v3.51H66.49Z" fill="#fff"/><path d="M78.14,334V344.9H74.33V320.22h3.81v10.29h5.44V320.22h3.81V344.9H83.58V334Z" fill="#fff"/><path d="M102.67,323.73H95.31v6.52h5.44v3.51H95.31v7.62h7.36v3.52H91.5V320.22h11.17Z" fill="#fff"/><path d="M24.07,355.23h5.7c4.62,0,7.21,2.26,7.21,6.25A5.17,5.17,0,0,1,32.91,367c3.33,1,4.66,2.66,4.66,5.92,0,4.36-2.73,7-7.32,7H24.07Zm5.18,10.06c2.33,0,3.85-1.37,3.85-3.48a3.11,3.11,0,0,0-.93-2.29,3.94,3.94,0,0,0-2.85-.78H27.88v6.55Zm.55,11.1c2.45,0,3.81-1.25,3.81-3.47,0-2.48-1.7-4.11-4.36-4.11H27.88v7.58Z" fill="#fff"/><path d="M52.48,358.74H45.12v6.52h5.44v3.51H45.12v7.62h7.36v3.52H41.31V355.23H52.48Z" fill="#fff"/><path d="M69.17,379.91h-3.4l-6.66-16.43v16.43H55.48V355.23h3.85l6.21,15.35V355.23h3.63Z" fill="#fff"/><path d="M84.45,358.74H77.09v6.52h5.44v3.51H77.09v7.62h7.36v3.52H73.28V355.23H84.45Z" fill="#fff"/><path d="M91.55,379.91H87.74V355.23H99v3.51H91.55v6.66h5.56v3.52H91.55Z" fill="#fff"/><path d="M105.5,379.91h-3.81V355.23h3.81Z" fill="#fff"/><path d="M117.12,379.91h-3.81V358.74h-4.77v-3.51h13.39v3.51h-4.81Z" fill="#fff"/><path d="M134.29,362.11c-.59-2.44-1.7-3.66-3.26-3.66a2.44,2.44,0,0,0-2.48,2.51,3.69,3.69,0,0,0,1,2.48c.63.71.63.71,3.25,2.7a21.1,21.1,0,0,1,3.67,3.33A7.23,7.23,0,0,1,138.1,374c0,3.74-2.74,6.29-6.77,6.29-4.22,0-6.7-2.26-7.48-7l3.67-1.07c.48,3,1.77,4.44,3.81,4.44a2.68,2.68,0,0,0,2.81-2.81c0-1.56-.78-2.56-3.66-4.81-3.44-2.7-3.59-2.85-4.52-4a6.66,6.66,0,0,1-1.37-4.1c0-3.55,2.67-6.07,6.44-6.07,3.52,0,5.89,2.11,6.92,6.18Z" fill="#fff"/><path d="M77.27,407.07c0,2.78-.4,4.44-1.4,5.85a6.22,6.22,0,0,1-5.33,2.37,6.22,6.22,0,0,1-5.33-2.37c-1-1.41-1.41-3.07-1.41-5.85v-9c0-2.77.41-4.44,1.41-5.84a6.19,6.19,0,0,1,5.33-2.37,6.19,6.19,0,0,1,5.33,2.37c1,1.4,1.4,3.07,1.4,5.84ZM67.62,407c0,2,.11,2.63.48,3.37a2.9,2.9,0,0,0,4.88,0c.41-.78.48-1.37.48-3.37v-8.84c0-2-.07-2.59-.48-3.37a2.9,2.9,0,0,0-4.88,0c-.37.74-.48,1.41-.48,3.37Z" fill="#fff"/><path d="M85,414.92H81.16V390.24H92.44v3.51H85v6.66h5.55v3.52H85Z" fill="#fff"/><path d="M50,449.93,46.82,433.2l-3,16.73H40.27l-4.62-24.68h3.7l2.81,15.91,3-15.91h3.29l3.26,15.91,2.48-15.91h3.59l-4.18,24.68Z" fill="#fff"/><path d="M63.47,444.56l-1,5.37H58.74l4.73-24.68h5.22l5,24.68H69.76l-1-5.37ZM66.06,430l-2,11.07h4Z" fill="#fff"/><path d="M82.64,449.93H78.83V428.76H74.05v-3.51h13.4v3.51H82.64Z" fill="#fff"/><path d="M101.66,428.76H94.29v6.52h5.44v3.51H94.29v7.62h7.37v3.52H90.48V425.25h11.18Z" fill="#fff"/><path d="M108.46,449.93h-3.81V425.25h6c2.26,0,3.7.44,4.88,1.48a7,7,0,0,1,2.22,5.59c0,3.1-1.11,5.25-3.33,6.4L118,449.93h-4l-3.25-10.14h-2.3Zm1.41-13.66c1.63,0,2.37-.18,3-.77a4.1,4.1,0,0,0,.92-3,4.06,4.06,0,0,0-.92-3c-.59-.59-1.33-.78-3-.78h-1.41v7.51Z" fill="#fff"/><path d="M124.74,449.93h-3.59v-4h3.59Z" fill="#fff"/></g></g></svg>