<svg xmlns="http://www.w3.org/2000/svg" viewBox="0 0 728 90"><title>txt1</title><g id="Layer_2" data-name="Layer 2"><g id="Rect"><rect width="728" height="90" fill="none"/></g><g id="TODAY_LET_S_STAIN" data-name="TODAY LET’S STAIN"><path d="M233.16,56h-3.5V36.54h-4.38V33.31h12.3v3.23h-4.42Z" fill="#fff"/><path d="M252.37,48.78c0,2.55-.37,4.08-1.29,5.37a6.59,6.59,0,0,1-9.79,0c-.92-1.29-1.29-2.82-1.29-5.37V40.52c0-2.55.37-4.08,1.29-5.37a6.59,6.59,0,0,1,9.79,0c.92,1.29,1.29,2.82,1.29,5.37Zm-8.87-.07a6.25,6.25,0,0,0,.44,3.09,2.66,2.66,0,0,0,4.49,0c.37-.71.44-1.25.44-3.09V40.58c0-1.83-.07-2.37-.44-3.09a2.68,2.68,0,0,0-4.49,0,6.25,6.25,0,0,0-.44,3.09Z" fill="#fff"/><path d="M255.94,33.31h5.54c4.46,0,6.57,2.28,6.57,7.11v8.46c0,4.83-2.11,7.11-6.57,7.11h-5.54Zm5.24,19.45c2.48,0,3.36-1.3,3.36-4.83V41.37c0-3.57-.88-4.83-3.36-4.83h-1.74V52.76Z" fill="#fff"/><path d="M274.88,51.06,274,56h-3.43l4.35-22.68h4.79L284.26,56h-3.6l-1-4.93Zm2.38-13.4-1.84,10.17h3.71Z" fill="#fff"/><path d="M293,56h-3.51V47.15l-5.09-13.84h3.87l3,9.59,3.12-9.59h3.81L293,47.15Z" fill="#fff"/><path d="M309.93,52.76h7V56H306.43V33.31h3.5Z" fill="#fff"/><path d="M329.69,36.54h-6.77v6h5v3.23h-5v7h6.77V56H319.42V33.31h10.27Z" fill="#fff"/><path d="M339.85,56h-3.5V36.54H332V33.31h12.3v3.23h-4.42Z" fill="#fff"/><path d="M350.16,37l-2,4.69h-1.29L348.35,37h-1.49V33.31h3.3Z" fill="#fff"/><path d="M362.12,39.63c-.54-2.24-1.56-3.36-3-3.36a2.24,2.24,0,0,0-2.28,2.31,3.43,3.43,0,0,0,.95,2.28,16.86,16.86,0,0,0,3,2.48,18.77,18.77,0,0,1,3.36,3.06,6.61,6.61,0,0,1,1.46,4.15c0,3.43-2.51,5.78-6.22,5.78-3.87,0-6.15-2.08-6.86-6.4l3.36-1c.44,2.72,1.63,4.08,3.5,4.08A2.47,2.47,0,0,0,362,50.44c0-1.42-.72-2.34-3.37-4.42-3.16-2.48-3.3-2.61-4.15-3.7a6.2,6.2,0,0,1-1.26-3.78c0-3.26,2.45-5.57,5.92-5.57,3.23,0,5.41,1.94,6.36,5.68Z" fill="#fff"/><path d="M382.49,39.63c-.55-2.24-1.57-3.36-3-3.36a2.24,2.24,0,0,0-2.28,2.31,3.43,3.43,0,0,0,.95,2.28,17,17,0,0,0,3,2.48,18.57,18.57,0,0,1,3.37,3.06A6.61,6.61,0,0,1,386,50.55c0,3.43-2.52,5.78-6.22,5.78-3.88,0-6.16-2.08-6.87-6.4l3.37-1c.44,2.72,1.63,4.08,3.5,4.08a2.46,2.46,0,0,0,2.58-2.59c0-1.42-.71-2.34-3.36-4.42-3.17-2.48-3.3-2.61-4.15-3.7a6.14,6.14,0,0,1-1.26-3.78c0-3.26,2.45-5.57,5.92-5.57,3.23,0,5.4,1.94,6.35,5.68Z" fill="#fff"/><path d="M395.78,56h-3.5V36.54h-4.39V33.31H400.2v3.23h-4.42Z" fill="#fff"/><path d="M405.1,51.06,404.18,56h-3.43l4.35-22.68h4.79L414.48,56h-3.6l-.95-4.93Zm2.38-13.4-1.84,10.17h3.71Z" fill="#fff"/><path d="M420.74,56h-3.5V33.31h3.5Z" fill="#fff"/><path d="M437.12,56H434l-6.12-15.1V56h-3.34V33.31h3.54l5.71,14.11V33.31h3.33Z" fill="#fff"/></g></g></svg>