<svg xmlns="http://www.w3.org/2000/svg" viewBox="0 0 728 90"><title>txt2</title><g id="Layer_2" data-name="Layer 2"><g id="Rect"><rect width="728" height="90" fill="none"/></g><g id="your_table." data-name="your table."><path d="M454.22,56h-3.51V47.15l-5.09-13.84h3.87l3,9.59,3.12-9.59h3.81l-5.23,13.84Z" fill="#fff"/><path d="M473.83,48.78c0,2.55-.37,4.08-1.29,5.37a6.59,6.59,0,0,1-9.79,0c-.92-1.29-1.29-2.82-1.29-5.37V40.52c0-2.55.37-4.08,1.29-5.37a6.59,6.59,0,0,1,9.79,0c.92,1.29,1.29,2.82,1.29,5.37ZM465,48.71a6.25,6.25,0,0,0,.44,3.09,2.66,2.66,0,0,0,4.49,0c.37-.71.44-1.25.44-3.09V40.58c0-1.83-.07-2.37-.44-3.09a2.68,2.68,0,0,0-4.49,0,6.25,6.25,0,0,0-.44,3.09Z" fill="#fff"/><path d="M489.41,33.31V48.68c0,2.85-.34,4.31-1.3,5.61a6.45,6.45,0,0,1-9.41,0c-.95-1.3-1.3-2.76-1.3-5.61V33.31h3.51V49.25c0,2.69.71,3.78,2.51,3.78s2.48-1.09,2.48-3.78V33.31Z" fill="#fff"/><path d="M496.68,56h-3.5V33.31h5.47a6.29,6.29,0,0,1,4.49,1.36,6.4,6.4,0,0,1,2,5.13c0,2.86-1,4.83-3.06,5.88L505.45,56h-3.67l-3-9.32h-2.11ZM498,43.44c1.5,0,2.18-.17,2.72-.71a3.77,3.77,0,0,0,.85-2.76,3.73,3.73,0,0,0-.85-2.72c-.54-.54-1.22-.71-2.72-.71h-1.29v6.9Z" fill="#fff"/><path d="M520.38,56h-3.5V36.54h-4.39V33.31H524.8v3.23h-4.42Z" fill="#fff"/><path d="M529.7,51.06,528.78,56h-3.44l4.36-22.68h4.79L539.08,56h-3.6l-1-4.93Zm2.38-13.4-1.84,10.17H534Z" fill="#fff"/><path d="M542.07,33.31h5.24c4.25,0,6.63,2.07,6.63,5.75a4.75,4.75,0,0,1-3.74,5.06c3.06.88,4.28,2.45,4.28,5.44,0,4-2.52,6.43-6.73,6.43h-5.68Zm4.76,9.25c2.14,0,3.54-1.26,3.54-3.2a2.86,2.86,0,0,0-.85-2.11,3.62,3.62,0,0,0-2.62-.71h-1.33v6Zm.51,10.2c2.24,0,3.5-1.16,3.5-3.2,0-2.28-1.56-3.77-4-3.77h-1.26v7Z" fill="#fff"/><path d="M561.42,52.76h7V56H557.92V33.31h3.5Z" fill="#fff"/><path d="M581.17,36.54h-6.76v6h5v3.23h-5v7h6.76V56H570.9V33.31h10.27Z" fill="#fff"/><path d="M587.26,56H584V52.35h3.3Z" fill="#fff"/></g></g></svg>