<svg xmlns="http://www.w3.org/2000/svg" viewBox="0 0 728 90"><title>txt4</title><g id="Layer_2" data-name="Layer 2"><g id="Rect"><rect width="728" height="90" fill="none"/></g><g id="your_door." data-name="your door."><path d="M454.22,56h-3.51V47.15l-5.09-13.84h3.87l3,9.59,3.12-9.59h3.81l-5.23,13.84Z" fill="#fff"/><path d="M473.83,48.78c0,2.55-.37,4.08-1.29,5.37a6.59,6.59,0,0,1-9.79,0c-.92-1.29-1.29-2.82-1.29-5.37V40.52c0-2.55.37-4.08,1.29-5.37a6.59,6.59,0,0,1,9.79,0c.92,1.29,1.29,2.82,1.29,5.37ZM465,48.71a6.25,6.25,0,0,0,.44,3.09,2.66,2.66,0,0,0,4.49,0c.37-.71.44-1.25.44-3.09V40.58c0-1.83-.07-2.37-.44-3.09a2.68,2.68,0,0,0-4.49,0,6.25,6.25,0,0,0-.44,3.09Z" fill="#fff"/><path d="M489.41,33.31V48.68c0,2.85-.34,4.31-1.3,5.61a6.45,6.45,0,0,1-9.41,0c-.95-1.3-1.3-2.76-1.3-5.61V33.31h3.51V49.25c0,2.69.71,3.78,2.51,3.78s2.48-1.09,2.48-3.78V33.31Z" fill="#fff"/><path d="M496.68,56h-3.5V33.31h5.47a6.29,6.29,0,0,1,4.49,1.36,6.4,6.4,0,0,1,2,5.13c0,2.86-1,4.83-3.06,5.88L505.45,56h-3.67l-3-9.32h-2.11ZM498,43.44c1.5,0,2.18-.17,2.72-.71a3.77,3.77,0,0,0,.85-2.76,3.73,3.73,0,0,0-.85-2.72c-.54-.54-1.22-.71-2.72-.71h-1.29v6.9Z" fill="#fff"/><path d="M514,33.31h5.54c4.45,0,6.56,2.28,6.56,7.11v8.46c0,4.83-2.11,7.11-6.56,7.11H514Zm5.23,19.45c2.49,0,3.37-1.3,3.37-4.83V41.37c0-3.57-.88-4.83-3.37-4.83h-1.73V52.76Z" fill="#fff"/><path d="M541.77,48.78c0,2.55-.38,4.08-1.3,5.37a6.59,6.59,0,0,1-9.79,0c-.92-1.29-1.29-2.82-1.29-5.37V40.52c0-2.55.37-4.08,1.29-5.37a6.59,6.59,0,0,1,9.79,0c.92,1.29,1.3,2.82,1.3,5.37Zm-8.88-.07a6.25,6.25,0,0,0,.44,3.09,2.66,2.66,0,0,0,4.49,0c.38-.71.44-1.25.44-3.09V40.58c0-1.83-.06-2.37-.44-3.09a2.68,2.68,0,0,0-4.49,0,6.25,6.25,0,0,0-.44,3.09Z" fill="#fff"/><path d="M557.47,48.78c0,2.55-.37,4.08-1.29,5.37a6.59,6.59,0,0,1-9.79,0c-.92-1.29-1.29-2.82-1.29-5.37V40.52c0-2.55.37-4.08,1.29-5.37a6.59,6.59,0,0,1,9.79,0c.92,1.29,1.29,2.82,1.29,5.37Zm-8.87-.07A6.25,6.25,0,0,0,549,51.8a2.66,2.66,0,0,0,4.49,0c.37-.71.44-1.25.44-3.09V40.58c0-1.83-.07-2.37-.44-3.09a2.68,2.68,0,0,0-4.49,0,6.25,6.25,0,0,0-.44,3.09Z" fill="#fff"/><path d="M564.55,56H561V33.31h5.48A6.31,6.31,0,0,1,571,34.67a6.39,6.39,0,0,1,2,5.13c0,2.86-1,4.83-3,5.88L573.32,56h-3.67l-3-9.32h-2.1Zm1.29-12.55c1.49,0,2.17-.17,2.72-.71a3.77,3.77,0,0,0,.85-2.76,3.73,3.73,0,0,0-.85-2.72c-.55-.54-1.23-.71-2.72-.71h-1.29v6.9Z" fill="#fff"/><path d="M579.51,56h-3.3V52.35h3.3Z" fill="#fff"/></g></g></svg>