<?xml version="1.0" encoding="utf-8"?>
<!-- Generator: Adobe Illustrator 23.1.1, SVG Export Plug-In . SVG Version: 6.00 Build 0)  -->
<svg version="1.1" id="Layer_1" xmlns="http://www.w3.org/2000/svg" xmlns:xlink="http://www.w3.org/1999/xlink" x="0px" y="0px"
	 viewBox="0 0 300 600" style="enable-background:new 0 0 300 600;" xml:space="preserve">
<style type="text/css">
	.st0{fill:none;}
	.st1{fill:#FFFFFF;}
</style>
<title>txt1</title>
<g>
	<g id="Rect">
		<rect class="st0" width="300" height="600"/>
	</g>
</g>
<g>
	<path class="st1" d="M116,405h-4.1v-22.9h-5.2v-3.8h14.5v3.8H116V405z"/>
	<path class="st1" d="M138.6,396.5c0,3-0.4,4.8-1.5,6.3c-1.2,1.7-3.2,2.6-5.8,2.6s-4.6-0.9-5.8-2.6c-1.1-1.5-1.5-3.3-1.5-6.3v-9.7
		c0-3,0.4-4.8,1.5-6.3c1.2-1.7,3.2-2.6,5.8-2.6s4.6,0.9,5.8,2.6c1.1,1.5,1.5,3.3,1.5,6.3V396.5z M128.2,396.4c0,2.1,0.1,2.8,0.5,3.6
		c0.5,0.9,1.5,1.4,2.6,1.4s2.2-0.6,2.6-1.4c0.4-0.8,0.5-1.5,0.5-3.6v-9.6c0-2.2-0.1-2.8-0.5-3.6c-0.5-0.9-1.5-1.4-2.6-1.4
		s-2.2,0.6-2.6,1.4c-0.4,0.8-0.5,1.5-0.5,3.6V396.4z"/>
	<path class="st1" d="M142.8,378.3h6.5c5.2,0,7.7,2.7,7.7,8.4v10c0,5.7-2.5,8.4-7.7,8.4h-6.5V378.3z M149,401.2c2.9,0,4-1.5,4-5.7
		v-7.7c0-4.2-1-5.7-4-5.7h-2v19.1H149z"/>
	<path class="st1" d="M165.1,399.2L164,405h-4l5.1-26.7h5.6l5.4,26.7h-4.2l-1.1-5.8H165.1z M167.9,383.4l-2.2,12h4.4L167.9,383.4z"
		/>
	<path class="st1" d="M186.4,405h-4.1v-10.4l-6-16.3h4.6l3.6,11.3l3.7-11.3h4.5l-6.2,16.3V405z"/>
	<path class="st1" d="M68.2,436.2h8.2v3.8H64.1v-26.7h4.1V436.2z"/>
	<path class="st1" d="M91.4,417.1h-8v7h5.9v3.8h-5.9v8.2h8v3.8H79.3v-26.7h12.1V417.1z"/>
	<path class="st1" d="M103.4,440h-4.1v-22.9h-5.2v-3.8h14.5v3.8h-5.2V440z"/>
	<path class="st1" d="M115.5,417.6l-2.4,5.5h-1.5l1.8-5.5h-1.8v-4.3h3.9V417.6z"/>
	<path class="st1" d="M129.6,420.7c-0.6-2.6-1.8-4-3.5-4c-1.5,0-2.7,1.2-2.7,2.7c0,0.9,0.4,1.9,1.1,2.7c0.7,0.8,0.7,0.8,3.5,2.9
		c2.2,1.8,3.1,2.5,4,3.6c1.1,1.3,1.7,3.1,1.7,4.9c0,4-3,6.8-7.3,6.8c-4.6,0-7.2-2.4-8.1-7.5l4-1.2c0.5,3.2,1.9,4.8,4.1,4.8
		c1.8,0,3-1.2,3-3c0-1.7-0.8-2.8-4-5.2c-3.7-2.9-3.9-3.1-4.9-4.4c-1-1.2-1.5-2.8-1.5-4.4c0-3.8,2.9-6.6,7-6.6c3.8,0,6.4,2.3,7.5,6.7
		L129.6,420.7z"/>
	<path class="st1" d="M153.5,420.7c-0.6-2.6-1.8-4-3.5-4c-1.5,0-2.7,1.2-2.7,2.7c0,0.9,0.4,1.9,1.1,2.7c0.7,0.8,0.7,0.8,3.5,2.9
		c2.2,1.8,3.1,2.5,4,3.6c1.1,1.3,1.7,3.1,1.7,4.9c0,4-3,6.8-7.3,6.8c-4.6,0-7.2-2.4-8.1-7.5l4-1.2c0.5,3.2,1.9,4.8,4.1,4.8
		c1.8,0,3-1.2,3-3c0-1.7-0.8-2.8-4-5.2c-3.7-2.9-3.9-3.1-4.9-4.4c-1-1.2-1.5-2.8-1.5-4.4c0-3.8,2.9-6.6,7-6.6c3.8,0,6.4,2.3,7.5,6.7
		L153.5,420.7z"/>
	<path class="st1" d="M169.2,440h-4.1v-22.9h-5.2v-3.8h14.5v3.8h-5.2V440z"/>
	<path class="st1" d="M180.1,434.2l-1.1,5.8h-4l5.1-26.7h5.6l5.4,26.7h-4.2l-1.1-5.8H180.1z M182.9,418.4l-2.2,12h4.4L182.9,418.4z"
		/>
	<path class="st1" d="M198.5,440h-4.1v-26.7h4.1V440z"/>
	<path class="st1" d="M217.8,440h-3.7l-7.2-17.8V440H203v-26.7h4.2l6.7,16.6v-16.6h3.9V440z"/>
	<path class="st1" d="M228,422h-1.6v-7.5h-1.7v-1.4h5.1v1.4H228V422z M236.9,422h-1.5v-5.9L234,422h-1l-1.4-5.9v5.9h-1.5v-8.9h2.2
		l1.2,5.1l1.2-5.1h2.2V422z"/>
</g>
</svg>
