<svg xmlns="http://www.w3.org/2000/svg" viewBox="0 0 300 600"><title>txt1</title><g id="Layer_2" data-name="Layer 2"><g id="Rect"><rect width="300" height="600" fill="none"/></g><g id="TODAY_LET_S_STAIN" data-name="TODAYLET’S STAIN"><path d="M114.73,416.64H110.4v-24H105v-4h15.21v4h-5.46Z" fill="#fff"/><path d="M138.46,407.73c0,3.15-.47,5-1.6,6.64-1.26,1.77-3.36,2.69-6.05,2.69s-4.79-.92-6-2.69c-1.13-1.59-1.59-3.49-1.59-6.64v-10.2c0-3.15.46-5,1.59-6.64,1.26-1.77,3.36-2.69,6-2.69s4.79.92,6.05,2.69c1.13,1.6,1.6,3.49,1.6,6.64Zm-11-.08c0,2.23.13,3,.55,3.82a3.28,3.28,0,0,0,5.54,0c.47-.88.55-1.55.55-3.82v-10c0-2.27-.08-2.94-.55-3.82a3.3,3.3,0,0,0-5.54,0c-.42.84-.55,1.59-.55,3.82Z" fill="#fff"/><path d="M142.86,388.62h6.85c5.5,0,8.11,2.82,8.11,8.78v10.46c0,6-2.61,8.78-8.11,8.78h-6.85Zm6.47,24c3.07,0,4.16-1.6,4.16-6v-8.1c0-4.41-1.09-6-4.16-6h-2.14v20Z" fill="#fff"/><path d="M166.26,410.55l-1.14,6.09h-4.24l5.38-28h5.92l5.67,28H173.4l-1.18-6.09ZM169.2,394l-2.27,12.56h4.58Z" fill="#fff"/><path d="M188.69,416.64h-4.33V405.72l-6.3-17.1h4.79l3.74,11.85,3.86-11.85h4.71l-6.47,17.1Z" fill="#fff"/><path d="M73.88,453.54h8.61v4H69.56v-28h4.32Z" fill="#fff"/><path d="M98.29,433.51H89.93v7.39H96.1v4H89.93v8.65h8.36v4H85.6v-28H98.29Z" fill="#fff"/><path d="M110.84,457.53h-4.33v-24H101.1v-4h15.2v4h-5.46Z" fill="#fff"/><path d="M123.57,434l-2.48,5.8h-1.6l1.85-5.8h-1.85v-4.49h4.08Z" fill="#fff"/><path d="M138.35,437.33c-.67-2.77-1.93-4.16-3.7-4.16a2.77,2.77,0,0,0-2.81,2.86,4.2,4.2,0,0,0,1.18,2.81c.71.8.71.8,3.69,3.07a23.22,23.22,0,0,1,4.16,3.78,8.13,8.13,0,0,1,1.81,5.12c0,4.25-3.11,7.14-7.69,7.14-4.79,0-7.6-2.56-8.49-7.89l4.16-1.22c.55,3.36,2,5,4.33,5a3,3,0,0,0,3.19-3.19c0-1.77-.88-2.9-4.16-5.46-3.9-3.07-4.07-3.24-5.12-4.58a7.61,7.61,0,0,1-1.56-4.67c0-4,3-6.89,7.31-6.89,4,0,6.68,2.4,7.86,7Z" fill="#fff"/><path d="M163.51,437.33c-.67-2.77-1.93-4.16-3.7-4.16A2.77,2.77,0,0,0,157,436a4.23,4.23,0,0,0,1.17,2.81c.72.8.72.8,3.7,3.07a23.59,23.59,0,0,1,4.16,3.78,8.18,8.18,0,0,1,1.8,5.12c0,4.25-3.1,7.14-7.68,7.14-4.79,0-7.61-2.56-8.49-7.89l4.16-1.22c.55,3.36,2,5,4.33,5a3,3,0,0,0,3.19-3.19c0-1.77-.88-2.9-4.16-5.46-3.9-3.07-4.07-3.24-5.12-4.58A7.61,7.61,0,0,1,152.5,436c0-4,3-6.89,7.31-6.89,4,0,6.68,2.4,7.86,7Z" fill="#fff"/><path d="M179.93,457.53H175.6v-24h-5.42v-4h15.21v4h-5.46Z" fill="#fff"/><path d="M191.44,451.44l-1.14,6.09h-4.24l5.38-28h5.92l5.67,28h-4.45l-1.18-6.09Zm2.94-16.55-2.27,12.56h4.58Z" fill="#fff"/><path d="M210.76,457.53h-4.33v-28h4.33Z" fill="#fff"/><path d="M231,457.53h-3.86l-7.56-18.65v18.65h-4.12v-28h4.37L226.89,447V429.52H231Z" fill="#fff"/></g></g></svg>