<svg xmlns="http://www.w3.org/2000/svg" viewBox="0 0 300 600"><title>txt1</title><g id="Layer_2" data-name="Layer 2"><g id="Rect"><rect width="300" height="600" fill="none"/></g><g id="TODAY_WE_STAIN" data-name="TODAYWESTAIN"><path d="M112.58,402.93h-4.71V376.79H102v-4.34h16.54v4.34h-5.94Z" fill="#fff"/><path d="M138.4,393.24c0,3.43-.5,5.49-1.74,7.22-1.37,1.92-3.65,2.93-6.58,2.93s-5.21-1-6.58-2.93c-1.23-1.73-1.73-3.79-1.73-7.22v-11.1c0-3.43.5-5.49,1.73-7.22,1.37-1.92,3.66-2.93,6.58-2.93s5.21,1,6.58,2.93c1.24,1.73,1.74,3.79,1.74,7.22Zm-11.93-.09c0,2.42.14,3.25.6,4.16a3.58,3.58,0,0,0,6,0c.5-1,.59-1.69.59-4.16V382.23c0-2.47-.09-3.2-.59-4.16a3.58,3.58,0,0,0-6,0c-.46.91-.6,1.74-.6,4.16Z" fill="#fff"/><path d="M143.2,372.45h7.45c6,0,8.82,3.06,8.82,9.55v11.38c0,6.49-2.83,9.55-8.82,9.55H143.2Zm7,26.14c3.34,0,4.52-1.74,4.52-6.49v-8.82c0-4.8-1.18-6.49-4.52-6.49h-2.33v21.8Z" fill="#fff"/><path d="M168.66,396.3l-1.23,6.63h-4.62l5.85-30.48h6.44l6.17,30.48h-4.84l-1.28-6.63Zm3.2-18L169.39,392h5Z" fill="#fff"/><path d="M193.07,402.93h-4.71V391.05l-6.86-18.6h5.21l4.07,12.89L195,372.45h5.11l-7,18.6Z" fill="#fff"/><path d="M146.4,448.79l-3.93-20.65-3.7,20.65h-4.39l-5.71-30.48h4.57L136.71,438l3.66-19.65h4.06l4,19.65,3.06-19.65H156l-5.16,30.48Z" fill="#fff"/><path d="M173.82,422.65h-9.09v8.05h6.72V435h-6.72v9.41h9.09v4.34H160V418.31h13.8Z" fill="#fff"/><path d="M120.28,472.67c-.73-3-2.1-4.52-4-4.52a3,3,0,0,0-3.06,3.11,4.54,4.54,0,0,0,1.28,3.06c.77.87.77.87,4,3.34a25.31,25.31,0,0,1,4.52,4.11,8.94,8.94,0,0,1,2,5.57c0,4.62-3.39,7.77-8.37,7.77-5.21,0-8.27-2.78-9.23-8.59l4.53-1.32c.59,3.65,2.19,5.48,4.7,5.48a3.31,3.31,0,0,0,3.48-3.47c0-1.92-1-3.16-4.53-5.94-4.25-3.34-4.43-3.52-5.57-5a8.26,8.26,0,0,1-1.69-5.08c0-4.38,3.29-7.49,8-7.49,4.34,0,7.26,2.6,8.54,7.63Z" fill="#fff"/><path d="M138.15,494.66h-4.71V468.52h-5.89v-4.35h16.54v4.35h-5.94Z" fill="#fff"/><path d="M150.67,488l-1.23,6.63h-4.62l5.85-30.49h6.45l6.17,30.49h-4.85L157.16,488Zm3.2-18-2.46,13.67h5Z" fill="#fff"/><path d="M171.7,494.66H167V464.17h4.71Z" fill="#fff"/><path d="M193.73,494.66h-4.21l-8.22-20.29v20.29h-4.48V464.17h4.75l7.68,19v-19h4.48Z" fill="#fff"/></g></g></svg>