<svg xmlns="http://www.w3.org/2000/svg" viewBox="0 0 300 600"><title>txt2</title><g id="Layer_2" data-name="Layer 2"><g id="Rect"><rect width="300" height="600" fill="none"/></g><g id="YOUR_INTERIOR_PROJECTS" data-name="YOURINTERIORPROJECTS"><path d="M123.71,391.64h-4.32V380.72l-6.3-17.1h4.79l3.73,11.85,3.87-11.85h4.7l-6.47,17.1Z" fill="#fff"/><path d="M148,382.73c0,3.15-.46,5-1.6,6.64-1.26,1.77-3.36,2.69-6,2.69a7,7,0,0,1-6.05-2.69c-1.13-1.59-1.59-3.49-1.59-6.64v-10.2c0-3.15.46-5,1.59-6.64a7,7,0,0,1,6.05-2.69c2.69,0,4.79.92,6,2.69,1.14,1.6,1.6,3.49,1.6,6.64Zm-11-.08c0,2.23.12,3,.54,3.82a3.29,3.29,0,0,0,5.55,0c.46-.88.54-1.55.54-3.82v-10c0-2.27-.08-2.94-.54-3.82a3.3,3.3,0,0,0-5.55,0c-.42.84-.54,1.59-.54,3.82Z" fill="#fff"/><path d="M167.18,363.62v19c0,3.53-.42,5.33-1.59,6.93a8,8,0,0,1-11.64,0c-1.17-1.6-1.59-3.4-1.59-6.93v-19h4.32v19.7c0,3.32.89,4.67,3.11,4.67s3.07-1.35,3.07-4.67v-19.7Z" fill="#fff"/><path d="M176.17,391.64h-4.33v-28h6.77c2.56,0,4.2.5,5.54,1.68a7.9,7.9,0,0,1,2.52,6.34c0,3.53-1.26,6-3.78,7.27L187,391.64h-4.54l-3.69-11.51h-2.61Zm1.6-15.5c1.85,0,2.69-.21,3.36-.88a4.69,4.69,0,0,0,1.05-3.41,4.64,4.64,0,0,0-1.05-3.36c-.67-.67-1.51-.88-3.36-.88h-1.6v8.53Z" fill="#fff"/><path d="M92.4,432.53H88.08v-28H92.4Z" fill="#fff"/><path d="M112.65,432.53h-3.87l-7.56-18.65v18.65H97.11v-28h4.36L108.53,422V404.52h4.12Z" fill="#fff"/><path d="M125.83,432.53h-4.32v-24h-5.42v-4H131.3v4h-5.47Z" fill="#fff"/><path d="M147.42,408.51h-8.36v7.39h6.18v4h-6.18v8.65h8.36v4H134.74v-28h12.68Z" fill="#fff"/><path d="M155.15,432.53h-4.33v-28h6.77c2.56,0,4.2.5,5.54,1.68a7.89,7.89,0,0,1,2.52,6.34c0,3.53-1.26,6-3.78,7.27L166,432.53h-4.54L157.75,421h-2.6Zm1.6-15.5c1.84,0,2.68-.21,3.36-.88a6,6,0,0,0,0-6.76c-.68-.67-1.52-.88-3.36-.88h-1.6V417Z" fill="#fff"/><path d="M174.17,432.53h-4.32v-28h4.32Z" fill="#fff"/><path d="M193.87,423.63c0,3.15-.46,5-1.59,6.64C191,432,188.92,433,186.23,433s-4.79-.92-6-2.68c-1.13-1.6-1.6-3.49-1.6-6.64V413.42c0-3.15.47-5,1.6-6.64a8.15,8.15,0,0,1,12.1,0c1.13,1.6,1.59,3.49,1.59,6.64Zm-11-.09c0,2.23.13,3,.55,3.83a3.3,3.3,0,0,0,5.54,0c.46-.88.55-1.56.55-3.83v-10c0-2.26-.09-2.94-.55-3.82a3.3,3.3,0,0,0-5.54,0c-.42.84-.55,1.6-.55,3.82Z" fill="#fff"/><path d="M202.61,432.53h-4.33v-28H205c2.57,0,4.21.5,5.55,1.68a7.89,7.89,0,0,1,2.52,6.34c0,3.53-1.26,6-3.78,7.27l4.12,12.72h-4.54L205.21,421h-2.6Zm1.6-15.5c1.84,0,2.68-.21,3.36-.88a6,6,0,0,0,0-6.76c-.68-.67-1.52-.88-3.36-.88h-1.6V417Z" fill="#fff"/><path d="M86.86,473.43H82.53v-28h7.19c2.81,0,4.58.55,5.88,1.81,1.51,1.43,2.22,3.53,2.22,6.51s-.71,5.12-2.22,6.55c-1.3,1.26-3.07,1.81-5.88,1.81H86.86Zm1.89-15.33c3.49,0,4.58-1.05,4.58-4.37s-1.09-4.33-4.58-4.33H86.86v8.7Z" fill="#fff"/><path d="M105.89,473.43h-4.33v-28h6.76c2.57,0,4.2.51,5.55,1.68a7.9,7.9,0,0,1,2.52,6.34c0,3.53-1.26,6-3.78,7.27l4.11,12.73h-4.53l-3.7-11.51h-2.6Zm1.59-15.5c1.85,0,2.69-.21,3.36-.88a4.65,4.65,0,0,0,1-3.41,4.59,4.59,0,0,0-1-3.36c-.67-.67-1.51-.88-3.36-.88h-1.59v8.53Z" fill="#fff"/><path d="M135.58,464.52c0,3.15-.46,5.05-1.59,6.64a7,7,0,0,1-6.05,2.69c-2.69,0-4.79-.92-6-2.69-1.14-1.59-1.6-3.49-1.6-6.64v-10.2c0-3.15.46-5,1.6-6.64a8.15,8.15,0,0,1,12.1,0c1.13,1.6,1.59,3.49,1.59,6.64Zm-11-.08c0,2.23.12,3,.54,3.82a3.29,3.29,0,0,0,5.55,0c.46-.88.54-1.55.54-3.82v-10c0-2.27-.08-2.94-.54-3.82a3.3,3.3,0,0,0-5.55,0c-.42.84-.54,1.59-.54,3.82Z" fill="#fff"/><path d="M146.92,445.41v21.17c0,2.94-.29,4.16-1.22,5.3s-2.22,1.55-4.37,1.55h-2.6v-4.08h1c2.1,0,2.85-.79,2.85-3.1V445.41Z" fill="#fff"/><path d="M164.31,449.4H156v7.39h6.17v4H156v8.65h8.36v4H151.62v-28h12.69Z" fill="#fff"/><path d="M178.46,454.53v-.59c0-3.24-1.13-4.87-3.28-4.87a2.74,2.74,0,0,0-2.56,1.38c-.54.93-.67,1.77-.67,4v9.33a12.21,12.21,0,0,0,.46,4.16,2.92,2.92,0,0,0,2.77,1.81c1.6,0,2.65-.93,3.11-2.78a15.53,15.53,0,0,0,.25-3.4h4.37v1c0,6.09-2.64,9.28-7.68,9.28-2.82,0-5-1.09-6.26-3.11-1.05-1.72-1.35-3.36-1.35-7.52v-7.85c0-4.46.34-6,1.64-7.78a7,7,0,0,1,5.92-2.6c4.79,0,7.61,3.19,7.61,8.7v.84Z" fill="#fff"/><path d="M195.43,473.43H191.1v-24h-5.42v-4h15.21v4h-5.46Z" fill="#fff"/><path d="M214.92,453.22c-.68-2.77-1.94-4.15-3.7-4.15a2.77,2.77,0,0,0-2.82,2.85,4.2,4.2,0,0,0,1.18,2.82c.71.79.71.79,3.7,3.06a24,24,0,0,1,4.16,3.78,8.23,8.23,0,0,1,1.8,5.13c0,4.24-3.11,7.14-7.69,7.14-4.78,0-7.6-2.56-8.48-7.9l4.16-1.22c.54,3.36,2,5,4.32,5a3.06,3.06,0,0,0,3.2-3.2c0-1.76-.89-2.9-4.16-5.46-3.91-3.07-4.08-3.23-5.13-4.58a7.64,7.64,0,0,1-1.55-4.66c0-4,3-6.89,7.31-6.89,4,0,6.68,2.39,7.85,7Z" fill="#fff"/></g></g></svg>