<svg xmlns="http://www.w3.org/2000/svg" viewBox="0 0 300 600"><title>txt2</title><g id="Layer_2" data-name="Layer 2"><g id="Rect"><rect width="300" height="600" fill="none"/></g><g id="WITH_THE_COLOR_RICHNESS_OF_OIL" data-name="WITH THECOLOR RICHNESSOF OIL"><path d="M98,402.93,94,382.27l-3.7,20.66H85.93l-5.71-30.48h4.57l3.47,19.65,3.66-19.65H96l4,19.65,3.06-19.65h4.43l-5.16,30.48Z" fill="#fff"/><path d="M116.28,402.93h-4.71V372.45h4.71Z" fill="#fff"/><path d="M130.63,402.93h-4.71V376.79H120v-4.34h16.54v4.34h-5.94Z" fill="#fff"/><path d="M145,389.5v13.43h-4.71V372.45H145v12.7h6.72v-12.7h4.7v30.48h-4.7V389.5Z" fill="#fff"/><path d="M177.57,402.93h-4.71V376.79H167v-4.34h16.54v4.34h-5.94Z" fill="#fff"/><path d="M192,389.5v13.43h-4.71V372.45H192v12.7h6.72v-12.7h4.7v30.48h-4.7V389.5Z" fill="#fff"/><path d="M222.27,376.79h-9.09v8h6.71v4.34h-6.71v9.42h9.09v4.34h-13.8V372.45h13.8Z" fill="#fff"/><path d="M34.1,428.23v-.64c0-3.52-1.23-5.3-3.56-5.3a3,3,0,0,0-2.79,1.5c-.59,1-.73,1.92-.73,4.39v10.15a13.17,13.17,0,0,0,.5,4.52,3.18,3.18,0,0,0,3,2c1.73,0,2.88-1,3.38-3a17.12,17.12,0,0,0,.27-3.7H39v1c0,6.63-2.88,10.1-8.37,10.1-3.06,0-5.48-1.19-6.81-3.38-1.14-1.88-1.46-3.66-1.46-8.18v-8.55c0-4.84.37-6.53,1.78-8.45a7.65,7.65,0,0,1,6.45-2.84c5.21,0,8.27,3.48,8.27,9.46v.92Z" fill="#fff"/><path d="M59.83,439.1c0,3.43-.5,5.49-1.73,7.23-1.37,1.91-3.66,2.92-6.58,2.92s-5.21-1-6.58-2.92c-1.24-1.74-1.74-3.8-1.74-7.23V428c0-3.43.5-5.48,1.74-7.22,1.37-1.92,3.65-2.93,6.58-2.93s5.21,1,6.58,2.93c1.23,1.74,1.73,3.79,1.73,7.22ZM47.91,439c0,2.43.13,3.25.59,4.16a3.58,3.58,0,0,0,6,0c.5-1,.6-1.69.6-4.16V428.09c0-2.47-.1-3.2-.6-4.16a3.59,3.59,0,0,0-6,0c-.46.92-.59,1.74-.59,4.16Z" fill="#fff"/><path d="M69.34,444.45h9.37v4.34H64.63V418.31h4.71Z" fill="#fff"/><path d="M98.77,439.1c0,3.43-.5,5.49-1.73,7.23-1.37,1.91-3.66,2.92-6.58,2.92s-5.21-1-6.58-2.92c-1.24-1.74-1.74-3.8-1.74-7.23V428c0-3.43.5-5.48,1.74-7.22,1.37-1.92,3.65-2.93,6.58-2.93s5.21,1,6.58,2.93c1.23,1.74,1.73,3.79,1.73,7.22ZM86.85,439c0,2.43.13,3.25.59,4.16a3.58,3.58,0,0,0,6,0c.51-1,.6-1.69.6-4.16V428.09c0-2.47-.09-3.2-.6-4.16a3.59,3.59,0,0,0-6,0c-.46.92-.59,1.74-.59,4.16Z" fill="#fff"/><path d="M108.28,448.79h-4.7V418.31h7.35c2.79,0,4.57.55,6,1.83,1.82,1.55,2.74,3.88,2.74,6.9,0,3.84-1.37,6.49-4.12,7.91l4.48,13.84h-4.93l-4-12.52h-2.84ZM110,431.93c2,0,2.92-.23,3.65-1a6.46,6.46,0,0,0,0-7.36c-.73-.73-1.64-1-3.65-1h-1.74v9.28Z" fill="#fff"/><path d="M136.25,448.79h-4.7V418.31h7.36c2.78,0,4.57.55,6,1.83,1.83,1.55,2.74,3.88,2.74,6.9,0,3.84-1.37,6.49-4.11,7.91l4.48,13.84h-4.94l-4-12.52h-2.84ZM138,431.93c2,0,2.93-.23,3.66-1a6.51,6.51,0,0,0,0-7.36c-.73-.73-1.65-1-3.66-1h-1.74v9.28Z" fill="#fff"/><path d="M157,448.79h-4.71V418.31H157Z" fill="#fff"/><path d="M173.55,428.23v-.64c0-3.52-1.23-5.3-3.57-5.3a3,3,0,0,0-2.78,1.5c-.6,1-.73,1.92-.73,4.39v10.15a12.92,12.92,0,0,0,.5,4.52,3.17,3.17,0,0,0,3,2c1.74,0,2.88-1,3.39-3a17.84,17.84,0,0,0,.27-3.7h4.75v1c0,6.63-2.88,10.1-8.36,10.1-3.06,0-5.48-1.19-6.81-3.38-1.14-1.88-1.46-3.66-1.46-8.18v-8.55c0-4.84.36-6.53,1.78-8.45a7.64,7.64,0,0,1,6.44-2.84c5.21,0,8.28,3.48,8.28,9.46v.92Z" fill="#fff"/><path d="M187.54,435.36v13.43h-4.71V418.31h4.71V431h6.71V418.31H199v30.48h-4.71V435.36Z" fill="#fff"/><path d="M220.94,448.79h-4.2l-8.23-20.29v20.29H204V418.31h4.75l7.68,19v-19h4.47Z" fill="#fff"/><path d="M239.82,422.65h-9.09v8.05h6.72V435h-6.72v9.41h9.09v4.34H226V418.31h13.8Z" fill="#fff"/><path d="M255.59,426.81c-.73-3-2.1-4.52-4-4.52a3,3,0,0,0-3.06,3.1,4.55,4.55,0,0,0,1.28,3.07c.77.87.77.87,4,3.33a24.89,24.89,0,0,1,4.52,4.12,8.83,8.83,0,0,1,2,5.57c0,4.62-3.38,7.77-8.37,7.77-5.21,0-8.27-2.79-9.23-8.59l4.53-1.33c.59,3.66,2.19,5.49,4.7,5.49a3.32,3.32,0,0,0,3.48-3.48c0-1.92-1-3.15-4.53-5.94-4.25-3.33-4.43-3.52-5.57-5a8.25,8.25,0,0,1-1.69-5.07c0-4.39,3.29-7.5,7.95-7.5,4.34,0,7.26,2.61,8.54,7.64Z" fill="#fff"/><path d="M276.52,426.81c-.73-3-2.1-4.52-4-4.52a3,3,0,0,0-3.06,3.1,4.59,4.59,0,0,0,1.28,3.07c.78.87.78.87,4,3.33a24.89,24.89,0,0,1,4.52,4.12,8.83,8.83,0,0,1,2,5.57c0,4.62-3.38,7.77-8.36,7.77-5.21,0-8.28-2.79-9.24-8.59l4.53-1.33c.59,3.66,2.19,5.49,4.71,5.49a3.31,3.31,0,0,0,3.47-3.48c0-1.92-1-3.15-4.52-5.94-4.26-3.33-4.44-3.52-5.58-5a8.25,8.25,0,0,1-1.69-5.07c0-4.39,3.29-7.5,7.95-7.5,4.34,0,7.27,2.61,8.55,7.64Z" fill="#fff"/><path d="M123,485c0,3.43-.5,5.48-1.74,7.22-1.37,1.92-3.65,2.92-6.58,2.92s-5.21-1-6.58-2.92c-1.23-1.74-1.73-3.79-1.73-7.22V473.86c0-3.42.5-5.48,1.73-7.22,1.37-1.92,3.66-2.92,6.58-2.92s5.21,1,6.58,2.92c1.24,1.74,1.74,3.8,1.74,7.22Zm-11.93-.09c0,2.42.14,3.24.6,4.16a3.59,3.59,0,0,0,6,0c.5-1,.59-1.7.59-4.16V474c0-2.46-.09-3.2-.59-4.16a3.59,3.59,0,0,0-6,0c-.46.92-.6,1.74-.6,4.16Z" fill="#fff"/><path d="M132.53,494.66h-4.71V464.17h13.94v4.35h-9.23v8.22h6.85v4.34h-6.85Z" fill="#fff"/><path d="M168.82,485c0,3.43-.51,5.48-1.74,7.22-1.37,1.92-3.66,2.92-6.58,2.92s-5.21-1-6.58-2.92c-1.23-1.74-1.74-3.79-1.74-7.22V473.86c0-3.42.51-5.48,1.74-7.22,1.37-1.92,3.66-2.92,6.58-2.92s5.21,1,6.58,2.92c1.23,1.74,1.74,3.8,1.74,7.22Zm-11.93-.09c0,2.42.14,3.24.59,4.16a3.6,3.6,0,0,0,6,0c.5-1,.59-1.7.59-4.16V474c0-2.46-.09-3.2-.59-4.16a3.6,3.6,0,0,0-6,0c-.45.92-.59,1.74-.59,4.16Z" fill="#fff"/><path d="M178.33,494.66h-4.71V464.17h4.71Z" fill="#fff"/><path d="M188.15,490.31h9.37v4.35H183.45V464.17h4.7Z" fill="#fff"/></g></g></svg>