<svg xmlns="http://www.w3.org/2000/svg" viewBox="0 0 300 600"><title>txt2</title><g id="Layer_2" data-name="Layer 2"><g id="Rect"><rect width="300" height="600" fill="none"/></g><g id="your_interior_projects_with" data-name="your interiorprojects with"><path d="M59.84,405H55.72v-10.4l-6-16.28h4.56l3.56,11.28,3.68-11.28H66l-6.16,16.28Z" fill="#fff"/><path d="M82.92,396.51c0,3-.44,4.8-1.52,6.32a6.71,6.71,0,0,1-5.76,2.56,6.71,6.71,0,0,1-5.76-2.56c-1.08-1.52-1.52-3.32-1.52-6.32v-9.72c0-3,.44-4.8,1.52-6.32a6.71,6.71,0,0,1,5.76-2.56,6.71,6.71,0,0,1,5.76,2.56c1.08,1.52,1.52,3.32,1.52,6.32Zm-10.44-.08c0,2.12.12,2.84.52,3.64a3.14,3.14,0,0,0,5.28,0c.44-.84.52-1.48.52-3.64v-9.56c0-2.16-.08-2.8-.52-3.64a3.14,3.14,0,0,0-5.28,0c-.4.8-.52,1.52-.52,3.64Z" fill="#fff"/><path d="M101.24,378.31v18.08c0,3.36-.4,5.08-1.52,6.6a7.59,7.59,0,0,1-11.08,0c-1.12-1.52-1.52-3.24-1.52-6.6V378.31h4.12v18.76c0,3.16.84,4.44,3,4.44s2.92-1.28,2.92-4.44V378.31Z" fill="#fff"/><path d="M109.8,405h-4.12V378.31h6.44c2.44,0,4,.48,5.28,1.6a7.52,7.52,0,0,1,2.4,6c0,3.36-1.2,5.68-3.6,6.92L120.12,405H115.8l-3.52-11H109.8Zm1.52-14.76c1.76,0,2.56-.2,3.2-.84a5.68,5.68,0,0,0,0-6.44c-.64-.64-1.44-.84-3.2-.84H109.8v8.12Z" fill="#fff"/><path d="M134.28,405h-4.12V378.31h4.12Z" fill="#fff"/><path d="M153.55,405h-3.67l-7.2-17.76V405h-3.92V378.31h4.16l6.72,16.6v-16.6h3.91Z" fill="#fff"/><path d="M166.12,405H162V382.11h-5.16v-3.8h14.48v3.8h-5.2Z" fill="#fff"/><path d="M186.67,382.11h-7.95v7h5.88V393h-5.88v8.24h7.95V405H174.6V378.31h12.07Z" fill="#fff"/><path d="M194,405h-4.12V378.31h6.44c2.43,0,4,.48,5.27,1.6a7.52,7.52,0,0,1,2.4,6c0,3.36-1.2,5.68-3.6,6.92L204.35,405H200l-3.52-11H194Zm1.52-14.76c1.76,0,2.56-.2,3.19-.84a5.68,5.68,0,0,0,0-6.44c-.63-.64-1.43-.84-3.19-.84H194v8.12Z" fill="#fff"/><path d="M212.16,405H208V378.31h4.12Z" fill="#fff"/><path d="M230.91,396.51c0,3-.44,4.8-1.52,6.32a7.75,7.75,0,0,1-11.51,0c-1.09-1.52-1.52-3.32-1.52-6.32v-9.72c0-3,.43-4.8,1.52-6.32a7.75,7.75,0,0,1,11.51,0c1.08,1.52,1.52,3.32,1.52,6.32Zm-10.44-.08c0,2.12.12,2.84.52,3.64a3.14,3.14,0,0,0,5.28,0c.44-.84.52-1.48.52-3.64v-9.56c0-2.16-.08-2.8-.52-3.64a3.14,3.14,0,0,0-5.28,0c-.4.8-.52,1.52-.52,3.64Z" fill="#fff"/><path d="M239.23,405h-4.11V378.31h6.43c2.44,0,4,.48,5.28,1.6a7.52,7.52,0,0,1,2.4,6c0,3.36-1.2,5.68-3.6,6.92L249.55,405h-4.32l-3.52-11h-2.48Zm1.52-14.76c1.76,0,2.56-.2,3.2-.84a5.68,5.68,0,0,0,0-6.44c-.64-.64-1.44-.84-3.2-.84h-1.52v8.12Z" fill="#fff"/><path d="M51.24,440H47.12V413.31H54c2.68,0,4.36.52,5.6,1.72,1.44,1.36,2.12,3.36,2.12,6.2s-.68,4.88-2.12,6.24c-1.24,1.2-2.92,1.72-5.6,1.72H51.24Zm1.8-14.6c3.32,0,4.36-1,4.36-4.16s-1-4.12-4.36-4.12h-1.8v8.28Z" fill="#fff"/><path d="M69.36,440H65.24V413.31h6.44c2.44,0,4,.48,5.28,1.6a7.52,7.52,0,0,1,2.4,6c0,3.36-1.2,5.68-3.6,6.92L79.68,440H75.36l-3.52-11H69.36Zm1.52-14.76c1.76,0,2.56-.2,3.2-.84a5.68,5.68,0,0,0,0-6.44c-.64-.64-1.44-.84-3.2-.84H69.36v8.12Z" fill="#fff"/><path d="M97.64,431.51c0,3-.44,4.8-1.52,6.32a6.71,6.71,0,0,1-5.76,2.56,6.71,6.71,0,0,1-5.76-2.56c-1.08-1.52-1.52-3.32-1.52-6.32v-9.72c0-3,.44-4.8,1.52-6.32a6.71,6.71,0,0,1,5.76-2.56,6.71,6.71,0,0,1,5.76,2.56c1.08,1.52,1.52,3.32,1.52,6.32Zm-10.44-.08c0,2.12.12,2.84.52,3.64a3.14,3.14,0,0,0,5.28,0c.44-.84.52-1.48.52-3.64v-9.56c0-2.16-.08-2.8-.52-3.64a3.14,3.14,0,0,0-5.28,0c-.4.8-.52,1.52-.52,3.64Z" fill="#fff"/><path d="M108.44,413.31v20.16c0,2.8-.28,4-1.16,5s-2.12,1.48-4.16,1.48h-2.48v-3.88h1c2,0,2.72-.76,2.72-3V413.31Z" fill="#fff"/><path d="M125,417.11h-8v7h5.88V428H117v8.24h8V440H112.92V413.31H125Z" fill="#fff"/><path d="M138.48,422v-.56c0-3.08-1.08-4.64-3.12-4.64a2.61,2.61,0,0,0-2.44,1.32c-.52.88-.64,1.68-.64,3.84v8.88a11.43,11.43,0,0,0,.44,4,2.77,2.77,0,0,0,2.64,1.72c1.52,0,2.52-.88,3-2.64a15.06,15.06,0,0,0,.24-3.24h4.15v.92c0,5.8-2.51,8.84-7.31,8.84a6.59,6.59,0,0,1-6-3c-1-1.64-1.28-3.2-1.28-7.16v-7.48c0-4.24.32-5.72,1.56-7.4a6.69,6.69,0,0,1,5.64-2.48c4.56,0,7.23,3,7.23,8.28v.8Z" fill="#fff"/><path d="M154.63,440h-4.11V417.11h-5.16v-3.8h14.47v3.8h-5.2Z" fill="#fff"/><path d="M173.19,420.75c-.64-2.64-1.84-4-3.52-4a2.64,2.64,0,0,0-2.67,2.72,4,4,0,0,0,1.12,2.68c.67.76.67.76,3.51,2.92a22.3,22.3,0,0,1,4,3.6,7.79,7.79,0,0,1,1.72,4.88c0,4-3,6.8-7.31,6.8-4.56,0-7.24-2.44-8.08-7.52l4-1.16c.52,3.2,1.91,4.8,4.12,4.8a2.9,2.9,0,0,0,3-3c0-1.68-.84-2.76-3.95-5.2-3.72-2.92-3.88-3.08-4.88-4.36a7.23,7.23,0,0,1-1.48-4.44c0-3.84,2.88-6.56,6.95-6.56,3.8,0,6.36,2.28,7.48,6.68Z" fill="#fff"/><path d="M201.39,440,198,421.91,194.71,440h-3.83l-5-26.68h4l3,17.2,3.19-17.2h3.56l3.52,17.2,2.68-17.2h3.88L205.23,440Z" fill="#fff"/><path d="M217.43,440h-4.11V413.31h4.11Z" fill="#fff"/><path d="M230,440h-4.12V417.11h-5.16v-3.8h14.48v3.8H230Z" fill="#fff"/><path d="M242.59,428.23V440h-4.12V413.31h4.12v11.12h5.88V413.31h4.12V440h-4.12V428.23Z" fill="#fff"/></g></g></svg>