<svg xmlns="http://www.w3.org/2000/svg" viewBox="0 0 300 600"><title>txt3</title><g id="Layer_2" data-name="Layer 2"><g id="Rect"><rect width="300" height="600" fill="none"/></g><g id="WITH_THE_COLOR_RICHNESS_OF_OIL_" data-name="WITH THE  COLOR RICHNESS OF OIL,"><path d="M97.87,392.64l-3.62-19-3.4,19h-4l-5.25-28h4.2L89,382.68l3.36-18.06h3.74l3.7,18.06,2.81-18.06h4.07l-4.74,28Z" fill="#fff"/><path d="M114.71,392.64h-4.33v-28h4.33Z" fill="#fff"/><path d="M127.89,392.64h-4.32v-24h-5.42v-4h15.2v4h-5.46Z" fill="#fff"/><path d="M141.12,380.29v12.35H136.8v-28h4.32V376.3h6.18V364.62h4.32v28H147.3V380.29Z" fill="#fff"/><path d="M171,392.64H166.7v-24h-5.42v-4h15.21v4H171Z" fill="#fff"/><path d="M184.25,380.29v12.35h-4.32v-28h4.32V376.3h6.18V364.62h4.33v28h-4.33V380.29Z" fill="#fff"/><path d="M212.1,368.61h-8.36V376h6.18v4h-6.18v8.65h8.36v4H199.42v-28H212.1Z" fill="#fff"/><path d="M42.61,414.63V414c0-3.23-1.13-4.87-3.27-4.87a2.72,2.72,0,0,0-2.56,1.39c-.55.92-.68,1.76-.68,4v9.32a11.82,11.82,0,0,0,.47,4.16,2.9,2.9,0,0,0,2.77,1.81c1.59,0,2.64-.92,3.11-2.77a16.43,16.43,0,0,0,.25-3.41h4.37v1c0,6.09-2.65,9.28-7.69,9.28a6.94,6.94,0,0,1-6.26-3.1c-1-1.73-1.34-3.36-1.34-7.52v-7.86c0-4.45.33-6,1.64-7.77a7,7,0,0,1,5.92-2.61c4.79,0,7.6,3.2,7.6,8.7v.84Z" fill="#fff"/><path d="M66.26,424.63c0,3.15-.46,5-1.6,6.64a7,7,0,0,1-6,2.68c-2.69,0-4.79-.92-6-2.68-1.14-1.6-1.6-3.49-1.6-6.64V414.42c0-3.15.46-5,1.6-6.64a7.06,7.06,0,0,1,6-2.69,7.05,7.05,0,0,1,6,2.69c1.14,1.6,1.6,3.49,1.6,6.64Zm-11-.09c0,2.23.12,3,.54,3.83a3.3,3.3,0,0,0,5.55,0c.46-.88.54-1.56.54-3.83v-10c0-2.26-.08-2.94-.54-3.82a3.3,3.3,0,0,0-5.55,0c-.42.84-.54,1.6-.54,3.82Z" fill="#fff"/><path d="M75,429.54h8.62v4H70.67v-28H75Z" fill="#fff"/><path d="M102,424.63c0,3.15-.46,5-1.59,6.64-1.26,1.76-3.36,2.68-6,2.68s-4.79-.92-6.05-2.68c-1.13-1.6-1.6-3.49-1.6-6.64V414.42c0-3.15.47-5,1.6-6.64a7.06,7.06,0,0,1,6.05-2.69,7.06,7.06,0,0,1,6,2.69c1.13,1.6,1.59,3.49,1.59,6.64Zm-11-.09c0,2.23.13,3,.55,3.83a3.3,3.3,0,0,0,5.54,0c.46-.88.55-1.56.55-3.83v-10c0-2.26-.09-2.94-.55-3.82a3.3,3.3,0,0,0-5.54,0c-.42.84-.55,1.6-.55,3.82Z" fill="#fff"/><path d="M110.78,433.53h-4.33v-28h6.76c2.57,0,4.21.5,5.55,1.68a7.89,7.89,0,0,1,2.52,6.34c0,3.53-1.26,6-3.78,7.27l4.12,12.72h-4.54L113.38,422h-2.6Zm1.59-15.5c1.85,0,2.69-.21,3.37-.88a6,6,0,0,0,0-6.76c-.68-.67-1.52-.88-3.37-.88h-1.59V418Z" fill="#fff"/><path d="M136.48,433.53h-4.32v-28h6.76c2.56,0,4.2.5,5.54,1.68a7.89,7.89,0,0,1,2.52,6.34c0,3.53-1.26,6-3.78,7.27l4.12,12.72h-4.54L139.09,422h-2.61Zm1.6-15.5c1.85,0,2.69-.21,3.36-.88a6,6,0,0,0,0-6.76c-.67-.67-1.51-.88-3.36-.88h-1.6V418Z" fill="#fff"/><path d="M155.51,433.53h-4.33v-28h4.33Z" fill="#fff"/><path d="M170.75,414.63V414c0-3.23-1.13-4.87-3.27-4.87a2.72,2.72,0,0,0-2.56,1.39c-.55.92-.68,1.76-.68,4v9.32a12.13,12.13,0,0,0,.46,4.16,2.92,2.92,0,0,0,2.78,1.81c1.59,0,2.64-.92,3.11-2.77a16.43,16.43,0,0,0,.25-3.41h4.37v1c0,6.09-2.65,9.28-7.69,9.28-2.82,0-5-1.09-6.26-3.1-1-1.73-1.34-3.36-1.34-7.52v-7.86c0-4.45.33-6,1.63-7.77a7,7,0,0,1,5.93-2.61c4.79,0,7.6,3.2,7.6,8.7v.84Z" fill="#fff"/><path d="M183.6,421.18v12.35h-4.32v-28h4.32v11.67h6.18V405.52h4.33v28h-4.33V421.18Z" fill="#fff"/><path d="M214.31,433.53h-3.87l-7.56-18.65v18.65h-4.11v-28h4.36L210.19,423V405.52h4.12Z" fill="#fff"/><path d="M231.65,409.51h-8.36v7.39h6.18v4h-6.18v8.65h8.36v4H219v-28h12.68Z" fill="#fff"/><path d="M246.14,413.33c-.67-2.77-1.93-4.16-3.7-4.16a2.77,2.77,0,0,0-2.81,2.86,4.2,4.2,0,0,0,1.18,2.81c.71.8.71.8,3.69,3.07a22.86,22.86,0,0,1,4.16,3.78,8.13,8.13,0,0,1,1.81,5.12c0,4.25-3.11,7.14-7.69,7.14-4.79,0-7.6-2.56-8.49-7.89l4.16-1.22c.55,3.36,2,5,4.33,5a3,3,0,0,0,3.19-3.19c0-1.77-.88-2.9-4.16-5.46-3.9-3.07-4.07-3.24-5.12-4.58a7.6,7.6,0,0,1-1.55-4.67c0-4,3-6.89,7.3-6.89,4,0,6.68,2.4,7.86,7Z" fill="#fff"/><path d="M265.38,413.33c-.68-2.77-1.94-4.16-3.7-4.16a2.77,2.77,0,0,0-2.81,2.86,4.23,4.23,0,0,0,1.17,2.81c.72.8.72.8,3.7,3.07a23.59,23.59,0,0,1,4.16,3.78,8.18,8.18,0,0,1,1.8,5.12c0,4.25-3.11,7.14-7.68,7.14-4.79,0-7.61-2.56-8.49-7.89l4.16-1.22c.55,3.36,2,5,4.33,5a3,3,0,0,0,3.19-3.19c0-1.77-.88-2.9-4.16-5.46-3.91-3.07-4.07-3.24-5.13-4.58a7.66,7.66,0,0,1-1.55-4.67c0-4,3-6.89,7.31-6.89,4,0,6.68,2.4,7.86,7Z" fill="#fff"/><path d="M120.1,465.52c0,3.15-.46,5.05-1.59,6.64-1.26,1.77-3.36,2.69-6.05,2.69s-4.79-.92-6-2.69c-1.13-1.59-1.6-3.49-1.6-6.64v-10.2c0-3.15.47-5,1.6-6.64a8.15,8.15,0,0,1,12.1,0c1.13,1.6,1.59,3.49,1.59,6.64Zm-11-.08c0,2.23.13,3,.55,3.82a3.28,3.28,0,0,0,5.54,0c.46-.88.55-1.55.55-3.82v-10c0-2.27-.09-2.94-.55-3.82a3.3,3.3,0,0,0-5.54,0c-.42.84-.55,1.59-.55,3.82Z" fill="#fff"/><path d="M128.84,474.43h-4.33v-28h12.81v4h-8.48V458h6.3v4h-6.3Z" fill="#fff"/><path d="M162.19,465.52c0,3.15-.46,5.05-1.6,6.64-1.26,1.77-3.36,2.69-6.05,2.69s-4.79-.92-6-2.69c-1.13-1.59-1.59-3.49-1.59-6.64v-10.2c0-3.15.46-5,1.59-6.64a8.15,8.15,0,0,1,12.1,0c1.14,1.6,1.6,3.49,1.6,6.64Zm-11-.08c0,2.23.13,3,.55,3.82a3.28,3.28,0,0,0,5.54,0c.47-.88.55-1.55.55-3.82v-10c0-2.27-.08-2.94-.55-3.82a3.3,3.3,0,0,0-5.54,0c-.42.84-.55,1.59-.55,3.82Z" fill="#fff"/><path d="M170.92,474.43h-4.33v-28h4.33Z" fill="#fff"/><path d="M180,470.44h8.61v4H175.62v-28H180Z" fill="#fff"/><path d="M196,474.43l-2.48,5.8h-1.59l1.85-5.8h-1.85v-4.5H196Z" fill="#fff"/></g></g></svg>