<svg xmlns="http://www.w3.org/2000/svg" viewBox="0 0 300 600"><title>txt3</title><g id="Layer_2" data-name="Layer 2"><g id="Rect"><rect width="300" height="600" fill="none"/></g><g id="The_color_richness_of_oil" data-name="The colorrichness of oil"><path d="M87,405H82.88V382.11H77.72v-3.8H92.2v3.8H87Z" fill="#fff"/><path d="M99.6,393.23V405H95.48V378.31H99.6v11.12h5.88V378.31h4.12V405h-4.12V393.23Z" fill="#fff"/><path d="M126.12,382.11h-8v7H124V393h-5.88v8.24h8V405H114V378.31h12.08Z" fill="#fff"/><path d="M145.92,387v-.56c0-3.08-1.08-4.64-3.12-4.64a2.61,2.61,0,0,0-2.44,1.32c-.52.88-.64,1.68-.64,3.84v8.88a11.43,11.43,0,0,0,.44,4,2.77,2.77,0,0,0,2.64,1.72c1.52,0,2.52-.88,3-2.64a15.06,15.06,0,0,0,.24-3.24h4.16v.92c0,5.8-2.52,8.84-7.32,8.84a6.59,6.59,0,0,1-6-3c-1-1.64-1.28-3.2-1.28-7.16v-7.48c0-4.24.32-5.72,1.56-7.4a6.69,6.69,0,0,1,5.64-2.48c4.56,0,7.24,3,7.24,8.28v.8Z" fill="#fff"/><path d="M168.43,396.51c0,3-.44,4.8-1.51,6.32a7.76,7.76,0,0,1-11.52,0c-1.08-1.52-1.52-3.32-1.52-6.32v-9.72c0-3,.44-4.8,1.52-6.32a7.76,7.76,0,0,1,11.52,0c1.07,1.52,1.51,3.32,1.51,6.32ZM158,396.43c0,2.12.12,2.84.52,3.64a3.13,3.13,0,0,0,5.27,0c.45-.84.53-1.48.53-3.64v-9.56c0-2.16-.08-2.8-.53-3.64a3.13,3.13,0,0,0-5.27,0c-.4.8-.52,1.52-.52,3.64Z" fill="#fff"/><path d="M176.76,401.19H185V405H172.64V378.31h4.12Z" fill="#fff"/><path d="M202.51,396.51c0,3-.44,4.8-1.52,6.32a7.75,7.75,0,0,1-11.51,0c-1.08-1.52-1.52-3.32-1.52-6.32v-9.72c0-3,.44-4.8,1.52-6.32a7.75,7.75,0,0,1,11.51,0c1.08,1.52,1.52,3.32,1.52,6.32Zm-10.43-.08c0,2.12.12,2.84.52,3.64a3.13,3.13,0,0,0,5.27,0c.44-.84.52-1.48.52-3.64v-9.56c0-2.16-.08-2.8-.52-3.64a3.13,3.13,0,0,0-5.27,0c-.4.8-.52,1.52-.52,3.64Z" fill="#fff"/><path d="M210.83,405h-4.11V378.31h6.43c2.44,0,4,.48,5.28,1.6a7.52,7.52,0,0,1,2.4,6c0,3.36-1.2,5.68-3.6,6.92L221.15,405h-4.32l-3.52-11h-2.48Zm1.52-14.76c1.76,0,2.56-.2,3.2-.84a5.68,5.68,0,0,0,0-6.44c-.64-.64-1.44-.84-3.2-.84h-1.52v8.12Z" fill="#fff"/><path d="M44.58,440H40.46V413.31H46.9c2.44,0,4,.48,5.28,1.6a7.52,7.52,0,0,1,2.4,6c0,3.36-1.2,5.68-3.6,6.92L54.9,440H50.58l-3.52-11H44.58Zm1.52-14.76c1.76,0,2.56-.2,3.2-.84a5.68,5.68,0,0,0,0-6.44c-.64-.64-1.44-.84-3.2-.84H44.58v8.12Z" fill="#fff"/><path d="M62.7,440H58.58V413.31H62.7Z" fill="#fff"/><path d="M77.22,422v-.56c0-3.08-1.08-4.64-3.12-4.64a2.61,2.61,0,0,0-2.44,1.32c-.52.88-.64,1.68-.64,3.84v8.88a11.43,11.43,0,0,0,.44,4,2.77,2.77,0,0,0,2.64,1.72c1.52,0,2.52-.88,3-2.64a15.06,15.06,0,0,0,.24-3.24h4.16v.92c0,5.8-2.52,8.84-7.32,8.84a6.59,6.59,0,0,1-6-3c-1-1.64-1.28-3.2-1.28-7.16v-7.48c0-4.24.32-5.72,1.56-7.4a6.69,6.69,0,0,1,5.64-2.48c4.56,0,7.24,3,7.24,8.28v.8Z" fill="#fff"/><path d="M89.46,428.23V440H85.34V413.31h4.12v11.12h5.88V413.31h4.12V440H95.34V428.23Z" fill="#fff"/><path d="M118.7,440H115l-7.2-17.76V440H103.9V413.31h4.16l6.72,16.6v-16.6h3.92Z" fill="#fff"/><path d="M135.22,417.11h-8v7h5.88V428h-5.88v8.24h8V440H123.14V413.31h12.08Z" fill="#fff"/><path d="M149,420.75c-.64-2.64-1.84-4-3.52-4a2.64,2.64,0,0,0-2.68,2.72,4,4,0,0,0,1.12,2.68c.68.76.68.76,3.52,2.92a22.68,22.68,0,0,1,4,3.6,7.84,7.84,0,0,1,1.71,4.88c0,4-3,6.8-7.31,6.8-4.56,0-7.24-2.44-8.08-7.52l4-1.16c.52,3.2,1.92,4.8,4.12,4.8a2.89,2.89,0,0,0,3-3c0-1.68-.83-2.76-3.95-5.2-3.72-2.92-3.88-3.08-4.88-4.36a7.23,7.23,0,0,1-1.48-4.44c0-3.84,2.88-6.56,7-6.56,3.79,0,6.35,2.28,7.47,6.68Z" fill="#fff"/><path d="M167.33,420.75c-.64-2.64-1.84-4-3.52-4a2.64,2.64,0,0,0-2.68,2.72,4.05,4.05,0,0,0,1.12,2.68c.68.76.68.76,3.52,2.92a22.3,22.3,0,0,1,4,3.6,7.79,7.79,0,0,1,1.72,4.88c0,4-3,6.8-7.32,6.8-4.55,0-7.23-2.44-8.07-7.52l3.95-1.16c.53,3.2,1.92,4.8,4.12,4.8a2.9,2.9,0,0,0,3-3c0-1.68-.84-2.76-4-5.2-3.71-2.92-3.88-3.08-4.88-4.36a7.29,7.29,0,0,1-1.47-4.44c0-3.84,2.88-6.56,6.95-6.56,3.8,0,6.36,2.28,7.48,6.68Z" fill="#fff"/><path d="M195.53,431.51c0,3-.44,4.8-1.52,6.32a7.75,7.75,0,0,1-11.51,0c-1.08-1.52-1.52-3.32-1.52-6.32v-9.72c0-3,.44-4.8,1.52-6.32a7.75,7.75,0,0,1,11.51,0c1.08,1.52,1.52,3.32,1.52,6.32Zm-10.44-.08c0,2.12.12,2.84.53,3.64a3.13,3.13,0,0,0,5.27,0c.44-.84.52-1.48.52-3.64v-9.56c0-2.16-.08-2.8-.52-3.64a3.13,3.13,0,0,0-5.27,0c-.41.8-.53,1.52-.53,3.64Z" fill="#fff"/><path d="M203.85,440h-4.11V413.31h12.19v3.8h-8.08v7.2h6v3.8h-6Z" fill="#fff"/><path d="M235.61,431.51c0,3-.44,4.8-1.52,6.32a7.76,7.76,0,0,1-11.52,0c-1.08-1.52-1.52-3.32-1.52-6.32v-9.72c0-3,.44-4.8,1.52-6.32a7.76,7.76,0,0,1,11.52,0c1.08,1.52,1.52,3.32,1.52,6.32Zm-10.44-.08c0,2.12.12,2.84.52,3.64a3.14,3.14,0,0,0,5.28,0c.44-.84.52-1.48.52-3.64v-9.56c0-2.16-.08-2.8-.52-3.64a3.14,3.14,0,0,0-5.28,0c-.4.8-.52,1.52-.52,3.64Z" fill="#fff"/><path d="M243.93,440h-4.11V413.31h4.11Z" fill="#fff"/><path d="M252.53,436.19h8.2V440H248.42V413.31h4.11Z" fill="#fff"/></g></g></svg>