<svg xmlns="http://www.w3.org/2000/svg" viewBox="0 0 300 600"><title>txt3</title><g id="Layer_2" data-name="Layer 2"><g id="Rect"><rect width="300" height="600" fill="none"/></g><g id="BUT_WITH_LESS_MESS" data-name="BUT WITH LESSMESS"><path d="M119.69,372.45h7c5.72,0,8.91,2.79,8.91,7.72,0,3.61-1.59,5.76-5,6.81,4.11,1.19,5.76,3.29,5.76,7.31,0,5.4-3.39,8.64-9.05,8.64h-7.63Zm6.39,12.43c2.88,0,4.76-1.69,4.76-4.3a3.79,3.79,0,0,0-1.15-2.83c-.77-.69-1.73-1-3.51-1h-1.79v8.09Zm.69,13.71c3,0,4.71-1.55,4.71-4.3,0-3.06-2.11-5.07-5.4-5.07h-1.69v9.37Z" fill="#fff"/><path d="M157.12,372.45v20.66c0,3.83-.46,5.8-1.74,7.54a8.68,8.68,0,0,1-12.66,0c-1.28-1.74-1.74-3.71-1.74-7.54V372.45h4.71v21.43c0,3.61,1,5.08,3.38,5.08s3.34-1.47,3.34-5.08V372.45Z" fill="#fff"/><path d="M171.47,402.93h-4.71V376.79h-5.89v-4.34h16.54v4.34h-5.94Z" fill="#fff"/><path d="M88.24,448.79l-3.93-20.65-3.7,20.65H76.22l-5.71-30.48h4.57L78.55,438l3.66-19.65h4.06l4,19.65,3.06-19.65h4.43l-5.16,30.48Z" fill="#fff"/><path d="M106.57,448.79h-4.71V418.31h4.71Z" fill="#fff"/><path d="M120.92,448.79h-4.71V422.65h-5.89v-4.34h16.54v4.34h-5.94Z" fill="#fff"/><path d="M135.32,435.36v13.43h-4.71V418.31h4.71V431H142V418.31h4.7v30.48H142V435.36Z" fill="#fff"/><path d="M164,444.45h9.37v4.34H159.27V418.31H164Z" fill="#fff"/><path d="M190.53,422.65h-9.1v8.05h6.72V435h-6.72v9.41h9.1v4.34h-13.8V418.31h13.8Z" fill="#fff"/><path d="M206.3,426.81c-.73-3-2.11-4.52-4-4.52a3,3,0,0,0-3.07,3.1,4.59,4.59,0,0,0,1.28,3.07c.78.87.78.87,4,3.33a25.41,25.41,0,0,1,4.53,4.12,8.88,8.88,0,0,1,2,5.57c0,4.62-3.38,7.77-8.36,7.77-5.21,0-8.27-2.79-9.23-8.59l4.52-1.33c.6,3.66,2.2,5.49,4.71,5.49a3.31,3.31,0,0,0,3.47-3.48c0-1.92-1-3.15-4.52-5.94-4.25-3.33-4.43-3.52-5.58-5a8.31,8.31,0,0,1-1.69-5.07c0-4.39,3.29-7.5,8-7.5,4.34,0,7.26,2.61,8.54,7.64Z" fill="#fff"/><path d="M227.23,426.81c-.73-3-2.1-4.52-4-4.52a3,3,0,0,0-3.06,3.1,4.58,4.58,0,0,0,1.27,3.07c.78.87.78.87,4,3.33a24.89,24.89,0,0,1,4.52,4.12,8.83,8.83,0,0,1,2,5.57c0,4.62-3.39,7.77-8.37,7.77-5.21,0-8.27-2.79-9.23-8.59l4.53-1.33c.59,3.66,2.19,5.49,4.7,5.49a3.32,3.32,0,0,0,3.48-3.48c0-1.92-1-3.15-4.53-5.94-4.25-3.33-4.43-3.52-5.57-5a8.25,8.25,0,0,1-1.69-5.07c0-4.39,3.29-7.5,8-7.5,4.34,0,7.26,2.61,8.54,7.64Z" fill="#fff"/><path d="M132.85,494.66h-4.48V472.22l-5.3,22.44h-2.65l-5.26-22.44v22.44h-4.48V464.17h6.9l4.21,19.15L126,464.17h6.81Z" fill="#fff"/><path d="M151.77,468.52h-9.09v8h6.71v4.34h-6.71v9.41h9.09v4.35H138V464.17h13.8Z" fill="#fff"/><path d="M167.54,472.67c-.73-3-2.1-4.52-4-4.52a3,3,0,0,0-3.07,3.11,4.59,4.59,0,0,0,1.28,3.06c.78.87.78.87,4,3.34a26.07,26.07,0,0,1,4.52,4.11,8.94,8.94,0,0,1,2,5.57c0,4.62-3.39,7.77-8.37,7.77-5.21,0-8.27-2.78-9.23-8.59l4.52-1.32c.6,3.65,2.2,5.48,4.71,5.48a3.31,3.31,0,0,0,3.47-3.47c0-1.92-.95-3.16-4.52-5.94-4.25-3.34-4.43-3.52-5.58-5a8.32,8.32,0,0,1-1.69-5.08c0-4.38,3.29-7.49,8-7.49,4.34,0,7.26,2.6,8.54,7.63Z" fill="#fff"/><path d="M188.47,472.67c-.73-3-2.1-4.52-4-4.52a3,3,0,0,0-3.06,3.11,4.54,4.54,0,0,0,1.28,3.06c.77.87.77.87,4,3.34a25.31,25.31,0,0,1,4.52,4.11,8.88,8.88,0,0,1,2,5.57c0,4.62-3.38,7.77-8.36,7.77-5.21,0-8.28-2.78-9.24-8.59l4.53-1.32c.59,3.65,2.19,5.48,4.71,5.48a3.31,3.31,0,0,0,3.47-3.47c0-1.92-1-3.16-4.53-5.94-4.25-3.34-4.43-3.52-5.57-5a8.26,8.26,0,0,1-1.69-5.08c0-4.38,3.29-7.49,7.95-7.49,4.34,0,7.27,2.6,8.55,7.63Z" fill="#fff"/></g></g></svg>