<svg xmlns="http://www.w3.org/2000/svg" viewBox="0 0 300 600"><title>txt4</title><g id="Layer_2" data-name="Layer 2"><g id="Rect"><rect width="300" height="600" fill="none"/></g><g id="without_the_cleanup." data-name="without thecleanup."><path d="M76.68,475l-3.44-18.08L70,475H66.16l-5-26.68h4l3,17.2,3.2-17.2H75l3.52,17.2,2.67-17.2H85L80.52,475Z" fill="#fff"/><path d="M92.72,475H88.6V448.31h4.12Z" fill="#fff"/><path d="M105.28,475h-4.12V452.11H96v-3.8h14.47v3.8h-5.19Z" fill="#fff"/><path d="M117.88,463.23V475h-4.12V448.31h4.12v11.12h5.88V448.31h4.11V475h-4.11V463.23Z" fill="#fff"/><path d="M146.59,466.51c0,3-.44,4.8-1.52,6.32a7.75,7.75,0,0,1-11.51,0c-1.08-1.52-1.52-3.32-1.52-6.32v-9.72c0-3,.44-4.8,1.52-6.32a7.75,7.75,0,0,1,11.51,0c1.08,1.52,1.52,3.32,1.52,6.32Zm-10.43-.08c0,2.12.12,2.84.52,3.64a3.14,3.14,0,0,0,5.28,0c.44-.84.51-1.48.51-3.64v-9.56c0-2.16-.07-2.8-.51-3.64a3.14,3.14,0,0,0-5.28,0c-.4.8-.52,1.52-.52,3.64Z" fill="#fff"/><path d="M164.91,448.31v18.08c0,3.36-.4,5.08-1.52,6.6a7.58,7.58,0,0,1-11.07,0c-1.12-1.52-1.52-3.24-1.52-6.6V448.31h4.12v18.76c0,3.16.84,4.44,3,4.44s2.91-1.28,2.91-4.44V448.31Z" fill="#fff"/><path d="M177.47,475h-4.11V452.11H168.2v-3.8h14.47v3.8h-5.2Z" fill="#fff"/><path d="M199.4,475h-4.12V452.11h-5.16v-3.8h14.47v3.8H199.4Z" fill="#fff"/><path d="M212,463.23V475h-4.12V448.31H212v11.12h5.88V448.31H222V475h-4.11V463.23Z" fill="#fff"/><path d="M238.51,452.11h-7.95v7h5.87V463h-5.87v8.24h7.95V475H226.44V448.31h12.07Z" fill="#fff"/><path d="M98.4,492v-.56c0-3.08-1.08-4.64-3.12-4.64a2.61,2.61,0,0,0-2.44,1.32c-.52.88-.64,1.68-.64,3.84v8.88a11.43,11.43,0,0,0,.44,4,2.77,2.77,0,0,0,2.64,1.72c1.52,0,2.52-.88,3-2.64a15.06,15.06,0,0,0,.24-3.24h4.16v.92c0,5.8-2.52,8.84-7.32,8.84a6.59,6.59,0,0,1-6-3c-1-1.64-1.28-3.2-1.28-7.16v-7.48c0-4.24.32-5.72,1.56-7.4a6.69,6.69,0,0,1,5.64-2.48c4.56,0,7.24,3,7.24,8.28v.8Z" fill="#fff"/><path d="M110.64,506.19h8.19V510H106.52V483.31h4.12Z" fill="#fff"/><path d="M133.88,487.11h-8v7h5.88V498h-5.88v8.24h8V510H121.8V483.31h12.08Z" fill="#fff"/><path d="M142.08,504.19,141,510h-4l5.12-26.68h5.63l5.4,26.68h-4.24l-1.12-5.8Zm2.8-15.76-2.16,12h4.35Z" fill="#fff"/><path d="M171.15,510h-3.68l-7.19-17.76V510h-3.92V483.31h4.16l6.71,16.6v-16.6h3.92Z" fill="#fff"/><path d="M189.71,483.31v18.08c0,3.36-.4,5.08-1.52,6.6a7.58,7.58,0,0,1-11.07,0c-1.12-1.52-1.52-3.24-1.52-6.6V483.31h4.11v18.76c0,3.16.84,4.44,3,4.44s2.92-1.28,2.92-4.44V483.31Z" fill="#fff"/><path d="M198.27,510h-4.11V483.31H201c2.68,0,4.36.52,5.6,1.72,1.44,1.36,2.12,3.36,2.12,6.2s-.68,4.88-2.12,6.24c-1.24,1.2-2.92,1.72-5.6,1.72h-2.72Zm1.8-14.6c3.32,0,4.36-1,4.36-4.16s-1-4.12-4.36-4.12h-1.8v8.28Z" fill="#fff"/><path d="M211.83,510H208v-4.28h3.87Z" fill="#fff"/></g></g></svg>