<svg xmlns="http://www.w3.org/2000/svg" viewBox="0 0 300 600"><title>txt4</title><g id="Layer_2" data-name="Layer 2"><g id="Rect"><rect width="300" height="600" fill="none"/></g><g id="AND_THE_BENEFITS_OF_WATER." data-name="AND THEBENEFITSOF WATER."><path d="M93.52,396.3l-1.23,6.63H87.67l5.85-30.48H100l6.17,30.48h-4.85L100,396.3Zm3.2-18L94.26,392h5Z" fill="#fff"/><path d="M126.75,402.93h-4.2l-8.23-20.29v20.29h-4.48V372.45h4.75l7.68,19v-19h4.48Z" fill="#fff"/><path d="M131.83,372.45h7.45c6,0,8.82,3.06,8.82,9.55v11.38c0,6.49-2.84,9.55-8.82,9.55h-7.45Zm7,26.14c3.34,0,4.53-1.74,4.53-6.49v-8.82c0-4.8-1.19-6.49-4.53-6.49h-2.33v21.8Z" fill="#fff"/><path d="M168.89,402.93h-4.7V376.79h-5.9v-4.34h16.54v4.34h-5.94Z" fill="#fff"/><path d="M183.29,389.5v13.43h-4.71V372.45h4.71v12.7H190v-12.7h4.71v30.48H190V389.5Z" fill="#fff"/><path d="M213.59,376.79H204.5v8h6.72v4.34H204.5v9.42h9.09v4.34h-13.8V372.45h13.8Z" fill="#fff"/><path d="M80.73,418.31h7c5.71,0,8.91,2.79,8.91,7.73,0,3.61-1.6,5.75-5,6.8,4.11,1.19,5.76,3.29,5.76,7.32,0,5.39-3.38,8.63-9,8.63H80.73Zm6.4,12.43c2.88,0,4.75-1.69,4.75-4.29a3.83,3.83,0,0,0-1.14-2.84c-.78-.68-1.74-1-3.52-1H85.44v8.09Zm.68,13.71c3,0,4.71-1.55,4.71-4.29,0-3.07-2.1-5.08-5.39-5.08H85.44v9.37Z" fill="#fff"/><path d="M115.83,422.65h-9.1v8.05h6.72V435h-6.72v9.41h9.1v4.34H102V418.31h13.8Z" fill="#fff"/><path d="M136.44,448.79h-4.2L124,428.5v20.29h-4.48V418.31h4.76l7.67,19v-19h4.48Z" fill="#fff"/><path d="M155.32,422.65h-9.1v8.05h6.72V435h-6.72v9.41h9.1v4.34h-13.8V418.31h13.8Z" fill="#fff"/><path d="M164.09,448.79h-4.7V418.31h13.94v4.34h-9.24v8.23H171v4.34h-6.86Z" fill="#fff"/><path d="M181.32,448.79h-4.7V418.31h4.7Z" fill="#fff"/><path d="M195.67,448.79H191V422.65h-5.9v-4.34h16.55v4.34h-6Z" fill="#fff"/><path d="M216.88,426.81c-.73-3-2.1-4.52-4-4.52a3,3,0,0,0-3.06,3.11,4.54,4.54,0,0,0,1.28,3.06c.77.87.77.87,4,3.33a24.89,24.89,0,0,1,4.52,4.12,8.88,8.88,0,0,1,2,5.57c0,4.62-3.38,7.77-8.36,7.77-5.21,0-8.28-2.79-9.24-8.59l4.53-1.33c.59,3.66,2.19,5.49,4.71,5.49a3.31,3.31,0,0,0,3.47-3.48c0-1.91-1-3.15-4.53-5.94-4.25-3.33-4.43-3.52-5.57-5a8.23,8.23,0,0,1-1.69-5.07c0-4.39,3.29-7.49,8-7.49,4.34,0,7.27,2.6,8.55,7.63Z" fill="#fff"/><path d="M94.05,485c0,3.43-.5,5.48-1.74,7.22-1.37,1.92-3.65,2.92-6.58,2.92s-5.21-1-6.58-2.92c-1.23-1.74-1.74-3.79-1.74-7.22V473.86c0-3.42.51-5.48,1.74-7.22,1.37-1.92,3.66-2.92,6.58-2.92s5.21,1,6.58,2.92c1.24,1.74,1.74,3.8,1.74,7.22Zm-11.93-.09c0,2.42.14,3.24.59,4.16a3.6,3.6,0,0,0,6,0c.5-1,.59-1.7.59-4.16V474c0-2.46-.09-3.2-.59-4.16a3.6,3.6,0,0,0-6,0c-.45.92-.59,1.74-.59,4.16Z" fill="#fff"/><path d="M103.56,494.66H98.85V464.17h13.94v4.35h-9.23v8.22h6.85v4.34h-6.85Z" fill="#fff"/><path d="M139.85,494.66,135.92,474l-3.71,20.66h-4.38l-5.72-30.49h4.57l3.48,19.66,3.65-19.66h4.07l4,19.66L145,464.17h4.44l-5.17,30.49Z" fill="#fff"/><path d="M156.48,488l-1.23,6.63h-4.62l5.85-30.49h6.45l6.17,30.49h-4.85L163,488Zm3.2-18-2.46,13.67h5Z" fill="#fff"/><path d="M180.16,494.66h-4.71V468.52h-5.89v-4.35H186.1v4.35h-5.94Z" fill="#fff"/><path d="M203.65,468.52h-9.09v8h6.72v4.34h-6.72v9.41h9.09v4.35h-13.8V464.17h13.8Z" fill="#fff"/><path d="M212.06,494.66h-4.7V464.17h7.35c2.79,0,4.57.55,6,1.83,1.82,1.56,2.74,3.89,2.74,6.9,0,3.84-1.37,6.49-4.12,7.91l4.48,13.85h-4.93l-4-12.53h-2.84Zm1.74-16.87c2,0,2.92-.23,3.66-1a5.08,5.08,0,0,0,1.14-3.7,5,5,0,0,0-1.14-3.65c-.74-.74-1.65-1-3.66-1h-1.74v9.27Z" fill="#fff"/><path d="M232.17,494.66h-4.43v-4.89h4.43Z" fill="#fff"/></g></g></svg>