<svg xmlns="http://www.w3.org/2000/svg" viewBox="0 0 300 600"><title>txt4</title><g id="Layer_2" data-name="Layer 2"><g id="Rect"><rect width="300" height="600" fill="none"/></g><g id="BUT_WITH_LESS_MESS_AND..." data-name="BUT WITH LESS MESS AND..."><path d="M42.59,388.62h6.47c5.25,0,8.19,2.56,8.19,7.1,0,3.32-1.47,5.29-4.62,6.26,3.78,1.09,5.29,3,5.29,6.72,0,5-3.1,7.94-8.31,7.94h-7Zm5.88,11.43c2.65,0,4.37-1.56,4.37-3.95a3.53,3.53,0,0,0-1.05-2.61,4.45,4.45,0,0,0-3.23-.88H46.92v7.44Zm.63,12.6c2.78,0,4.33-1.43,4.33-3.95,0-2.81-1.93-4.66-5-4.66H46.92v8.61Z" fill="#fff"/><path d="M77,388.62v19c0,3.53-.42,5.33-1.59,6.93a7,7,0,0,1-5.8,2.52,7,7,0,0,1-5.84-2.52c-1.18-1.6-1.6-3.4-1.6-6.93v-19h4.33v19.7c0,3.32.88,4.67,3.11,4.67s3.07-1.35,3.07-4.67v-19.7Z" fill="#fff"/><path d="M90.18,416.64H85.85v-24H80.43v-4H95.64v4H90.18Z" fill="#fff"/><path d="M120.29,416.64l-3.61-19-3.4,19h-4l-5.25-28h4.2l3.19,18.06,3.36-18.06h3.74l3.69,18.06L125,388.62h4.07l-4.74,28Z" fill="#fff"/><path d="M137.13,416.64h-4.32v-28h4.32Z" fill="#fff"/><path d="M150.32,416.64H146v-24h-5.41v-4h15.2v4h-5.46Z" fill="#fff"/><path d="M163.55,404.29v12.35h-4.33v-28h4.33V400.3h6.18V388.62h4.32v28h-4.32V404.29Z" fill="#fff"/><path d="M189.88,412.65h8.62v4H185.56v-28h4.32Z" fill="#fff"/><path d="M214.29,392.61h-8.36V400h6.17v4h-6.17v8.65h8.36v4H201.6v-28h12.69Z" fill="#fff"/><path d="M228.78,396.43c-.68-2.77-1.94-4.15-3.7-4.15a2.77,2.77,0,0,0-2.82,2.85,4.2,4.2,0,0,0,1.18,2.82c.72.79.72.79,3.7,3.06a24,24,0,0,1,4.16,3.78,8.23,8.23,0,0,1,1.8,5.13c0,4.24-3.11,7.14-7.68,7.14-4.79,0-7.61-2.56-8.49-7.9l4.16-1.22c.54,3.36,2,5.05,4.33,5.05a3,3,0,0,0,3.19-3.2c0-1.76-.88-2.9-4.16-5.46-3.91-3.07-4.07-3.23-5.13-4.58a7.64,7.64,0,0,1-1.55-4.66c0-4,3-6.89,7.31-6.89,4,0,6.68,2.39,7.85,7Z" fill="#fff"/><path d="M248,396.43c-.67-2.77-1.93-4.15-3.7-4.15a2.77,2.77,0,0,0-2.81,2.85,4.2,4.2,0,0,0,1.18,2.82c.71.79.71.79,3.69,3.06a23.24,23.24,0,0,1,4.16,3.78,8.18,8.18,0,0,1,1.81,5.13c0,4.24-3.11,7.14-7.69,7.14-4.79,0-7.6-2.56-8.48-7.9l4.15-1.22c.55,3.36,2,5.05,4.33,5.05a3,3,0,0,0,3.19-3.2c0-1.76-.88-2.9-4.16-5.46-3.9-3.07-4.07-3.23-5.12-4.58a7.57,7.57,0,0,1-1.55-4.66c0-4,3-6.89,7.3-6.89,4,0,6.68,2.39,7.86,7Z" fill="#fff"/><path d="M88.59,457.53H84.47V436.91L79.6,457.53H77.16l-4.83-20.62v20.62H68.21v-28h6.34l3.87,17.6,3.91-17.6h6.26Z" fill="#fff"/><path d="M106,433.51H97.61v7.39h6.18v4H97.61v8.65H106v4H93.29v-28H106Z" fill="#fff"/><path d="M120.46,437.33c-.67-2.77-1.93-4.16-3.7-4.16A2.77,2.77,0,0,0,114,436a4.23,4.23,0,0,0,1.17,2.81c.72.8.72.8,3.7,3.07a23.22,23.22,0,0,1,4.16,3.78,8.19,8.19,0,0,1,1.81,5.12c0,4.25-3.11,7.14-7.69,7.14-4.79,0-7.6-2.56-8.49-7.89l4.16-1.22c.55,3.36,2,5,4.33,5a3,3,0,0,0,3.19-3.19c0-1.77-.88-2.9-4.16-5.46-3.9-3.07-4.07-3.24-5.12-4.58a7.61,7.61,0,0,1-1.56-4.67c0-4,3-6.89,7.31-6.89,4,0,6.68,2.4,7.86,7Z" fill="#fff"/><path d="M139.69,437.33c-.67-2.77-1.93-4.16-3.69-4.16a2.78,2.78,0,0,0-2.82,2.86,4.2,4.2,0,0,0,1.18,2.81c.71.8.71.8,3.7,3.07a23.59,23.59,0,0,1,4.16,3.78,8.18,8.18,0,0,1,1.8,5.12c0,4.25-3.11,7.14-7.69,7.14-4.78,0-7.6-2.56-8.48-7.89l4.16-1.22c.54,3.36,2,5,4.32,5a3,3,0,0,0,3.2-3.19c0-1.77-.88-2.9-4.16-5.46-3.91-3.07-4.08-3.24-5.13-4.58a7.66,7.66,0,0,1-1.55-4.67c0-4,3-6.89,7.31-6.89,4,0,6.68,2.4,7.85,7Z" fill="#fff"/><path d="M158.68,451.44l-1.14,6.09H153.3l5.38-28h5.92l5.67,28h-4.45l-1.18-6.09Zm2.94-16.55-2.27,12.56h4.58Z" fill="#fff"/><path d="M189.21,457.53h-3.86l-7.56-18.65v18.65h-4.12v-28H178L185.1,447V429.52h4.11Z" fill="#fff"/><path d="M193.87,429.52h6.85c5.5,0,8.11,2.81,8.11,8.77v10.46c0,6-2.61,8.78-8.11,8.78h-6.85Zm6.47,24c3.07,0,4.16-1.59,4.16-6v-8.11c0-4.41-1.09-6-4.16-6H198.2v20Z" fill="#fff"/><path d="M216.64,457.53h-4.08V453h4.08Z" fill="#fff"/><path d="M224.74,457.53h-4.07V453h4.07Z" fill="#fff"/><path d="M232.85,457.53h-4.08V453h4.08Z" fill="#fff"/></g></g></svg>