<svg xmlns="http://www.w3.org/2000/svg" viewBox="0 0 300 600"><title>txt5</title><g id="Layer_2" data-name="Layer 2"><g id="Rect"><rect width="300" height="600" fill="none"/></g><g id="THE_BENEFITS_OF_WATER." data-name="THE BENEFITSOFWATER."><path d="M130.9,381.64h-4.33v-24h-5.42v-4h15.21v4H130.9Z" fill="#fff"/><path d="M144.13,369.29v12.35H139.8v-28h4.33V365.3h6.17V353.62h4.33v28H150.3V369.29Z" fill="#fff"/><path d="M172,357.61h-8.36V365h6.18v4h-6.18v8.65H172v4H159.29v-28H172Z" fill="#fff"/><path d="M86.17,394.52h6.47c5.25,0,8.19,2.56,8.19,7.09,0,3.32-1.47,5.3-4.62,6.26,3.78,1.1,5.29,3,5.29,6.72,0,5-3.11,7.94-8.32,7.94h-7Zm5.88,11.42c2.64,0,4.37-1.55,4.37-3.95a3.51,3.51,0,0,0-1-2.6,4.48,4.48,0,0,0-3.24-.88H90.49v7.43Zm.63,12.6c2.77,0,4.32-1.42,4.32-4,0-2.81-1.93-4.66-5-4.66H90.49v8.61Z" fill="#fff"/><path d="M118.42,398.51h-8.36v7.39h6.18v4h-6.18v8.65h8.36v4H105.74v-28h12.68Z" fill="#fff"/><path d="M137.37,422.53H133.5l-7.56-18.65v18.65h-4.12v-28h4.37L133.25,412V394.52h4.12Z" fill="#fff"/><path d="M154.71,398.51h-8.36v7.39h6.18v4h-6.18v8.65h8.36v4H142v-28h12.68Z" fill="#fff"/><path d="M162.77,422.53h-4.32v-28h12.81v4h-8.49v7.56h6.3v4h-6.3Z" fill="#fff"/><path d="M178.61,422.53h-4.33v-28h4.33Z" fill="#fff"/><path d="M191.79,422.53h-4.32v-24h-5.42v-4h15.21v4h-5.47Z" fill="#fff"/><path d="M211.28,402.33c-.67-2.77-1.93-4.16-3.69-4.16a2.78,2.78,0,0,0-2.82,2.86,4.2,4.2,0,0,0,1.18,2.81c.71.8.71.8,3.69,3.07a22.86,22.86,0,0,1,4.16,3.78,8.13,8.13,0,0,1,1.81,5.12c0,4.25-3.11,7.14-7.69,7.14-4.79,0-7.6-2.56-8.48-7.89l4.16-1.22c.54,3.36,2,5,4.32,5a3,3,0,0,0,3.2-3.19c0-1.77-.89-2.9-4.16-5.46-3.91-3.07-4.08-3.24-5.13-4.58a7.6,7.6,0,0,1-1.55-4.67c0-4,3-6.89,7.31-6.89,4,0,6.68,2.4,7.85,7Z" fill="#fff"/><path d="M150,454.52c0,3.15-.47,5.05-1.6,6.64-1.26,1.77-3.36,2.69-6,2.69s-4.79-.92-6.05-2.69c-1.13-1.59-1.59-3.49-1.59-6.64v-10.2c0-3.15.46-5,1.59-6.64a8.15,8.15,0,0,1,12.1,0c1.13,1.6,1.6,3.49,1.6,6.64Zm-11-.08c0,2.23.13,3,.55,3.82a3.28,3.28,0,0,0,5.54,0c.47-.88.55-1.55.55-3.82v-10c0-2.27-.08-2.94-.55-3.82a3.3,3.3,0,0,0-5.54,0c-.42.84-.55,1.59-.55,3.82Z" fill="#fff"/><path d="M158.72,463.43h-4.33v-28h12.82v4h-8.49V447H165v4h-6.3Z" fill="#fff"/><path d="M115.61,504.32l-3.61-19-3.41,19h-4l-5.25-28h4.2l3.19,18.06,3.36-18.06h3.74l3.7,18.06,2.81-18.06h4.08l-4.75,28Z" fill="#fff"/><path d="M130.9,498.23l-1.14,6.09h-4.24l5.38-28h5.92l5.67,28H138l-1.18-6.09Zm2.94-16.55-2.27,12.56h4.58Z" fill="#fff"/><path d="M152.65,504.32h-4.32v-24h-5.42v-4h15.2v4h-5.46Z" fill="#fff"/><path d="M174.24,480.3h-8.36v7.39h6.18v4h-6.18v8.65h8.36v4H161.55v-28h12.69Z" fill="#fff"/><path d="M182,504.32h-4.33v-28h6.76c2.57,0,4.2.5,5.55,1.68a7.89,7.89,0,0,1,2.52,6.34c0,3.53-1.26,6-3.78,7.27l4.11,12.72h-4.53l-3.7-11.51H182Zm1.59-15.5c1.85,0,2.69-.21,3.36-.88a6,6,0,0,0,0-6.76c-.67-.67-1.51-.88-3.36-.88H182v8.52Z" fill="#fff"/><path d="M200.45,504.32h-4.08v-4.49h4.08Z" fill="#fff"/></g></g></svg>