<svg xmlns="http://www.w3.org/2000/svg" viewBox="0 0 728 90"><title>txt1</title><g id="Layer_2" data-name="Layer 2"><g id="Rect"><rect width="728" height="90" fill="none"/></g><g id="TODAY_LET_S_STAIN" data-name="TODAY LET’S STAIN"><path d="M270.42,55h-3.18V37.31h-4V34.38h11.19v2.93h-4Z" fill="#fff"/><path d="M287.88,48.43c0,2.32-.34,3.71-1.18,4.89a6,6,0,0,1-8.9,0c-.83-1.18-1.17-2.57-1.17-4.89v-7.5c0-2.32.34-3.71,1.17-4.89a6,6,0,0,1,8.9,0c.84,1.18,1.18,2.57,1.18,4.89Zm-8.07-.06a5.76,5.76,0,0,0,.4,2.81,2.3,2.3,0,0,0,2,1.12,2.28,2.28,0,0,0,2-1.12,5.28,5.28,0,0,0,.41-2.81V41a5.3,5.3,0,0,0-.41-2.81,2.28,2.28,0,0,0-2-1.12,2.3,2.3,0,0,0-2,1.12,5.76,5.76,0,0,0-.4,2.81Z" fill="#fff"/><path d="M291.12,34.38h5c4,0,6,2.07,6,6.45v7.7c0,4.39-1.92,6.46-6,6.46h-5Zm4.76,17.67c2.25,0,3.06-1.17,3.06-4.39v-6c0-3.25-.81-4.39-3.06-4.39H294.3V52.05Z" fill="#fff"/><path d="M308.33,50.5,307.49,55h-3.12l4-20.61h4.35L316.86,55h-3.28l-.86-4.49Zm2.16-12.17-1.67,9.24h3.37Z" fill="#fff"/><path d="M324.83,55h-3.19V47L317,34.38h3.52l2.75,8.71,2.84-8.71h3.46L324.83,47Z" fill="#fff"/><path d="M340.18,52.05h6.33V55H337V34.38h3.18Z" fill="#fff"/><path d="M358.13,37.31H352v5.44h4.54v2.93H352v6.37h6.15V55H348.8V34.38h9.33Z" fill="#fff"/><path d="M367.37,55h-3.19V37.31h-4V34.38h11.18v2.93h-4Z" fill="#fff"/><path d="M376.72,37.68,374.9,42h-1.17l1.36-4.27h-1.36v-3.3h3Z" fill="#fff"/><path d="M387.6,40.12c-.49-2-1.42-3.06-2.72-3.06a2,2,0,0,0-2.07,2.11,3.09,3.09,0,0,0,.87,2.07,15,15,0,0,0,2.71,2.25,17.45,17.45,0,0,1,3.06,2.78A6,6,0,0,1,390.78,50c0,3.12-2.28,5.25-5.65,5.25s-5.59-1.88-6.24-5.8l3.06-.9c.4,2.47,1.48,3.71,3.18,3.71A2.24,2.24,0,0,0,387.48,50c0-1.3-.65-2.13-3.06-4-2.88-2.25-3-2.38-3.77-3.37a5.58,5.58,0,0,1-1.15-3.43c0-3,2.23-5.06,5.38-5.06,2.94,0,4.91,1.76,5.78,5.16Z" fill="#fff"/><path d="M406.1,40.12c-.49-2-1.42-3.06-2.71-3.06a2,2,0,0,0-2.07,2.11,3.08,3.08,0,0,0,.86,2.07,15.75,15.75,0,0,0,2.72,2.25A17.45,17.45,0,0,1,408,46.27,6,6,0,0,1,409.29,50c0,3.12-2.29,5.25-5.66,5.25s-5.59-1.88-6.24-5.8l3.06-.9c.4,2.47,1.48,3.71,3.18,3.71A2.24,2.24,0,0,0,406,50c0-1.3-.65-2.13-3.06-4-2.87-2.25-3-2.38-3.77-3.37A5.57,5.57,0,0,1,398,39.13c0-3,2.22-5.06,5.38-5.06,2.93,0,4.91,1.76,5.77,5.16Z" fill="#fff"/><path d="M418.18,55H415V37.31h-4V34.38H422.2v2.93h-4Z" fill="#fff"/><path d="M426.65,50.5,425.81,55h-3.12l4-20.61H431L435.18,55H431.9L431,50.5Zm2.16-12.17-1.67,9.24h3.37Z" fill="#fff"/><path d="M440.86,55h-3.18V34.38h3.18Z" fill="#fff"/><path d="M455.75,55h-2.84l-5.56-13.72V55h-3V34.38h3.21l5.19,12.82V34.38h3Z" fill="#fff"/></g></g></svg>