<svg xmlns="http://www.w3.org/2000/svg" viewBox="0 0 728 90"><title>txt2</title><g id="Layer_2" data-name="Layer 2"><g id="Rect"><rect width="728" height="90" fill="none"/></g><g id="YOUR_INTERIOR_PROJECTS" data-name="YOUR INTERIOR PROJECTS"><path d="M271.38,55H268.2V47l-4.64-12.57h3.53l2.75,8.71,2.84-8.71h3.46L271.38,47Z" fill="#fff"/><path d="M289.21,48.43c0,2.32-.34,3.71-1.18,4.89a6,6,0,0,1-8.9,0c-.83-1.18-1.17-2.57-1.17-4.89v-7.5c0-2.32.34-3.71,1.17-4.89a6,6,0,0,1,8.9,0c.84,1.18,1.18,2.57,1.18,4.89Zm-8.07-.06a5.64,5.64,0,0,0,.4,2.81,2.42,2.42,0,0,0,4.08,0,5.31,5.31,0,0,0,.4-2.81V41a5.33,5.33,0,0,0-.4-2.81,2.42,2.42,0,0,0-4.08,0,5.64,5.64,0,0,0-.4,2.81Z" fill="#fff"/><path d="M303.36,34.38v14c0,2.6-.31,3.93-1.18,5.1a5.88,5.88,0,0,1-8.56,0c-.86-1.17-1.17-2.5-1.17-5.1v-14h3.18V48.87c0,2.44.65,3.43,2.29,3.43s2.25-1,2.25-3.43V34.38Z" fill="#fff"/><path d="M310,55h-3.19V34.38h5a5.75,5.75,0,0,1,4.08,1.23,5.83,5.83,0,0,1,1.85,4.67c0,2.59-.93,4.39-2.78,5.34l3,9.37H314.6l-2.72-8.47H310Zm1.17-11.41c1.36,0,2-.15,2.47-.65a3.38,3.38,0,0,0,.77-2.5,3.38,3.38,0,0,0-.77-2.47c-.49-.49-1.11-.65-2.47-.65H310v6.27Z" fill="#fff"/><path d="M328.87,55h-3.18V34.38h3.18Z" fill="#fff"/><path d="M343.76,55h-2.84l-5.56-13.72V55h-3V34.38h3.21l5.2,12.82V34.38h3Z" fill="#fff"/><path d="M353.46,55h-3.18V37.31h-4V34.38h11.19v2.93h-4Z" fill="#fff"/><path d="M369.34,37.31h-6.15v5.44h4.55v2.93h-4.55v6.37h6.15V55H360V34.38h9.33Z" fill="#fff"/><path d="M375,55h-3.19V34.38h5a5.75,5.75,0,0,1,4.08,1.23,5.83,5.83,0,0,1,1.85,4.67c0,2.59-.93,4.39-2.78,5.34L383,55h-3.34l-2.72-8.47H375Zm1.17-11.41c1.36,0,2-.15,2.47-.65a3.38,3.38,0,0,0,.77-2.5,3.38,3.38,0,0,0-.77-2.47c-.49-.49-1.11-.65-2.47-.65H375v6.27Z" fill="#fff"/><path d="M389,55h-3.18V34.38H389Z" fill="#fff"/><path d="M403.51,48.43c0,2.32-.34,3.71-1.17,4.89a6,6,0,0,1-8.9,0c-.84-1.18-1.18-2.57-1.18-4.89v-7.5c0-2.32.34-3.71,1.18-4.89a6,6,0,0,1,8.9,0c.83,1.18,1.17,2.57,1.17,4.89Zm-8.06-.06a5.64,5.64,0,0,0,.4,2.81,2.42,2.42,0,0,0,4.08,0,5.31,5.31,0,0,0,.4-2.81V41a5.33,5.33,0,0,0-.4-2.81,2.42,2.42,0,0,0-4.08,0,5.64,5.64,0,0,0-.4,2.81Z" fill="#fff"/><path d="M409.94,55h-3.19V34.38h5a5.75,5.75,0,0,1,4.08,1.23,5.83,5.83,0,0,1,1.85,4.67c0,2.59-.93,4.39-2.78,5.34l3,9.37h-3.34l-2.72-8.47h-1.91Zm1.17-11.41c1.36,0,2-.15,2.47-.65a3.38,3.38,0,0,0,.77-2.5,3.38,3.38,0,0,0-.77-2.47c-.49-.49-1.11-.65-2.47-.65h-1.17v6.27Z" fill="#fff"/><path d="M428.84,55h-3.18V34.38h5.28c2.07,0,3.37.4,4.33,1.32,1.11,1,1.64,2.6,1.64,4.79s-.53,3.77-1.64,4.82c-1,.93-2.26,1.33-4.33,1.33h-2.1Zm1.39-11.28c2.57,0,3.37-.78,3.37-3.22s-.8-3.18-3.37-3.18h-1.39v6.4Z" fill="#fff"/><path d="M442.84,55h-3.19V34.38h5a5.75,5.75,0,0,1,4.08,1.23,5.83,5.83,0,0,1,1.85,4.67c0,2.59-.93,4.39-2.78,5.34l3,9.37h-3.34l-2.72-8.47h-1.91ZM444,43.58c1.36,0,2-.15,2.47-.65a3.38,3.38,0,0,0,.77-2.5,3.38,3.38,0,0,0-.77-2.47c-.49-.49-1.11-.65-2.47-.65h-1.17v6.27Z" fill="#fff"/><path d="M464.68,48.43c0,2.32-.34,3.71-1.18,4.89a6,6,0,0,1-8.89,0c-.84-1.18-1.18-2.57-1.18-4.89v-7.5c0-2.32.34-3.71,1.18-4.89a6,6,0,0,1,8.89,0c.84,1.18,1.18,2.57,1.18,4.89Zm-8.07-.06a5.61,5.61,0,0,0,.41,2.81,2.41,2.41,0,0,0,4.07,0,5.28,5.28,0,0,0,.41-2.81V41a5.3,5.3,0,0,0-.41-2.81,2.41,2.41,0,0,0-4.07,0,5.61,5.61,0,0,0-.41,2.81Z" fill="#fff"/><path d="M473,34.38V50c0,2.16-.22,3.06-.9,3.89S470.49,55,468.91,55H467V52h.75c1.54,0,2.1-.59,2.1-2.29V34.38Z" fill="#fff"/><path d="M485.81,37.31h-6.15v5.44h4.54v2.93h-4.54v6.37h6.15V55h-9.33V34.38h9.33Z" fill="#fff"/><path d="M496.22,41.08v-.43c0-2.38-.84-3.59-2.41-3.59a2,2,0,0,0-1.89,1,5.27,5.27,0,0,0-.49,3v6.86a8.75,8.75,0,0,0,.34,3.06,2.15,2.15,0,0,0,2,1.33,2.29,2.29,0,0,0,2.29-2,12.06,12.06,0,0,0,.18-2.51h3.21v.72c0,4.48-1.94,6.82-5.65,6.82a5.08,5.08,0,0,1-4.6-2.28c-.78-1.27-1-2.47-1-5.53V41.7c0-3.28.24-4.42,1.2-5.72a5.18,5.18,0,0,1,4.36-1.91c3.52,0,5.59,2.35,5.59,6.39v.62Z" fill="#fff"/><path d="M508.7,55h-3.18V37.31h-4V34.38h11.19v2.93h-4Z" fill="#fff"/><path d="M523,40.12c-.49-2-1.42-3.06-2.72-3.06a2,2,0,0,0-2.07,2.11,3.09,3.09,0,0,0,.87,2.07,14.84,14.84,0,0,0,2.72,2.25,17.45,17.45,0,0,1,3.06,2.78A6,6,0,0,1,526.22,50c0,3.12-2.29,5.25-5.66,5.25s-5.59-1.88-6.24-5.8l3.06-.9c.4,2.47,1.48,3.71,3.18,3.71A2.24,2.24,0,0,0,522.91,50c0-1.3-.65-2.13-3.06-4-2.87-2.25-3-2.38-3.77-3.37a5.57,5.57,0,0,1-1.14-3.43c0-3,2.22-5.06,5.37-5.06,2.94,0,4.92,1.76,5.78,5.16Z" fill="#fff"/></g></g></svg>