<svg xmlns="http://www.w3.org/2000/svg" viewBox="0 0 728 90"><title>txt2</title><g id="Layer_2" data-name="Layer 2"><g id="Rect"><rect width="728" height="90" fill="none"/></g><g id="Your_interior_projects_with" data-name="Your interior projects with"><path d="M234.22,56h-3.51V47.15l-5.09-13.84h3.87l3,9.59,3.12-9.59h3.81l-5.23,13.84Z" fill="#fff"/><path d="M253.83,48.78c0,2.55-.37,4.08-1.29,5.37a6.59,6.59,0,0,1-9.79,0c-.92-1.29-1.29-2.82-1.29-5.37V40.52c0-2.55.37-4.08,1.29-5.37a6.59,6.59,0,0,1,9.79,0c.92,1.29,1.29,2.82,1.29,5.37ZM245,48.71a6.25,6.25,0,0,0,.44,3.09,2.66,2.66,0,0,0,4.49,0c.37-.71.44-1.25.44-3.09V40.58c0-1.83-.07-2.37-.44-3.09a2.68,2.68,0,0,0-4.49,0,6.25,6.25,0,0,0-.44,3.09Z" fill="#fff"/><path d="M269.41,33.31V48.68c0,2.85-.34,4.31-1.3,5.61a6.45,6.45,0,0,1-9.41,0c-.95-1.3-1.29-2.76-1.29-5.61V33.31h3.5V49.25c0,2.69.71,3.78,2.51,3.78s2.48-1.09,2.48-3.78V33.31Z" fill="#fff"/><path d="M276.68,56h-3.5V33.31h5.47a6.29,6.29,0,0,1,4.49,1.36,6.4,6.4,0,0,1,2,5.13c0,2.86-1,4.83-3.06,5.88L285.45,56h-3.67l-3-9.32h-2.11ZM278,43.44c1.5,0,2.18-.17,2.72-.71a3.77,3.77,0,0,0,.85-2.76,3.73,3.73,0,0,0-.85-2.72c-.54-.54-1.22-.71-2.72-.71h-1.29v6.9Z" fill="#fff"/><path d="M297.49,56H294V33.31h3.5Z" fill="#fff"/><path d="M313.88,56h-3.13l-6.12-15.1V56H301.3V33.31h3.53l5.72,14.11V33.31h3.33Z" fill="#fff"/><path d="M324.55,56h-3.5V36.54h-4.38V33.31H329v3.23h-4.42Z" fill="#fff"/><path d="M342,36.54h-6.77v6h5v3.23h-5v7H342V56H331.76V33.31H342Z" fill="#fff"/><path d="M348.29,56h-3.51V33.31h5.48a6.26,6.26,0,0,1,4.48,1.36,6.4,6.4,0,0,1,2,5.13c0,2.86-1,4.83-3.06,5.88L357.06,56h-3.68l-3-9.32h-2.1Zm1.29-12.55c1.49,0,2.17-.17,2.72-.71a3.77,3.77,0,0,0,.85-2.76,3.73,3.73,0,0,0-.85-2.72c-.55-.54-1.23-.71-2.72-.71h-1.29v6.9Z" fill="#fff"/><path d="M363.69,56h-3.5V33.31h3.5Z" fill="#fff"/><path d="M379.63,48.78c0,2.55-.37,4.08-1.29,5.37a6.59,6.59,0,0,1-9.79,0c-.92-1.29-1.29-2.82-1.29-5.37V40.52c0-2.55.37-4.08,1.29-5.37a6.59,6.59,0,0,1,9.79,0c.92,1.29,1.29,2.82,1.29,5.37Zm-8.87-.07a6.25,6.25,0,0,0,.44,3.09,2.66,2.66,0,0,0,4.49,0c.37-.71.44-1.25.44-3.09V40.58c0-1.83-.07-2.37-.44-3.09a2.68,2.68,0,0,0-4.49,0,6.25,6.25,0,0,0-.44,3.09Z" fill="#fff"/><path d="M386.7,56h-3.5V33.31h5.48a6.26,6.26,0,0,1,4.48,1.36,6.4,6.4,0,0,1,2,5.13c0,2.86-1,4.83-3.06,5.88L395.48,56H391.8l-3-9.32H386.7ZM388,43.44c1.49,0,2.17-.17,2.72-.71a3.82,3.82,0,0,0,.85-2.76,3.78,3.78,0,0,0-.85-2.72c-.55-.54-1.23-.71-2.72-.71h-1.3v6.9Z" fill="#fff"/><path d="M407.51,56H404V33.31h5.81c2.28,0,3.71.44,4.76,1.46,1.23,1.16,1.81,2.86,1.81,5.27s-.58,4.15-1.81,5.3c-1.05,1-2.48,1.47-4.76,1.47h-2.31ZM409,43.58c2.82,0,3.71-.85,3.71-3.54s-.89-3.5-3.71-3.5h-1.53v7Z" fill="#fff"/><path d="M422.91,56h-3.5V33.31h5.48a6.26,6.26,0,0,1,4.48,1.36,6.4,6.4,0,0,1,2,5.13c0,2.86-1,4.83-3.06,5.88L431.69,56H428l-3-9.32h-2.11Zm1.3-12.55c1.49,0,2.17-.17,2.72-.71a3.82,3.82,0,0,0,.85-2.76,3.78,3.78,0,0,0-.85-2.72c-.55-.54-1.23-.71-2.72-.71h-1.3v6.9Z" fill="#fff"/><path d="M447,48.78c0,2.55-.37,4.08-1.29,5.37a6.59,6.59,0,0,1-9.79,0c-.92-1.29-1.29-2.82-1.29-5.37V40.52c0-2.55.37-4.08,1.29-5.37a6.59,6.59,0,0,1,9.79,0c.92,1.29,1.29,2.82,1.29,5.37Zm-8.87-.07a6.25,6.25,0,0,0,.44,3.09,2.66,2.66,0,0,0,4.49,0c.37-.71.44-1.25.44-3.09V40.58c0-1.83-.07-2.37-.44-3.09a2.68,2.68,0,0,0-4.49,0,6.25,6.25,0,0,0-.44,3.09Z" fill="#fff"/><path d="M456.13,33.31V50.44c0,2.38-.24,3.37-1,4.29S453.34,56,451.61,56H449.5v-3.3h.82c1.7,0,2.31-.65,2.31-2.52V33.31Z" fill="#fff"/><path d="M470.21,36.54h-6.77v6h5v3.23h-5v7h6.77V56H459.94V33.31h10.27Z" fill="#fff"/><path d="M481.66,40.69v-.48c0-2.62-.91-3.94-2.65-3.94a2.21,2.21,0,0,0-2.07,1.12c-.44.75-.55,1.43-.55,3.26V48.2a9.78,9.78,0,0,0,.38,3.37A2.36,2.36,0,0,0,479,53a2.52,2.52,0,0,0,2.52-2.25,12.92,12.92,0,0,0,.2-2.75h3.54v.78c0,4.93-2.15,7.52-6.22,7.52A5.62,5.62,0,0,1,474,53.81c-.85-1.39-1.09-2.72-1.09-6.09V41.37c0-3.61.27-4.86,1.33-6.29A5.67,5.67,0,0,1,479,33c3.88,0,6.16,2.58,6.16,7v.68Z" fill="#fff"/><path d="M495.4,56h-3.5V36.54h-4.39V33.31h12.31v3.23H495.4Z" fill="#fff"/><path d="M511.17,39.63c-.54-2.24-1.56-3.36-3-3.36a2.24,2.24,0,0,0-2.28,2.31,3.44,3.44,0,0,0,1,2.28,16.12,16.12,0,0,0,3,2.48,18.41,18.41,0,0,1,3.36,3.06,6.62,6.62,0,0,1,1.47,4.15c0,3.43-2.52,5.78-6.23,5.78-3.87,0-6.15-2.08-6.86-6.4L505,49c.44,2.72,1.63,4.08,3.5,4.08A2.47,2.47,0,0,0,511,50.44c0-1.42-.72-2.34-3.37-4.42-3.16-2.48-3.29-2.61-4.14-3.7a6.14,6.14,0,0,1-1.26-3.78c0-3.26,2.44-5.57,5.91-5.57,3.23,0,5.41,1.94,6.36,5.68Z" fill="#fff"/><path d="M535.14,56l-2.92-15.37L529.47,56H526.2L522,33.31h3.4l2.59,14.62,2.72-14.62h3l3,14.62L539,33.31h3.3L538.41,56Z" fill="#fff"/><path d="M548.78,56h-3.5V33.31h3.5Z" fill="#fff"/><path d="M559.45,56H556V36.54h-4.38V33.31h12.3v3.23h-4.42Z" fill="#fff"/><path d="M570.16,46V56h-3.5V33.31h3.5v9.45h5V33.31h3.5V56h-3.5V46Z" fill="#fff"/></g></g></svg>