<svg xmlns="http://www.w3.org/2000/svg" viewBox="0 0 728 90"><title>txt2</title><g id="Layer_2" data-name="Layer 2"><g id="Rect"><rect width="728" height="90" fill="none"/></g><g id="WITH_THE_COLOR_RICHNESS_OF_OIL_" data-name="WITH THE COLOR RICHNESS OF OIL,"><path d="M275.64,55,273,41l-2.51,14h-3l-3.86-20.61h3.09l2.34,13.28,2.48-13.28h2.75L277,47.66l2.07-13.28h3L278.61,55Z" fill="#fff"/><path d="M288,55h-3.18V34.38H288Z" fill="#fff"/><path d="M297.73,55h-3.18V37.31h-4V34.38h11.19v2.93h-4Z" fill="#fff"/><path d="M307.46,45.9V55h-3.18V34.38h3.18V43H312V34.38h3.19V55H312V45.9Z" fill="#fff"/><path d="M329.46,55h-3.18V37.31h-4V34.38h11.19v2.93h-4Z" fill="#fff"/><path d="M339.19,45.9V55H336V34.38h3.18V43h4.54V34.38h3.18V55h-3.18V45.9Z" fill="#fff"/><path d="M359.67,37.31h-6.15v5.44h4.55v2.93h-4.55v6.37h6.15V55h-9.33V34.38h9.33Z" fill="#fff"/><path d="M375,41.08v-.43c0-2.38-.83-3.59-2.41-3.59a2,2,0,0,0-1.88,1,5.25,5.25,0,0,0-.5,3v6.86a9,9,0,0,0,.34,3.06,2.16,2.16,0,0,0,2,1.33,2.28,2.28,0,0,0,2.29-2,11.78,11.78,0,0,0,.19-2.51h3.21v.72c0,4.48-1.95,6.82-5.66,6.82A5.09,5.09,0,0,1,368,53c-.77-1.27-1-2.47-1-5.53V41.7c0-3.28.25-4.42,1.21-5.72a5.16,5.16,0,0,1,4.35-1.91c3.53,0,5.6,2.35,5.6,6.39v.62Z" fill="#fff"/><path d="M392.36,48.43c0,2.32-.34,3.71-1.18,4.89a6,6,0,0,1-8.89,0c-.84-1.18-1.18-2.57-1.18-4.89v-7.5c0-2.32.34-3.71,1.18-4.89a6,6,0,0,1,8.89,0c.84,1.18,1.18,2.57,1.18,4.89Zm-8.07-.06a5.61,5.61,0,0,0,.41,2.81,2.41,2.41,0,0,0,4.07,0,5.31,5.31,0,0,0,.4-2.81V41a5.33,5.33,0,0,0-.4-2.81,2.41,2.41,0,0,0-4.07,0,5.61,5.61,0,0,0-.41,2.81Z" fill="#fff"/><path d="M398.78,52.05h6.34V55H395.6V34.38h3.18Z" fill="#fff"/><path d="M418.68,48.43c0,2.32-.34,3.71-1.18,4.89a6,6,0,0,1-8.89,0c-.84-1.18-1.18-2.57-1.18-4.89v-7.5c0-2.32.34-3.71,1.18-4.89a6,6,0,0,1,8.89,0c.84,1.18,1.18,2.57,1.18,4.89Zm-8.07-.06a5.61,5.61,0,0,0,.41,2.81,2.41,2.41,0,0,0,4.07,0,5.28,5.28,0,0,0,.41-2.81V41a5.3,5.3,0,0,0-.41-2.81,2.41,2.41,0,0,0-4.07,0,5.61,5.61,0,0,0-.41,2.81Z" fill="#fff"/><path d="M425.1,55h-3.18V34.38h5A5.7,5.7,0,0,1,431,35.61a5.81,5.81,0,0,1,1.86,4.67c0,2.59-.93,4.39-2.78,5.34l3,9.37h-3.34L427,46.52H425.1Zm1.18-11.41c1.36,0,2-.15,2.47-.65a3.42,3.42,0,0,0,.77-2.5,3.42,3.42,0,0,0-.77-2.47c-.5-.49-1.11-.65-2.47-.65H425.1v6.27Z" fill="#fff"/><path d="M444,55h-3.18V34.38h5a5.73,5.73,0,0,1,4.08,1.23,5.8,5.8,0,0,1,1.85,4.67c0,2.59-.92,4.39-2.78,5.34L452,55h-3.34l-2.72-8.47H444Zm1.17-11.41c1.36,0,2-.15,2.48-.65a3.42,3.42,0,0,0,.77-2.5,3.42,3.42,0,0,0-.77-2.47c-.5-.49-1.12-.65-2.48-.65H444v6.27Z" fill="#fff"/><path d="M458,55h-3.18V34.38H458Z" fill="#fff"/><path d="M469.22,41.08v-.43c0-2.38-.84-3.59-2.41-3.59a2,2,0,0,0-1.89,1,5.27,5.27,0,0,0-.49,3v6.86a8.75,8.75,0,0,0,.34,3.06,2.15,2.15,0,0,0,2,1.33,2.29,2.29,0,0,0,2.29-2,12.06,12.06,0,0,0,.18-2.51h3.21v.72c0,4.48-1.94,6.82-5.65,6.82a5.08,5.08,0,0,1-4.6-2.28c-.78-1.27-1-2.47-1-5.53V41.7c0-3.28.24-4.42,1.2-5.72a5.18,5.18,0,0,1,4.36-1.91c3.52,0,5.59,2.35,5.59,6.39v.62Z" fill="#fff"/><path d="M478.67,45.9V55h-3.18V34.38h3.18V43h4.54V34.38h3.19V55h-3.19V45.9Z" fill="#fff"/><path d="M501.26,55h-2.85l-5.56-13.72V55h-3V34.38H493l5.19,12.82V34.38h3Z" fill="#fff"/><path d="M514,37.31h-6.14v5.44h4.54v2.93h-4.54v6.37H514V55h-9.33V34.38H514Z" fill="#fff"/><path d="M524.67,40.12c-.49-2-1.42-3.06-2.72-3.06a2,2,0,0,0-2.07,2.11,3.09,3.09,0,0,0,.87,2.07,14.84,14.84,0,0,0,2.72,2.25,17.45,17.45,0,0,1,3.06,2.78A6,6,0,0,1,527.85,50c0,3.12-2.28,5.25-5.65,5.25-3.52,0-5.59-1.88-6.24-5.8l3.06-.9c.4,2.47,1.48,3.71,3.18,3.71A2.24,2.24,0,0,0,524.55,50c0-1.3-.65-2.13-3.06-4-2.87-2.25-3-2.38-3.77-3.37a5.57,5.57,0,0,1-1.14-3.43c0-3,2.22-5.06,5.37-5.06,2.94,0,4.92,1.76,5.78,5.16Z" fill="#fff"/><path d="M538.82,40.12c-.49-2-1.42-3.06-2.72-3.06A2,2,0,0,0,534,39.17a3.09,3.09,0,0,0,.87,2.07,15,15,0,0,0,2.71,2.25,17.45,17.45,0,0,1,3.06,2.78A6,6,0,0,1,542,50c0,3.12-2.28,5.25-5.65,5.25s-5.6-1.88-6.24-5.8l3.06-.9c.4,2.47,1.48,3.71,3.18,3.71A2.24,2.24,0,0,0,538.7,50c0-1.3-.65-2.13-3.06-4-2.88-2.25-3-2.38-3.77-3.37a5.58,5.58,0,0,1-1.15-3.43c0-3,2.23-5.06,5.38-5.06,2.94,0,4.91,1.76,5.78,5.16Z" fill="#fff"/><path d="M560.6,48.43c0,2.32-.34,3.71-1.17,4.89a6,6,0,0,1-8.9,0c-.84-1.18-1.18-2.57-1.18-4.89v-7.5c0-2.32.34-3.71,1.18-4.89a6,6,0,0,1,8.9,0c.83,1.18,1.17,2.57,1.17,4.89Zm-8.06-.06a5.64,5.64,0,0,0,.4,2.81,2.28,2.28,0,0,0,2,1.12,2.3,2.3,0,0,0,2-1.12,5.31,5.31,0,0,0,.4-2.81V41a5.33,5.33,0,0,0-.4-2.81,2.3,2.3,0,0,0-2-1.12,2.28,2.28,0,0,0-2,1.12,5.64,5.64,0,0,0-.4,2.81Z" fill="#fff"/><path d="M567,55h-3.18V34.38h9.43v2.93H567v5.56h4.64v2.94H567Z" fill="#fff"/><path d="M591.55,48.43c0,2.32-.34,3.71-1.17,4.89a6,6,0,0,1-8.9,0c-.83-1.18-1.17-2.57-1.17-4.89v-7.5c0-2.32.34-3.71,1.17-4.89a6,6,0,0,1,8.9,0c.83,1.18,1.17,2.57,1.17,4.89Zm-8.06-.06a5.64,5.64,0,0,0,.4,2.81,2.42,2.42,0,0,0,4.08,0,5.31,5.31,0,0,0,.4-2.81V41a5.33,5.33,0,0,0-.4-2.81,2.42,2.42,0,0,0-4.08,0,5.64,5.64,0,0,0-.4,2.81Z" fill="#fff"/><path d="M598,55H594.8V34.38H598Z" fill="#fff"/><path d="M604.62,52.05H611V55h-9.52V34.38h3.18Z" fill="#fff"/><path d="M616.39,55l-1.82,4.26h-1.18L614.75,55h-1.36V51.68h3Z" fill="#fff"/></g></g></svg>