<svg xmlns="http://www.w3.org/2000/svg" viewBox="0 0 728 90"><title>txt3b</title><g id="Layer_2" data-name="Layer 2"><g id="Rect"><rect width="728" height="90" fill="none"/></g><g id="Oil"><path d="M522.91,48.78c0,2.55-.38,4.08-1.29,5.37a6.59,6.59,0,0,1-9.79,0c-.92-1.29-1.3-2.82-1.3-5.37V40.52c0-2.55.38-4.08,1.3-5.37a6.59,6.59,0,0,1,9.79,0c.91,1.29,1.29,2.82,1.29,5.37ZM514,48.71a6.21,6.21,0,0,0,.45,3.09,2.65,2.65,0,0,0,4.48,0c.38-.71.45-1.25.45-3.09V40.58c0-1.83-.07-2.37-.45-3.09a2.67,2.67,0,0,0-4.48,0,6.21,6.21,0,0,0-.45,3.09Z" fill="#fff"/><path d="M530,56h-3.5V33.31H530Z" fill="#fff"/><path d="M537.29,52.76h7V56H533.79V33.31h3.5Z" fill="#fff"/></g></g></svg>