<svg xmlns="http://www.w3.org/2000/svg" viewBox="0 0 728 90"><title>txt3</title><g id="Layer_2" data-name="Layer 2"><g id="Rect"><rect width="728" height="90" fill="none"/></g><g id="LESS_MESS_AND..." data-name="LESS MESS AND..."><path d="M267.8,52.05h6.33V55h-9.52V34.38h3.19Z" fill="#fff"/><path d="M285.75,37.31H279.6v5.44h4.54v2.93H279.6v6.37h6.15V55h-9.34V34.38h9.34Z" fill="#fff"/><path d="M296.4,40.12c-.49-2-1.42-3.06-2.72-3.06a2,2,0,0,0-2.07,2.11,3.09,3.09,0,0,0,.87,2.07,14.84,14.84,0,0,0,2.72,2.25,17.45,17.45,0,0,1,3.06,2.78A6,6,0,0,1,299.59,50c0,3.12-2.29,5.25-5.66,5.25s-5.59-1.88-6.24-5.8l3.06-.9c.4,2.47,1.48,3.71,3.18,3.71A2.24,2.24,0,0,0,296.28,50c0-1.3-.65-2.13-3.06-4-2.87-2.25-3-2.38-3.77-3.37a5.57,5.57,0,0,1-1.14-3.43c0-3,2.22-5.06,5.37-5.06,2.94,0,4.92,1.76,5.78,5.16Z" fill="#fff"/><path d="M310.55,40.12c-.49-2-1.42-3.06-2.72-3.06a2,2,0,0,0-2.07,2.11,3.09,3.09,0,0,0,.87,2.07,14.84,14.84,0,0,0,2.72,2.25,17.45,17.45,0,0,1,3.06,2.78A6,6,0,0,1,313.73,50c0,3.12-2.28,5.25-5.65,5.25s-5.59-1.88-6.24-5.8l3.06-.9c.4,2.47,1.48,3.71,3.18,3.71A2.24,2.24,0,0,0,310.43,50c0-1.3-.65-2.13-3.06-4-2.87-2.25-3-2.38-3.77-3.37a5.57,5.57,0,0,1-1.14-3.43c0-3,2.22-5.06,5.37-5.06,2.94,0,4.92,1.76,5.78,5.16Z" fill="#fff"/><path d="M336.29,55h-3V39.81L329.68,55h-1.8l-3.55-15.18V55h-3V34.38H326l2.84,12.94,2.87-12.94h4.61Z" fill="#fff"/><path d="M349.08,37.31h-6.15v5.44h4.54v2.93h-4.54v6.37h6.15V55h-9.34V34.38h9.34Z" fill="#fff"/><path d="M359.73,40.12c-.49-2-1.42-3.06-2.72-3.06a2,2,0,0,0-2.07,2.11,3.09,3.09,0,0,0,.87,2.07,14.84,14.84,0,0,0,2.72,2.25,17.45,17.45,0,0,1,3.06,2.78A6,6,0,0,1,362.92,50c0,3.12-2.29,5.25-5.66,5.25s-5.59-1.88-6.24-5.8l3.06-.9c.4,2.47,1.48,3.71,3.18,3.71A2.24,2.24,0,0,0,359.61,50c0-1.3-.65-2.13-3.06-4-2.87-2.25-3-2.38-3.77-3.37a5.57,5.57,0,0,1-1.14-3.43c0-3,2.22-5.06,5.37-5.06,2.94,0,4.92,1.76,5.78,5.16Z" fill="#fff"/><path d="M373.88,40.12c-.49-2-1.42-3.06-2.72-3.06a2,2,0,0,0-2.07,2.11,3.09,3.09,0,0,0,.87,2.07,14.84,14.84,0,0,0,2.72,2.25,17.45,17.45,0,0,1,3.06,2.78A6,6,0,0,1,377.06,50c0,3.12-2.28,5.25-5.65,5.25-3.52,0-5.59-1.88-6.24-5.8l3.06-.9c.4,2.47,1.48,3.71,3.18,3.71A2.24,2.24,0,0,0,373.76,50c0-1.3-.65-2.13-3.06-4-2.87-2.25-3-2.38-3.77-3.37a5.57,5.57,0,0,1-1.14-3.43c0-3,2.22-5.06,5.37-5.06,2.94,0,4.92,1.76,5.78,5.16Z" fill="#fff"/><path d="M387.84,50.5,387,55h-3.12l3.95-20.61h4.36L396.37,55H393.1l-.87-4.49ZM390,38.33l-1.67,9.24h3.37Z" fill="#fff"/><path d="M410.31,55h-2.85L401.9,41.27V55h-3V34.38h3.22l5.19,12.82V34.38h3Z" fill="#fff"/><path d="M413.73,34.38h5c4.05,0,6,2.07,6,6.45v7.7c0,4.39-1.91,6.46-6,6.46h-5Zm4.76,17.67c2.26,0,3.06-1.17,3.06-4.39v-6c0-3.25-.8-4.39-3.06-4.39h-1.57V52.05Z" fill="#fff"/><path d="M430.48,55h-3V51.68h3Z" fill="#fff"/><path d="M436.44,55h-3V51.68h3Z" fill="#fff"/><path d="M442.4,55h-3V51.68h3Z" fill="#fff"/></g></g></svg>