<?xml version="1.0" encoding="utf-8"?>
<!-- Generator: Adobe Illustrator 23.1.1, SVG Export Plug-In . SVG Version: 6.00 Build 0)  -->
<svg version="1.1" id="Layer_1" xmlns="http://www.w3.org/2000/svg" xmlns:xlink="http://www.w3.org/1999/xlink" x="0px" y="0px"
	 viewBox="0 0 728 90" style="enable-background:new 0 0 728 90;" xml:space="preserve">
<style type="text/css">
	.st0{fill:#FFFFFF;}
	.st1{fill:none;}
</style>
<path class="st0" d="M234.2,56h-3.5V36.5h-4.4v-3.2h12.3v3.2h-4.4V56z" fill="#fff"/>
<path class="st0" d="M244.9,46v10h-3.5V33.3h3.5v9.5h5v-9.5h3.5V56h-3.5V46H244.9z" fill="#fff"/>
<path class="st0" d="M267.4,36.5h-6.8v6h5v3.2h-5v7h6.8V56h-10.3V33.3h10.3V36.5z" fill="#fff"/>
<path class="st0" d="M284.2,40.7v-0.5c0-2.6-0.9-3.9-2.7-3.9c-1,0-1.7,0.4-2.1,1.1c-0.4,0.7-0.5,1.4-0.5,3.3v7.5
	c0,1.7,0.1,2.6,0.4,3.4c0.3,0.9,1.2,1.5,2.2,1.5c1.3,0,2.1-0.7,2.5-2.2c0.1-0.6,0.2-1.1,0.2-2.8h3.5v0.8c0,4.9-2.1,7.5-6.2,7.5
	c-2.3,0-4.1-0.9-5.1-2.5c-0.8-1.4-1.1-2.7-1.1-6.1v-6.4c0-3.6,0.3-4.9,1.3-6.3c1-1.4,2.7-2.1,4.8-2.1c3.9,0,6.2,2.6,6.2,7v0.7H284.2
	z"/>
<path class="st0" d="M303.4,48.8c0,2.5-0.4,4.1-1.3,5.4c-1,1.4-2.7,2.2-4.9,2.2s-3.9-0.7-4.9-2.2c-0.9-1.3-1.3-2.8-1.3-5.4v-8.3
	c0-2.5,0.4-4.1,1.3-5.4c1-1.4,2.7-2.2,4.9-2.2s3.9,0.7,4.9,2.2c0.9,1.3,1.3,2.8,1.3,5.4V48.8z M294.5,48.7c0,1.8,0.1,2.4,0.4,3.1
	c0.4,0.7,1.3,1.2,2.2,1.2s1.8-0.5,2.2-1.2c0.4-0.7,0.4-1.3,0.4-3.1v-8.1c0-1.8-0.1-2.4-0.4-3.1c-0.4-0.7-1.3-1.2-2.2-1.2
	s-1.8,0.5-2.2,1.2c-0.3,0.7-0.4,1.3-0.4,3.1V48.7z" fill="#fff"/>
<path class="st0" d="M310.5,52.8h7V56H307V33.3h3.5V52.8z" fill="#fff"/>
<path class="st0" d="M332.4,48.8c0,2.5-0.4,4.1-1.3,5.4c-1,1.4-2.7,2.2-4.9,2.2s-3.9-0.7-4.9-2.2c-0.9-1.3-1.3-2.8-1.3-5.4v-8.3
	c0-2.5,0.4-4.1,1.3-5.4c1-1.4,2.7-2.2,4.9-2.2s3.9,0.7,4.9,2.2c0.9,1.3,1.3,2.8,1.3,5.4V48.8z M323.5,48.7c0,1.8,0.1,2.4,0.4,3.1
	c0.4,0.7,1.3,1.2,2.2,1.2s1.8-0.5,2.2-1.2c0.4-0.7,0.4-1.3,0.4-3.1v-8.1c0-1.8-0.1-2.4-0.4-3.1c-0.4-0.7-1.3-1.2-2.2-1.2
	s-1.8,0.5-2.2,1.2c-0.3,0.7-0.4,1.3-0.4,3.1V48.7z" fill="#fff"/>
<path class="st0" d="M339.4,56h-3.5V33.3h5.5c2.1,0,3.4,0.4,4.5,1.4c1.4,1.2,2,2.9,2,5.1c0,2.9-1,4.8-3.1,5.9l3.3,10.3h-3.7l-3-9.3
	h-2.1V56z M340.7,43.4c1.5,0,2.2-0.2,2.7-0.7c0.6-0.6,0.9-1.5,0.9-2.8c0-1.2-0.3-2.1-0.9-2.7c-0.5-0.5-1.2-0.7-2.7-0.7h-1.3v6.9
	H340.7z" fill="#fff"/>
<path class="st0" d="M360.2,56h-3.5V33.3h5.5c2.1,0,3.4,0.4,4.5,1.4c1.4,1.2,2,2.9,2,5.1c0,2.9-1,4.8-3.1,5.9L369,56h-3.7l-3-9.3
	h-2.1V56z M361.5,43.4c1.5,0,2.2-0.2,2.7-0.7c0.6-0.6,0.8-1.5,0.8-2.8c0-1.2-0.3-2.1-0.8-2.7c-0.5-0.5-1.2-0.7-2.7-0.7h-1.3v6.9
	H361.5z" fill="#fff"/>
<path class="st0" d="M375.6,56h-3.5V33.3h3.5V56z" fill="#fff"/>
<path class="st0" d="M388,40.7v-0.5c0-2.6-0.9-3.9-2.7-3.9c-1,0-1.7,0.4-2.1,1.1c-0.4,0.7-0.5,1.4-0.5,3.3v7.5
	c0,1.7,0.1,2.6,0.4,3.4c0.3,0.9,1.2,1.5,2.2,1.5c1.3,0,2.1-0.7,2.5-2.2c0.1-0.6,0.2-1.1,0.2-2.8h3.5v0.8c0,4.9-2.1,7.5-6.2,7.5
	c-2.3,0-4.1-0.9-5.1-2.5c-0.9-1.4-1.1-2.7-1.1-6.1v-6.4c0-3.6,0.3-4.9,1.3-6.3c1-1.4,2.7-2.1,4.8-2.1c3.9,0,6.2,2.6,6.2,7v0.7H388z"
	/>
<path class="st0" d="M398.4,46v10h-3.5V33.3h3.5v9.5h5v-9.5h3.5V56h-3.5V46H398.4z" fill="#fff"/>
<path class="st0" d="M423.2,56h-3.1L414,40.9V56h-3.3V33.3h3.5l5.7,14.1V33.3h3.3V56z" fill="#fff"/>
<path class="st0" d="M437.3,36.5h-6.8v6h5v3.2h-5v7h6.8V56H427V33.3h10.3V36.5z" fill="#fff"/>
<path class="st0" d="M449,39.6c-0.5-2.2-1.6-3.4-3-3.4c-1.3,0-2.3,1-2.3,2.3c0,0.8,0.3,1.6,1,2.3c0.6,0.6,0.6,0.6,3,2.5
	c1.9,1.5,2.6,2.1,3.4,3.1c0.9,1.1,1.5,2.6,1.5,4.1c0,3.4-2.5,5.8-6.2,5.8c-3.9,0-6.2-2.1-6.9-6.4l3.4-1c0.4,2.7,1.6,4.1,3.5,4.1
	c1.5,0,2.6-1.1,2.6-2.6c0-1.4-0.7-2.3-3.4-4.4c-3.2-2.5-3.3-2.6-4.1-3.7c-0.8-1.1-1.3-2.4-1.3-3.8c0-3.3,2.4-5.6,5.9-5.6
	c3.2,0,5.4,1.9,6.4,5.7L449,39.6z" fill="#fff"/>
<path class="st0" d="M464.6,39.6c-0.5-2.2-1.6-3.4-3-3.4c-1.3,0-2.3,1-2.3,2.3c0,0.8,0.3,1.6,1,2.3c0.6,0.6,0.6,0.6,3,2.5
	c1.9,1.5,2.6,2.1,3.4,3.1c0.9,1.1,1.5,2.6,1.5,4.1c0,3.4-2.5,5.8-6.2,5.8c-3.9,0-6.2-2.1-6.9-6.4l3.4-1c0.4,2.7,1.6,4.1,3.5,4.1
	c1.5,0,2.6-1.1,2.6-2.6c0-1.4-0.7-2.3-3.4-4.4c-3.2-2.5-3.3-2.6-4.1-3.7c-0.8-1.1-1.3-2.4-1.3-3.8c0-3.3,2.4-5.6,5.9-5.6
	c3.2,0,5.4,1.9,6.4,5.7L464.6,39.6z" fill="#fff"/>
<path class="st0" d="M488.5,48.8c0,2.5-0.4,4.1-1.3,5.4c-1,1.4-2.7,2.2-4.9,2.2s-3.9-0.7-4.9-2.2c-0.9-1.3-1.3-2.8-1.3-5.4v-8.3
	c0-2.5,0.4-4.1,1.3-5.4c1-1.4,2.7-2.2,4.9-2.2s3.9,0.7,4.9,2.2c0.9,1.3,1.3,2.8,1.3,5.4V48.8z M479.7,48.7c0,1.8,0.1,2.4,0.4,3.1
	c0.4,0.7,1.3,1.2,2.2,1.2c1,0,1.8-0.5,2.2-1.2c0.4-0.7,0.4-1.3,0.4-3.1v-8.1c0-1.8-0.1-2.4-0.4-3.1c-0.4-0.7-1.3-1.2-2.2-1.2
	c-1,0-1.8,0.5-2.2,1.2c-0.3,0.7-0.4,1.3-0.4,3.1V48.7z" fill="#fff"/>
<path class="st0" d="M495.6,56h-3.5V33.3h10.4v3.2h-6.9v6.1h5.1v3.2h-5.1V56z" fill="#fff"/>
<path class="st0" d="M522.6,48.8c0,2.5-0.4,4.1-1.3,5.4c-1,1.4-2.7,2.2-4.9,2.2s-3.9-0.7-4.9-2.2c-0.9-1.3-1.3-2.8-1.3-5.4v-8.3
	c0-2.5,0.4-4.1,1.3-5.4c1-1.4,2.7-2.2,4.9-2.2s3.9,0.7,4.9,2.2c0.9,1.3,1.3,2.8,1.3,5.4V48.8z M513.7,48.7c0,1.8,0.1,2.4,0.4,3.1
	c0.4,0.7,1.3,1.2,2.2,1.2c1,0,1.8-0.5,2.2-1.2c0.4-0.7,0.4-1.3,0.4-3.1v-8.1c0-1.8-0.1-2.4-0.4-3.1c-0.4-0.7-1.3-1.2-2.2-1.2
	c-1,0-1.8,0.5-2.2,1.2c-0.3,0.7-0.4,1.3-0.4,3.1V48.7z" fill="#fff"/>
<path class="st0" d="M529.7,56h-3.5V33.3h3.5V56z" fill="#fff"/>
<path class="st0" d="M537,52.8h7V56h-10.5V33.3h3.5V52.8z" fill="#fff"/>
<title>txt3a</title>
<g>
	<g id="Rect">
		<rect class="st1" width="728" height="90"/>
	</g>
</g>
</svg>
