<svg xmlns="http://www.w3.org/2000/svg" viewBox="0 0 728 90"><title>txt3a</title><g id="Layer_2" data-name="Layer 2"><g id="Rect"><rect width="728" height="90" fill="none"/></g><g id="The_Color_Richness_of" data-name="The Color Richness of"><path d="M234.16,56h-3.5V36.54h-4.38V33.31h12.3v3.23h-4.42Z" fill="#fff"/><path d="M244.87,46V56h-3.5V33.31h3.5v9.45h5V33.31h3.5V56h-3.5V46Z" fill="#fff"/><path d="M267.41,36.54h-6.76v6h5v3.23h-5v7h6.76V56H257.15V33.31h10.26Z" fill="#fff"/><path d="M284.24,40.69v-.48c0-2.62-.91-3.94-2.65-3.94a2.21,2.21,0,0,0-2.07,1.12c-.44.75-.55,1.43-.55,3.26V48.2a9.78,9.78,0,0,0,.38,3.37A2.36,2.36,0,0,0,281.59,53a2.52,2.52,0,0,0,2.52-2.25,12.92,12.92,0,0,0,.2-2.75h3.54v.78c0,4.93-2.14,7.52-6.22,7.52a5.62,5.62,0,0,1-5.07-2.52c-.85-1.39-1.09-2.72-1.09-6.09V41.37c0-3.61.28-4.86,1.33-6.29A5.67,5.67,0,0,1,281.59,33c3.88,0,6.16,2.58,6.16,7v.68Z" fill="#fff"/><path d="M303.38,48.78c0,2.55-.37,4.08-1.29,5.37a6.59,6.59,0,0,1-9.79,0c-.92-1.29-1.29-2.82-1.29-5.37V40.52c0-2.55.37-4.08,1.29-5.37a6.59,6.59,0,0,1,9.79,0c.92,1.29,1.29,2.82,1.29,5.37Zm-8.87-.07A6.25,6.25,0,0,0,295,51.8a2.66,2.66,0,0,0,4.49,0c.37-.71.44-1.25.44-3.09V40.58c0-1.83-.07-2.37-.44-3.09a2.68,2.68,0,0,0-4.49,0,6.25,6.25,0,0,0-.44,3.09Z" fill="#fff"/><path d="M310.46,52.76h7V56H307V33.31h3.5Z" fill="#fff"/><path d="M332.35,48.78c0,2.55-.37,4.08-1.29,5.37a6.59,6.59,0,0,1-9.79,0c-.92-1.29-1.29-2.82-1.29-5.37V40.52c0-2.55.37-4.08,1.29-5.37a6.59,6.59,0,0,1,9.79,0c.92,1.29,1.29,2.82,1.29,5.37Zm-8.87-.07a6.25,6.25,0,0,0,.44,3.09,2.66,2.66,0,0,0,4.49,0c.37-.71.44-1.25.44-3.09V40.58c0-1.83-.07-2.37-.44-3.09a2.68,2.68,0,0,0-4.49,0,6.25,6.25,0,0,0-.44,3.09Z" fill="#fff"/><path d="M339.42,56h-3.5V33.31h5.48a6.26,6.26,0,0,1,4.48,1.36,6.4,6.4,0,0,1,2,5.13c0,2.86-1,4.83-3.06,5.88L348.2,56h-3.68l-3-9.32h-2.11Zm1.3-12.55c1.49,0,2.17-.17,2.72-.71a3.82,3.82,0,0,0,.85-2.76,3.78,3.78,0,0,0-.85-2.72c-.55-.54-1.23-.71-2.72-.71h-1.3v6.9Z" fill="#fff"/><path d="M360.23,56h-3.5V33.31h5.47a6.29,6.29,0,0,1,4.49,1.36,6.4,6.4,0,0,1,2,5.13c0,2.86-1,4.83-3.06,5.88L369,56h-3.67l-3-9.32h-2.11Zm1.29-12.55c1.5,0,2.18-.17,2.72-.71a3.77,3.77,0,0,0,.85-2.76,3.73,3.73,0,0,0-.85-2.72c-.54-.54-1.22-.71-2.72-.71h-1.29v6.9Z" fill="#fff"/><path d="M375.63,56h-3.5V33.31h3.5Z" fill="#fff"/><path d="M388,40.69v-.48c0-2.62-.92-3.94-2.66-3.94a2.21,2.21,0,0,0-2.07,1.12c-.44.75-.54,1.43-.54,3.26V48.2a9.84,9.84,0,0,0,.37,3.37A2.36,2.36,0,0,0,385.32,53a2.51,2.51,0,0,0,2.52-2.25A12.24,12.24,0,0,0,388,48h3.54v.78c0,4.93-2.14,7.52-6.22,7.52a5.62,5.62,0,0,1-5.07-2.52c-.85-1.39-1.08-2.72-1.08-6.09V41.37c0-3.61.27-4.86,1.32-6.29A5.69,5.69,0,0,1,385.32,33c3.88,0,6.16,2.58,6.16,7v.68Z" fill="#fff"/><path d="M398.38,46V56h-3.5V33.31h3.5v9.45h5V33.31h3.5V56h-3.5V46Z" fill="#fff"/><path d="M423.23,56H420.1L414,40.89V56h-3.34V33.31h3.54l5.71,14.11V33.31h3.33Z" fill="#fff"/><path d="M437.27,36.54h-6.76v6h5v3.23h-5v7h6.76V56H427V33.31h10.26Z" fill="#fff"/><path d="M449,39.63c-.54-2.24-1.56-3.36-3-3.36a2.24,2.24,0,0,0-2.28,2.31,3.39,3.39,0,0,0,1,2.28,16.12,16.12,0,0,0,3,2.48A18.77,18.77,0,0,1,451,46.4a6.61,6.61,0,0,1,1.46,4.15c0,3.43-2.51,5.78-6.22,5.78-3.87,0-6.15-2.08-6.86-6.4l3.36-1c.44,2.72,1.63,4.08,3.5,4.08a2.47,2.47,0,0,0,2.59-2.59c0-1.42-.72-2.34-3.37-4.42-3.16-2.48-3.3-2.61-4.15-3.7a6.2,6.2,0,0,1-1.25-3.78c0-3.26,2.44-5.57,5.91-5.57,3.23,0,5.41,1.94,6.36,5.68Z" fill="#fff"/><path d="M464.58,39.63c-.55-2.24-1.57-3.36-3-3.36a2.23,2.23,0,0,0-2.27,2.31,3.43,3.43,0,0,0,.95,2.28,17,17,0,0,0,3,2.48,18.93,18.93,0,0,1,3.37,3.06,6.67,6.67,0,0,1,1.46,4.15c0,3.43-2.52,5.78-6.22,5.78-3.88,0-6.16-2.08-6.87-6.4l3.36-1C458.8,51.67,460,53,461.86,53a2.46,2.46,0,0,0,2.58-2.59c0-1.42-.71-2.34-3.37-4.42-3.16-2.48-3.29-2.61-4.14-3.7a6.14,6.14,0,0,1-1.26-3.78c0-3.26,2.45-5.57,5.91-5.57,3.23,0,5.41,1.94,6.36,5.68Z" fill="#fff"/><path d="M488.54,48.78c0,2.55-.37,4.08-1.29,5.37a6.59,6.59,0,0,1-9.79,0c-.92-1.29-1.29-2.82-1.29-5.37V40.52c0-2.55.37-4.08,1.29-5.37a6.59,6.59,0,0,1,9.79,0c.92,1.29,1.29,2.82,1.29,5.37Zm-8.87-.07a6.25,6.25,0,0,0,.44,3.09,2.66,2.66,0,0,0,4.49,0c.37-.71.44-1.25.44-3.09V40.58c0-1.83-.07-2.37-.44-3.09a2.68,2.68,0,0,0-4.49,0,6.25,6.25,0,0,0-.44,3.09Z" fill="#fff"/><path d="M495.62,56h-3.5V33.31h10.36v3.23h-6.86v6.12h5.1v3.23h-5.1Z" fill="#fff"/></g></g></svg>