<svg xmlns="http://www.w3.org/2000/svg" viewBox="0 0 728 90"><title>txt4</title><g id="Layer_2" data-name="Layer 2"><g id="Rect"><rect width="728" height="90" fill="none"/></g><g id="Oil_Without_The_Cleanup." data-name="Oil Without The Cleanup."><path d="M239.91,64.78c0,2.55-.38,4.08-1.29,5.37a6.59,6.59,0,0,1-9.79,0c-.92-1.29-1.3-2.82-1.3-5.37V56.52c0-2.55.38-4.08,1.3-5.37a6.59,6.59,0,0,1,9.79,0c.91,1.29,1.29,2.82,1.29,5.37ZM231,64.71a6.25,6.25,0,0,0,.44,3.09,2.65,2.65,0,0,0,4.48,0c.38-.71.45-1.25.45-3.09V56.58c0-1.83-.07-2.37-.45-3.09a2.67,2.67,0,0,0-4.48,0,6.25,6.25,0,0,0-.44,3.09Z" fill="#fff"/><path d="M247,72h-3.5V49.31H247Z" fill="#fff"/><path d="M254.29,68.76h7V72H250.79V49.31h3.5Z" fill="#fff"/><path d="M281.46,72l-2.93-15.37L275.78,72h-3.27l-4.25-22.68h3.4l2.59,14.62L277,49.31h3l3,14.62,2.27-14.62h3.3L284.72,72Z" fill="#fff"/><path d="M295.09,72h-3.5V49.31h3.5Z" fill="#fff"/><path d="M305.76,72h-3.5V52.54h-4.38V49.31h12.3v3.23h-4.42Z" fill="#fff"/><path d="M316.48,62V72H313V49.31h3.51v9.45h5V49.31H325V72h-3.5V62Z" fill="#fff"/><path d="M340.89,64.78c0,2.55-.38,4.08-1.3,5.37a6.59,6.59,0,0,1-9.79,0c-.91-1.29-1.29-2.82-1.29-5.37V56.52c0-2.55.38-4.08,1.29-5.37a6.59,6.59,0,0,1,9.79,0c.92,1.29,1.3,2.82,1.3,5.37ZM332,64.71a6.21,6.21,0,0,0,.45,3.09,2.65,2.65,0,0,0,4.48,0c.38-.71.44-1.25.44-3.09V56.58c0-1.83-.06-2.37-.44-3.09a2.67,2.67,0,0,0-4.48,0,6.21,6.21,0,0,0-.45,3.09Z" fill="#fff"/><path d="M356.46,49.31V64.68c0,2.85-.34,4.31-1.29,5.61a6.46,6.46,0,0,1-9.42,0c-.95-1.3-1.29-2.76-1.29-5.61V49.31H348V65.25c0,2.69.71,3.78,2.51,3.78S353,67.94,353,65.25V49.31Z" fill="#fff"/><path d="M367.13,72h-3.5V52.54h-4.38V49.31h12.3v3.23h-4.42Z" fill="#fff"/><path d="M385.77,72h-3.5V52.54h-4.39V49.31h12.31v3.23h-4.42Z" fill="#fff"/><path d="M396.48,62V72H393V49.31h3.51v9.45h5V49.31H405V72h-3.51V62Z" fill="#fff"/><path d="M419,52.54h-6.77v6h5v3.23h-5v7H419V72H408.75V49.31H419Z" fill="#fff"/><path d="M435.85,56.69v-.48c0-2.62-.92-3.94-2.65-3.94a2.23,2.23,0,0,0-2.08,1.12c-.44.75-.54,1.43-.54,3.26V64.2a9.84,9.84,0,0,0,.37,3.37A2.37,2.37,0,0,0,433.2,69a2.5,2.5,0,0,0,2.51-2.25,12.65,12.65,0,0,0,.21-2.75h3.53v.78c0,4.93-2.14,7.52-6.22,7.52a5.62,5.62,0,0,1-5.07-2.52c-.85-1.39-1.08-2.72-1.08-6.09V57.37c0-3.61.27-4.87,1.32-6.29A5.7,5.7,0,0,1,433.2,49c3.87,0,6.15,2.58,6.15,7v.68Z" fill="#fff"/><path d="M446.25,68.76h7V72H442.75V49.31h3.5Z" fill="#fff"/><path d="M466,52.54h-6.76v6h5v3.23h-5v7H466V72H455.74V49.31H466Z" fill="#fff"/><path d="M473,67.06,472.06,72h-3.44L473,49.31h4.8L482.36,72h-3.61l-.95-4.93Zm2.38-13.4-1.83,10.17h3.7Z" fill="#fff"/><path d="M497.69,72h-3.13l-6.12-15.1V72h-3.33V49.31h3.54l5.71,14.11V49.31h3.33Z" fill="#fff"/><path d="M513.47,49.31V64.68c0,2.85-.34,4.31-1.3,5.61a6.45,6.45,0,0,1-9.41,0c-.95-1.3-1.29-2.76-1.29-5.61V49.31H505V65.25c0,2.69.71,3.78,2.51,3.78S510,67.94,510,65.25V49.31Z" fill="#fff"/><path d="M520.74,72h-3.5V49.31h5.81c2.28,0,3.71.44,4.76,1.46,1.23,1.16,1.81,2.86,1.81,5.27s-.58,4.15-1.81,5.3c-1,1-2.48,1.47-4.76,1.47h-2.31Zm1.53-12.41c2.82,0,3.71-.85,3.71-3.54s-.89-3.5-3.71-3.5h-1.53v7Z" fill="#fff"/><path d="M532.27,72H529V68.35h3.3Z" fill="#fff"/></g></g></svg>