<svg xmlns="http://www.w3.org/2000/svg" viewBox="0 0 728 90"><title>txt4</title><g id="Layer_2" data-name="Layer 2"><g id="Rect"><rect width="728" height="90" fill="none"/></g><g id="BUT_WITH_LESS_MESS_AND..." data-name="BUT WITH LESS MESS AND..."><path d="M264.61,34.38h4.76c3.86,0,6,1.88,6,5.22a4.31,4.31,0,0,1-3.4,4.6c2.78.8,3.89,2.23,3.89,4.95,0,3.64-2.29,5.84-6.12,5.84h-5.16Zm4.33,8.4c1.95,0,3.21-1.14,3.21-2.9a2.59,2.59,0,0,0-.77-1.92,3.29,3.29,0,0,0-2.38-.65h-1.2v5.47Zm.46,9.27c2,0,3.19-1,3.19-2.9a3.33,3.33,0,0,0-3.65-3.43H267.8v6.33Z" fill="#fff"/><path d="M289.92,34.38v14c0,2.6-.31,3.93-1.18,5.1a5.88,5.88,0,0,1-8.56,0c-.86-1.17-1.17-2.5-1.17-5.1v-14h3.18V48.87c0,2.44.65,3.43,2.29,3.43s2.25-1,2.25-3.43V34.38Z" fill="#fff"/><path d="M299.62,55h-3.19V37.31h-4V34.38h11.18v2.93h-4Z" fill="#fff"/><path d="M321.77,55l-2.66-14-2.5,14h-3l-3.86-20.61h3.09l2.35,13.28,2.47-13.28h2.75l2.72,13.28,2.07-13.28h3L324.73,55Z" fill="#fff"/><path d="M334.15,55H331V34.38h3.18Z" fill="#fff"/><path d="M343.85,55h-3.18V37.31h-4V34.38h11.18v2.93h-4Z" fill="#fff"/><path d="M353.59,45.9V55H350.4V34.38h3.19V43h4.54V34.38h3.18V55h-3.18V45.9Z" fill="#fff"/><path d="M373,52.05h6.33V55h-9.52V34.38H373Z" fill="#fff"/><path d="M390.91,37.31h-6.15v5.44h4.54v2.93h-4.54v6.37h6.15V55h-9.33V34.38h9.33Z" fill="#fff"/><path d="M401.56,40.12c-.49-2-1.42-3.06-2.72-3.06a2,2,0,0,0-2.07,2.11,3.09,3.09,0,0,0,.87,2.07,14.84,14.84,0,0,0,2.72,2.25,17.45,17.45,0,0,1,3.06,2.78A6,6,0,0,1,404.75,50c0,3.12-2.29,5.25-5.66,5.25s-5.59-1.88-6.24-5.8l3.06-.9c.4,2.47,1.48,3.71,3.18,3.71A2.24,2.24,0,0,0,401.44,50c0-1.3-.65-2.13-3.06-4-2.87-2.25-3-2.38-3.77-3.37a5.57,5.57,0,0,1-1.14-3.43c0-3,2.22-5.06,5.37-5.06,2.94,0,4.92,1.76,5.78,5.16Z" fill="#fff"/><path d="M415.71,40.12c-.49-2-1.42-3.06-2.72-3.06a2,2,0,0,0-2.07,2.11,3.09,3.09,0,0,0,.87,2.07,14.84,14.84,0,0,0,2.72,2.25,17.45,17.45,0,0,1,3.06,2.78A6,6,0,0,1,418.89,50c0,3.12-2.28,5.25-5.65,5.25s-5.59-1.88-6.24-5.8l3.06-.9c.4,2.47,1.48,3.71,3.18,3.71A2.24,2.24,0,0,0,415.59,50c0-1.3-.65-2.13-3.06-4-2.87-2.25-3-2.38-3.77-3.37a5.57,5.57,0,0,1-1.14-3.43c0-3,2.22-5.06,5.37-5.06,2.94,0,4.92,1.76,5.78,5.16Z" fill="#fff"/><path d="M441.45,55h-3V39.81L434.83,55H433l-3.55-15.18V55h-3V34.38h4.67L434,47.32l2.87-12.94h4.61Z" fill="#fff"/><path d="M454.24,37.31h-6.15v5.44h4.54v2.93h-4.54v6.37h6.15V55h-9.33V34.38h9.33Z" fill="#fff"/><path d="M464.89,40.12c-.49-2-1.42-3.06-2.72-3.06a2,2,0,0,0-2.07,2.11,3.09,3.09,0,0,0,.87,2.07,14.84,14.84,0,0,0,2.72,2.25,17.45,17.45,0,0,1,3.06,2.78A6,6,0,0,1,468.08,50c0,3.12-2.29,5.25-5.66,5.25-3.52,0-5.59-1.88-6.24-5.8l3.06-.9c.4,2.47,1.48,3.71,3.18,3.71A2.24,2.24,0,0,0,464.77,50c0-1.3-.65-2.13-3.06-4-2.87-2.25-3-2.38-3.77-3.37a5.57,5.57,0,0,1-1.14-3.43c0-3,2.22-5.06,5.37-5.06,2.94,0,4.92,1.76,5.78,5.16Z" fill="#fff"/><path d="M479,40.12c-.49-2-1.42-3.06-2.72-3.06a2,2,0,0,0-2.07,2.11,3.09,3.09,0,0,0,.87,2.07,14.84,14.84,0,0,0,2.72,2.25,17.45,17.45,0,0,1,3.06,2.78A6,6,0,0,1,482.22,50c0,3.12-2.28,5.25-5.65,5.25s-5.59-1.88-6.24-5.8l3.06-.9c.4,2.47,1.48,3.71,3.18,3.71A2.24,2.24,0,0,0,478.92,50c0-1.3-.65-2.13-3.06-4-2.87-2.25-3-2.38-3.77-3.37A5.57,5.57,0,0,1,471,39.13c0-3,2.22-5.06,5.37-5.06,2.94,0,4.92,1.76,5.78,5.16Z" fill="#fff"/><path d="M493,50.5,492.17,55h-3.12L493,34.38h4.36L501.53,55h-3.27l-.87-4.49Zm2.17-12.17-1.67,9.24h3.37Z" fill="#fff"/><path d="M515.47,55h-2.85l-5.56-13.72V55h-3V34.38h3.22l5.19,12.82V34.38h3Z" fill="#fff"/><path d="M518.89,34.38h5c4.05,0,6,2.07,6,6.45v7.7c0,4.39-1.91,6.46-6,6.46h-5Zm4.76,17.67c2.26,0,3.06-1.17,3.06-4.39v-6c0-3.25-.8-4.39-3.06-4.39h-1.57V52.05Z" fill="#fff"/><path d="M535.64,55h-3V51.68h3Z" fill="#fff"/><path d="M541.6,55h-3V51.68h3Z" fill="#fff"/><path d="M547.56,55h-3V51.68h3Z" fill="#fff"/></g></g></svg>