<?xml version="1.0" encoding="utf-8"?>
<!-- Generator: Adobe Illustrator 23.1.1, SVG Export Plug-In . SVG Version: 6.00 Build 0)  -->
<svg version="1.1" id="Layer_1" xmlns="http://www.w3.org/2000/svg" xmlns:xlink="http://www.w3.org/1999/xlink" x="0px" y="0px"
	 viewBox="0 0 728 90" style="enable-background:new 0 0 728 90;" xml:space="preserve">
<style type="text/css">
	.st0{fill:#FFFFFF;}
	.st1{fill:none;}
</style>
<path class="st0" d="M239.9,72L237,56.6L234.2,72H231l-4.2-22.7h3.4l2.6,14.6l2.7-14.6h3l3,14.6l2.3-14.6h3.3L243.2,72H239.9z"/>
<path class="st0" d="M253.5,72H250V49.3h3.5V72z"/>
<path class="st0" d="M264.2,72h-3.5V52.5h-4.4v-3.2h12.3v3.2h-4.4V72z"/>
<path class="st0" d="M274.9,62v10h-3.5V49.3h3.5v9.5h5v-9.5h3.5V72h-3.5V62H274.9z"/>
<path class="st0" d="M299.3,64.8c0,2.5-0.4,4.1-1.3,5.4c-1,1.4-2.7,2.2-4.9,2.2s-3.9-0.7-4.9-2.2c-0.9-1.3-1.3-2.8-1.3-5.4v-8.3
	c0-2.5,0.4-4.1,1.3-5.4c1-1.4,2.7-2.2,4.9-2.2s3.9,0.7,4.9,2.2c0.9,1.3,1.3,2.8,1.3,5.4V64.8z M290.5,64.7c0,1.8,0.1,2.4,0.4,3.1
	c0.4,0.7,1.3,1.2,2.2,1.2s1.8-0.5,2.2-1.2c0.4-0.7,0.4-1.3,0.4-3.1v-8.1c0-1.8-0.1-2.4-0.4-3.1c-0.4-0.7-1.3-1.2-2.2-1.2
	s-1.8,0.5-2.2,1.2c-0.3,0.7-0.4,1.3-0.4,3.1V64.7z"/>
<path class="st0" d="M314.9,49.3v15.4c0,2.9-0.3,4.3-1.3,5.6c-1,1.3-2.7,2-4.7,2c-2.1,0-3.7-0.7-4.7-2c-1-1.3-1.3-2.8-1.3-5.6V49.3
	h3.5v15.9c0,2.7,0.7,3.8,2.5,3.8c1.8,0,2.5-1.1,2.5-3.8V49.3H314.9z"/>
<path class="st0" d="M325.6,72h-3.5V52.5h-4.4v-3.2H330v3.2h-4.4V72z"/>
<path class="st0" d="M344.2,72h-3.5V52.5h-4.4v-3.2h12.3v3.2h-4.4V72z"/>
<path class="st0" d="M354.9,62v10h-3.5V49.3h3.5v9.5h5v-9.5h3.5V72h-3.5V62H354.9z"/>
<path class="st0" d="M377.5,52.5h-6.8v6h5v3.2h-5v7h6.8V72h-10.3V49.3h10.3V52.5z"/>
<path class="st0" d="M394.3,56.7v-0.5c0-2.6-0.9-3.9-2.7-3.9c-1,0-1.7,0.4-2.1,1.1c-0.4,0.7-0.5,1.4-0.5,3.3v7.5
	c0,1.7,0.1,2.6,0.4,3.4c0.3,0.9,1.2,1.5,2.2,1.5c1.3,0,2.1-0.7,2.5-2.2c0.1-0.6,0.2-1.1,0.2-2.8h3.5v0.8c0,4.9-2.1,7.5-6.2,7.5
	c-2.3,0-4.1-0.9-5.1-2.5c-0.9-1.4-1.1-2.7-1.1-6.1v-6.4c0-3.6,0.3-4.9,1.3-6.3c1-1.4,2.7-2.1,4.8-2.1c3.9,0,6.2,2.6,6.2,7v0.7H394.3
	z"/>
<path class="st0" d="M404.7,68.8h7V72h-10.5V49.3h3.5V68.8z"/>
<path class="st0" d="M424.5,52.5h-6.8v6h5v3.2h-5v7h6.8V72h-10.3V49.3h10.3V52.5z"/>
<path class="st0" d="M431.4,67.1l-0.9,4.9h-3.4l4.4-22.7h4.8l4.6,22.7h-3.6l-1-4.9H431.4z M433.8,53.7L432,63.8h3.7L433.8,53.7z"/>
<path class="st0" d="M456.1,72H453l-6.1-15.1V72h-3.3V49.3h3.5l5.7,14.1V49.3h3.3V72z"/>
<path class="st0" d="M471.9,49.3v15.4c0,2.9-0.3,4.3-1.3,5.6c-1,1.3-2.7,2-4.7,2c-2.1,0-3.7-0.7-4.7-2c-1-1.3-1.3-2.8-1.3-5.6V49.3
	h3.5v15.9c0,2.7,0.7,3.8,2.5,3.8c1.8,0,2.5-1.1,2.5-3.8V49.3H471.9z"/>
<path class="st0" d="M479.2,72h-3.5V49.3h5.8c2.3,0,3.7,0.4,4.8,1.5c1.2,1.2,1.8,2.9,1.8,5.3c0,2.4-0.6,4.1-1.8,5.3
	c-1.1,1-2.5,1.5-4.8,1.5h-2.3V72z M480.7,59.6c2.8,0,3.7-0.8,3.7-3.5c0-2.7-0.9-3.5-3.7-3.5h-1.5v7H480.7z"/>
<path class="st0" d="M490.7,72h-3.3v-3.6h3.3V72z"/>
<title>txt4</title>
<g>
	<g id="Rect">
		<rect class="st1" width="728" height="90"/>
	</g>
</g>
</svg>
