<svg xmlns="http://www.w3.org/2000/svg" viewBox="0 0 728 90"><title>txt5</title><g id="Layer_2" data-name="Layer 2"><g id="Rect"><rect width="728" height="90" fill="none"/></g><g id="THE_BENEFITS_OF_WATER." data-name="THE BENEFITS OF WATER."><path d="M270.42,55h-3.18V37.31h-4V34.38h11.19v2.93h-4Z" fill="#fff"/><path d="M280.15,45.9V55H277V34.38h3.18V43h4.55V34.38h3.18V55H284.7V45.9Z" fill="#fff"/><path d="M300.64,37.31h-6.15v5.44H299v2.93h-4.54v6.37h6.15V55h-9.33V34.38h9.33Z" fill="#fff"/><path d="M308.17,34.38h4.76c3.86,0,6,1.88,6,5.22a4.31,4.31,0,0,1-3.4,4.6c2.78.8,3.89,2.23,3.89,4.95,0,3.64-2.29,5.84-6.12,5.84h-5.16Zm4.33,8.4c1.94,0,3.21-1.14,3.21-2.9a2.59,2.59,0,0,0-.77-1.92,3.29,3.29,0,0,0-2.38-.65h-1.21v5.47Zm.46,9.27c2,0,3.18-1,3.18-2.9a3.32,3.32,0,0,0-3.64-3.43h-1.15v6.33Z" fill="#fff"/><path d="M331.9,37.31h-6.15v5.44h4.54v2.93h-4.54v6.37h6.15V55h-9.33V34.38h9.33Z" fill="#fff"/><path d="M345.83,55H343l-5.56-13.72V55h-3V34.38h3.21l5.2,12.82V34.38h3Z" fill="#fff"/><path d="M358.59,37.31h-6.15v5.44H357v2.93h-4.55v6.37h6.15V55h-9.33V34.38h9.33Z" fill="#fff"/><path d="M364.52,55h-3.18V34.38h9.42v2.93h-6.24v5.56h4.64v2.94h-4.64Z" fill="#fff"/><path d="M376.17,55H373V34.38h3.18Z" fill="#fff"/><path d="M385.87,55h-3.18V37.31h-4V34.38h11.18v2.93h-4Z" fill="#fff"/><path d="M400.2,40.12c-.49-2-1.42-3.06-2.72-3.06a2,2,0,0,0-2.07,2.11,3.09,3.09,0,0,0,.87,2.07A14.84,14.84,0,0,0,399,43.49a17.45,17.45,0,0,1,3.06,2.78A6,6,0,0,1,403.39,50c0,3.12-2.29,5.25-5.66,5.25-3.52,0-5.59-1.88-6.24-5.8l3.06-.9c.4,2.47,1.48,3.71,3.18,3.71A2.24,2.24,0,0,0,400.08,50c0-1.3-.65-2.13-3.06-4-2.87-2.25-3-2.38-3.77-3.37a5.57,5.57,0,0,1-1.14-3.43c0-3,2.22-5.06,5.37-5.06,2.94,0,4.92,1.76,5.78,5.16Z" fill="#fff"/><path d="M422,48.43c0,2.32-.34,3.71-1.17,4.89a6,6,0,0,1-8.9,0c-.83-1.18-1.17-2.57-1.17-4.89v-7.5c0-2.32.34-3.71,1.17-4.89a6,6,0,0,1,8.9,0c.83,1.18,1.17,2.57,1.17,4.89Zm-8.06-.06a5.64,5.64,0,0,0,.4,2.81,2.42,2.42,0,0,0,4.08,0,5.31,5.31,0,0,0,.4-2.81V41a5.33,5.33,0,0,0-.4-2.81,2.42,2.42,0,0,0-4.08,0,5.64,5.64,0,0,0-.4,2.81Z" fill="#fff"/><path d="M428.41,55h-3.18V34.38h9.42v2.93h-6.24v5.56H433v2.94h-4.63Z" fill="#fff"/><path d="M452.94,55l-2.66-14-2.5,14h-3L441,34.38H444l2.35,13.28,2.47-13.28h2.75l2.72,13.28,2.07-13.28h3L455.91,55Z" fill="#fff"/><path d="M464.18,50.5,463.35,55h-3.12l3.95-20.61h4.36L472.71,55h-3.28l-.86-4.49Zm2.16-12.17-1.66,9.24H468Z" fill="#fff"/><path d="M480.19,55H477V37.31h-4V34.38H484.2v2.93h-4Z" fill="#fff"/><path d="M496.07,37.31h-6.15v5.44h4.54v2.93h-4.54v6.37h6.15V55h-9.34V34.38h9.34Z" fill="#fff"/><path d="M501.75,55h-3.18V34.38h5a5.73,5.73,0,0,1,4.08,1.23,5.8,5.8,0,0,1,1.85,4.67c0,2.59-.92,4.39-2.78,5.34l3,9.37h-3.34l-2.72-8.47h-1.91Zm1.17-11.41c1.36,0,2-.15,2.47-.65a3.38,3.38,0,0,0,.78-2.5,3.38,3.38,0,0,0-.78-2.47c-.49-.49-1.11-.65-2.47-.65h-1.17v6.27Z" fill="#fff"/><path d="M515.34,55h-3V51.68h3Z" fill="#fff"/></g></g></svg>