<svg xmlns="http://www.w3.org/2000/svg" viewBox="0 0 300 250"><title>txt2</title><g id="Layer_2" data-name="Layer 2"><g id="Rect"><rect width="300" height="250" fill="none"/></g><g id="your_table." data-name="your table."><path d="M18.14,135H15.05v-7.8L10.55,115H14l2.67,8.46L19.4,115h3.36l-4.62,12.21Z" fill="#fff"/><path d="M35.45,128.63a7.63,7.63,0,0,1-1.14,4.74A5.06,5.06,0,0,1,30,135.29a5.06,5.06,0,0,1-4.32-1.92,7.63,7.63,0,0,1-1.14-4.74v-7.29a7.63,7.63,0,0,1,1.14-4.74A5,5,0,0,1,30,114.68a5,5,0,0,1,4.32,1.92,7.63,7.63,0,0,1,1.14,4.74Zm-7.83-.06A5.52,5.52,0,0,0,28,131.3a2.36,2.36,0,0,0,4,0,5.18,5.18,0,0,0,.39-2.73V121.4a5.18,5.18,0,0,0-.39-2.73,2.35,2.35,0,0,0-4,0,5.52,5.52,0,0,0-.39,2.73Z" fill="#fff"/><path d="M49.19,115v13.56c0,2.52-.3,3.81-1.14,5a5,5,0,0,1-4.14,1.8,5,5,0,0,1-4.17-1.8c-.84-1.14-1.14-2.43-1.14-5V115h3.09v14.07c0,2.37.63,3.33,2.22,3.33s2.19-1,2.19-3.33V115Z" fill="#fff"/><path d="M55.61,135H52.52V115h4.83a5.54,5.54,0,0,1,4,1.2,5.64,5.64,0,0,1,1.8,4.53c0,2.52-.9,4.26-2.7,5.19L63.35,135H60.11l-2.64-8.22H55.61Zm1.14-11.07c1.32,0,1.92-.15,2.4-.63a4.26,4.26,0,0,0,0-4.83c-.48-.48-1.08-.63-2.4-.63H55.61v6.09Z" fill="#fff"/><path d="M76.52,135H73.43V117.83H69.56V115H80.42v2.85h-3.9Z" fill="#fff"/><path d="M84.74,130.64,83.93,135h-3l3.84-20H89l4,20H89.84L89,130.64Zm2.1-11.82-1.62,9h3.27Z" fill="#fff"/><path d="M95.66,115h4.62c3.75,0,5.85,1.83,5.85,5.07a4.19,4.19,0,0,1-3.3,4.47c2.7.78,3.78,2.16,3.78,4.8,0,3.54-2.22,5.67-5.94,5.67h-5Zm4.2,8.16a2.8,2.8,0,0,0,3.12-2.82,2.51,2.51,0,0,0-.75-1.86,3.18,3.18,0,0,0-2.31-.63H98.75v5.31Zm.45,9c2,0,3.09-1,3.09-2.82A3.22,3.22,0,0,0,99.86,126H98.75v6.15Z" fill="#fff"/><path d="M112.73,132.14h6.15V135h-9.24V115h3.09Z" fill="#fff"/><path d="M130.16,117.83h-6v5.28h4.41V126h-4.41v6.18h6V135H121.1V115h9.06Z" fill="#fff"/><path d="M135.53,135h-2.91v-3.21h2.91Z" fill="#fff"/></g></g></svg>