<svg xmlns="http://www.w3.org/2000/svg" viewBox="0 0 300 250"><title>txt4</title><g id="Layer_2" data-name="Layer 2"><g id="Rect"><rect width="300" height="250" fill="none"/></g><g id="your_door." data-name="your door."><path d="M18.14,135H15.05v-7.8L10.55,115H14l2.67,8.46L19.4,115h3.36l-4.62,12.21Z" fill="#fff"/><path d="M35.45,128.63a7.63,7.63,0,0,1-1.14,4.74A5.06,5.06,0,0,1,30,135.29a5.06,5.06,0,0,1-4.32-1.92,7.63,7.63,0,0,1-1.14-4.74v-7.29a7.63,7.63,0,0,1,1.14-4.74A5,5,0,0,1,30,114.68a5,5,0,0,1,4.32,1.92,7.63,7.63,0,0,1,1.14,4.74Zm-7.83-.06A5.52,5.52,0,0,0,28,131.3a2.36,2.36,0,0,0,4,0,5.18,5.18,0,0,0,.39-2.73V121.4a5.18,5.18,0,0,0-.39-2.73,2.35,2.35,0,0,0-4,0,5.52,5.52,0,0,0-.39,2.73Z" fill="#fff"/><path d="M49.19,115v13.56c0,2.52-.3,3.81-1.14,5a5,5,0,0,1-4.14,1.8,5,5,0,0,1-4.17-1.8c-.84-1.14-1.14-2.43-1.14-5V115h3.09v14.07c0,2.37.63,3.33,2.22,3.33s2.19-1,2.19-3.33V115Z" fill="#fff"/><path d="M55.61,135H52.52V115h4.83a5.54,5.54,0,0,1,4,1.2,5.64,5.64,0,0,1,1.8,4.53c0,2.52-.9,4.26-2.7,5.19L63.35,135H60.11l-2.64-8.22H55.61Zm1.14-11.07c1.32,0,1.92-.15,2.4-.63a4.26,4.26,0,0,0,0-4.83c-.48-.48-1.08-.63-2.4-.63H55.61v6.09Z" fill="#fff"/><path d="M70.88,115h4.89c3.93,0,5.79,2,5.79,6.27v7.47c0,4.26-1.86,6.27-5.79,6.27H70.88Zm4.62,17.16c2.19,0,3-1.14,3-4.26v-5.79c0-3.15-.78-4.26-3-4.26H74v14.31Z" fill="#fff"/><path d="M95.39,128.63a7.63,7.63,0,0,1-1.14,4.74,5.82,5.82,0,0,1-8.64,0,7.63,7.63,0,0,1-1.14-4.74v-7.29a7.63,7.63,0,0,1,1.14-4.74,5.82,5.82,0,0,1,8.64,0,7.63,7.63,0,0,1,1.14,4.74Zm-7.83-.06A5.52,5.52,0,0,0,88,131.3a2.36,2.36,0,0,0,4,0,5.18,5.18,0,0,0,.39-2.73V121.4a5.18,5.18,0,0,0-.39-2.73,2.36,2.36,0,0,0-4,0,5.52,5.52,0,0,0-.39,2.73Z" fill="#fff"/><path d="M109.25,128.63a7.63,7.63,0,0,1-1.14,4.74,5.82,5.82,0,0,1-8.64,0,7.63,7.63,0,0,1-1.14-4.74v-7.29a7.63,7.63,0,0,1,1.14-4.74,5.82,5.82,0,0,1,8.64,0,7.63,7.63,0,0,1,1.14,4.74Zm-7.83-.06a5.52,5.52,0,0,0,.39,2.73,2.36,2.36,0,0,0,4,0,5.18,5.18,0,0,0,.39-2.73V121.4a5.18,5.18,0,0,0-.39-2.73,2.36,2.36,0,0,0-4,0,5.52,5.52,0,0,0-.39,2.73Z" fill="#fff"/><path d="M115.49,135H112.4V115h4.83a5.54,5.54,0,0,1,4,1.2,5.64,5.64,0,0,1,1.8,4.53c0,2.52-.9,4.26-2.7,5.19l2.94,9.09H120l-2.64-8.22h-1.86Zm1.14-11.07c1.32,0,1.92-.15,2.4-.63a4.26,4.26,0,0,0,0-4.83c-.48-.48-1.08-.63-2.4-.63h-1.14v6.09Z" fill="#fff"/><path d="M128.69,135h-2.91v-3.21h2.91Z" fill="#fff"/></g></g></svg>