<svg xmlns="http://www.w3.org/2000/svg" viewBox="0 0 300 250"><title>txt5</title><g id="Layer_2" data-name="Layer 2"><g id="Rect"><rect width="300" height="250" fill="none"/></g><g id="your_anything." data-name="youranything."><path d="M18.14,135H15.05v-7.8L10.55,115H14l2.67,8.46L19.4,115h3.36l-4.62,12.21Z" fill="#fff"/><path d="M35.45,128.63a7.63,7.63,0,0,1-1.14,4.74A5.06,5.06,0,0,1,30,135.29a5.06,5.06,0,0,1-4.32-1.92,7.63,7.63,0,0,1-1.14-4.74v-7.29a7.63,7.63,0,0,1,1.14-4.74A5,5,0,0,1,30,114.68a5,5,0,0,1,4.32,1.92,7.63,7.63,0,0,1,1.14,4.74Zm-7.83-.06A5.52,5.52,0,0,0,28,131.3a2.36,2.36,0,0,0,4,0,5.18,5.18,0,0,0,.39-2.73V121.4a5.18,5.18,0,0,0-.39-2.73,2.35,2.35,0,0,0-4,0,5.52,5.52,0,0,0-.39,2.73Z" fill="#fff"/><path d="M49.19,115v13.56c0,2.52-.3,3.81-1.14,5a5,5,0,0,1-4.14,1.8,5,5,0,0,1-4.17-1.8c-.84-1.14-1.14-2.43-1.14-5V115h3.09v14.07c0,2.37.63,3.33,2.22,3.33s2.19-1,2.19-3.33V115Z" fill="#fff"/><path d="M55.61,135H52.52V115h4.83a5.54,5.54,0,0,1,4,1.2,5.64,5.64,0,0,1,1.8,4.53c0,2.52-.9,4.26-2.7,5.19L63.35,135H60.11l-2.64-8.22H55.61Zm1.14-11.07c1.32,0,1.92-.15,2.4-.63a4.26,4.26,0,0,0,0-4.83c-.48-.48-1.08-.63-2.4-.63H55.61v6.09Z" fill="#fff"/><path d="M14.69,157.64,13.88,162h-3l3.84-20h4.23l4,20H19.79L19,157.64Zm2.1-11.82-1.62,9h3.27Z" fill="#fff"/><path d="M36.5,162H33.74l-5.4-13.32V162H25.4V142h3.12l5,12.45V142H36.5Z" fill="#fff"/><path d="M46.67,162H43.58v-7.8L39.08,142H42.5l2.67,8.46L47.93,142h3.36l-4.62,12.21Z" fill="#fff"/><path d="M60.2,162H57.11V144.83H53.24V142H64.1v2.85H60.2Z" fill="#fff"/><path d="M69.65,153.17V162H66.56V142h3.09v8.34h4.41V142h3.09v20H74.06v-8.82Z" fill="#fff"/><path d="M83.57,162H80.48V142h3.09Z" fill="#fff"/><path d="M98,162H95.27l-5.4-13.32V162H86.93V142h3.12l5,12.45V142H98Z" fill="#fff"/><path d="M112.06,152.06V162h-1.59l-.57-1.71a4.18,4.18,0,0,1-3.75,2A4.51,4.51,0,0,1,102,160c-.67-1.29-.87-2.58-.87-5.34v-5.52c0-3.18.24-4.32,1.16-5.55a5.07,5.07,0,0,1,4.23-1.86,4.94,4.94,0,0,1,4.71,2.67,8.83,8.83,0,0,1,.72,4.14h-3.09c0-2.76-.69-3.9-2.36-3.9a2,2,0,0,0-1.83,1,5.4,5.4,0,0,0-.46,2.88v6.12a10.9,10.9,0,0,0,.33,3.27,2.17,2.17,0,0,0,2.11,1.5c1.61,0,2.3-1.17,2.3-4v-.81h-2.55v-2.55Z" fill="#fff"/><path d="M117.88,162H115v-3.21h2.9Z" fill="#fff"/></g></g></svg>