<svg xmlns="http://www.w3.org/2000/svg" viewBox="0 0 300 250"><title>txt6</title><g id="Layer_2" data-name="Layer 2"><g id="Rect"><rect width="300" height="250" fill="none"/></g><g id="Superior_stain_for_all_projects." data-name="Superior stain for all projects."><path d="M19.1,66.56c-.48-2-1.38-3-2.64-3a2,2,0,0,0-2,2,3,3,0,0,0,.84,2,14.35,14.35,0,0,0,2.64,2.19,16.72,16.72,0,0,1,3,2.7,5.85,5.85,0,0,1,1.29,3.66c0,3-2.22,5.1-5.49,5.1-3.42,0-5.43-1.83-6.06-5.64l3-.87c.39,2.4,1.44,3.6,3.09,3.6A2.17,2.17,0,0,0,19,76.1c0-1.26-.63-2.07-3-3.9-2.79-2.19-2.91-2.31-3.66-3.27a5.42,5.42,0,0,1-1.11-3.33,4.87,4.87,0,0,1,5.22-4.92c2.85,0,4.77,1.71,5.61,5Z" fill="#fff"/><path d="M35.24,61V74.54c0,2.52-.3,3.81-1.14,4.95A5,5,0,0,1,30,81.29a5,5,0,0,1-4.17-1.8c-.84-1.14-1.14-2.43-1.14-4.95V61h3.09V75.05c0,2.37.63,3.33,2.22,3.33s2.19-1,2.19-3.33V61Z" fill="#fff"/><path d="M41.66,81H38.57V61H43.7c2,0,3.27.39,4.2,1.29a6,6,0,0,1,1.59,4.65c0,2.16-.51,3.66-1.59,4.68s-2.19,1.29-4.2,1.29h-2ZM43,70c2.49,0,3.27-.75,3.27-3.12S45.5,63.83,43,63.83H41.66V70Z" fill="#fff"/><path d="M61.22,63.83h-6v5.28h4.41V72H55.25v6.18h6V81H52.16V61h9.06Z" fill="#fff"/><path d="M66.74,81H63.65V61h4.83a5.54,5.54,0,0,1,4,1.2,5.64,5.64,0,0,1,1.8,4.53c0,2.52-.9,4.26-2.7,5.19L74.48,81H71.24L68.6,72.77H66.74Zm1.14-11.07c1.32,0,1.92-.15,2.4-.63a4.26,4.26,0,0,0,0-4.83c-.48-.48-1.08-.63-2.4-.63H66.74v6.09Z" fill="#fff"/><path d="M80.33,81H77.24V61h3.09Z" fill="#fff"/><path d="M94.4,74.63a7.63,7.63,0,0,1-1.14,4.74,5.82,5.82,0,0,1-8.64,0,7.63,7.63,0,0,1-1.14-4.74V67.34a7.63,7.63,0,0,1,1.14-4.74,5.82,5.82,0,0,1,8.64,0,7.63,7.63,0,0,1,1.14,4.74Zm-7.83-.06A5.52,5.52,0,0,0,87,77.3a2.35,2.35,0,0,0,4,0,5.18,5.18,0,0,0,.39-2.73V67.4a5.18,5.18,0,0,0-.39-2.73,2.36,2.36,0,0,0-4,0,5.52,5.52,0,0,0-.39,2.73Z" fill="#fff"/><path d="M100.64,81H97.55V61h4.83a5.54,5.54,0,0,1,4,1.2,5.64,5.64,0,0,1,1.8,4.53c0,2.52-.9,4.26-2.7,5.19L108.38,81h-3.24l-2.64-8.22h-1.86Zm1.14-11.07c1.32,0,1.92-.15,2.4-.63a4.26,4.26,0,0,0,0-4.83c-.48-.48-1.08-.63-2.4-.63h-1.14v6.09Z" fill="#fff"/><path d="M19.1,93.56c-.48-2-1.38-3-2.64-3a2,2,0,0,0-2,2,3,3,0,0,0,.84,2,14.35,14.35,0,0,0,2.64,2.19,16.72,16.72,0,0,1,3,2.7,5.85,5.85,0,0,1,1.29,3.66c0,3-2.22,5.1-5.49,5.1-3.42,0-5.43-1.83-6.06-5.64l3-.87c.39,2.4,1.44,3.6,3.09,3.6A2.17,2.17,0,0,0,19,103.1c0-1.26-.63-2.07-3-3.9-2.79-2.19-2.91-2.31-3.66-3.27a5.42,5.42,0,0,1-1.11-3.33,4.87,4.87,0,0,1,5.22-4.92c2.85,0,4.77,1.71,5.61,5Z" fill="#fff"/><path d="M30.83,108H27.74V90.83H23.87V88H34.73v2.85h-3.9Z" fill="#fff"/><path d="M39.05,103.64,38.24,108h-3l3.84-20h4.23l4,20H44.15l-.84-4.35Zm2.1-11.82-1.62,9H42.8Z" fill="#fff"/><path d="M52.85,108H49.76V88h3.09Z" fill="#fff"/><path d="M67.31,108H64.55l-5.4-13.32V108H56.21V88h3.12l5,12.45V88h2.94Z" fill="#fff"/><path d="M78.62,108H75.53V88h9.15v2.85H78.62v5.4h4.5v2.85h-4.5Z" fill="#fff"/><path d="M97.82,101.63a7.63,7.63,0,0,1-1.14,4.74,5.82,5.82,0,0,1-8.64,0,7.63,7.63,0,0,1-1.14-4.74V94.34A7.63,7.63,0,0,1,88,89.6a5.82,5.82,0,0,1,8.64,0,7.63,7.63,0,0,1,1.14,4.74ZM90,101.57a5.52,5.52,0,0,0,.39,2.73,2.35,2.35,0,0,0,4,0,5.18,5.18,0,0,0,.39-2.73V94.4a5.18,5.18,0,0,0-.39-2.73,2.36,2.36,0,0,0-4,0A5.52,5.52,0,0,0,90,94.4Z" fill="#fff"/><path d="M104.06,108H101V88h4.83a5.53,5.53,0,0,1,4,1.2,5.62,5.62,0,0,1,1.81,4.53c0,2.52-.9,4.26-2.71,5.19l2.94,9.09h-3.23l-2.64-8.22h-1.86Zm1.14-11.07c1.32,0,1.92-.15,2.4-.63a4.26,4.26,0,0,0,0-4.83c-.48-.48-1.08-.63-2.4-.63h-1.14v6.09Z" fill="#fff"/><path d="M122.45,103.64l-.81,4.35h-3l3.84-20h4.22l4.06,20h-3.19l-.83-4.35Zm2.09-11.82-1.61,9h3.27Z" fill="#fff"/><path d="M136.24,105.14h6.15V108h-9.24V88h3.09Z" fill="#fff"/><path d="M147.7,105.14h6.15V108h-9.24V88h3.09Z" fill="#fff"/><path d="M14.66,135H11.57V115H16.7c2,0,3.27.39,4.2,1.29a6,6,0,0,1,1.59,4.65c0,2.16-.51,3.66-1.59,4.68-.93.9-2.19,1.29-4.2,1.29h-2ZM16,124c2.49,0,3.27-.75,3.27-3.12s-.78-3.09-3.27-3.09H14.66V124Z" fill="#fff"/><path d="M28.25,135H25.16V115H30a5.54,5.54,0,0,1,4,1.2,5.64,5.64,0,0,1,1.8,4.53c0,2.52-.9,4.26-2.7,5.19L36,135H32.75l-2.64-8.22H28.25Zm1.14-11.07c1.32,0,1.92-.15,2.4-.63a4.26,4.26,0,0,0,0-4.83c-.48-.48-1.08-.63-2.4-.63H28.25v6.09Z" fill="#fff"/><path d="M49.46,128.63a7.63,7.63,0,0,1-1.14,4.74A5.06,5.06,0,0,1,44,135.29a5.06,5.06,0,0,1-4.32-1.92,7.63,7.63,0,0,1-1.14-4.74v-7.29a7.63,7.63,0,0,1,1.14-4.74A5,5,0,0,1,44,114.68a5,5,0,0,1,4.32,1.92,7.63,7.63,0,0,1,1.14,4.74Zm-7.83-.06A5.52,5.52,0,0,0,42,131.3a2.36,2.36,0,0,0,4,0,5.18,5.18,0,0,0,.39-2.73V121.4a5.18,5.18,0,0,0-.39-2.73,2.36,2.36,0,0,0-4,0,5.52,5.52,0,0,0-.39,2.73Z" fill="#fff"/><path d="M57.56,115V130.1c0,2.1-.21,3-.87,3.78A3.67,3.67,0,0,1,53.57,135H51.71v-2.91h.72c1.5,0,2-.57,2-2.22V115Z" fill="#fff"/><path d="M70,117.83H64v5.28h4.41V126H64v6.18h6V135H60.92V115H70Z" fill="#fff"/><path d="M80.09,121.49v-.42c0-2.31-.81-3.48-2.34-3.48a2,2,0,0,0-1.83,1,5.08,5.08,0,0,0-.48,2.88v6.66a8.57,8.57,0,0,0,.33,3,2.08,2.08,0,0,0,2,1.29,2.21,2.21,0,0,0,2.22-2,11.3,11.3,0,0,0,.18-2.43h3.12v.69c0,4.35-1.89,6.63-5.49,6.63a4.94,4.94,0,0,1-4.47-2.22c-.75-1.23-1-2.4-1-5.37v-5.61c0-3.18.24-4.29,1.17-5.55a5,5,0,0,1,4.23-1.86c3.42,0,5.43,2.28,5.43,6.21v.6Z" fill="#fff"/><path d="M92.21,135H89.12V117.83H85.25V115H96.1v2.85H92.21Z" fill="#fff"/><path d="M106.12,120.56c-.48-2-1.38-3-2.64-3a2,2,0,0,0-2,2,3,3,0,0,0,.84,2,14.35,14.35,0,0,0,2.64,2.19,16.72,16.72,0,0,1,3,2.7,5.85,5.85,0,0,1,1.29,3.66c0,3-2.22,5.1-5.49,5.1-3.42,0-5.43-1.83-6.06-5.64l3-.87c.39,2.4,1.44,3.6,3.09,3.6A2.17,2.17,0,0,0,106,130.1c0-1.26-.63-2.07-3-3.9-2.79-2.19-2.91-2.31-3.66-3.27a5.42,5.42,0,0,1-1.11-3.33,4.87,4.87,0,0,1,5.22-4.92c2.85,0,4.77,1.71,5.61,5Z" fill="#fff"/><path d="M114.52,135h-2.91v-3.21h2.91Z" fill="#fff"/></g></g></svg>