<svg xmlns="http://www.w3.org/2000/svg" viewBox="0 0 49.44 58.85"><title>thd_logo</title><g id="Layer_2" data-name="Layer 2"><g id="Layer_2-2" data-name="Layer 2"><rect y="9.41" width="49.44" height="49.43" fill="#f5821f"/><path d="M45.52,56.43a1.41,1.41,0,0,1,2.81,0,1.41,1.41,0,0,1-2.81,0Zm1.41,1.16a1.16,1.16,0,1,0-1.14-1.16A1.12,1.12,0,0,0,46.93,57.59Zm-.3-.35h-.24V55.63H47c.38,0,.57.14.57.46a.42.42,0,0,1-.42.44l.46.71h-.27l-.43-.7h-.28Zm.29-.9c.21,0,.39,0,.39-.27s-.18-.23-.35-.23h-.33v.5Z" fill="#fff"/><path d="M11,48.55,9.69,49.83,8.84,49l1.28-1.28L6.81,44.39c-.54-.54-.62-.64-1.29-.29A.56.56,0,0,1,4.81,44c-.42-.42,0-.93.09-1L9,38.91c.06-.06.57-.51,1-.09a.59.59,0,0,1,.07.72c-.35.67-.24.74.3,1.28L18,48.47c.54.54.62.64,1.29.29a.57.57,0,0,1,.71.07c.42.43,0,.94-.08,1L15.81,54c-.06,0-.57.5-1,.08a.57.57,0,0,1-.07-.71c.35-.67.25-.74-.29-1.28ZM0,47.93l3.52-3.52s.56-.51,1-.08a.56.56,0,0,1,.08.71c-.35.67-.25.74.29,1.29L12.52,54c.54.54.61.65,1.28.3a.56.56,0,0,1,.72.07c.42.42,0,.93-.09,1l-3.52,3.52H9.23v0c.35-.67.25-.74-.29-1.28L1.3,49.89C.76,49.35.69,49.25,0,49.6H0Z" fill="#fff"/><path d="M14.89,34.29a1.39,1.39,0,0,0,.31,1.8l7.56,7.56a1.38,1.38,0,0,0,1.79.3l.85.85c-3.37,2.81-7.3,1.76-10.21-1.15s-4-6.84-1.15-10.2Zm10.32,9a1.39,1.39,0,0,0-.31-1.79L17.34,34a1.37,1.37,0,0,0-1.79-.31l-.85-.85C18.06,30,22,31,24.91,33.94s3.95,6.84,1.14,10.21Z" fill="#fff"/><path d="M41.3,27.56a.56.56,0,0,0-.72-.07c-.67.34-.74.24-1.28-.3l-7.65-7.65c-.54-.53-.64-.61-.29-1.28a.56.56,0,0,0-.08-.71c-.42-.43-.93,0-1,.08l-3.85,3.85,3.14,5.82,0,0-6-2.93-3.69,3.7c-.18.18-.62.61-.16,1.06s.77,0,1-.17.49-.11.84,0a4.3,4.3,0,0,1,.89.37l12.08,6,.42-.42L29,24l6.78,6.78c.54.54.64.61.29,1.28a.58.58,0,0,0,.08.72c.42.42.93,0,1-.09l4.12-4.12C41.27,28.49,41.72,28,41.3,27.56Z" fill="#fff"/><path d="M29.89,35.26l-2.51-2.51-3.22-1.6,0,0,4.92,4.92c1.59,2.06.09,2.42.71,3,.46.45,1-.17,1.19-.34l1.65-1.65c.16-.17.79-.73.34-1.18C32.31,35.35,32,36.85,29.89,35.26Z" fill="#fff"/><path d="M31.91,16l3.84-3.85L46.67,23.09l-3.84,3.84c-.06.06-.57.51-1,.09a.57.57,0,0,1-.07-.71c.35-.67.25-.75-.29-1.29l-7.65-7.65c-.54-.53-.61-.64-1.28-.29a.59.59,0,0,1-.72-.07C31.4,16.59,31.85,16.08,31.91,16ZM40.8,9.41l1.82,1.82c.07.07.34.37-.1.8-.25.25-.47.18-.76,0a4,4,0,0,0-4.5.3l-.85-.84,2.11-2.11Zm8.64,10.91-2.12,2.11-.84-.84A4.24,4.24,0,0,0,46.84,17c-.12-.32-.27-.65,0-.91a.58.58,0,0,1,.91.08l1.69,1.68Zm-8.15-3.93a2.21,2.21,0,0,0-.27-2.3c-.17-.32-.32-.64,0-.95.46-.45.91.15,1,.26l3.15,3.16c.12.11.71.57.26,1s-.62.16-.95,0a2.21,2.21,0,0,0-2.3-.26Z" fill="#fff"/><path d="M22,50.54c1.37-1.41,3.51-1.61,5.72.41a3.89,3.89,0,0,1,.41,5.73l-.47-.48c.43-.57,0-1.06-.32-1.37l-3.5-3.5c-.31-.31-.8-.75-1.37-.32Z" fill="#fff"/><path d="M25,58.85l.09-.18c.11-.21-.13-.41-.25-.53l-4.3-4.3c-.13-.13-.33-.36-.54-.26s-.4.24-.6,0,0-.45.13-.61l2.1-2.1,6.13,6.14-1.8,1.8Z" fill="#fff"/><path d="M25,47.48l2.16-2.17,6.14,6.14-2.17,2.17s-.32.28-.55.05a.31.31,0,0,1,0-.4c.19-.38.14-.42-.17-.73l-4.3-4.3c-.3-.3-.34-.36-.72-.16a.33.33,0,0,1-.4,0C24.74,47.8,25,47.51,25,47.48Zm2.53-2.54,1.83-1.83,1.67,1.67s.19.21-.06.45-.26.1-.43,0a2.22,2.22,0,0,0-2.53.17Zm5.66,5.67A2.4,2.4,0,0,0,33.43,48c-.07-.18-.15-.36,0-.51a.32.32,0,0,1,.51,0l1.65,1.64L33.7,51.08ZM30.3,47.68a1.23,1.23,0,0,0-.14-1.29c-.11-.18-.19-.36,0-.54s.5.09.57.15l1.77,1.78c.07.06.41.31.15.57s-.35.09-.53,0a1.25,1.25,0,0,0-1.3-.15Z" fill="#fff"/><path d="M32.56,40a4.36,4.36,0,0,1,1.93-1.32,2.37,2.37,0,0,1,2.43.74,2.4,2.4,0,0,1,.75,2.44,4.36,4.36,0,0,1-1.32,1.93l-.48-.48c.4-.57.09-.93-.32-1.34l-1.23-1.23c-.37-.37-.79-.64-1.29-.27Zm-1.46,3.3c-.31-.31-.35-.36-.73-.17a.31.31,0,0,1-.4,0c-.24-.24,0-.52.05-.56l2.17-2.16,5.22,5.22c.3.3.34.36.72.16a.33.33,0,0,1,.4,0c.24.24,0,.53-.05.56l-2.32,2.32a.33.33,0,0,1-.49,0,.3.3,0,0,1-.06-.39c.19-.37.09-.37-.21-.67Z" fill="#fff"/><path d="M37.76,35.45a.78.78,0,0,0,.17,1l4.25,4.25a.77.77,0,0,0,1,.17l.48.48c-1.9,1.58-4.11,1-5.75-.64S35.7,36.87,37.28,35Zm5.8,5.07a.78.78,0,0,0-.17-1l-4.25-4.25a.78.78,0,0,0-1-.18l-.48-.47c1.9-1.59,4.11-1,5.74.64S45.62,39.1,44,41Z" fill="#fff"/><path d="M49.44,35.34l-2,2s-.32.29-.56,0a.33.33,0,0,1,0-.4c.2-.38.14-.42-.16-.72L41.49,31l2-2,5.22,5.22c.3.3.34.36.72.16Zm-2.48-6a.35.35,0,0,1,0,.51c-.23.23-.49.06-.69-.1a2.62,2.62,0,0,0-1.9-.66l-.47-.48,1.18-1.18Zm-7,3.2,1.18-1.18.47.47a2.65,2.65,0,0,0,.67,1.9c.16.21.33.46.1.69a.35.35,0,0,1-.51,0Z" fill="#fff"/><path d="M5.92,28.13l1.9-1.89,4.9,4.91c.28.28.32.34.68.15a.3.3,0,0,1,.38,0c.22.22,0,.49,0,.52l-2.18,2.19s-.3.27-.53,0a.29.29,0,0,1,0-.37c.19-.36.14-.4-.15-.68Zm5.15-1.55a.33.33,0,0,1,0,.48c-.22.22-.46.05-.65-.09a2.5,2.5,0,0,0-1.78-.63l-.45-.44,1.11-1.11Zm-6.6,3,1.11-1.11.45.45a2.46,2.46,0,0,0,.62,1.78c.15.19.31.43.09.65a.33.33,0,0,1-.48,0Z" fill="#fff"/><path d="M16.73,27.14c.29.28.32.34.68.15a.3.3,0,0,1,.38,0c.22.22,0,.49-.05.52L15.56,30s-.3.27-.53,0a.33.33,0,0,1,0-.38c.19-.35.14-.39-.15-.67l-4-4c-.29-.29-.32-.34-.68-.16a.3.3,0,0,1-.38,0c-.22-.22,0-.49,0-.52L12,22.09A.38.38,0,0,1,12.5,22a.32.32,0,0,1,0,.38c-.18.35-.13.39.16.68Zm-.82-2.87-.68.68-.44-.45.67-.68-1.75-1.75c-.28-.28-.32-.34-.68-.15a.29.29,0,0,1-.37,0c-.23-.23,0-.5,0-.53l2.19-2.18s.3-.27.52-.05a.3.3,0,0,1,0,.38c-.18.36-.13.4.15.68l4,4c.28.29.32.34.67.16a.32.32,0,0,1,.38,0c.22.23,0,.5-.05.53l-2.18,2.18s-.3.27-.52.05a.3.3,0,0,1,0-.38c.18-.35.13-.39-.15-.68Z" fill="#fff"/><path d="M16,18l2-2,5.77,5.77-2,2s-.3.27-.53,0a.31.31,0,0,1,0-.38c.18-.35.13-.39-.16-.68l-4-4c-.29-.28-.32-.34-.68-.15a.3.3,0,0,1-.38,0C15.75,18.34,16,18.07,16,18Zm2.38-2.39,1.72-1.72,1.57,1.57s.17.19-.06.42-.24.1-.4,0a2.08,2.08,0,0,0-2.38.16ZM23.73,21a2.25,2.25,0,0,0,.19-2.43c-.06-.17-.14-.34,0-.48a.3.3,0,0,1,.48,0L26,19.65l-1.78,1.77ZM21,18.23A1.17,1.17,0,0,0,20.84,17c-.09-.17-.17-.34,0-.5s.48.08.54.14L23,18.31c.06.07.38.31.14.54s-.33.09-.5,0a1.16,1.16,0,0,0-1.22-.14Z" fill="#fff"/><path d="M1.21,0H5.33V1H2.42V2.2H5.09v.94H2.42V4.49h3v1H1.21Z" fill="#fff"/><path d="M7,3.41,5.65,1.52H6.9l.7,1,.69-1H9.5L8.19,3.38,9.66,5.5H8.41L7.58,4.25,6.75,5.5H5.52Z" fill="#fff"/><path d="M12.64,2.92a.74.74,0,0,0-.81-.68c-.7,0-.93.71-.93,1.29s.22,1.26.91,1.26A.85.85,0,0,0,12.68,4h1.06a1.79,1.79,0,0,1-1.92,1.63,1.94,1.94,0,0,1-2-2,2,2,0,0,1,2-2.16,1.69,1.69,0,0,1,1.87,1.51Z" fill="#fff"/><path d="M14.23,0h1.09V5.5H14.23Z" fill="#fff"/><path d="M19.77,5.5h-1V5h0a1.42,1.42,0,0,1-1.22.66C16.33,5.61,16,5,16,4V1.52h1.1V3.77c0,.66.19,1,.7,1s.85-.33.85-1.14V1.52h1.09Z" fill="#fff"/><path d="M21.3,4.21c0,.48.41.67.84.67s.72-.12.72-.51-.46-.45-1.24-.62-1.27-.36-1.27-1.06c0-1,.88-1.28,1.74-1.28s1.67.29,1.76,1.27H22.8c0-.42-.35-.54-.74-.54s-.61,0-.61.37.61.45,1.24.6S24,3.48,24,4.23c0,1-.91,1.38-1.82,1.38s-1.82-.34-1.87-1.4Z" fill="#fff"/><path d="M25.57.9h-1.1V0h1.1Zm-1.1.62h1.1v4h-1.1Z" fill="#fff"/><path d="M28.48,5.5H27.26l-1.36-4h1.15l.84,2.72h0l.84-2.72h1.09Z" fill="#fff"/><path d="M31,3.78c0,.69.37,1,1,1a.91.91,0,0,0,.87-.52h1A1.79,1.79,0,0,1,32,5.61a1.94,1.94,0,0,1-2-2.09,2,2,0,1,1,4,.26Zm1.78-.7c-.1-.55-.33-.84-.87-.84a.87.87,0,0,0-.91.84Z" fill="#fff"/><path d="M34.43,0h1.1V5.5h-1.1Z" fill="#fff"/><path d="M38.21,6a1.26,1.26,0,0,1-1.38.9c-.22,0-.44,0-.67,0V6c.21,0,.43,0,.64,0a.52.52,0,0,0,.38-.75l-1.4-3.74H37l.9,2.73h0l.87-2.73h1.13Z" fill="#fff"/><path d="M42,2.74c.06-1,1-1.33,1.87-1.33s1.75.18,1.75,1.13V4.62a2,2,0,0,0,.14.88H44.68a1.22,1.22,0,0,1-.07-.38,1.85,1.85,0,0,1-1.35.49c-.75,0-1.35-.37-1.35-1.19s.68-1.12,1.35-1.21,1.3-.08,1.3-.53-.32-.54-.71-.54-.69.17-.72.6Zm2.53.81c-.19.17-.57.17-.91.24S43,4,43,4.37s.32.51.67.51A.82.82,0,0,0,44.56,4Z" fill="#fff"/><path d="M47.74,1.52h.8v.73h-.8v2c0,.37.09.46.46.46a2,2,0,0,0,.34,0v.85a4.31,4.31,0,0,1-.64,0c-.67,0-1.26-.15-1.26-1V2.25H46V1.52h.66V.32h1.1Z" fill="#fff"/></g></g></svg>