<svg xmlns="http://www.w3.org/2000/svg" viewBox="0 0 300 600"><title>txt1</title><g id="Layer_2" data-name="Layer 2"><g id="Rect_copy" data-name="Rect copy"><rect width="300" height="600" fill="none"/></g><g id="TODAY_LET_S_STAIN." data-name="TODAY LET’S STAIN."><path d="M111.3,397.64H107v-24h-5.42v-4h15.2v4H111.3Z" fill="#fff"/><path d="M135,388.73c0,3.15-.46,5-1.59,6.64-1.26,1.77-3.36,2.69-6,2.69s-4.79-.92-6-2.69c-1.13-1.59-1.6-3.49-1.6-6.64v-10.2c0-3.15.47-5,1.6-6.64,1.26-1.77,3.36-2.69,6-2.69s4.79.92,6,2.69c1.13,1.6,1.59,3.49,1.59,6.64Zm-11-.08c0,2.23.13,3,.55,3.82a3.28,3.28,0,0,0,5.54,0c.46-.88.55-1.55.55-3.82v-10c0-2.27-.09-2.94-.55-3.82a3.3,3.3,0,0,0-5.54,0c-.42.84-.55,1.59-.55,3.82Z" fill="#fff"/><path d="M139.44,369.62h6.85c5.5,0,8.11,2.82,8.11,8.78v10.46c0,6-2.61,8.78-8.11,8.78h-6.85Zm6.47,24c3.07,0,4.16-1.6,4.16-6v-8.1c0-4.41-1.09-6-4.16-6h-2.14v20Z" fill="#fff"/><path d="M162.84,391.55l-1.14,6.09h-4.24l5.38-28h5.92l5.67,28H170l-1.18-6.09ZM165.78,375l-2.27,12.56h4.58Z" fill="#fff"/><path d="M185.26,397.64h-4.32V386.72l-6.3-17.1h4.79l3.73,11.85L187,369.62h4.7l-6.47,17.1Z" fill="#fff"/><path d="M70,434.54h8.61v4H65.63v-28H70Z" fill="#fff"/><path d="M94.36,414.51H86v7.39h6.17v4H86v8.65h8.36v4H81.67v-28H94.36Z" fill="#fff"/><path d="M106.91,438.53h-4.32v-24H97.17v-4h15.21v4h-5.47Z" fill="#fff"/><path d="M119.64,415l-2.48,5.8h-1.6l1.85-5.8h-1.85v-4.49h4.08Z" fill="#fff"/><path d="M134.42,418.33c-.67-2.77-1.93-4.16-3.69-4.16a2.78,2.78,0,0,0-2.82,2.86,4.2,4.2,0,0,0,1.18,2.81c.71.8.71.8,3.7,3.07a23.06,23.06,0,0,1,4.15,3.78,8.13,8.13,0,0,1,1.81,5.12c0,4.25-3.11,7.14-7.69,7.14-4.79,0-7.6-2.56-8.48-7.89l4.16-1.22c.54,3.36,2,5,4.32,5a3,3,0,0,0,3.2-3.19c0-1.77-.89-2.9-4.16-5.46-3.91-3.07-4.08-3.24-5.13-4.58a7.6,7.6,0,0,1-1.55-4.67c0-4,3-6.89,7.31-6.89,4,0,6.68,2.4,7.85,7Z" fill="#fff"/><path d="M159.58,418.33c-.67-2.77-1.93-4.16-3.7-4.16a2.77,2.77,0,0,0-2.81,2.86,4.2,4.2,0,0,0,1.18,2.81c.71.8.71.8,3.69,3.07a22.86,22.86,0,0,1,4.16,3.78,8.13,8.13,0,0,1,1.81,5.12c0,4.25-3.11,7.14-7.69,7.14-4.79,0-7.6-2.56-8.48-7.89l4.15-1.22c.55,3.36,2,5,4.33,5a3,3,0,0,0,3.19-3.19c0-1.77-.88-2.9-4.16-5.46-3.9-3.07-4.07-3.24-5.12-4.58a7.6,7.6,0,0,1-1.55-4.67c0-4,3-6.89,7.3-6.89,4,0,6.68,2.4,7.86,7Z" fill="#fff"/><path d="M176,438.53h-4.32v-24h-5.42v-4h15.2v4H176Z" fill="#fff"/><path d="M187.51,432.44l-1.13,6.09h-4.25l5.38-28h5.92l5.67,28h-4.45l-1.17-6.09Zm2.94-16.55-2.27,12.56h4.58Z" fill="#fff"/><path d="M206.83,438.53H202.5v-28h4.33Z" fill="#fff"/><path d="M227.08,438.53h-3.87l-7.56-18.65v18.65h-4.12v-28h4.37L223,428V410.52h4.12Z" fill="#fff"/><path d="M235.43,438.53h-4.07V434h4.07Z" fill="#fff"/></g></g></svg>