<svg xmlns="http://www.w3.org/2000/svg" viewBox="0 0 300 600"><title>txt2</title><g id="Layer_2" data-name="Layer 2"><g id="Rect"><rect width="300" height="600" fill="none"/></g><g id="your_table." data-name="your table."><path d="M76.22,495H72.1v-10.4l-6-16.28h4.56l3.56,11.28,3.68-11.28h4.48l-6.16,16.28Z" fill="#fff"/><path d="M99.3,486.51c0,3-.44,4.8-1.52,6.32A6.71,6.71,0,0,1,92,495.39a6.71,6.71,0,0,1-5.76-2.56c-1.08-1.52-1.52-3.32-1.52-6.32v-9.72c0-3,.44-4.8,1.52-6.32A6.71,6.71,0,0,1,92,467.91a6.71,6.71,0,0,1,5.76,2.56c1.08,1.52,1.52,3.32,1.52,6.32Zm-10.44-.08c0,2.12.12,2.84.52,3.64a3.14,3.14,0,0,0,5.28,0c.44-.84.52-1.48.52-3.64v-9.56c0-2.16-.08-2.8-.52-3.64a3.14,3.14,0,0,0-5.28,0c-.4.8-.52,1.52-.52,3.64Z" fill="#fff"/><path d="M117.62,468.31v18.08c0,3.36-.4,5.08-1.52,6.6A7.59,7.59,0,0,1,105,493c-1.12-1.52-1.52-3.24-1.52-6.6V468.31h4.12v18.76c0,3.16.84,4.44,3,4.44s2.92-1.28,2.92-4.44V468.31Z" fill="#fff"/><path d="M126.18,495h-4.12V468.31h6.44c2.44,0,4,.48,5.28,1.6a7.52,7.52,0,0,1,2.4,6c0,3.36-1.2,5.68-3.6,6.92L136.5,495h-4.32l-3.52-11h-2.48Zm1.52-14.76c1.76,0,2.56-.2,3.2-.84a5.68,5.68,0,0,0,0-6.44c-.64-.64-1.44-.84-3.2-.84h-1.52v8.12Z" fill="#fff"/><path d="M154.06,495h-4.12V472.11h-5.16v-3.8h14.48v3.8h-5.2Z" fill="#fff"/><path d="M165,489.19l-1.08,5.8h-4L165,468.31h5.64l5.4,26.68h-4.24l-1.12-5.8Zm2.8-15.76-2.16,12H170Z" fill="#fff"/><path d="M179.58,468.31h6.16c5,0,7.79,2.44,7.79,6.76a5.59,5.59,0,0,1-4.4,6c3.6,1,5,2.88,5,6.4,0,4.72-3,7.56-7.91,7.56h-6.68Zm5.6,10.88c2.52,0,4.15-1.48,4.15-3.76a3.31,3.31,0,0,0-1-2.48,4.2,4.2,0,0,0-3.07-.84H183.7v7.08Zm.6,12c2.64,0,4.12-1.36,4.12-3.76,0-2.68-1.84-4.44-4.72-4.44H183.7v8.2Z" fill="#fff"/><path d="M202.34,491.19h8.19V495H198.22V468.31h4.12Z" fill="#fff"/><path d="M225.57,472.11h-7.95v7h5.88V483h-5.88v8.24h7.95V495H213.5V468.31h12.07Z" fill="#fff"/><path d="M232.74,495h-3.88v-4.28h3.88Z" fill="#fff"/></g></g></svg>