<svg xmlns="http://www.w3.org/2000/svg" viewBox="0 0 300 600"><title>txt2</title><g id="Layer_2" data-name="Layer 2"><g id="Rect_copy" data-name="Rect copy"><rect width="300" height="600" fill="none"/></g><g id="TODAY_LET_S_STAIN_YOUR_CHAIR." data-name="TODAY LET’S STAINYOUR CHAIR."><path d="M111.3,397.64H107v-24h-5.42v-4h15.2v4H111.3Z" fill="#fff"/><path d="M135,388.73c0,3.15-.46,5-1.59,6.64-1.26,1.77-3.36,2.69-6,2.69s-4.79-.92-6-2.69c-1.13-1.59-1.6-3.49-1.6-6.64v-10.2c0-3.15.47-5,1.6-6.64,1.26-1.77,3.36-2.69,6-2.69s4.79.92,6,2.69c1.13,1.6,1.59,3.49,1.59,6.64Zm-11-.08c0,2.23.13,3,.55,3.82a3.28,3.28,0,0,0,5.54,0c.46-.88.55-1.55.55-3.82v-10c0-2.27-.09-2.94-.55-3.82a3.3,3.3,0,0,0-5.54,0c-.42.84-.55,1.59-.55,3.82Z" fill="#fff"/><path d="M139.44,369.62h6.85c5.5,0,8.11,2.82,8.11,8.78v10.46c0,6-2.61,8.78-8.11,8.78h-6.85Zm6.47,24c3.07,0,4.16-1.6,4.16-6v-8.1c0-4.41-1.09-6-4.16-6h-2.14v20Z" fill="#fff"/><path d="M162.84,391.55l-1.14,6.09h-4.24l5.38-28h5.92l5.67,28H170l-1.18-6.09ZM165.78,375l-2.27,12.56h4.58Z" fill="#fff"/><path d="M185.26,397.64h-4.32V386.72l-6.3-17.1h4.79l3.73,11.85L187,369.62h4.7l-6.47,17.1Z" fill="#fff"/><path d="M73.88,434.54h8.61v4H69.56v-28h4.32Z" fill="#fff"/><path d="M98.29,414.51H89.93v7.39H96.1v4H89.93v8.65h8.36v4H85.6v-28H98.29Z" fill="#fff"/><path d="M110.84,438.53h-4.33v-24H101.1v-4h15.2v4h-5.46Z" fill="#fff"/><path d="M123.57,415l-2.48,5.8h-1.6l1.85-5.8h-1.85v-4.49h4.08Z" fill="#fff"/><path d="M138.35,418.33c-.67-2.77-1.93-4.16-3.7-4.16a2.77,2.77,0,0,0-2.81,2.86,4.2,4.2,0,0,0,1.18,2.81c.71.8.71.8,3.69,3.07a23.22,23.22,0,0,1,4.16,3.78,8.13,8.13,0,0,1,1.81,5.12c0,4.25-3.11,7.14-7.69,7.14-4.79,0-7.6-2.56-8.49-7.89l4.16-1.22c.55,3.36,2,5,4.33,5a3,3,0,0,0,3.19-3.19c0-1.77-.88-2.9-4.16-5.46-3.9-3.07-4.07-3.24-5.12-4.58a7.61,7.61,0,0,1-1.56-4.67c0-4,3-6.89,7.31-6.89,4,0,6.68,2.4,7.86,7Z" fill="#fff"/><path d="M163.51,418.33c-.67-2.77-1.93-4.16-3.7-4.16A2.77,2.77,0,0,0,157,417a4.23,4.23,0,0,0,1.17,2.81c.72.8.72.8,3.7,3.07a23.59,23.59,0,0,1,4.16,3.78,8.18,8.18,0,0,1,1.8,5.12c0,4.25-3.1,7.14-7.68,7.14-4.79,0-7.61-2.56-8.49-7.89l4.16-1.22c.55,3.36,2,5,4.33,5a3,3,0,0,0,3.19-3.19c0-1.77-.88-2.9-4.16-5.46-3.9-3.07-4.07-3.24-5.12-4.58A7.61,7.61,0,0,1,152.5,417c0-4,3-6.89,7.31-6.89,4,0,6.68,2.4,7.86,7Z" fill="#fff"/><path d="M179.93,438.53H175.6v-24h-5.42v-4h15.21v4h-5.46Z" fill="#fff"/><path d="M191.44,432.44l-1.14,6.09h-4.24l5.38-28h5.92l5.67,28h-4.45l-1.18-6.09Zm2.94-16.55-2.27,12.56h4.58Z" fill="#fff"/><path d="M210.76,438.53h-4.33v-28h4.33Z" fill="#fff"/><path d="M231,438.53h-3.86l-7.56-18.65v18.65h-4.12v-28h4.37L226.89,428V410.52H231Z" fill="#fff"/><path d="M73.23,479.43H68.9V468.51l-6.3-17.1h4.79l3.74,11.85L75,451.41h4.7l-6.47,17.1Z" fill="#fff"/><path d="M97.47,470.52c0,3.15-.47,5.05-1.6,6.64-1.26,1.77-3.36,2.69-6.05,2.69s-4.79-.92-6-2.69c-1.13-1.59-1.59-3.49-1.59-6.64v-10.2c0-3.15.46-5,1.59-6.64a7.06,7.06,0,0,1,6-2.69,7.06,7.06,0,0,1,6.05,2.69c1.13,1.6,1.6,3.49,1.6,6.64Zm-11-.08c0,2.23.13,3,.55,3.82a3.28,3.28,0,0,0,5.54,0c.47-.88.55-1.55.55-3.82v-10c0-2.27-.08-2.94-.55-3.82a3.3,3.3,0,0,0-5.54,0c-.42.84-.55,1.59-.55,3.82Z" fill="#fff"/><path d="M116.7,451.41v19c0,3.53-.42,5.33-1.59,6.93a8,8,0,0,1-11.64,0c-1.18-1.6-1.6-3.4-1.6-6.93v-19h4.33v19.7c0,3.32.88,4.67,3.11,4.67s3.07-1.35,3.07-4.67v-19.7Z" fill="#fff"/><path d="M125.69,479.43h-4.33v-28h6.76c2.57,0,4.21.51,5.55,1.68a7.9,7.9,0,0,1,2.52,6.34c0,3.53-1.26,6-3.78,7.27l4.12,12.73H132l-3.7-11.51h-2.6Zm1.59-15.5c1.85,0,2.69-.21,3.37-.88a4.69,4.69,0,0,0,1-3.41,4.64,4.64,0,0,0-1-3.36c-.68-.67-1.52-.88-3.37-.88h-1.59v8.53Z" fill="#fff"/><path d="M157.61,460.53v-.59c0-3.24-1.14-4.87-3.28-4.87a2.74,2.74,0,0,0-2.56,1.38c-.55.93-.67,1.77-.67,4v9.33a12,12,0,0,0,.46,4.16,2.92,2.92,0,0,0,2.77,1.81c1.6,0,2.65-.93,3.11-2.78a15.53,15.53,0,0,0,.25-3.4h4.37v1c0,6.09-2.64,9.28-7.68,9.28-2.82,0-5-1.09-6.26-3.11-1.05-1.72-1.35-3.36-1.35-7.52v-7.85c0-4.46.34-6,1.64-7.78a7,7,0,0,1,5.92-2.6c4.79,0,7.61,3.19,7.61,8.7v.84Z" fill="#fff"/><path d="M170.46,467.08v12.35h-4.33v-28h4.33v11.68h6.17V451.41H181v28h-4.33V467.08Z" fill="#fff"/><path d="M190.2,473.34l-1.14,6.09h-4.24l5.38-28h5.92l5.67,28h-4.45l-1.18-6.09Zm2.94-16.55-2.27,12.56h4.58Z" fill="#fff"/><path d="M209.52,479.43h-4.33v-28h4.33Z" fill="#fff"/><path d="M218.55,479.43h-4.33v-28H221c2.57,0,4.21.51,5.55,1.68a7.9,7.9,0,0,1,2.52,6.34c0,3.53-1.26,6-3.78,7.27l4.12,12.73h-4.54l-3.7-11.51h-2.6Zm1.59-15.5c1.85,0,2.69-.21,3.36-.88a4.65,4.65,0,0,0,1.06-3.41,4.6,4.6,0,0,0-1.06-3.36c-.67-.67-1.51-.88-3.36-.88h-1.59v8.53Z" fill="#fff"/><path d="M237,479.43H233v-4.5H237Z" fill="#fff"/></g></g></svg>