<svg xmlns="http://www.w3.org/2000/svg" viewBox="0 0 300 600"><title>txt4</title><g id="Layer_2" data-name="Layer 2"><g id="Rect"><rect width="300" height="600" fill="none"/></g><g id="your_door." data-name="your door."><path d="M80.78,495H76.66v-10.4l-6-16.28h4.56l3.56,11.28,3.68-11.28h4.48l-6.16,16.28Z" fill="#fff"/><path d="M103.86,486.51c0,3-.44,4.8-1.52,6.32a7.76,7.76,0,0,1-11.52,0c-1.08-1.52-1.52-3.32-1.52-6.32v-9.72c0-3,.44-4.8,1.52-6.32a7.76,7.76,0,0,1,11.52,0c1.08,1.52,1.52,3.32,1.52,6.32Zm-10.44-.08c0,2.12.12,2.84.52,3.64a3.14,3.14,0,0,0,5.28,0c.44-.84.52-1.48.52-3.64v-9.56c0-2.16-.08-2.8-.52-3.64a3.14,3.14,0,0,0-5.28,0c-.4.8-.52,1.52-.52,3.64Z" fill="#fff"/><path d="M122.18,468.31v18.08c0,3.36-.4,5.08-1.52,6.6a7.59,7.59,0,0,1-11.08,0c-1.12-1.52-1.52-3.24-1.52-6.6V468.31h4.12v18.76c0,3.16.84,4.44,3,4.44s2.92-1.28,2.92-4.44V468.31Z" fill="#fff"/><path d="M130.74,495h-4.12V468.31h6.44c2.44,0,4,.48,5.28,1.6a7.52,7.52,0,0,1,2.39,6c0,3.36-1.19,5.68-3.59,6.92L141.05,495h-4.31l-3.52-11h-2.48Zm1.52-14.76c1.76,0,2.56-.2,3.2-.84a5.68,5.68,0,0,0,0-6.44c-.64-.64-1.44-.84-3.2-.84h-1.52v8.12Z" fill="#fff"/><path d="M151.1,468.31h6.52c5.24,0,7.71,2.68,7.71,8.36v10c0,5.68-2.47,8.36-7.71,8.36H151.1Zm6.16,22.88c2.92,0,4-1.52,4-5.68v-7.72c0-4.2-1-5.68-4-5.68h-2v19.08Z" fill="#fff"/><path d="M183.77,486.51c0,3-.44,4.8-1.52,6.32a7.75,7.75,0,0,1-11.51,0c-1.08-1.52-1.52-3.32-1.52-6.32v-9.72c0-3,.44-4.8,1.52-6.32a7.75,7.75,0,0,1,11.51,0c1.08,1.52,1.52,3.32,1.52,6.32Zm-10.43-.08c0,2.12.12,2.84.52,3.64a3.13,3.13,0,0,0,5.27,0c.45-.84.53-1.48.53-3.64v-9.56c0-2.16-.08-2.8-.53-3.64a3.13,3.13,0,0,0-5.27,0c-.4.8-.52,1.52-.52,3.64Z" fill="#fff"/><path d="M202.25,486.51c0,3-.44,4.8-1.51,6.32a7.76,7.76,0,0,1-11.52,0c-1.08-1.52-1.52-3.32-1.52-6.32v-9.72c0-3,.44-4.8,1.52-6.32a7.76,7.76,0,0,1,11.52,0c1.07,1.52,1.51,3.32,1.51,6.32Zm-10.43-.08c0,2.12.12,2.84.52,3.64a3.14,3.14,0,0,0,5.28,0c.44-.84.52-1.48.52-3.64v-9.56c0-2.16-.08-2.8-.52-3.64a3.14,3.14,0,0,0-5.28,0c-.4.8-.52,1.52-.52,3.64Z" fill="#fff"/><path d="M210.58,495h-4.12V468.31h6.44c2.43,0,4,.48,5.27,1.6a7.52,7.52,0,0,1,2.4,6c0,3.36-1.2,5.68-3.6,6.92L220.89,495h-4.31l-3.52-11h-2.48Zm1.52-14.76c1.76,0,2.56-.2,3.19-.84a5.68,5.68,0,0,0,0-6.44c-.63-.64-1.43-.84-3.19-.84h-1.52v8.12Z" fill="#fff"/><path d="M228.18,495H224.3v-4.28h3.88Z" fill="#fff"/></g></g></svg>