<svg xmlns="http://www.w3.org/2000/svg" viewBox="0 0 300 600"><title>txt5</title><g id="Layer_2" data-name="Layer 2"><g id="Rect"><rect width="300" height="600" fill="none"/></g><g id="your_anything." data-name="your anything."><path d="M48.44,495H44.32v-10.4l-6-16.28h4.56l3.56,11.28,3.68-11.28H54.6l-6.16,16.28Z" fill="#fff"/><path d="M71.52,486.51c0,3-.44,4.8-1.52,6.32a6.71,6.71,0,0,1-5.76,2.56,6.71,6.71,0,0,1-5.76-2.56c-1.08-1.52-1.52-3.32-1.52-6.32v-9.72c0-3,.44-4.8,1.52-6.32a6.71,6.71,0,0,1,5.76-2.56A6.71,6.71,0,0,1,70,470.47c1.08,1.52,1.52,3.32,1.52,6.32Zm-10.44-.08c0,2.12.12,2.84.52,3.64a3.14,3.14,0,0,0,5.28,0c.44-.84.52-1.48.52-3.64v-9.56c0-2.16-.08-2.8-.52-3.64a3.14,3.14,0,0,0-5.28,0c-.4.8-.52,1.52-.52,3.64Z" fill="#fff"/><path d="M89.84,468.31v18.08c0,3.36-.4,5.08-1.52,6.6a6.61,6.61,0,0,1-5.52,2.4,6.64,6.64,0,0,1-5.56-2.4c-1.12-1.52-1.52-3.24-1.52-6.6V468.31h4.12v18.76c0,3.16.84,4.44,3,4.44s2.92-1.28,2.92-4.44V468.31Z" fill="#fff"/><path d="M98.4,495H94.28V468.31h6.44c2.44,0,4,.48,5.28,1.6a7.52,7.52,0,0,1,2.4,6c0,3.36-1.2,5.68-3.6,6.92L108.72,495H104.4l-3.52-11H98.4Zm1.52-14.76c1.76,0,2.56-.2,3.2-.84a5.68,5.68,0,0,0,0-6.44c-.64-.64-1.44-.84-3.2-.84H98.4v8.12Z" fill="#fff"/><path d="M122.92,489.19l-1.08,5.8h-4l5.12-26.68h5.64L134,495h-4.24l-1.12-5.8Zm2.8-15.76-2.16,12h4.36Z" fill="#fff"/><path d="M152,495h-3.68l-7.2-17.76V495H137.2V468.31h4.16l6.72,16.6v-16.6H152Z" fill="#fff"/><path d="M165.56,495h-4.12v-10.4l-6-16.28H160l3.56,11.28,3.68-11.28h4.47l-6.15,16.28Z" fill="#fff"/><path d="M183.6,495h-4.12V472.11h-5.16v-3.8h14.47v3.8H183.6Z" fill="#fff"/><path d="M196.2,483.23V495h-4.12V468.31h4.12v11.12h5.88V468.31h4.11V495h-4.11V483.23Z" fill="#fff"/><path d="M214.76,495h-4.12V468.31h4.12Z" fill="#fff"/><path d="M234,495h-3.68l-7.19-17.76V495h-3.92V468.31h4.16l6.71,16.6v-16.6H234Z" fill="#fff"/><path d="M252.75,481.75V495h-2.12l-.76-2.28a5.59,5.59,0,0,1-5,2.68,6,6,0,0,1-5.51-3.12c-.88-1.72-1.16-3.44-1.16-7.12v-7.36c0-4.24.32-5.76,1.55-7.4a6.75,6.75,0,0,1,5.64-2.48,6.59,6.59,0,0,1,6.28,3.56,11.77,11.77,0,0,1,1,5.52h-4.12c0-3.68-.92-5.2-3.16-5.2a2.61,2.61,0,0,0-2.44,1.36c-.48.88-.6,1.68-.6,3.84v8.16a14.1,14.1,0,0,0,.44,4.36,2.88,2.88,0,0,0,2.8,2c2.16,0,3.08-1.56,3.08-5.28v-1.08h-3.4v-3.4Z" fill="#fff"/><path d="M260.51,495h-3.88v-4.28h3.88Z" fill="#fff"/></g></g></svg>