<svg xmlns="http://www.w3.org/2000/svg" viewBox="0 0 300 600"><title>txt6</title><g id="Layer_2" data-name="Layer 2"><g id="SUPERIOR_STAIN_FOR_ALL_INTERIOR_PROJECTS." data-name="SUPERIOR STAIN FOR ALL INTERIOR PROJECTS."><path d="M92.71,364.07c-.69-2.83-2-4.24-3.77-4.24a2.82,2.82,0,0,0-2.86,2.91,4.32,4.32,0,0,0,1.2,2.87c.72.81.72.81,3.76,3.12a23.65,23.65,0,0,1,4.23,3.85,8.29,8.29,0,0,1,1.84,5.21c0,4.33-3.16,7.28-7.82,7.28-4.88,0-7.75-2.61-8.64-8l4.23-1.24c.56,3.42,2.05,5.13,4.41,5.13a3.1,3.1,0,0,0,3.25-3.25c0-1.8-.9-2.95-4.24-5.56-4-3.13-4.15-3.3-5.22-4.66a7.8,7.8,0,0,1-1.58-4.75c0-4.11,3.08-7,7.44-7,4.07,0,6.8,2.44,8,7.15Z" fill="#fff"/><path d="M115.72,356.11v19.33c0,3.6-.43,5.44-1.63,7.06a8.11,8.11,0,0,1-11.85,0c-1.19-1.62-1.62-3.46-1.62-7.06V356.11H105v20.06c0,3.38.9,4.75,3.17,4.75s3.12-1.37,3.12-4.75V356.11Z" fill="#fff"/><path d="M124.87,384.64h-4.41V356.11h7.32c2.86,0,4.66.56,6,1.84,1.53,1.45,2.26,3.59,2.26,6.63s-.73,5.22-2.26,6.67c-1.33,1.28-3.13,1.84-6,1.84h-2.91ZM126.79,369c3.55,0,4.67-1.07,4.67-4.45s-1.12-4.41-4.67-4.41h-1.92V369Z" fill="#fff"/><path d="M152.75,360.17h-8.51v7.53h6.29v4.06h-6.29v8.82h8.51v4.06H139.84V356.11h12.91Z" fill="#fff"/><path d="M160.62,384.64h-4.4V356.11h6.88c2.61,0,4.28.51,5.65,1.71a8.06,8.06,0,0,1,2.57,6.46c0,3.59-1.29,6.07-3.85,7.4l4.19,13H167l-3.77-11.72h-2.65Zm1.63-15.78c1.88,0,2.74-.22,3.42-.9a4.73,4.73,0,0,0,1.07-3.47,4.68,4.68,0,0,0-1.07-3.42c-.68-.68-1.54-.9-3.42-.9h-1.63v8.69Z" fill="#fff"/><path d="M180,384.64h-4.41V356.11H180Z" fill="#fff"/><path d="M200.05,375.57c0,3.21-.47,5.13-1.62,6.76-1.28,1.8-3.42,2.74-6.16,2.74s-4.88-.94-6.16-2.74c-1.15-1.63-1.62-3.55-1.62-6.76V365.18c0-3.21.47-5.13,1.62-6.76,1.28-1.8,3.42-2.74,6.16-2.74s4.88.94,6.16,2.74c1.15,1.63,1.62,3.55,1.62,6.76Zm-11.16-.08c0,2.26.13,3,.56,3.89a3.35,3.35,0,0,0,5.64,0c.47-.9.56-1.59.56-3.89V365.26c0-2.31-.09-3-.56-3.89a3.35,3.35,0,0,0-5.64,0c-.43.86-.56,1.63-.56,3.89Z" fill="#fff"/><path d="M209,384.64h-4.41V356.11h6.89c2.61,0,4.28.51,5.65,1.71,1.71,1.46,2.56,3.64,2.56,6.46,0,3.59-1.28,6.07-3.85,7.4l4.19,13h-4.61l-3.77-11.72H209Zm1.63-15.78c1.88,0,2.73-.22,3.42-.9a4.78,4.78,0,0,0,1.07-3.47,4.72,4.72,0,0,0-1.07-3.42c-.69-.68-1.54-.9-3.42-.9H209v8.69Z" fill="#fff"/><path d="M90.27,405c-.68-2.82-2-4.23-3.76-4.23a2.82,2.82,0,0,0-2.87,2.91,4.27,4.27,0,0,0,1.2,2.86c.72.81.72.81,3.76,3.12a24.23,24.23,0,0,1,4.24,3.85,8.37,8.37,0,0,1,1.83,5.22c0,4.32-3.16,7.27-7.82,7.27-4.88,0-7.74-2.61-8.64-8l4.23-1.24c.56,3.42,2.06,5.13,4.41,5.13a3.1,3.1,0,0,0,3.25-3.25c0-1.79-.9-2.95-4.24-5.56-4-3.12-4.14-3.29-5.21-4.66a7.72,7.72,0,0,1-1.59-4.75c0-4.1,3.08-7,7.45-7,4.06,0,6.8,2.44,8,7.14Z" fill="#fff"/><path d="M107,425.53h-4.4V401.07H97.07V397h15.48v4.06H107Z" fill="#fff"/><path d="M118.71,419.33l-1.15,6.2h-4.32L118.71,397h6l5.78,28.52H126l-1.2-6.2Zm3-16.85-2.3,12.79h4.66Z" fill="#fff"/><path d="M138.38,425.53H134V397h4.4Z" fill="#fff"/><path d="M159,425.53h-3.94l-7.7-19v19h-4.19V397h4.45l7.19,17.75V397H159Z" fill="#fff"/><path d="M175.12,425.53h-4.4V397h13v4.06h-8.64v7.7h6.42v4.06h-6.42Z" fill="#fff"/><path d="M202.49,416.47c0,3.2-.47,5.13-1.62,6.75-1.29,1.8-3.42,2.74-6.16,2.74s-4.88-.94-6.16-2.74c-1.15-1.62-1.63-3.55-1.63-6.75v-10.4c0-3.2.48-5.13,1.63-6.75,1.28-1.8,3.42-2.74,6.16-2.74s4.87.94,6.16,2.74c1.15,1.62,1.62,3.55,1.62,6.75Zm-11.16-.09c0,2.27.13,3,.56,3.89a3.35,3.35,0,0,0,5.64,0c.47-.89.56-1.58.56-3.89V406.16c0-2.31-.09-3-.56-3.89a3.35,3.35,0,0,0-5.64,0c-.43.85-.56,1.62-.56,3.89Z" fill="#fff"/><path d="M211.39,425.53H207V397h6.89c2.61,0,4.28.51,5.64,1.71,1.72,1.45,2.57,3.63,2.57,6.46,0,3.59-1.28,6.07-3.85,7.4l4.19,12.95H217.8L214,413.82h-2.65ZM213,409.75c1.89,0,2.74-.21,3.43-.9a6.11,6.11,0,0,0,0-6.88c-.69-.69-1.54-.9-3.43-.9h-1.62v8.68Z" fill="#fff"/><path d="M58.71,461.47l-1.15,6.2H53.24l5.47-28.53h6l5.78,28.53H66l-1.19-6.2Zm3-16.85L59.4,457.41h4.66Z" fill="#fff"/><path d="M78.39,463.61h8.76v4.06H74V439.14h4.41Z" fill="#fff"/><path d="M94.72,463.61h8.77v4.06H90.32V439.14h4.4Z" fill="#fff"/><path d="M118.35,467.67h-4.62V437.75h4.62Z" fill="#fff"/><path d="M140,467.67h-4.13l-8.08-19.92v19.92h-4.39V437.75H128l7.54,18.62V437.75H140Z" fill="#fff"/><path d="M154.06,467.67h-4.62V442h-5.79v-4.26h16.24V442h-5.83Z" fill="#fff"/><path d="M177.12,442h-8.93v7.9h6.6v4.26h-6.6v9.24h8.93v4.26H163.57V437.75h13.55Z" fill="#fff"/><path d="M185.37,467.67h-4.62V437.75H188c2.74,0,4.49.54,5.92,1.79,1.8,1.53,2.7,3.82,2.7,6.78,0,3.77-1.35,6.37-4,7.76l4.4,13.59H192.1l-3.95-12.29h-2.78Zm1.71-16.55c2,0,2.87-.23,3.59-.94a5,5,0,0,0,1.12-3.64,5,5,0,0,0-1.12-3.59c-.72-.71-1.62-.94-3.59-.94h-1.71v9.11Z" fill="#fff"/><path d="M205.69,467.67h-4.62V437.75h4.62Z" fill="#fff"/><path d="M226.73,458.16c0,3.37-.49,5.39-1.7,7.09-1.35,1.88-3.59,2.87-6.46,2.87s-5.12-1-6.46-2.87c-1.21-1.7-1.71-3.72-1.71-7.09v-10.9c0-3.36.5-5.38,1.71-7.09,1.34-1.88,3.59-2.87,6.46-2.87s5.11,1,6.46,2.87c1.21,1.71,1.7,3.73,1.7,7.09ZM215,458.07c0,2.38.14,3.19.59,4.09a3.53,3.53,0,0,0,5.92,0c.49-1,.58-1.66.58-4.09V447.35c0-2.42-.09-3.14-.58-4.08a3.51,3.51,0,0,0-5.92,0c-.45.9-.59,1.7-.59,4.08Z" fill="#fff"/><path d="M236.06,467.67h-4.62V437.75h7.23c2.73,0,4.48.54,5.92,1.79,1.79,1.53,2.69,3.82,2.69,6.78,0,3.77-1.35,6.37-4,7.76l4.4,13.59h-4.85l-3.95-12.29h-2.78Zm1.71-16.55c2,0,2.87-.23,3.59-.94a5,5,0,0,0,1.12-3.64,5,5,0,0,0-1.12-3.59c-.72-.71-1.62-.94-3.59-.94h-1.71v9.11Z" fill="#fff"/><path d="M85.67,508.57h-4.4V480h7.31c2.87,0,4.66.56,6,1.84,1.54,1.45,2.27,3.59,2.27,6.63s-.73,5.22-2.27,6.67c-1.33,1.28-3.12,1.84-6,1.84H85.67ZM87.6,493c3.55,0,4.66-1.07,4.66-4.45s-1.11-4.41-4.66-4.41H85.67V493Z" fill="#fff"/><path d="M105.05,508.57h-4.41V480h6.89c2.61,0,4.27.51,5.64,1.71a8.06,8.06,0,0,1,2.57,6.46c0,3.59-1.28,6.07-3.85,7.4l4.19,13h-4.62l-3.76-11.72h-2.65Zm1.62-15.78c1.88,0,2.74-.22,3.42-.9a4.73,4.73,0,0,0,1.07-3.47,4.68,4.68,0,0,0-1.07-3.42c-.68-.68-1.54-.9-3.42-.9h-1.62v8.69Z" fill="#fff"/><path d="M135.28,499.5c0,3.21-.47,5.13-1.62,6.76a8.29,8.29,0,0,1-12.32,0c-1.15-1.63-1.62-3.55-1.62-6.76V489.11c0-3.21.47-5.13,1.62-6.76,1.28-1.8,3.42-2.74,6.16-2.74s4.88.94,6.16,2.74c1.15,1.63,1.62,3.55,1.62,6.76Zm-11.16-.08c0,2.26.13,3,.56,3.89a3.35,3.35,0,0,0,5.64,0c.47-.9.56-1.59.56-3.89V489.19c0-2.31-.09-3-.56-3.89a3.35,3.35,0,0,0-5.64,0c-.43.86-.56,1.63-.56,3.89Z" fill="#fff"/><path d="M146.83,480V501.6c0,3-.3,4.23-1.24,5.39s-2.27,1.58-4.45,1.58h-2.65v-4.15h1c2.14,0,2.91-.81,2.91-3.17V480Z" fill="#fff"/><path d="M164.54,484.1H156v7.53h6.28v4.06H156v8.81h8.51v4.07H151.62V480h12.92Z" fill="#fff"/><path d="M179,489.32v-.6c0-3.29-1.16-5-3.34-5a2.8,2.8,0,0,0-2.61,1.41c-.55.94-.68,1.8-.68,4.11v9.49a12.28,12.28,0,0,0,.47,4.24,3,3,0,0,0,2.82,1.84c1.63,0,2.7-.94,3.17-2.83a16.47,16.47,0,0,0,.26-3.46h4.44v1c0,6.21-2.69,9.46-7.82,9.46-2.87,0-5.14-1.12-6.38-3.17-1.07-1.75-1.36-3.42-1.36-7.66v-8c0-4.54.34-6.12,1.66-7.92a7.15,7.15,0,0,1,6-2.65c4.88,0,7.75,3.25,7.75,8.86v.85Z" fill="#fff"/><path d="M196.23,508.57h-4.41V484.1h-5.51V480h15.48v4.06h-5.56Z" fill="#fff"/><path d="M216.07,488c-.68-2.83-2-4.24-3.76-4.24a2.82,2.82,0,0,0-2.87,2.91,4.32,4.32,0,0,0,1.2,2.87c.73.81.73.81,3.76,3.12a23.45,23.45,0,0,1,4.24,3.85,8.35,8.35,0,0,1,1.84,5.21c0,4.32-3.17,7.28-7.83,7.28-4.88,0-7.74-2.61-8.64-8l4.24-1.25c.55,3.43,2.05,5.14,4.4,5.14a3.1,3.1,0,0,0,3.25-3.25c0-1.8-.9-3-4.23-5.56-4-3.13-4.15-3.3-5.22-4.66a7.73,7.73,0,0,1-1.58-4.75c0-4.11,3.08-7,7.44-7,4.06,0,6.8,2.44,8,7.15Z" fill="#fff"/><path d="M228.05,508.57H223.9V504h4.15Z" fill="#fff"/><rect width="300" height="600" fill="none"/></g></g></svg>