<svg xmlns="http://www.w3.org/2000/svg" viewBox="0 0 300 600"><title>txt6</title><g id="Layer_2" data-name="Layer 2"><g id="SUPERIOR_STAIN_FOR_ALL_INTERIOR_PROJECTS." data-name="SUPERIOR  STAIN FOR ALL  INTERIOR PROJECTS."><path d="M89,377.07c-.69-2.83-2-4.24-3.77-4.24a2.82,2.82,0,0,0-2.86,2.91,4.32,4.32,0,0,0,1.2,2.87c.72.81.72.81,3.76,3.12a23.29,23.29,0,0,1,4.23,3.85,8.3,8.3,0,0,1,1.84,5.22c0,4.32-3.16,7.27-7.82,7.27-4.88,0-7.74-2.61-8.64-8l4.23-1.24c.56,3.42,2,5.13,4.41,5.13a3.1,3.1,0,0,0,3.25-3.25c0-1.8-.9-2.95-4.24-5.56-4-3.12-4.15-3.3-5.21-4.66a7.74,7.74,0,0,1-1.59-4.75c0-4.11,3.08-7,7.44-7,4.07,0,6.8,2.44,8,7.15Z" fill="#fff"/><path d="M112,369.11v19.33c0,3.6-.43,5.44-1.63,7.06a8.1,8.1,0,0,1-11.84,0c-1.2-1.62-1.63-3.46-1.63-7.06V369.11h4.41v20.06c0,3.38.89,4.75,3.16,4.75s3.12-1.37,3.12-4.75V369.11Z" fill="#fff"/><path d="M121.17,397.64h-4.41V369.11h7.32c2.86,0,4.66.56,6,1.84,1.54,1.46,2.26,3.59,2.26,6.63s-.72,5.22-2.26,6.67c-1.33,1.29-3.13,1.84-6,1.84h-2.91ZM123.09,382c3.55,0,4.67-1.07,4.67-4.45s-1.12-4.41-4.67-4.41h-1.92V382Z" fill="#fff"/><path d="M149.06,373.17h-8.52v7.53h6.29v4.07h-6.29v8.81h8.52v4.06H136.14V369.11h12.92Z" fill="#fff"/><path d="M156.92,397.64h-4.4V369.11h6.89c2.6,0,4.27.52,5.64,1.71a8.06,8.06,0,0,1,2.57,6.46c0,3.59-1.29,6.07-3.85,7.4l4.19,13h-4.62l-3.76-11.72h-2.66Zm1.63-15.78c1.88,0,2.74-.22,3.42-.9a6.08,6.08,0,0,0,0-6.89c-.68-.68-1.54-.9-3.42-.9h-1.63v8.69Z" fill="#fff"/><path d="M176.3,397.64h-4.41V369.11h4.41Z" fill="#fff"/><path d="M196.36,388.57c0,3.21-.47,5.14-1.63,6.76-1.28,1.8-3.42,2.74-6.16,2.74s-4.87-.94-6.16-2.74c-1.15-1.62-1.62-3.55-1.62-6.76V378.18c0-3.21.47-5.13,1.62-6.76a8.29,8.29,0,0,1,12.32,0c1.16,1.63,1.63,3.55,1.63,6.76Zm-11.17-.08c0,2.26.13,3,.56,3.89a3.36,3.36,0,0,0,5.65,0c.47-.9.55-1.58.55-3.89V378.26c0-2.3-.08-3-.55-3.89a3.36,3.36,0,0,0-5.65,0c-.43.86-.56,1.63-.56,3.89Z" fill="#fff"/><path d="M205.25,397.64h-4.4V369.11h6.88c2.61,0,4.28.52,5.65,1.71,1.71,1.46,2.56,3.64,2.56,6.46,0,3.59-1.28,6.07-3.85,7.4l4.2,13h-4.62l-3.77-11.72h-2.65Zm1.63-15.78c1.88,0,2.73-.22,3.42-.9a6.08,6.08,0,0,0,0-6.89c-.69-.68-1.54-.9-3.42-.9h-1.63v8.69Z" fill="#fff"/><path d="M56.89,418c-.68-2.82-2-4.23-3.76-4.23a2.82,2.82,0,0,0-2.87,2.91,4.27,4.27,0,0,0,1.2,2.86c.73.81.73.81,3.76,3.12a24.23,24.23,0,0,1,4.24,3.85,8.37,8.37,0,0,1,1.83,5.22c0,4.32-3.16,7.27-7.82,7.27-4.88,0-7.74-2.61-8.64-8l4.23-1.24c.56,3.42,2.06,5.13,4.41,5.13a3.1,3.1,0,0,0,3.25-3.25c0-1.79-.9-2.95-4.24-5.56-4-3.12-4.14-3.29-5.21-4.66a7.72,7.72,0,0,1-1.59-4.75c0-4.1,3.08-7,7.45-7,4.06,0,6.8,2.44,8,7.14Z" fill="#fff"/><path d="M73.61,438.53h-4.4V414.07H63.69V410H79.17v4.06H73.61Z" fill="#fff"/><path d="M85.33,432.33l-1.15,6.2H79.86L85.33,410h6l5.78,28.52H92.6l-1.2-6.2Zm3-16.85L86,428.27h4.66Z" fill="#fff"/><path d="M105,438.53h-4.4V410H105Z" fill="#fff"/><path d="M125.62,438.53h-3.94l-7.7-19v19h-4.19V410h4.45l7.19,17.75V410h4.19Z" fill="#fff"/><path d="M141.74,438.53h-4.4V410h13v4.06h-8.64v7.7h6.42v4.06h-6.42Z" fill="#fff"/><path d="M169.11,429.47c0,3.2-.47,5.13-1.62,6.75-1.28,1.8-3.42,2.74-6.16,2.74s-4.88-.94-6.16-2.74c-1.15-1.62-1.63-3.55-1.63-6.75v-10.4c0-3.2.48-5.13,1.63-6.75,1.28-1.8,3.42-2.74,6.16-2.74s4.88.94,6.16,2.74c1.15,1.62,1.62,3.55,1.62,6.75ZM158,429.38c0,2.27.13,3,.56,3.89a3.35,3.35,0,0,0,5.64,0c.47-.89.56-1.58.56-3.89V419.16c0-2.31-.09-3-.56-3.89a3.35,3.35,0,0,0-5.64,0c-.43.85-.56,1.62-.56,3.89Z" fill="#fff"/><path d="M178,438.53H173.6V410h6.89c2.61,0,4.28.51,5.64,1.71,1.72,1.45,2.57,3.63,2.57,6.46,0,3.59-1.28,6.07-3.85,7.4L189,438.53h-4.62l-3.76-11.71H178Zm1.62-15.78c1.89,0,2.74-.21,3.43-.9a6.06,6.06,0,0,0,0-6.88c-.69-.69-1.54-.9-3.43-.9H178v8.68Z" fill="#fff"/><path d="M204.23,432.33l-1.16,6.2h-4.32L204.23,410h6L216,438.53H211.5l-1.2-6.2Zm3-16.85-2.31,12.79h4.66Z" fill="#fff"/><path d="M223.9,434.47h8.77v4.06H219.49V410h4.41Z" fill="#fff"/><path d="M240.24,434.47H249v4.06H235.83V410h4.41Z" fill="#fff"/><path d="M9.29,480.67H4.67V450.75H9.29Z" fill="#fff"/><path d="M30.91,480.67H26.78l-8.07-19.91v19.91h-4.4V450.75H19l7.53,18.62V450.75h4.4Z" fill="#fff"/><path d="M45,480.67H40.37V455H34.59v-4.26H50.83V455H45Z" fill="#fff"/><path d="M68.05,455H59.13v7.9h6.59v4.26H59.13v9.24h8.92v4.26H54.5V450.75H68.05Z" fill="#fff"/><path d="M76.31,480.67H71.69V450.75h7.22c2.73,0,4.48.54,5.92,1.8,1.79,1.52,2.69,3.81,2.69,6.77,0,3.77-1.35,6.37-4,7.76l4.4,13.59H83l-3.94-12.29H76.31ZM78,464.12c2,0,2.87-.22,3.59-.94a5,5,0,0,0,1.12-3.64A4.91,4.91,0,0,0,81.6,456C80.88,455.24,80,455,78,455h-1.7v9.11Z" fill="#fff"/><path d="M96.63,480.67H92V450.75h4.62Z" fill="#fff"/><path d="M117.67,471.16c0,3.37-.5,5.39-1.71,7.09-1.34,1.89-3.59,2.87-6.46,2.87s-5.11-1-6.46-2.87c-1.21-1.7-1.7-3.72-1.7-7.09v-10.9c0-3.36.49-5.38,1.7-7.09,1.35-1.88,3.59-2.87,6.46-2.87s5.12,1,6.46,2.87c1.21,1.71,1.71,3.73,1.71,7.09ZM106,471.07c0,2.38.13,3.19.58,4.09a3.53,3.53,0,0,0,5.92,0c.5-1,.58-1.66.58-4.09V460.35c0-2.42-.08-3.14-.58-4.08a3.51,3.51,0,0,0-5.92,0c-.45.9-.58,1.7-.58,4.08Z" fill="#fff"/><path d="M127,480.67h-4.62V450.75h7.22c2.73,0,4.48.54,5.92,1.8,1.79,1.52,2.69,3.81,2.69,6.77,0,3.77-1.35,6.37-4,7.76l4.4,13.59h-4.85l-3.94-12.29H127Zm1.7-16.55c2,0,2.87-.22,3.59-.94a5,5,0,0,0,1.12-3.64,4.91,4.91,0,0,0-1.12-3.58c-.72-.72-1.62-.95-3.59-.95H127v9.11Z" fill="#fff"/><path d="M154.13,480.67h-4.41V452.15H157c2.86,0,4.66.55,6,1.84,1.54,1.45,2.27,3.59,2.27,6.62s-.73,5.22-2.27,6.68c-1.32,1.28-3.12,1.84-6,1.84h-2.91Zm1.92-15.61c3.55,0,4.66-1.07,4.66-4.45s-1.11-4.4-4.66-4.4h-1.92v8.85Z" fill="#fff"/><path d="M173.5,480.67h-4.4V452.15H176c2.61,0,4.28.51,5.65,1.71,1.71,1.45,2.56,3.63,2.56,6.46,0,3.59-1.28,6.07-3.85,7.39l4.2,13h-4.62L176.15,469H173.5Zm1.63-15.78c1.88,0,2.73-.21,3.42-.9a6.06,6.06,0,0,0,0-6.88c-.69-.69-1.54-.9-3.42-.9H173.5v8.68Z" fill="#fff"/><path d="M203.74,471.61c0,3.2-.47,5.13-1.63,6.75-1.28,1.8-3.42,2.74-6.16,2.74a7.19,7.19,0,0,1-6.16-2.74c-1.15-1.62-1.62-3.55-1.62-6.75v-10.4c0-3.2.47-5.13,1.62-6.75a7.19,7.19,0,0,1,6.16-2.74c2.74,0,4.88.94,6.16,2.74,1.16,1.62,1.63,3.55,1.63,6.75Zm-11.16-.09c0,2.27.12,3,.55,3.89a3.36,3.36,0,0,0,5.65,0c.47-.9.55-1.58.55-3.89V461.3c0-2.31-.08-3-.55-3.89a3.36,3.36,0,0,0-5.65,0c-.43.85-.55,1.62-.55,3.89Z" fill="#fff"/><path d="M215.29,452.15V473.7c0,3-.3,4.24-1.24,5.39s-2.27,1.58-4.45,1.58H207v-4.14h1c2.14,0,2.91-.82,2.91-3.17V452.15Z" fill="#fff"/><path d="M233,456.21h-8.51v7.53h6.29v4.06h-6.29v8.81H233v4.06H220.08V452.15H233Z" fill="#fff"/><path d="M247.4,461.43v-.6c0-3.29-1.15-5-3.33-5a2.78,2.78,0,0,0-2.61,1.41c-.56.94-.69,1.8-.69,4.1v9.5a11.94,11.94,0,0,0,.48,4.23,3,3,0,0,0,2.82,1.84c1.62,0,2.69-.94,3.16-2.82a15.92,15.92,0,0,0,.26-3.46h4.45v1c0,6.2-2.7,9.45-7.83,9.45-2.86,0-5.13-1.11-6.37-3.16-1.07-1.76-1.37-3.43-1.37-7.66v-8c0-4.53.34-6.11,1.67-7.91a7.15,7.15,0,0,1,6-2.65c4.87,0,7.74,3.25,7.74,8.85v.86Z" fill="#fff"/><path d="M264.68,480.67h-4.4V456.21h-5.52v-4.06h15.48v4.06h-5.56Z" fill="#fff"/><path d="M284.53,460.1c-.69-2.82-2-4.23-3.77-4.23a2.82,2.82,0,0,0-2.86,2.91,4.26,4.26,0,0,0,1.19,2.86c.73.81.73.81,3.77,3.12a24.44,24.44,0,0,1,4.23,3.85,8.32,8.32,0,0,1,1.84,5.22c0,4.32-3.16,7.27-7.83,7.27-4.87,0-7.74-2.61-8.64-8l4.24-1.24c.55,3.42,2.05,5.13,4.4,5.13a3.09,3.09,0,0,0,3.25-3.25c0-1.79-.89-2.95-4.23-5.56-4-3.12-4.15-3.29-5.22-4.66a7.77,7.77,0,0,1-1.58-4.75c0-4.1,3.08-7,7.44-7,4.07,0,6.8,2.44,8,7.14Z" fill="#fff"/><path d="M296.5,480.67h-4.15V476.1h4.15Z" fill="#fff"/><rect width="300" height="600" fill="none"/></g></g></svg>