<svg xmlns="http://www.w3.org/2000/svg" viewBox="0 0 300 600"><title>txt6</title><g id="Layer_2" data-name="Layer 2"><g id="Rect_copy" data-name="Rect copy"><rect width="300" height="600" fill="none"/></g><g id="SUPERIOR_STAIN_FOR_ALL_PROJECTS." data-name="SUPERIOR STAIN FOR ALL PROJECTS."><path d="M92.49,377.07c-.68-2.83-2-4.24-3.76-4.24a2.83,2.83,0,0,0-2.87,2.91,4.32,4.32,0,0,0,1.2,2.87c.73.81.73.81,3.77,3.12a23.65,23.65,0,0,1,4.23,3.85,8.3,8.3,0,0,1,1.84,5.22c0,4.32-3.17,7.27-7.83,7.27-4.87,0-7.74-2.61-8.64-8l4.24-1.24c.55,3.42,2,5.13,4.4,5.13a3.1,3.1,0,0,0,3.25-3.25c0-1.8-.9-2.95-4.23-5.56-4-3.12-4.15-3.3-5.22-4.66a7.73,7.73,0,0,1-1.58-4.75c0-4.11,3.08-7,7.44-7,4.06,0,6.8,2.44,8,7.15Z" fill="#fff"/><path d="M115.5,369.11v19.33c0,3.6-.42,5.44-1.62,7.06a8.11,8.11,0,0,1-11.85,0c-1.2-1.62-1.62-3.46-1.62-7.06V369.11h4.4v20.06c0,3.38.9,4.75,3.17,4.75s3.12-1.37,3.12-4.75V369.11Z" fill="#fff"/><path d="M124.66,397.64h-4.41V369.11h7.31c2.87,0,4.67.56,6,1.84,1.54,1.46,2.27,3.59,2.27,6.63s-.73,5.22-2.27,6.67c-1.32,1.29-3.12,1.84-6,1.84h-2.9ZM126.58,382c3.55,0,4.66-1.07,4.66-4.45s-1.11-4.41-4.66-4.41h-1.92V382Z" fill="#fff"/><path d="M152.54,373.17H144v7.53h6.29v4.07H144v8.81h8.51v4.06H139.62V369.11h12.92Z" fill="#fff"/><path d="M160.41,397.64H156V369.11h6.89c2.61,0,4.28.51,5.65,1.71,1.71,1.46,2.56,3.64,2.56,6.46,0,3.59-1.28,6.07-3.85,7.4l4.19,13h-4.61l-3.77-11.72h-2.65ZM162,381.86c1.88,0,2.73-.22,3.42-.9a6.08,6.08,0,0,0,0-6.89c-.69-.68-1.54-.9-3.42-.9h-1.63v8.69Z" fill="#fff"/><path d="M179.78,397.64h-4.4V369.11h4.4Z" fill="#fff"/><path d="M199.84,388.57c0,3.21-.47,5.14-1.62,6.76-1.29,1.8-3.42,2.74-6.16,2.74s-4.88-.94-6.16-2.74c-1.15-1.62-1.63-3.55-1.63-6.76V378.18c0-3.21.48-5.13,1.63-6.76,1.28-1.8,3.42-2.74,6.16-2.74s4.87.94,6.16,2.74c1.15,1.63,1.62,3.55,1.62,6.76Zm-11.16-.08c0,2.26.13,3,.56,3.89a3.35,3.35,0,0,0,5.64,0c.47-.9.56-1.58.56-3.89V378.26c0-2.3-.09-3-.56-3.89a3.35,3.35,0,0,0-5.64,0c-.43.86-.56,1.63-.56,3.89Z" fill="#fff"/><path d="M208.74,397.64h-4.41V369.11h6.89c2.61,0,4.28.51,5.64,1.71,1.72,1.46,2.57,3.64,2.57,6.46,0,3.59-1.28,6.07-3.85,7.4l4.19,13h-4.62l-3.76-11.72h-2.65Zm1.62-15.78c1.89,0,2.74-.22,3.43-.9a6.13,6.13,0,0,0,0-6.89c-.69-.68-1.54-.9-3.43-.9h-1.62v8.69Z" fill="#fff"/><path d="M60.38,418c-.69-2.82-2-4.23-3.77-4.23a2.82,2.82,0,0,0-2.86,2.91,4.26,4.26,0,0,0,1.19,2.86c.73.81.73.81,3.77,3.12a24.44,24.44,0,0,1,4.23,3.85,8.32,8.32,0,0,1,1.84,5.22C64.78,436,61.62,439,57,439c-4.87,0-7.74-2.61-8.64-8l4.24-1.24c.55,3.42,2.05,5.13,4.4,5.13a3.09,3.09,0,0,0,3.25-3.25c0-1.79-.89-2.95-4.23-5.56-4-3.12-4.15-3.29-5.22-4.66a7.77,7.77,0,0,1-1.58-4.75c0-4.1,3.08-7,7.44-7,4.06,0,6.8,2.44,8,7.14Z" fill="#fff"/><path d="M77.1,438.53H72.69V414.07H67.17V410H82.66v4.06H77.1Z" fill="#fff"/><path d="M88.82,432.33l-1.16,6.2H83.34L88.82,410h6l5.77,28.52H96.09l-1.2-6.2Zm3-16.85L89.5,428.27h4.66Z" fill="#fff"/><path d="M108.49,438.53h-4.41V410h4.41Z" fill="#fff"/><path d="M129.1,438.53h-3.93l-7.7-19v19h-4.19V410h4.45l7.18,17.75V410h4.19Z" fill="#fff"/><path d="M145.23,438.53h-4.41V410h13.05v4.06h-8.64v7.7h6.41v4.06h-6.41Z" fill="#fff"/><path d="M172.6,429.47c0,3.2-.47,5.13-1.63,6.75-1.28,1.8-3.42,2.74-6.16,2.74s-4.87-.94-6.15-2.74c-1.16-1.62-1.63-3.55-1.63-6.75v-10.4c0-3.2.47-5.13,1.63-6.75,1.28-1.8,3.42-2.74,6.15-2.74s4.88.94,6.16,2.74c1.16,1.62,1.63,3.55,1.63,6.75Zm-11.16-.09c0,2.27.12,3,.55,3.89a3.36,3.36,0,0,0,5.65,0c.47-.89.55-1.58.55-3.89V419.16c0-2.31-.08-3-.55-3.89a3.36,3.36,0,0,0-5.65,0c-.43.85-.55,1.62-.55,3.89Z" fill="#fff"/><path d="M181.49,438.53h-4.4V410H184c2.61,0,4.28.51,5.65,1.71,1.71,1.45,2.57,3.63,2.57,6.46,0,3.59-1.29,6.07-3.85,7.4l4.19,12.95h-4.62l-3.76-11.71h-2.66Zm1.63-15.78c1.88,0,2.74-.21,3.42-.9a6.06,6.06,0,0,0,0-6.88c-.68-.69-1.54-.9-3.42-.9h-1.63v8.68Z" fill="#fff"/><path d="M207.71,432.33l-1.15,6.2h-4.32L207.71,410h6l5.78,28.52H215l-1.19-6.2Zm3-16.85-2.31,12.79h4.66Z" fill="#fff"/><path d="M227.38,434.47h8.77v4.06H223V410h4.4Z" fill="#fff"/><path d="M243.72,434.47h8.77v4.06H239.32V410h4.4Z" fill="#fff"/><path d="M81.55,479.43H77.14V450.9h7.32c2.86,0,4.66.56,6,1.84,1.54,1.46,2.27,3.59,2.27,6.63S92,464.59,90.44,466c-1.32,1.29-3.12,1.84-6,1.84H81.55Zm1.92-15.61c3.55,0,4.66-1.07,4.66-4.45S87,455,83.47,455H81.55v8.86Z" fill="#fff"/><path d="M100.92,479.43h-4.4V450.9h6.88c2.61,0,4.28.52,5.65,1.71,1.71,1.46,2.56,3.64,2.56,6.46,0,3.59-1.28,6.07-3.85,7.4l4.2,13h-4.62l-3.77-11.72h-2.65Zm1.63-15.78c1.88,0,2.73-.22,3.42-.9a6.08,6.08,0,0,0,0-6.89c-.69-.68-1.54-.9-3.42-.9h-1.63v8.69Z" fill="#fff"/><path d="M131.16,470.36c0,3.21-.47,5.14-1.63,6.76-1.28,1.8-3.42,2.74-6.16,2.74s-4.87-.94-6.15-2.74c-1.16-1.62-1.63-3.55-1.63-6.76V460c0-3.21.47-5.13,1.63-6.76a8.28,8.28,0,0,1,12.31,0c1.16,1.63,1.63,3.55,1.63,6.76ZM120,470.28c0,2.26.12,3,.55,3.89a3.36,3.36,0,0,0,5.65,0c.47-.9.55-1.58.55-3.89V460.05c0-2.3-.08-3-.55-3.89a3.36,3.36,0,0,0-5.65,0c-.43.86-.55,1.63-.55,3.89Z" fill="#fff"/><path d="M142.71,450.9v21.56c0,3-.3,4.23-1.25,5.39s-2.26,1.58-4.44,1.58h-2.65v-4.15h1c2.14,0,2.91-.81,2.91-3.16V450.9Z" fill="#fff"/><path d="M160.41,455H151.9v7.53h6.29v4.07H151.9v8.81h8.51v4.06H147.49V450.9h12.92Z" fill="#fff"/><path d="M174.82,460.18v-.6c0-3.29-1.15-5-3.33-5a2.8,2.8,0,0,0-2.61,1.41c-.56,1-.69,1.8-.69,4.11v9.5a11.94,11.94,0,0,0,.48,4.23,3,3,0,0,0,2.82,1.84c1.62,0,2.69-.94,3.16-2.82a16,16,0,0,0,.26-3.47h4.45v1c0,6.2-2.7,9.45-7.83,9.45-2.86,0-5.13-1.11-6.37-3.17-1.07-1.75-1.37-3.42-1.37-7.65v-8c0-4.54.34-6.12,1.67-7.91a7.16,7.16,0,0,1,6-2.66c4.87,0,7.74,3.25,7.74,8.86v.85Z" fill="#fff"/><path d="M192.1,479.43h-4.4V455h-5.52V450.9h15.48V455H192.1Z" fill="#fff"/><path d="M212,458.86c-.69-2.83-2-4.24-3.77-4.24a2.82,2.82,0,0,0-2.86,2.91,4.3,4.3,0,0,0,1.19,2.87c.73.81.73.81,3.77,3.12a23.65,23.65,0,0,1,4.23,3.85,8.3,8.3,0,0,1,1.84,5.22c0,4.32-3.16,7.27-7.83,7.27-4.87,0-7.74-2.61-8.64-8l4.24-1.24c.55,3.42,2,5.13,4.4,5.13a3.1,3.1,0,0,0,3.25-3.25c0-1.8-.89-2.95-4.23-5.56-4-3.12-4.15-3.3-5.22-4.66a7.73,7.73,0,0,1-1.58-4.75c0-4.11,3.08-7,7.44-7,4.06,0,6.8,2.44,8,7.15Z" fill="#fff"/><path d="M223.92,479.43h-4.15v-4.58h4.15Z" fill="#fff"/></g></g></svg>